<?xml version="1.0" encoding="utf-8"?>
<!-- Generator: Adobe Illustrator 22.0.1, SVG Export Plug-In . SVG Version: 6.00 Build 0)  -->
<svg version="1.1" id="Ebene_1" xmlns="http://www.w3.org/2000/svg" xmlns:xlink="http://www.w3.org/1999/xlink" x="0px" y="0px"
	 viewBox="0 0 1369.4 870" style="enable-background:new 0 0 1369.4 870;" xml:space="preserve">
<style type="text/css">
	.st0{fill:#CCCCCC;}
	.st1{fill:#4E789B;}
	.st2{fill:#F58219;}
</style>
<g>
	<g>
		<path class="st0" d="M782.9,52.9c-1.1-0.2-2-0.5-2.7-0.8v-3c2,0.4,3.7,0.6,4.9,0.6c1.7,0,3-0.4,3.8-1.1c0.9-0.8,1.3-2.1,1.3-4.1
			V16.2h4v28.8c0,3-0.7,5.1-2,6.4c-1.4,1.3-3.5,1.9-6.3,1.9C785,53.3,784,53.2,782.9,52.9z"/>
		<path class="st0" d="M802.3,51.5c-1.3-1.2-1.9-2.8-1.9-4.9v-1.9c0-2.2,0.7-3.9,2.1-5.2c1.4-1.3,3.5-1.9,6.2-1.9h9v-3.3
			c0-1.8-0.5-3.1-1.5-4c-1-0.9-2.8-1.3-5.4-1.3h-8.3v-2.3c3.1-0.5,6.4-0.8,9.8-0.8c3.2,0,5.6,0.7,7.1,2c1.5,1.3,2.3,3.4,2.3,6.3V53
			h-3.1l-0.8-3c-0.2,0.2-1,0.6-2.2,1.1c-1.2,0.6-2.6,1.1-4.2,1.5c-1.6,0.5-3,0.7-4.5,0.7C805.2,53.3,803.5,52.7,802.3,51.5z
			 M812.2,49.8c1.3-0.3,2.5-0.7,3.5-1.1c1-0.4,1.7-0.6,2.1-0.8v-8.4l-8.2,0.4c-1.8,0.1-3.2,0.5-4,1.4c-0.9,0.8-1.3,2-1.3,3.4v1.2
			c0,1.5,0.4,2.6,1.3,3.3c0.9,0.7,2,1.1,3.2,1.1C809.8,50.3,810.9,50.1,812.2,49.8z"/>
		<path class="st0" d="M826.4,26.3h4l8.3,23l8.6-23h4L840.9,53h-4.5L826.4,26.3z"/>
		<path class="st0" d="M855.3,51.5c-1.3-1.2-1.9-2.8-1.9-4.9v-1.9c0-2.2,0.7-3.9,2.1-5.2c1.4-1.3,3.5-1.9,6.2-1.9h9v-3.3
			c0-1.8-0.5-3.1-1.5-4c-1-0.9-2.8-1.3-5.4-1.3h-8.3v-2.3c3.1-0.5,6.4-0.8,9.8-0.8c3.2,0,5.6,0.7,7.1,2c1.5,1.3,2.3,3.4,2.3,6.3V53
			h-3l-0.8-3c-0.2,0.2-1,0.6-2.2,1.1c-1.2,0.6-2.6,1.1-4.2,1.5c-1.6,0.5-3.1,0.7-4.5,0.7C858.2,53.3,856.6,52.7,855.3,51.5z
			 M865.3,49.8c1.3-0.3,2.5-0.7,3.5-1.1c1-0.4,1.7-0.6,2.1-0.8v-8.4l-8.1,0.4c-1.8,0.1-3.2,0.5-4,1.4c-0.8,0.8-1.3,2-1.3,3.4v1.2
			c0,1.5,0.4,2.6,1.3,3.3c0.9,0.7,2,1.1,3.2,1.1C862.9,50.3,864,50.1,865.3,49.8z"/>
	</g>
	<g>
		<path class="st0" d="M178.1,158.8c-1.9-2-2.8-5.5-2.8-10.6c0-3.6,0.4-6.4,1.3-8.4s2.1-3.4,3.6-4.2c1.6-0.8,3.5-1.2,5.9-1.2
			c3.2,0,6.1,0.2,8.9,0.7v2.3h-7.8c-1.8,0-3.3,0.3-4.4,0.9c-1.1,0.6-2,1.7-2.6,3.2c-0.6,1.6-0.9,3.8-0.9,6.6c0,2.7,0.3,4.9,0.9,6.4
			c0.6,1.5,1.5,2.6,2.6,3.2c1.1,0.6,2.6,0.9,4.4,0.9h8.1v2.3c-3.1,0.5-6.3,0.8-9.4,0.8C182.6,161.8,180,160.8,178.1,158.8z"/>
		<path class="st0" d="M202.5,159.6c-1.1-1.3-1.7-3.5-1.7-6.6v-29.6h4v29.1c0,2.2,0.3,3.7,0.9,4.5c0.6,0.8,1.6,1.3,2.9,1.4l2.7,0.3
			v2.8h-3.4C205.4,161.5,203.7,160.9,202.5,159.6z"/>
		<path class="st0" d="M215.8,160c-1.3-1.2-1.9-2.8-1.9-4.9v-1.9c0-2.2,0.7-3.9,2.1-5.2c1.4-1.3,3.5-1.9,6.2-1.9h9v-3.3
			c0-1.8-0.5-3.1-1.5-4c-1-0.9-2.8-1.3-5.4-1.3h-8.3v-2.3c3.1-0.5,6.4-0.8,9.8-0.8c3.2,0,5.6,0.7,7.1,2c1.5,1.3,2.3,3.4,2.3,6.3
			v18.9h-3.1l-0.8-3c-0.2,0.2-1,0.6-2.2,1.1c-1.2,0.6-2.6,1.1-4.2,1.5c-1.6,0.5-3.1,0.7-4.5,0.7C218.7,161.8,217.1,161.2,215.8,160z
			 M225.8,158.3c1.3-0.3,2.5-0.7,3.5-1.1c1-0.4,1.7-0.6,2.1-0.8v-8.4l-8.1,0.4c-1.8,0.1-3.2,0.5-4,1.4c-0.9,0.8-1.3,2-1.3,3.4v1.2
			c0,1.5,0.4,2.6,1.3,3.3c0.9,0.7,2,1.1,3.2,1.1C223.4,158.8,224.5,158.7,225.8,158.3z"/>
		<path class="st0" d="M246.3,161.6c-2.3-0.1-3.8-0.3-4.6-0.5v-2.4h10.9c1.9,0,3.2-0.3,4.1-0.8c0.9-0.5,1.3-1.6,1.3-3.2v-1.2
			c0-2.5-1.6-3.8-4.8-3.8h-3.8c-2.6,0-4.5-0.5-5.9-1.5c-1.4-1-2.1-2.7-2.1-5.1v-1.4c0-2.5,0.7-4.4,2.2-5.6c1.5-1.2,3.9-1.8,7.2-1.8
			c1.4,0,3.1,0.1,5.1,0.2c2,0.1,3.5,0.3,4.6,0.5v2.4h-10.3c-1.8,0-3.1,0.3-4,0.9c-0.9,0.6-1.3,1.7-1.3,3.3v1.1
			c0,1.4,0.4,2.4,1.3,2.9c0.9,0.5,2.2,0.7,3.9,0.7h3.8c2.4,0,4.3,0.6,5.6,1.7c1.3,1.1,2,2.8,2,4.9v1.9c0,2.5-0.8,4.3-2.4,5.3
			c-1.6,1-4,1.5-7.1,1.5C250.5,161.8,248.6,161.7,246.3,161.6z"/>
		<path class="st0" d="M271.3,161.6c-2.3-0.1-3.8-0.3-4.6-0.5v-2.4h10.9c1.9,0,3.2-0.3,4.1-0.8c0.9-0.5,1.3-1.6,1.3-3.2v-1.2
			c0-2.5-1.6-3.8-4.8-3.8h-3.8c-2.6,0-4.5-0.5-5.9-1.5c-1.4-1-2.1-2.7-2.1-5.1v-1.4c0-2.5,0.7-4.4,2.2-5.6c1.5-1.2,3.9-1.8,7.2-1.8
			c1.4,0,3.1,0.1,5.1,0.2c2,0.1,3.5,0.3,4.6,0.5v2.4h-10.3c-1.8,0-3.1,0.3-4,0.9c-0.9,0.6-1.3,1.7-1.3,3.3v1.1
			c0,1.4,0.4,2.4,1.3,2.9c0.9,0.5,2.2,0.7,3.9,0.7h3.8c2.4,0,4.3,0.6,5.6,1.7c1.3,1.1,2,2.8,2,4.9v1.9c0,2.5-0.8,4.3-2.4,5.3
			c-1.6,1-4,1.5-7.1,1.5C275.5,161.8,273.6,161.7,271.3,161.6z"/>
		<path class="st0" d="M307.6,158.5c-1.5-2.2-2.3-5.6-2.3-10.2c0-3.3,0.3-6,1-8.1c0.7-2,1.7-3.5,3.2-4.4c1.5-0.9,3.4-1.4,5.9-1.4
			c2.5,0,5.3,0.5,8.2,1.6v-12.7h4v38.1h-3.2l-0.8-2.7c-0.8,0.7-2.1,1.4-3.9,2c-1.8,0.6-3.4,1-4.8,1
			C311.6,161.8,309.2,160.7,307.6,158.5z M319.9,157.9c1.2-0.4,2.4-1,3.7-1.6v-17.4c-1.6-0.5-2.8-0.8-3.8-1c-1-0.2-2.1-0.3-3.3-0.3
			c-1.8,0-3.2,0.3-4.2,1s-1.8,1.7-2.3,3.3c-0.5,1.5-0.7,3.7-0.7,6.4c0,3.7,0.5,6.4,1.6,8c1,1.6,2.8,2.4,5.3,2.4
			C317.5,158.5,318.7,158.3,319.9,157.9z"/>
		<path class="st0" d="M338.5,160.5c-1.6-0.8-2.7-2.2-3.4-4.2c-0.7-2-1-4.7-1-8.3c0-3.6,0.4-6.3,1.1-8.3c0.7-2,1.9-3.3,3.5-4.1
			c1.6-0.8,3.8-1.2,6.6-1.2c2.4,0,4.4,0.3,5.9,0.8c1.5,0.5,2.6,1.4,3.3,2.7c0.7,1.3,1.1,3.1,1.1,5.3c0,2.3-0.7,3.9-2,4.9
			c-1.3,1-3.2,1.5-5.6,1.5H338c0,2.3,0.3,4.1,0.7,5.3c0.4,1.3,1.2,2.2,2.4,2.8c1.2,0.6,2.9,0.9,5.1,0.9h8.6v2.4
			c-1.8,0.2-3.4,0.4-4.8,0.5c-1.4,0.1-3,0.2-4.8,0.2C342.3,161.8,340.1,161.4,338.5,160.5z M347.5,147.1c1.5,0,2.6-0.3,3.4-0.9
			c0.7-0.6,1-1.5,1-2.9c0-2.2-0.5-3.8-1.5-4.6c-1-0.9-2.7-1.3-5.1-1.3c-1.9,0-3.4,0.3-4.4,0.8c-1,0.6-1.8,1.5-2.2,2.9
			c-0.4,1.4-0.6,3.3-0.6,5.9H347.5z"/>
		<path class="st0" d="M363.9,158.8c-1.9-2-2.8-5.5-2.8-10.6c0-3.6,0.4-6.4,1.3-8.4s2.1-3.4,3.6-4.2c1.6-0.8,3.5-1.2,5.9-1.2
			c3.2,0,6.1,0.2,8.9,0.7v2.3h-7.8c-1.8,0-3.3,0.3-4.4,0.9c-1.1,0.6-2,1.7-2.6,3.2c-0.6,1.6-0.9,3.8-0.9,6.6c0,2.7,0.3,4.9,0.9,6.4
			c0.6,1.5,1.5,2.6,2.6,3.2c1.1,0.6,2.6,0.9,4.4,0.9h8.1v2.3c-3.1,0.5-6.3,0.8-9.4,0.8C368.4,161.8,365.7,160.8,363.9,158.8z"/>
		<path class="st0" d="M388.3,159.6c-1.1-1.3-1.7-3.5-1.7-6.6v-29.6h4v29.1c0,2.2,0.3,3.7,0.9,4.5c0.6,0.8,1.6,1.3,2.9,1.4l2.7,0.3
			v2.8h-3.4C391.2,161.5,389.4,160.9,388.3,159.6z"/>
		<path class="st0" d="M401.6,160c-1.3-1.2-1.9-2.8-1.9-4.9v-1.9c0-2.2,0.7-3.9,2.1-5.2c1.4-1.3,3.5-1.9,6.2-1.9h9v-3.3
			c0-1.8-0.5-3.1-1.5-4c-1-0.9-2.8-1.3-5.4-1.3h-8.3v-2.3c3.1-0.5,6.4-0.8,9.8-0.8c3.2,0,5.6,0.7,7.1,2c1.5,1.3,2.3,3.4,2.3,6.3
			v18.9H418l-0.8-3c-0.2,0.2-1,0.6-2.2,1.1c-1.2,0.6-2.6,1.1-4.2,1.5c-1.6,0.5-3.1,0.7-4.5,0.7C404.5,161.8,402.8,161.2,401.6,160z
			 M411.5,158.3c1.3-0.3,2.5-0.7,3.5-1.1c1-0.4,1.7-0.6,2.1-0.8v-8.4l-8.1,0.4c-1.8,0.1-3.2,0.5-4,1.4c-0.9,0.8-1.3,2-1.3,3.4v1.2
			c0,1.5,0.4,2.6,1.3,3.3c0.9,0.7,2,1.1,3.2,1.1C409.1,158.8,410.2,158.7,411.5,158.3z"/>
		<path class="st0" d="M428.5,134.8h3l1,4.7c1.3-1.6,2.7-2.8,4.2-3.7c1.5-0.9,3.1-1.3,4.9-1.3c0.9,0,1.7,0.1,2.5,0.3v4
			c-1.5-0.2-2.5-0.3-2.9-0.3c-1.8,0-3.3,0.3-4.6,1c-1.3,0.6-2.7,1.6-4.2,3v19h-4V134.8z"/>
		<path class="st0" d="M448.4,160c-1.3-1.2-1.9-2.8-1.9-4.9v-1.9c0-2.2,0.7-3.9,2.1-5.2c1.4-1.3,3.5-1.9,6.2-1.9h9v-3.3
			c0-1.8-0.5-3.1-1.5-4c-1-0.9-2.8-1.3-5.4-1.3h-8.3v-2.3c3.1-0.5,6.4-0.8,9.8-0.8c3.2,0,5.6,0.7,7.1,2c1.5,1.3,2.3,3.4,2.3,6.3
			v18.9h-3.1l-0.8-3c-0.2,0.2-1,0.6-2.2,1.1c-1.2,0.6-2.6,1.1-4.2,1.5c-1.6,0.5-3.1,0.7-4.5,0.7C451.3,161.8,449.7,161.2,448.4,160z
			 M458.4,158.3c1.3-0.3,2.5-0.7,3.5-1.1c1-0.4,1.7-0.6,2.1-0.8v-8.4l-8.1,0.4c-1.8,0.1-3.2,0.5-4,1.4c-0.9,0.8-1.3,2-1.3,3.4v1.2
			c0,1.5,0.4,2.6,1.3,3.3c0.9,0.7,2,1.1,3.2,1.1C456,158.8,457.1,158.7,458.4,158.3z"/>
		<path class="st0" d="M478.4,159.5c-1.2-1.4-1.8-3.6-1.8-6.6l0.1-14.8h-4.3v-2.5l4.3-0.7l0.7-7.4h3v7.4h7.7v3.3h-7.7v14.8
			c0,2,0.4,3.4,1.1,4.2c0.8,0.8,1.7,1.2,2.9,1.3l3.3,0.3v2.9h-3.6C481.6,161.5,479.6,160.8,478.4,159.5z"/>
		<path class="st0" d="M493.7,129.8c-0.2-0.2-0.2-0.3-0.2-0.6v-3.9c0-0.5,0.3-0.8,0.8-0.8h2.8c0.5,0,0.8,0.3,0.8,0.8v3.9
			c0,0.5-0.3,0.8-0.8,0.8h-2.8C494.1,130,493.9,130,493.7,129.8z M493.7,134.8h4v26.7h-4V134.8z"/>
		<path class="st0" d="M509.3,160.6c-1.7-0.8-2.9-2.1-3.7-4.1c-0.8-2-1.2-4.8-1.2-8.4c0-3.7,0.4-6.5,1.3-8.5c0.8-2,2.1-3.3,3.7-4.1
			c1.6-0.7,3.8-1.1,6.6-1.1c2.7,0,4.9,0.4,6.6,1.1c1.7,0.8,2.9,2.1,3.8,4.1c0.8,2,1.3,4.8,1.3,8.4c0,3.6-0.4,6.4-1.3,8.4
			c-0.8,2-2.1,3.4-3.7,4.1c-1.6,0.8-3.9,1.1-6.6,1.1C513.1,161.8,510.9,161.4,509.3,160.6z M520.2,157.8c1-0.5,1.9-1.5,2.4-3
			c0.6-1.5,0.9-3.8,0.9-6.8s-0.3-5.2-0.8-6.7c-0.5-1.5-1.4-2.5-2.4-3c-1.1-0.5-2.5-0.7-4.4-0.7c-1.9,0-3.3,0.2-4.4,0.7
			c-1,0.5-1.9,1.5-2.4,3c-0.5,1.5-0.8,3.7-0.8,6.7s0.3,5.3,0.8,6.8s1.4,2.5,2.4,3c1.1,0.5,2.5,0.7,4.4,0.7
			C517.7,158.5,519.1,158.3,520.2,157.8z"/>
		<path class="st0" d="M534.1,134.8h3.1l0.9,3c1.4-1,3-1.8,4.6-2.4c1.7-0.7,3.4-1,5.1-1c2.8,0,4.8,0.9,6.2,2.5c1.4,1.7,2,3.9,2,6.5
			v18.1h-4v-17.7c0-1.7-0.5-3.1-1.5-4.2c-1-1.1-2.3-1.6-4.1-1.6c-1.6,0-3,0.2-4.3,0.6c-1.3,0.4-2.7,1.1-4.2,2v21h-4V134.8z"/>
	</g>
	<g>
		<path class="st0" d="M1011.3,16.2h4v16.6h6.5l10.1-16.6h4.2l-11.1,18.4l11.3,18.4h-4.3l-10.2-16.5h-6.5V53h-4V16.2z"/>
		<path class="st0" d="M1044.2,52.1c-1.7-0.8-2.9-2.1-3.7-4.1c-0.8-2-1.2-4.8-1.2-8.4c0-3.7,0.4-6.5,1.3-8.5c0.8-2,2.1-3.3,3.7-4.1
			c1.6-0.7,3.8-1.1,6.6-1.1c2.7,0,4.9,0.4,6.6,1.1s2.9,2.1,3.8,4.1c0.8,2,1.3,4.8,1.3,8.4c0,3.6-0.4,6.4-1.3,8.4
			c-0.8,2-2.1,3.4-3.7,4.1c-1.6,0.8-3.9,1.1-6.6,1.1C1048.1,53.3,1045.9,52.9,1044.2,52.1z M1055.1,49.3c1-0.5,1.9-1.5,2.4-3
			s0.9-3.8,0.9-6.8s-0.3-5.2-0.8-6.7c-0.5-1.5-1.4-2.5-2.4-3c-1.1-0.5-2.5-0.7-4.4-0.7c-1.9,0-3.3,0.2-4.4,0.7c-1,0.5-1.8,1.5-2.4,3
			c-0.5,1.5-0.8,3.7-0.8,6.7s0.3,5.3,0.8,6.8s1.4,2.5,2.4,3c1.1,0.5,2.5,0.7,4.4,0.7C1052.6,50,1054.1,49.8,1055.1,49.3z"/>
		<path class="st0" d="M1072.1,50.9c-1.2-1.4-1.8-3.6-1.8-6.6l0.1-14.8h-4.3V27l4.3-0.7l0.7-7.4h3v7.4h7.7v3.3h-7.7v14.8
			c0,2,0.4,3.4,1.1,4.2c0.8,0.8,1.7,1.2,2.9,1.3l3.3,0.3V53h-3.7C1075.3,53,1073.3,52.3,1072.1,50.9z"/>
		<path class="st0" d="M1089.1,51.1c-1.1-1.3-1.7-3.5-1.7-6.6V14.8h4v29.1c0,2.2,0.3,3.7,0.9,4.5c0.6,0.8,1.6,1.3,2.9,1.4l2.7,0.3
			V53h-3.4C1092,53,1090.3,52.4,1089.1,51.1z"/>
		<path class="st0" d="M1102.1,21.3c-0.2-0.2-0.2-0.3-0.2-0.6v-3.9c0-0.5,0.3-0.8,0.8-0.8h2.8c0.5,0,0.8,0.3,0.8,0.8v3.9
			c0,0.5-0.3,0.8-0.8,0.8h-2.8C1102.5,21.5,1102.3,21.4,1102.1,21.3z M1102.1,26.3h4V53h-4V26.3z"/>
		<path class="st0" d="M1113.7,26.3h3.1l0.8,3c1.4-1,3-1.8,4.7-2.4c1.7-0.7,3.4-1,5.1-1c2.8,0,4.8,0.9,6.2,2.5c1.4,1.7,2,3.9,2,6.5
			V53h-4V35.3c0-1.7-0.5-3.1-1.5-4.2c-1-1.1-2.3-1.6-4.1-1.6c-1.6,0-3,0.2-4.3,0.6c-1.3,0.4-2.7,1.1-4.2,2v21h-4V26.3z"/>
	</g>
	<g>
		<rect x="0" y="80" class="st1" width="1369.4" height="2"/>
	</g>
	<g>
		<rect x="0" y="211" class="st1" width="1369.4" height="2"/>
	</g>
	<g>
		<path class="st0" d="M177.7,289.5c-1.5-2.2-2.3-5.6-2.3-10.2c0-3.3,0.3-6,1-8.1c0.7-2,1.7-3.5,3.2-4.4c1.5-0.9,3.4-1.4,5.9-1.4
			c2.5,0,5.3,0.5,8.2,1.6v-12.7h4v38.1h-3.2l-0.8-2.7c-0.8,0.7-2.1,1.4-3.9,2c-1.8,0.6-3.4,1-4.8,1
			C181.7,292.8,179.2,291.7,177.7,289.5z M190,288.9c1.2-0.4,2.4-1,3.7-1.6v-17.4c-1.6-0.5-2.8-0.8-3.8-1c-1-0.2-2.1-0.3-3.3-0.3
			c-1.8,0-3.2,0.3-4.2,1s-1.8,1.7-2.3,3.3c-0.5,1.5-0.7,3.7-0.7,6.4c0,3.7,0.5,6.4,1.6,8c1,1.6,2.8,2.4,5.3,2.4
			C187.5,289.5,188.8,289.3,190,288.9z"/>
		<path class="st0" d="M208.6,291.5c-1.6-0.8-2.7-2.2-3.4-4.2c-0.7-2-1-4.7-1-8.3c0-3.6,0.4-6.3,1.1-8.3c0.7-2,1.9-3.3,3.5-4.1
			c1.6-0.8,3.8-1.2,6.6-1.2c2.4,0,4.4,0.3,5.9,0.8c1.5,0.5,2.6,1.4,3.3,2.7c0.7,1.3,1.1,3.1,1.1,5.3c0,2.3-0.7,3.9-2,4.9
			c-1.3,1-3.2,1.5-5.6,1.5h-9.8c0,2.3,0.3,4.1,0.7,5.3c0.4,1.3,1.2,2.2,2.4,2.8c1.2,0.6,2.9,0.9,5.1,0.9h8.6v2.4
			c-1.8,0.2-3.4,0.4-4.8,0.5c-1.4,0.1-3,0.2-4.8,0.2C212.4,292.8,210.2,292.4,208.6,291.5z M217.5,278.1c1.5,0,2.6-0.3,3.4-0.9
			c0.7-0.6,1-1.5,1-2.9c0-2.2-0.5-3.8-1.5-4.6c-1-0.9-2.7-1.3-5.1-1.3c-1.9,0-3.4,0.3-4.4,0.8c-1,0.6-1.8,1.5-2.2,2.9
			c-0.4,1.4-0.6,3.3-0.6,5.9H217.5z"/>
		<path class="st0" d="M233.6,269h-4.1v-2.5l4.1-0.7v-3c0-3,0.6-5.2,1.7-6.6c1.1-1.4,3.1-2.1,5.9-2.1c1.7,0,3.4,0.2,5.1,0.5v2.8
			h-4.4c-1.7,0-2.9,0.4-3.5,1.2c-0.6,0.8-0.9,2.1-0.9,4v3.3h8.3v3.3h-8.3v23.5h-4V269z"/>
		<path class="st0" d="M250.8,291c-1.3-1.2-1.9-2.8-1.9-4.9v-1.9c0-2.2,0.7-3.9,2.1-5.2c1.4-1.3,3.5-1.9,6.2-1.9h9v-3.3
			c0-1.8-0.5-3.1-1.5-4c-1-0.9-2.8-1.3-5.4-1.3h-8.3v-2.3c3.1-0.5,6.4-0.8,9.8-0.8c3.2,0,5.6,0.7,7.1,2c1.5,1.3,2.3,3.4,2.3,6.3
			v18.9h-3.1l-0.8-3c-0.2,0.2-1,0.6-2.2,1.1c-1.2,0.6-2.6,1.1-4.2,1.5c-1.6,0.5-3.1,0.7-4.5,0.7C253.7,292.8,252.1,292.2,250.8,291z
			 M260.8,289.3c1.3-0.3,2.5-0.7,3.5-1.1c1-0.4,1.7-0.6,2.1-0.8v-8.4l-8.1,0.4c-1.8,0.1-3.2,0.5-4,1.4c-0.9,0.8-1.3,2-1.3,3.4v1.2
			c0,1.5,0.4,2.6,1.3,3.3c0.9,0.7,2,1.1,3.2,1.1C258.4,289.8,259.5,289.7,260.8,289.3z"/>
		<path class="st0" d="M277.7,284.6v-18.8h4v17.8c0,2.1,0.5,3.6,1.4,4.4c1,0.8,2.4,1.3,4.4,1.3c1.5,0,2.9-0.2,4.2-0.6
			c1.3-0.4,2.7-1.1,4.1-1.9v-21h4v26.7h-3.1l-0.9-3c-3.4,2.2-6.8,3.3-10,3.3C280.4,292.8,277.7,290,277.7,284.6z"/>
		<path class="st0" d="M308.9,290.6c-1.1-1.3-1.7-3.5-1.7-6.6v-29.6h4v29.1c0,2.2,0.3,3.7,0.9,4.5c0.6,0.8,1.6,1.3,2.9,1.4l2.7,0.3
			v2.8h-3.4C311.8,292.5,310,291.9,308.9,290.6z"/>
		<path class="st0" d="M324.9,290.5c-1.2-1.4-1.8-3.6-1.8-6.6l0.1-14.8h-4.3v-2.5l4.3-0.7l0.7-7.4h3v7.4h7.7v3.3h-7.7v14.8
			c0,2,0.4,3.4,1.1,4.2c0.8,0.8,1.7,1.2,2.9,1.3l3.3,0.3v2.9h-3.6C328.1,292.5,326.1,291.8,324.9,290.5z"/>
		<path class="st0" d="M355.5,289.8c-1.9-2-2.8-5.5-2.8-10.6c0-3.6,0.4-6.4,1.3-8.4s2.1-3.4,3.6-4.2c1.6-0.8,3.5-1.2,5.9-1.2
			c3.2,0,6.1,0.2,8.9,0.7v2.3h-7.8c-1.8,0-3.3,0.3-4.4,0.9c-1.1,0.6-2,1.7-2.6,3.2c-0.6,1.6-0.9,3.8-0.9,6.6c0,2.7,0.3,4.9,0.9,6.4
			c0.6,1.5,1.5,2.6,2.6,3.2c1.1,0.6,2.6,0.9,4.4,0.9h8.1v2.3c-3.1,0.5-6.3,0.8-9.4,0.8C360,292.8,357.4,291.8,355.5,289.8z"/>
		<path class="st0" d="M382.2,291.6c-1.7-0.8-2.9-2.1-3.7-4.1c-0.8-2-1.2-4.8-1.2-8.4c0-3.7,0.4-6.5,1.3-8.5c0.8-2,2.1-3.3,3.7-4.1
			c1.6-0.7,3.8-1.1,6.6-1.1c2.7,0,4.9,0.4,6.6,1.1c1.7,0.8,2.9,2.1,3.8,4.1c0.8,2,1.3,4.8,1.3,8.4c0,3.6-0.4,6.4-1.3,8.4
			c-0.8,2-2.1,3.4-3.7,4.1c-1.6,0.8-3.9,1.1-6.6,1.1C386.1,292.8,383.9,292.4,382.2,291.6z M393.1,288.8c1-0.5,1.9-1.5,2.4-3
			c0.6-1.5,0.9-3.8,0.9-6.8s-0.3-5.2-0.8-6.7c-0.5-1.5-1.4-2.5-2.4-3c-1.1-0.5-2.5-0.7-4.4-0.7c-1.9,0-3.3,0.2-4.4,0.7
			c-1,0.5-1.9,1.5-2.4,3c-0.5,1.5-0.8,3.7-0.8,6.7s0.3,5.3,0.8,6.8s1.4,2.5,2.4,3c1.1,0.5,2.5,0.7,4.4,0.7
			C390.6,289.5,392.1,289.3,393.1,288.8z"/>
		<path class="st0" d="M407.1,265.8h3.1l0.9,3c1.4-1,3-1.8,4.6-2.4c1.7-0.7,3.4-1,5.1-1c2.8,0,4.8,0.9,6.2,2.5c1.4,1.7,2,3.9,2,6.5
			v18.1h-4v-17.7c0-1.7-0.5-3.1-1.5-4.2c-1-1.1-2.3-1.6-4.1-1.6c-1.6,0-3,0.2-4.3,0.6c-1.3,0.4-2.7,1.1-4.2,2v21h-4V265.8z"/>
		<path class="st0" d="M440,292.6c-2.3-0.1-3.8-0.3-4.6-0.5v-2.4h10.9c1.9,0,3.2-0.3,4.1-0.8c0.9-0.5,1.3-1.6,1.3-3.2v-1.2
			c0-2.5-1.6-3.8-4.8-3.8h-3.8c-2.6,0-4.5-0.5-5.9-1.5c-1.4-1-2.1-2.7-2.1-5.1v-1.4c0-2.5,0.7-4.4,2.2-5.6c1.5-1.2,3.9-1.8,7.2-1.8
			c1.4,0,3.1,0.1,5.1,0.2c2,0.1,3.5,0.3,4.6,0.5v2.4h-10.3c-1.8,0-3.1,0.3-4,0.9c-0.9,0.6-1.3,1.7-1.3,3.3v1.1
			c0,1.4,0.4,2.4,1.3,2.9c0.9,0.5,2.2,0.7,3.9,0.7h3.8c2.4,0,4.3,0.6,5.6,1.7c1.3,1.1,2,2.8,2,4.9v1.9c0,2.5-0.8,4.3-2.4,5.3
			c-1.6,1-4,1.5-7.1,1.5C444.2,292.8,442.3,292.7,440,292.6z"/>
		<path class="st0" d="M464.5,290.5c-1.2-1.4-1.8-3.6-1.8-6.6l0.1-14.8h-4.3v-2.5l4.3-0.7l0.7-7.4h3v7.4h7.7v3.3h-7.7v14.8
			c0,2,0.4,3.4,1.1,4.2c0.8,0.8,1.7,1.2,2.9,1.3l3.3,0.3v2.9h-3.6C467.7,292.5,465.7,291.8,464.5,290.5z"/>
		<path class="st0" d="M479.8,265.8h3l1,4.7c1.3-1.6,2.7-2.8,4.2-3.7c1.5-0.9,3.1-1.3,4.9-1.3c0.9,0,1.7,0.1,2.5,0.3v4
			c-1.5-0.2-2.5-0.3-2.9-0.3c-1.8,0-3.3,0.3-4.6,1c-1.3,0.6-2.7,1.6-4.2,3v19h-4V265.8z"/>
		<path class="st0" d="M500.4,284.6v-18.8h4v17.8c0,2.1,0.5,3.6,1.4,4.4c1,0.8,2.4,1.3,4.4,1.3c1.5,0,2.9-0.2,4.2-0.6
			c1.3-0.4,2.7-1.1,4.1-1.9v-21h4v26.7h-3.1l-0.9-3c-3.4,2.2-6.8,3.3-10,3.3C503,292.8,500.4,290,500.4,284.6z"/>
		<path class="st0" d="M531.6,289.8c-1.9-2-2.8-5.5-2.8-10.6c0-3.6,0.4-6.4,1.3-8.4s2.1-3.4,3.6-4.2c1.6-0.8,3.5-1.2,5.9-1.2
			c3.2,0,6.1,0.2,8.9,0.7v2.3h-7.8c-1.8,0-3.3,0.3-4.4,0.9c-1.1,0.6-2,1.7-2.6,3.2c-0.6,1.6-0.9,3.8-0.9,6.6c0,2.7,0.3,4.9,0.9,6.4
			c0.6,1.5,1.5,2.6,2.6,3.2c1.1,0.6,2.6,0.9,4.4,0.9h8.1v2.3c-3.1,0.5-6.3,0.8-9.4,0.8C536.1,292.8,533.5,291.8,531.6,289.8z"/>
		<path class="st0" d="M557.4,290.5c-1.2-1.4-1.8-3.6-1.8-6.6l0.1-14.8h-4.3v-2.5l4.3-0.7l0.7-7.4h3v7.4h7.7v3.3h-7.7v14.8
			c0,2,0.4,3.4,1.1,4.2c0.8,0.8,1.7,1.2,2.9,1.3l3.3,0.3v2.9h-3.6C560.5,292.5,558.6,291.8,557.4,290.5z"/>
		<path class="st0" d="M576.7,291.6c-1.7-0.8-2.9-2.1-3.7-4.1c-0.8-2-1.2-4.8-1.2-8.4c0-3.7,0.4-6.5,1.3-8.5c0.8-2,2.1-3.3,3.7-4.1
			c1.6-0.7,3.8-1.1,6.6-1.1c2.7,0,4.9,0.4,6.6,1.1c1.7,0.8,2.9,2.1,3.8,4.1c0.8,2,1.3,4.8,1.3,8.4c0,3.6-0.4,6.4-1.3,8.4
			c-0.8,2-2.1,3.4-3.7,4.1c-1.6,0.8-3.9,1.1-6.6,1.1C580.5,292.8,578.3,292.4,576.7,291.6z M587.6,288.8c1-0.5,1.9-1.5,2.4-3
			c0.6-1.5,0.9-3.8,0.9-6.8s-0.3-5.2-0.8-6.7c-0.5-1.5-1.4-2.5-2.4-3c-1.1-0.5-2.5-0.7-4.4-0.7c-1.9,0-3.3,0.2-4.4,0.7
			c-1,0.5-1.9,1.5-2.4,3c-0.5,1.5-0.8,3.7-0.8,6.7s0.3,5.3,0.8,6.8s1.4,2.5,2.4,3c1.1,0.5,2.5,0.7,4.4,0.7
			C585.1,289.5,586.5,289.3,587.6,288.8z"/>
		<path class="st0" d="M601.5,265.8h3l1,4.7c1.3-1.6,2.7-2.8,4.2-3.7c1.5-0.9,3.1-1.3,4.9-1.3c0.9,0,1.7,0.1,2.5,0.3v4
			c-1.5-0.2-2.5-0.3-2.9-0.3c-1.8,0-3.3,0.3-4.6,1c-1.3,0.6-2.7,1.6-4.2,3v19h-4V265.8z"/>
	</g>
	<g>
		<rect x="0" y="342" class="st1" width="1369.4" height="2"/>
	</g>
	<g>
		<path class="st0" d="M176.3,396.8h3.1l0.9,3c3.3-2.3,6.7-3.4,10-3.4c1.6,0,3,0.4,4.2,1.1c1.2,0.7,2.1,1.7,2.8,2.9
			c1.4-1,3.1-1.9,5.1-2.8c2-0.8,3.9-1.2,5.6-1.2c2.8,0,4.8,0.9,6.3,2.5c1.4,1.7,2.1,3.9,2.1,6.6v18h-3.9v-17.7
			c0-1.7-0.5-3.1-1.5-4.2c-1-1.1-2.4-1.6-4.1-1.6c-1.4,0-2.9,0.3-4.5,0.8c-1.6,0.5-3,1.2-4.5,2.1c0.3,1.1,0.5,2.1,0.5,3v17.6h-4
			v-17.7c0-1.7-0.5-3.1-1.5-4.2c-1-1.1-2.3-1.6-4.1-1.6c-1.6,0-3,0.2-4.3,0.6c-1.3,0.4-2.7,1.1-4.2,2v21h-4V396.8z"/>
		<path class="st0" d="M224,422c-1.3-1.2-1.9-2.8-1.9-4.9v-1.9c0-2.2,0.7-3.9,2.1-5.2c1.4-1.3,3.5-1.9,6.2-1.9h9v-3.3
			c0-1.8-0.5-3.1-1.5-4c-1-0.9-2.8-1.3-5.4-1.3h-8.3v-2.3c3.1-0.5,6.4-0.8,9.8-0.8c3.2,0,5.6,0.7,7.1,2c1.5,1.3,2.3,3.4,2.3,6.3
			v18.9h-3.1l-0.8-3c-0.2,0.2-1,0.6-2.2,1.1c-1.2,0.6-2.6,1.1-4.2,1.5c-1.6,0.5-3.1,0.7-4.5,0.7C226.9,423.8,225.3,423.2,224,422z
			 M234,420.3c1.3-0.3,2.5-0.7,3.5-1.1c1-0.4,1.7-0.6,2.1-0.8v-8.4l-8.1,0.4c-1.8,0.1-3.2,0.5-4,1.4c-0.9,0.8-1.3,2-1.3,3.4v1.2
			c0,1.5,0.4,2.6,1.3,3.3c0.9,0.7,2,1.1,3.2,1.1C231.6,420.8,232.7,420.7,234,420.3z"/>
		<path class="st0" d="M251,391.8c-0.2-0.2-0.2-0.3-0.2-0.6v-3.9c0-0.5,0.3-0.8,0.8-0.8h2.8c0.5,0,0.8,0.3,0.8,0.8v3.9
			c0,0.5-0.3,0.8-0.8,0.8h-2.8C251.3,392,251.1,392,251,391.8z M251,396.8h4v26.7h-4V396.8z"/>
		<path class="st0" d="M262.5,396.8h3.1l0.9,3c1.4-1,3-1.8,4.6-2.4c1.7-0.7,3.4-1,5.1-1c2.8,0,4.8,0.9,6.2,2.5c1.4,1.7,2,3.9,2,6.5
			v18.1h-4v-17.7c0-1.7-0.5-3.1-1.5-4.2c-1-1.1-2.3-1.6-4.1-1.6c-1.6,0-3,0.2-4.3,0.6c-1.3,0.4-2.7,1.1-4.2,2v21h-4V396.8z"/>
		<path class="st0" d="M306.9,400h-4.1v-2.5l4.1-0.7v-3c0-3,0.6-5.2,1.7-6.6c1.1-1.4,3.1-2.1,5.9-2.1c1.7,0,3.4,0.2,5.1,0.5v2.8
			h-4.4c-1.7,0-2.9,0.4-3.5,1.2c-0.6,0.8-0.9,2.1-0.9,4v3.3h8.3v3.3h-8.3v23.5h-4V400z"/>
		<path class="st0" d="M323.8,415.6v-18.8h4v17.8c0,2.1,0.5,3.6,1.4,4.4c1,0.8,2.4,1.3,4.4,1.3c1.5,0,2.9-0.2,4.2-0.6
			c1.3-0.4,2.7-1.1,4.1-1.9v-21h4v26.7h-3.1l-0.9-3c-3.4,2.2-6.8,3.3-10,3.3C326.4,423.8,323.8,421,323.8,415.6z"/>
		<path class="st0" d="M353.2,396.8h3.1l0.9,3c1.4-1,3-1.8,4.6-2.4c1.7-0.7,3.4-1,5.1-1c2.8,0,4.8,0.9,6.2,2.5c1.4,1.7,2,3.9,2,6.5
			v18.1h-4v-17.7c0-1.7-0.5-3.1-1.5-4.2c-1-1.1-2.3-1.6-4.1-1.6c-1.6,0-3,0.2-4.3,0.6c-1.3,0.4-2.7,1.1-4.2,2v21h-4V396.8z"/>
		<path class="st0" d="M384.4,420.8c-1.9-2-2.8-5.5-2.8-10.6c0-3.6,0.4-6.4,1.3-8.4s2.1-3.4,3.6-4.2c1.6-0.8,3.5-1.2,5.9-1.2
			c3.2,0,6.1,0.2,8.9,0.7v2.3h-7.8c-1.8,0-3.3,0.3-4.4,0.9c-1.1,0.6-2,1.7-2.6,3.2c-0.6,1.6-0.9,3.8-0.9,6.6c0,2.7,0.3,4.9,0.9,6.4
			c0.6,1.5,1.5,2.6,2.6,3.2c1.1,0.6,2.6,0.9,4.4,0.9h8.1v2.3c-3.1,0.5-6.3,0.8-9.4,0.8C388.9,423.8,386.3,422.8,384.4,420.8z"/>
		<path class="st0" d="M410.2,421.5c-1.2-1.4-1.8-3.6-1.8-6.6l0.1-14.8h-4.3v-2.5l4.3-0.7l0.7-7.4h3v7.4h7.7v3.3h-7.7v14.8
			c0,2,0.4,3.4,1.1,4.2c0.8,0.8,1.7,1.2,2.9,1.3l3.3,0.3v2.9H416C413.3,423.5,411.4,422.8,410.2,421.5z"/>
		<path class="st0" d="M425.5,391.8c-0.2-0.2-0.2-0.3-0.2-0.6v-3.9c0-0.5,0.3-0.8,0.8-0.8h2.8c0.5,0,0.8,0.3,0.8,0.8v3.9
			c0,0.5-0.3,0.8-0.8,0.8h-2.8C425.8,392,425.6,392,425.5,391.8z M425.5,396.8h4v26.7h-4V396.8z"/>
		<path class="st0" d="M441,422.6c-1.7-0.8-2.9-2.1-3.7-4.1c-0.8-2-1.2-4.8-1.2-8.4c0-3.7,0.4-6.5,1.3-8.5c0.8-2,2.1-3.3,3.7-4.1
			c1.6-0.7,3.8-1.1,6.6-1.1c2.7,0,4.9,0.4,6.6,1.1c1.7,0.8,2.9,2.1,3.8,4.1c0.8,2,1.3,4.8,1.3,8.4c0,3.6-0.4,6.4-1.3,8.4
			c-0.8,2-2.1,3.4-3.7,4.1c-1.6,0.8-3.9,1.1-6.6,1.1C444.9,423.8,442.7,423.4,441,422.6z M451.9,419.8c1-0.5,1.9-1.5,2.4-3
			c0.6-1.5,0.9-3.8,0.9-6.8s-0.3-5.2-0.8-6.7c-0.5-1.5-1.4-2.5-2.4-3c-1.1-0.5-2.5-0.7-4.4-0.7c-1.9,0-3.3,0.2-4.4,0.7
			c-1,0.5-1.9,1.5-2.4,3c-0.5,1.5-0.8,3.7-0.8,6.7s0.3,5.3,0.8,6.8s1.4,2.5,2.4,3c1.1,0.5,2.5,0.7,4.4,0.7
			C449.4,420.5,450.9,420.3,451.9,419.8z"/>
		<path class="st0" d="M465.9,396.8h3.1l0.9,3c1.4-1,3-1.8,4.6-2.4c1.7-0.7,3.4-1,5.1-1c2.8,0,4.8,0.9,6.2,2.5c1.4,1.7,2,3.9,2,6.5
			v18.1h-4v-17.7c0-1.7-0.5-3.1-1.5-4.2c-1-1.1-2.3-1.6-4.1-1.6c-1.6,0-3,0.2-4.3,0.6c-1.3,0.4-2.7,1.1-4.2,2v21h-4V396.8z"/>
	</g>
	<g>
		<rect x="0" y="473" class="st1" width="1369.4" height="2"/>
	</g>
	<g>
		<path class="st0" d="M181,554.5c-2.3-0.2-4.1-0.4-5.3-0.6v-3c2.6,0.3,6.3,0.4,11,0.4c2.5,0,4.5-0.4,5.9-1.2
			c1.4-0.8,2.1-2.3,2.1-4.3v-2.5c0-3.5-1.8-5.2-5.5-5.2h-3.9c-3.2,0-5.6-0.7-7.2-2.1c-1.6-1.4-2.5-3.7-2.5-6.8V527
			c0-3.4,0.9-5.8,2.7-7.3c1.8-1.5,4.5-2.3,8-2.3c1.5,0,3.3,0.1,5.4,0.3c2.1,0.2,3.8,0.5,5.2,0.7v3c-4.5-0.3-7.9-0.5-10.2-0.5
			c-2.5,0-4.3,0.4-5.5,1.3c-1.2,0.9-1.8,2.5-1.8,4.8v1.7c0,1.9,0.5,3.3,1.5,4.1c1,0.8,2.5,1.2,4.5,1.2h4.3c2.9,0,5.1,0.8,6.6,2.3
			s2.3,3.6,2.3,6.2v2.9c0,3.4-1,5.8-3.1,7.2c-2.1,1.3-4.9,2-8.5,2C185.2,554.8,183.3,554.7,181,554.5z"/>
		<path class="st0" d="M208.3,552.5c-1.2-1.4-1.8-3.6-1.8-6.6l0.1-14.8h-4.3v-2.5l4.3-0.7l0.7-7.4h3v7.4h7.7v3.3h-7.7v14.8
			c0,2,0.4,3.4,1.1,4.2c0.8,0.8,1.7,1.2,2.9,1.3l3.3,0.3v2.9h-3.6C211.4,554.5,209.5,553.8,208.3,552.5z"/>
		<path class="st0" d="M223.6,527.8h3l1,4.7c1.3-1.6,2.7-2.8,4.2-3.7c1.5-0.9,3.1-1.3,4.9-1.3c0.9,0,1.7,0.1,2.5,0.3v4
			c-1.5-0.2-2.5-0.3-2.9-0.3c-1.8,0-3.3,0.3-4.6,1c-1.3,0.6-2.7,1.7-4.2,3v19h-4V527.8z"/>
		<path class="st0" d="M244.2,522.8c-0.2-0.2-0.2-0.3-0.2-0.6v-3.9c0-0.5,0.3-0.8,0.8-0.8h2.8c0.5,0,0.8,0.3,0.8,0.8v3.9
			c0,0.5-0.3,0.8-0.8,0.8h-2.8C244.5,523,244.3,523,244.2,522.8z M244.2,527.8h4v26.7h-4V527.8z"/>
		<path class="st0" d="M255.7,527.8h3.1l0.9,3c1.4-1,3-1.8,4.6-2.4c1.7-0.7,3.4-1,5.1-1c2.8,0,4.8,0.8,6.2,2.5c1.4,1.7,2,3.8,2,6.5
			v18.1h-4v-17.7c0-1.7-0.5-3.1-1.5-4.2c-1-1.1-2.3-1.6-4.1-1.6c-1.6,0-3,0.2-4.3,0.6c-1.3,0.4-2.7,1.1-4.2,2v21h-4V527.8z"/>
		<path class="st0" d="M309,530l-6,0.5c0.7,0.4,1.2,0.9,1.7,1.3c0.4,0.5,0.8,1.1,1.2,2c0.4,0.9,0.5,2.1,0.5,3.5
			c0,2.3-0.8,4.3-2.3,5.8s-3.9,2.3-7.2,2.3h-4.3c-1.5,0-2.6,0.2-3.4,0.7c-0.8,0.4-1.2,1.2-1.2,2.2c0,0.7,0.3,1.3,0.8,1.7
			c0.5,0.4,1.2,0.5,2,0.5h8.9c3.1,0,5.4,0.6,6.9,1.8c1.5,1.2,2.3,3.1,2.3,5.6v1.1c0,2.5-0.8,4.4-2.5,5.8c-1.7,1.4-4.1,2-7.3,2h-7.4
			c-2.7,0-4.8-0.6-6.4-1.7c-1.6-1.1-2.4-2.8-2.4-4.9v-1.2c0-1.5,0.4-2.7,1.2-3.8s1.9-1.8,3.1-2.4c-0.8-0.4-1.5-0.9-1.9-1.6
			c-0.4-0.7-0.6-1.5-0.6-2.3c0-2.5,1.5-4.1,4.5-4.8c-1.7-0.7-3-1.7-3.7-3.1s-1.1-2.9-1.1-4.6c0-5.7,3.4-8.6,10.3-8.6H309V530z
			 M292.4,553.6c-1.6,0-3,0.4-4.1,1.2c-1.1,0.8-1.7,2-1.7,3.5v1.1c0,3,2,4.5,6,4.5h6.2c2.1,0,3.7-0.4,4.8-1.2c1.1-0.8,1.7-2,1.7-3.6
			v-1c0-1.4-0.4-2.5-1.4-3.3c-0.9-0.8-2.4-1.2-4.6-1.2H292.4z M301.4,540.9c0.9-1,1.4-2.3,1.4-4c0-4-1.9-6-5.8-6h-2.9
			c-2,0-3.5,0.4-4.5,1.3c-1,0.9-1.5,2.3-1.5,4.4c0,3.9,1.8,5.9,5.5,5.9h3C298.8,542.4,300.5,541.9,301.4,540.9z"/>
		<path class="st0" d="M329.1,552.6c-1.1-1.3-1.7-3.5-1.7-6.7v-29.6h4v29.1c0,2.2,0.3,3.7,0.9,4.5s1.6,1.3,2.9,1.5l2.7,0.3v2.8h-3.4
			C332,554.5,330.3,553.9,329.1,552.6z"/>
		<path class="st0" d="M342.1,522.8c-0.2-0.2-0.2-0.3-0.2-0.6v-3.9c0-0.5,0.3-0.8,0.8-0.8h2.8c0.5,0,0.8,0.3,0.8,0.8v3.9
			c0,0.5-0.3,0.8-0.8,0.8h-2.8C342.5,523,342.3,523,342.1,522.8z M342.1,527.8h4v26.7h-4V527.8z"/>
		<path class="st0" d="M356.7,552.5c-1.2-1.4-1.8-3.6-1.8-6.6l0.1-14.8h-4.3v-2.5l4.3-0.7l0.7-7.4h3v7.4h7.7v3.3h-7.7v14.8
			c0,2,0.4,3.4,1.1,4.2c0.8,0.8,1.7,1.2,2.9,1.3l3.3,0.3v2.9h-3.6C359.9,554.5,357.9,553.8,356.7,552.5z"/>
		<path class="st0" d="M375.5,553.5c-1.6-0.8-2.7-2.2-3.4-4.2c-0.7-2-1-4.7-1-8.3c0-3.6,0.4-6.3,1.1-8.3c0.7-2,1.9-3.3,3.5-4.1
			s3.8-1.2,6.6-1.2c2.4,0,4.4,0.3,5.9,0.8c1.5,0.5,2.6,1.4,3.3,2.7c0.7,1.3,1.1,3.1,1.1,5.3c0,2.3-0.7,3.9-2,4.9
			c-1.3,1-3.2,1.5-5.6,1.5H375c0,2.3,0.3,4.1,0.7,5.3c0.4,1.3,1.2,2.2,2.4,2.8c1.2,0.6,2.9,0.9,5.1,0.9h8.6v2.4
			c-1.8,0.2-3.4,0.4-4.8,0.5c-1.4,0.1-3,0.2-4.8,0.2C379.3,554.8,377.1,554.4,375.5,553.5z M384.5,540.1c1.5,0,2.6-0.3,3.4-0.9
			c0.7-0.6,1-1.5,1-2.9c0-2.2-0.5-3.8-1.5-4.6c-1-0.9-2.7-1.3-5.1-1.3c-1.9,0-3.4,0.3-4.4,0.8c-1,0.6-1.8,1.5-2.2,2.9
			c-0.4,1.4-0.6,3.3-0.6,6H384.5z"/>
		<path class="st0" d="M399.1,527.8h3l1,4.7c1.3-1.6,2.7-2.8,4.2-3.7c1.5-0.9,3.1-1.3,4.9-1.3c0.9,0,1.7,0.1,2.5,0.3v4
			c-1.5-0.2-2.5-0.3-2.9-0.3c-1.8,0-3.3,0.3-4.6,1c-1.3,0.6-2.7,1.7-4.2,3v19h-4V527.8z"/>
		<path class="st0" d="M419,553c-1.3-1.2-1.9-2.8-1.9-4.9v-1.9c0-2.2,0.7-3.9,2.1-5.2c1.4-1.3,3.5-1.9,6.2-1.9h9v-3.3
			c0-1.8-0.5-3.1-1.5-4c-1-0.9-2.8-1.3-5.4-1.3h-8.3v-2.3c3.1-0.5,6.4-0.8,9.8-0.8c3.2,0,5.6,0.7,7.1,2c1.5,1.3,2.3,3.4,2.3,6.3
			v18.8h-3.1l-0.8-3c-0.2,0.2-1,0.6-2.2,1.2c-1.2,0.6-2.6,1.1-4.2,1.5c-1.6,0.5-3.1,0.7-4.5,0.7C421.9,554.8,420.2,554.2,419,553z
			 M428.9,551.3c1.3-0.3,2.5-0.7,3.5-1.1c1-0.4,1.7-0.6,2.1-0.8v-8.4l-8.1,0.3c-1.8,0.1-3.2,0.5-4,1.4s-1.3,2-1.3,3.4v1.2
			c0,1.5,0.4,2.7,1.3,3.3c0.9,0.7,2,1.1,3.2,1.1C426.5,551.8,427.6,551.7,428.9,551.3z"/>
		<path class="st0" d="M447.6,552.6c-1.1-1.3-1.7-3.5-1.7-6.7v-29.6h4v29.1c0,2.2,0.3,3.7,0.9,4.5s1.6,1.3,2.9,1.5l2.7,0.3v2.8h-3.4
			C450.5,554.5,448.8,553.9,447.6,552.6z"/>
	</g>
	<g>
		<rect x="0" y="604" class="st1" width="1369.4" height="2"/>
	</g>
	<g>
		<path class="st0" d="M176.4,648.7H191c6.4,0,9.6,3.9,9.6,11.8c0,4.6-1,7.8-2.9,9.5c-1.9,1.7-4.2,2.6-6.9,2.6c-1,0-2.6-0.1-4.8-0.2
			c-2.3-0.1-4.1-0.2-5.6-0.3v13.5h-4V648.7z M190.3,669c4.2,0,6.3-2.8,6.3-8.5c0-5.5-2-8.2-6-8.2h-10.3V669H190.3z"/>
		<path class="st0" d="M206.5,658.8h3l1,4.7c1.3-1.6,2.7-2.8,4.2-3.7c1.5-0.9,3.1-1.3,4.9-1.3c0.9,0,1.7,0.1,2.5,0.3v4
			c-1.5-0.2-2.5-0.3-2.9-0.3c-1.8,0-3.3,0.3-4.6,1c-1.3,0.6-2.7,1.7-4.2,3v19h-4V658.8z"/>
		<path class="st0" d="M227.1,653.8c-0.2-0.2-0.2-0.3-0.2-0.6v-3.9c0-0.5,0.3-0.8,0.8-0.8h2.8c0.5,0,0.8,0.3,0.8,0.8v3.9
			c0,0.5-0.3,0.8-0.8,0.8h-2.8C227.5,654,227.3,654,227.1,653.8z M227.1,658.8h4v26.7h-4V658.8z"/>
		<path class="st0" d="M238.7,658.8h3.1l0.9,3c1.4-1,3-1.8,4.6-2.4c1.7-0.7,3.4-1,5.1-1c2.8,0,4.8,0.8,6.2,2.5c1.4,1.7,2,3.8,2,6.5
			v18.1h-4v-17.7c0-1.7-0.5-3.1-1.5-4.2c-1-1.1-2.3-1.6-4.1-1.6c-1.6,0-3,0.2-4.3,0.6c-1.3,0.4-2.7,1.1-4.2,2v21h-4V658.8z"/>
		<path class="st0" d="M271.1,683.5c-1.2-1.4-1.8-3.6-1.8-6.6l0.1-14.8h-4.3v-2.5l4.3-0.7l0.7-7.4h3v7.4h7.7v3.3h-7.7v14.8
			c0,2,0.4,3.4,1.1,4.2c0.8,0.8,1.7,1.2,2.9,1.3l3.3,0.3v2.9h-3.6C274.3,685.5,272.3,684.8,271.1,683.5z"/>
		<path class="st0" d="M291.1,685.5c-2.3-0.2-4.1-0.4-5.3-0.6v-3c2.6,0.3,6.3,0.4,11,0.4c2.5,0,4.5-0.4,5.9-1.2
			c1.4-0.8,2.1-2.3,2.1-4.3v-2.5c0-3.5-1.8-5.2-5.5-5.2h-3.9c-3.2,0-5.6-0.7-7.2-2.1c-1.6-1.4-2.5-3.7-2.5-6.8V658
			c0-3.4,0.9-5.8,2.7-7.3c1.8-1.5,4.5-2.3,8-2.3c1.5,0,3.3,0.1,5.4,0.3c2.1,0.2,3.8,0.5,5.2,0.7v3c-4.5-0.3-7.9-0.5-10.2-0.5
			c-2.5,0-4.3,0.4-5.5,1.3c-1.2,0.9-1.8,2.5-1.8,4.8v1.7c0,1.9,0.5,3.3,1.5,4.1c1,0.8,2.5,1.2,4.5,1.2h4.3c2.9,0,5.1,0.8,6.6,2.3
			s2.3,3.6,2.3,6.2v2.9c0,3.4-1,5.8-3.1,7.2c-2.1,1.3-4.9,2-8.5,2C295.3,685.8,293.4,685.7,291.1,685.5z"/>
		<path class="st0" d="M318.4,683.5c-1.2-1.4-1.8-3.6-1.8-6.6l0.1-14.8h-4.3v-2.5l4.3-0.7l0.7-7.4h3v7.4h7.7v3.3h-7.7v14.8
			c0,2,0.4,3.4,1.1,4.2c0.8,0.8,1.7,1.2,2.9,1.3l3.3,0.3v2.9h-3.6C321.5,685.5,319.6,684.8,318.4,683.5z"/>
		<path class="st0" d="M333.7,658.8h3l1,4.7c1.3-1.6,2.7-2.8,4.2-3.7c1.5-0.9,3.1-1.3,4.9-1.3c0.9,0,1.7,0.1,2.5,0.3v4
			c-1.5-0.2-2.5-0.3-2.9-0.3c-1.8,0-3.3,0.3-4.6,1c-1.3,0.6-2.7,1.7-4.2,3v19h-4V658.8z"/>
		<path class="st0" d="M357.8,684.5c-1.6-0.8-2.7-2.2-3.4-4.2c-0.7-2-1-4.7-1-8.3c0-3.6,0.4-6.3,1.1-8.3c0.7-2,1.9-3.3,3.5-4.1
			s3.8-1.2,6.6-1.2c2.4,0,4.4,0.3,5.9,0.8c1.5,0.5,2.6,1.4,3.3,2.7c0.7,1.3,1.1,3.1,1.1,5.3c0,2.3-0.7,3.9-2,4.9
			c-1.3,1-3.2,1.5-5.6,1.5h-9.8c0,2.3,0.3,4.1,0.7,5.3c0.4,1.3,1.2,2.2,2.4,2.8c1.2,0.6,2.9,0.9,5.1,0.9h8.6v2.4
			c-1.8,0.2-3.4,0.4-4.8,0.5c-1.4,0.1-3,0.2-4.8,0.2C361.6,685.8,359.4,685.4,357.8,684.5z M366.7,671.1c1.5,0,2.6-0.3,3.4-0.9
			c0.7-0.6,1-1.5,1-2.9c0-2.2-0.5-3.8-1.5-4.6c-1-0.9-2.7-1.3-5.1-1.3c-1.9,0-3.4,0.3-4.4,0.8c-1,0.6-1.8,1.5-2.2,2.9
			c-0.4,1.4-0.6,3.3-0.6,6H366.7z"/>
		<path class="st0" d="M381.6,684c-1.3-1.2-1.9-2.8-1.9-4.9v-1.9c0-2.2,0.7-3.9,2.1-5.2c1.4-1.3,3.5-1.9,6.2-1.9h9v-3.3
			c0-1.8-0.5-3.1-1.5-4c-1-0.9-2.8-1.3-5.4-1.3H382v-2.3c3.1-0.5,6.4-0.8,9.8-0.8c3.2,0,5.6,0.7,7.1,2c1.5,1.3,2.3,3.4,2.3,6.3v18.8
			h-3.1l-0.8-3c-0.2,0.2-1,0.6-2.2,1.2c-1.2,0.6-2.6,1.1-4.2,1.5c-1.6,0.5-3.1,0.7-4.5,0.7C384.5,685.8,382.9,685.2,381.6,684z
			 M391.6,682.3c1.3-0.3,2.5-0.7,3.5-1.1c1-0.4,1.7-0.6,2.1-0.8v-8.4l-8.1,0.3c-1.8,0.1-3.2,0.5-4,1.4s-1.3,2-1.3,3.4v1.2
			c0,1.5,0.4,2.7,1.3,3.3c0.9,0.7,2,1.1,3.2,1.1C389.2,682.8,390.3,682.7,391.6,682.3z"/>
		<path class="st0" d="M408.6,658.8h3.1l0.9,3c3.3-2.3,6.7-3.4,10-3.4c1.6,0,3,0.4,4.2,1.1c1.2,0.7,2.1,1.7,2.8,2.9
			c1.4-1,3.1-1.9,5.1-2.8c2-0.8,3.9-1.2,5.6-1.2c2.8,0,4.8,0.8,6.3,2.5c1.4,1.7,2.1,3.9,2.1,6.6v18h-3.9v-17.7
			c0-1.7-0.5-3.1-1.5-4.2c-1-1.1-2.4-1.6-4.1-1.6c-1.4,0-2.9,0.3-4.5,0.8c-1.6,0.5-3,1.2-4.5,2.1c0.3,1.1,0.5,2.1,0.5,3v17.6h-4
			v-17.7c0-1.7-0.5-3.1-1.5-4.2c-1-1.1-2.3-1.6-4.1-1.6c-1.6,0-3,0.2-4.3,0.6c-1.3,0.4-2.7,1.1-4.2,2v21h-4V658.8z"/>
	</g>
	<g>
		<rect x="0" y="735" class="st1" width="1369.4" height="2"/>
	</g>
	<g>
		<path class="st0" d="M181.5,817.4c-2-0.9-3.5-2.7-4.5-5.3c-1-2.7-1.5-6.6-1.5-11.8c0-5.2,0.5-9.2,1.6-11.9
			c1.1-2.7,2.6-4.6,4.6-5.5c2-1,4.7-1.5,8-1.5c3.5,0,6.2,0.5,8.2,1.4c2,0.9,3.5,2.8,4.5,5.5s1.5,6.7,1.5,11.9s-0.5,9.2-1.5,11.8
			c-1,2.6-2.5,4.4-4.5,5.3c-2,0.9-4.7,1.4-8.2,1.4C186.2,818.8,183.5,818.3,181.5,817.4z M195.8,814.1c1.4-0.7,2.5-2.2,3.1-4.3
			c0.7-2.1,1-5.3,1-9.6c0-4.4-0.3-7.7-1-9.9c-0.7-2.2-1.7-3.6-3.1-4.3c-1.4-0.7-3.5-1.1-6.1-1.1c-2.5,0-4.5,0.4-5.9,1.1
			c-1.4,0.7-2.5,2.2-3.2,4.4c-0.7,2.2-1.1,5.5-1.1,9.9c0,4.3,0.3,7.5,1,9.6c0.6,2.1,1.7,3.5,3.1,4.3c1.4,0.7,3.5,1.1,6.2,1.1
			C192.3,815.2,194.4,814.9,195.8,814.1z"/>
		<path class="st0" d="M214.6,815.8l-0.8,2.7h-3.2v-38.2h4v13.9c1.4-0.8,2.9-1.5,4.5-2c1.6-0.5,3-0.8,4.3-0.8c3.3,0,5.7,1.1,7.2,3.2
			c1.5,2.1,2.3,5.7,2.3,10.7c0,9-3.1,13.5-9.4,13.5C220.4,818.8,217.4,817.8,214.6,815.8z M227.2,812.9c1.1-1.7,1.7-4.3,1.7-7.7
			c0-2.8-0.3-5-0.8-6.5c-0.5-1.5-1.3-2.6-2.3-3.1c-1-0.6-2.2-0.8-3.6-0.8c-1.4,0-2.7,0.2-3.9,0.5c-1.2,0.4-2.4,0.9-3.8,1.7v16.3
			c1.2,0.7,2.5,1.2,3.7,1.6c1.2,0.4,2.5,0.6,4,0.6C224.4,815.5,226.1,814.6,227.2,812.9z"/>
		<path class="st0" d="M239.5,786.8c-0.1-0.2-0.2-0.3-0.2-0.6v-3.9c0-0.5,0.3-0.8,0.8-0.8h2.9c0.2,0,0.4,0.1,0.5,0.2
			c0.1,0.2,0.2,0.3,0.2,0.6v3.9c0,0.2-0.1,0.4-0.2,0.6c-0.1,0.1-0.3,0.2-0.5,0.2h-2.9C239.8,787,239.6,787,239.5,786.8z
			 M239.5,791.8h4v25.8c0,2.3-0.1,4.6-0.3,6.9c-0.2,2.3-0.4,4.2-0.7,5.8h-3V791.8z"/>
		<path class="st0" d="M254.6,817.5c-1.6-0.8-2.7-2.2-3.4-4.2c-0.7-2-1-4.7-1-8.3c0-3.6,0.4-6.3,1.1-8.3s1.9-3.3,3.5-4.2
			c1.6-0.8,3.8-1.2,6.6-1.2c2.4,0,4.4,0.3,5.9,0.8c1.5,0.5,2.6,1.4,3.3,2.7c0.7,1.3,1.1,3.1,1.1,5.3c0,2.3-0.7,3.9-2,4.9
			c-1.3,1-3.2,1.5-5.6,1.5h-9.8c0,2.3,0.3,4.1,0.7,5.3c0.4,1.3,1.2,2.2,2.4,2.8c1.2,0.6,2.9,0.9,5.1,0.9h8.6v2.4
			c-1.8,0.2-3.4,0.4-4.8,0.5c-1.4,0.1-3,0.2-4.8,0.2C258.4,818.8,256.2,818.4,254.6,817.5z M263.5,804.1c1.5,0,2.6-0.3,3.4-0.8
			c0.7-0.6,1-1.5,1-3c0-2.2-0.5-3.8-1.5-4.6c-1-0.8-2.7-1.3-5.1-1.3c-1.9,0-3.4,0.3-4.4,0.8c-1,0.6-1.8,1.5-2.2,2.9
			c-0.4,1.4-0.6,3.3-0.6,5.9H263.5z"/>
		<path class="st0" d="M279.9,815.8c-1.9-2-2.8-5.5-2.8-10.6c0-3.6,0.4-6.4,1.3-8.4s2.1-3.4,3.6-4.2c1.6-0.8,3.5-1.2,5.9-1.2
			c3.2,0,6.1,0.2,8.9,0.7v2.3H289c-1.8,0-3.3,0.3-4.4,0.9c-1.1,0.6-2,1.7-2.6,3.2c-0.6,1.5-0.9,3.8-0.9,6.6c0,2.7,0.3,4.9,0.9,6.4
			c0.6,1.5,1.5,2.6,2.6,3.2c1.1,0.6,2.6,0.9,4.4,0.9h8.1v2.3c-3.1,0.5-6.3,0.8-9.4,0.8C284.4,818.8,281.8,817.8,279.9,815.8z"/>
		<path class="st0" d="M305.7,816.5c-1.2-1.3-1.8-3.6-1.8-6.6l0.1-14.8h-4.3v-2.5l4.3-0.7l0.7-7.5h3v7.5h7.7v3.3h-7.7v14.8
			c0,2,0.4,3.4,1.1,4.2c0.8,0.8,1.7,1.2,2.9,1.3l3.3,0.3v2.9h-3.6C308.8,818.5,306.9,817.8,305.7,816.5z"/>
		<path class="st0" d="M335.5,802.8v-3.6l20.8-6.7v3.5l-17,5l17,5.2v3.4L335.5,802.8z"/>
		<path class="st0" d="M364.9,786.8c-0.2-0.2-0.2-0.3-0.2-0.6v-3.9c0-0.5,0.3-0.8,0.8-0.8h2.8c0.5,0,0.8,0.3,0.8,0.8v3.9
			c0,0.5-0.3,0.8-0.8,0.8h-2.8C365.3,787,365.1,787,364.9,786.8z M364.9,791.8h4v26.7h-4V791.8z"/>
		<path class="st0" d="M376.5,791.8h3.1l0.9,3c1.4-1,3-1.8,4.6-2.4c1.7-0.7,3.4-1,5.1-1c2.8,0,4.8,0.9,6.2,2.5c1.4,1.7,2,3.9,2,6.5
			v18.2h-4v-17.7c0-1.7-0.5-3.1-1.5-4.2c-1-1.1-2.3-1.6-4.1-1.6c-1.6,0-3,0.2-4.3,0.6s-2.7,1.1-4.2,2v21h-4V791.8z"/>
		<path class="st0" d="M405.9,786.8c-0.2-0.2-0.2-0.3-0.2-0.6v-3.9c0-0.5,0.3-0.8,0.8-0.8h2.8c0.5,0,0.8,0.3,0.8,0.8v3.9
			c0,0.5-0.3,0.8-0.8,0.8h-2.8C406.2,787,406,787,405.9,786.8z M405.9,791.8h4v26.7h-4V791.8z"/>
		<path class="st0" d="M420.5,816.5c-1.2-1.3-1.8-3.6-1.8-6.6l0.1-14.8h-4.3v-2.5l4.3-0.7l0.7-7.5h3v7.5h7.7v3.3h-7.7v14.8
			c0,2,0.4,3.4,1.1,4.2c0.8,0.8,1.7,1.2,2.9,1.3l3.3,0.3v2.9h-3.6C423.6,818.5,421.7,817.8,420.5,816.5z"/>
		<path class="st0" d="M436.9,806.2l17-5.2l-17-5v-3.5l20.8,6.7v3.6l-20.8,6.8V806.2z"/>
	</g>
	<g>
		<rect x="0" y="868" class="st1" width="1369.4" height="2"/>
	</g>
	<g>
		<rect x="953" y="0" class="st1" width="2" height="868.5"/>
	</g>
	<g>
		<rect x="1193" y="0" class="st1" width="2" height="868.5"/>
	</g>
	<g>
		<rect x="702" y="0" class="st1" width="2" height="868.5"/>
	</g>
	<g>
		<g>
			<path class="st2" d="M820.9,184.1l-7.4-9.4l-18-22.8l11.1-8.7l11.3,14.3c6.4-10.5,19-27.4,40.5-42.7l8.2,11.5
				c-30,21.4-41,46.6-41.1,46.8L820.9,184.1z"/>
		</g>
	</g>
	<g>
		<g>
			<path class="st2" d="M820.9,315.1l-7.4-9.4l-18-22.8l11.1-8.7l11.3,14.3c6.4-10.5,19-27.4,40.5-42.7l8.2,11.5
				c-30,21.4-41,46.6-41.1,46.8L820.9,315.1z"/>
		</g>
	</g>
	<g>
		<g>
			<path class="st2" d="M820.9,446.1l-7.4-9.4l-18-22.8l11.1-8.7l11.3,14.3c6.4-10.5,19-27.4,40.5-42.7l8.2,11.5
				c-30,21.4-41,46.6-41.1,46.8L820.9,446.1z"/>
		</g>
	</g>
	<g>
		<g>
			<path class="st2" d="M820.9,577.1l-7.4-9.4l-18-22.8l11.1-8.7l11.3,14.3c6.4-10.5,19-27.4,40.5-42.7l8.2,11.5
				c-30,21.4-41,46.6-41.1,46.8L820.9,577.1z"/>
		</g>
	</g>
	<g>
		<g>
			<path class="st2" d="M820.9,708.1l-7.4-9.4l-18-22.8l11.1-8.7l11.3,14.3c6.4-10.5,19-27.4,40.5-42.7l8.2,11.5
				c-30,21.4-41,46.6-41.1,46.8L820.9,708.1z"/>
		</g>
	</g>
	<g>
		<g>
			<path class="st2" d="M820.9,839.1l-7.4-9.4l-18-22.8l11.1-8.7l11.3,14.3c6.4-10.5,19-27.4,40.5-42.7l8.2,11.5
				c-30,21.4-41,46.6-41.1,46.8L820.9,839.1z"/>
		</g>
	</g>
</g>
</svg>
