<?xml version="1.0" encoding="utf-8"?>
<!-- Generator: Adobe Illustrator 22.0.1, SVG Export Plug-In . SVG Version: 6.00 Build 0)  -->
<svg version="1.1" id="Ebene_1" xmlns="http://www.w3.org/2000/svg" xmlns:xlink="http://www.w3.org/1999/xlink" x="0px" y="0px"
	 viewBox="0 0 1712.6 1154.2" style="enable-background:new 0 0 1712.6 1154.2;" xml:space="preserve">
<style type="text/css">
	.st0{fill:#CCCCCC;}
	.st1{fill:#253654;}
	.st2{fill:#4E789B;}
	.st3{fill:#97B9D3;}
	.st4{fill:#253654;stroke:#4E789B;stroke-width:4;stroke-linecap:round;stroke-linejoin:round;stroke-miterlimit:10;}
	.st5{fill:#F58219;}
	.st6{opacity:0.8;}
</style>
<g>
	<g>
		<g>
			<path class="st0" d="M392.4,441.2h26.2c7.7,0,13.3,2.8,16.7,8.3c3.4,5.5,5.1,13.8,5.1,24.8c0,10.6-1.8,18.7-5.5,24.5
				c-3.7,5.8-9.1,8.6-16.2,8.6h-26.2V441.2z M418,501c5.1,0,8.9-2.4,11.4-7.1c2.5-4.7,3.8-11.3,3.8-19.7c0-6.5-0.5-11.8-1.6-15.7
				c-1.1-3.9-2.7-6.7-4.9-8.4c-2.2-1.7-5.1-2.6-8.7-2.6h-18.5V501H418z"/>
			<path class="st0" d="M452.5,450.4c-0.3-0.3-0.4-0.6-0.4-1v-7c0-1,0.5-1.4,1.4-1.4h5c0.9,0,1.4,0.5,1.4,1.4v7c0,1-0.5,1.4-1.4,1.4
				h-5C453.1,450.8,452.8,450.7,452.5,450.4z M452.5,459.4h7.1v48.1h-7.1V459.4z"/>
			<path class="st0" d="M479.7,507.6c-4.1-0.2-6.9-0.5-8.4-0.9v-4.3H491c3.4,0,5.8-0.5,7.4-1.4c1.6-0.9,2.3-2.8,2.3-5.7v-2.2
				c0-4.5-2.9-6.8-8.7-6.8h-6.8c-4.6,0-8.2-0.9-10.7-2.7c-2.5-1.8-3.7-4.9-3.7-9.2v-2.5c0-4.6,1.3-7.9,4-10c2.7-2.1,7-3.1,12.9-3.1
				c2.6,0,5.6,0.1,9.1,0.4c3.5,0.3,6.3,0.6,8.2,0.9v4.3h-18.5c-3.2,0-5.6,0.5-7.2,1.6c-1.6,1.1-2.3,3-2.3,5.9v2
				c0,2.6,0.8,4.3,2.3,5.2c1.5,0.9,3.9,1.3,7.1,1.3h6.8c4.4,0,7.8,1,10.2,3.1c2.4,2,3.6,5,3.6,8.8v3.3c0,4.6-1.5,7.7-4.4,9.5
				c-2.9,1.8-7.2,2.7-12.8,2.7C487.1,508,483.7,507.9,479.7,507.6z"/>
			<path class="st0" d="M524.7,507.6c-4.1-0.2-6.9-0.5-8.4-0.9v-4.3H536c3.4,0,5.8-0.5,7.4-1.4c1.6-0.9,2.3-2.8,2.3-5.7v-2.2
				c0-4.5-2.9-6.8-8.7-6.8h-6.8c-4.6,0-8.2-0.9-10.7-2.7c-2.5-1.8-3.7-4.9-3.7-9.2v-2.5c0-4.6,1.3-7.9,4-10c2.7-2.1,7-3.1,12.9-3.1
				c2.6,0,5.6,0.1,9.1,0.4c3.5,0.3,6.3,0.6,8.2,0.9v4.3h-18.5c-3.2,0-5.6,0.5-7.2,1.6c-1.6,1.1-2.3,3-2.3,5.9v2
				c0,2.6,0.8,4.3,2.3,5.2c1.5,0.9,3.9,1.3,7.1,1.3h6.8c4.4,0,7.8,1,10.2,3.1c2.4,2,3.6,5,3.6,8.8v3.3c0,4.6-1.5,7.7-4.4,9.5
				c-2.9,1.8-7.2,2.7-12.8,2.7C532.1,508,528.7,507.9,524.7,507.6z"/>
			<path class="st0" d="M569.6,505.7c-2.9-1.5-4.9-4-6.2-7.6c-1.3-3.5-1.9-8.5-1.9-14.9c0-6.4,0.6-11.4,1.9-14.9
				c1.3-3.5,3.4-6,6.3-7.5c2.9-1.4,6.9-2.2,12-2.2c4.4,0,7.9,0.5,10.5,1.4c2.6,1,4.6,2.6,5.9,4.9c1.3,2.3,1.9,5.5,1.9,9.6
				c0,4.1-1.2,7-3.6,8.9c-2.4,1.8-5.7,2.7-10.1,2.7h-17.6c0.1,4.1,0.5,7.3,1.3,9.6c0.8,2.3,2.2,3.9,4.3,4.9c2.1,1.1,5.1,1.6,9.1,1.6
				h15.5v4.3c-3.2,0.4-6.1,0.7-8.6,0.9c-2.5,0.2-5.4,0.3-8.5,0.3C576.5,508,572.5,507.2,569.6,505.7z M585.7,481.6
				c2.8,0,4.8-0.5,6-1.5c1.3-1,1.9-2.8,1.9-5.3c0-4-0.9-6.8-2.7-8.3c-1.8-1.5-4.8-2.3-9.2-2.3c-3.5,0-6.2,0.5-8,1.5
				c-1.9,1-3.2,2.8-4,5.2c-0.8,2.5-1.2,6-1.2,10.7H585.7z"/>
			<path class="st0" d="M615.3,502.6c-3.3-3.6-5-9.9-5-19.1c0-6.4,0.8-11.4,2.3-15c1.5-3.6,3.7-6.1,6.5-7.5
				c2.8-1.4,6.3-2.1,10.5-2.1c5.8,0,11.1,0.4,15.9,1.3v4.2h-14c-3.3,0-6,0.5-8,1.6c-2,1.1-3.5,3-4.6,5.8c-1.1,2.8-1.6,6.8-1.6,11.9
				c0,4.9,0.6,8.7,1.7,11.5c1.1,2.7,2.7,4.6,4.7,5.7c2,1.1,4.6,1.6,7.8,1.6h14.7v4.1c-5.6,1-11.3,1.4-16.8,1.4
				C623.3,508,618.6,506.2,615.3,502.6z"/>
			<path class="st0" d="M661.6,503.8c-2.2-2.4-3.3-6.4-3.1-11.9l0.3-26.6H651v-4.6l7.7-1.3l1.2-13.4h5.5v13.4h13.9v5.9h-13.9v26.6
				c0,3.7,0.7,6.2,2.1,7.5c1.4,1.4,3.1,2.1,5.2,2.3l5.8,0.5v5.2H672C667.3,507.4,663.8,506.2,661.6,503.8z"/>
			<path class="st0" d="M689.1,450.4c-0.3-0.3-0.4-0.6-0.4-1v-7c0-1,0.5-1.4,1.4-1.4h5c0.9,0,1.4,0.5,1.4,1.4v7c0,1-0.5,1.4-1.4,1.4
				h-5C689.8,450.8,689.4,450.7,689.1,450.4z M689.1,459.4h7.1v48.1h-7.1V459.4z"/>
			<path class="st0" d="M709.9,459.4h5.6l1.5,5.3c2.5-1.7,5.3-3.2,8.4-4.4c3.1-1.2,6.1-1.8,9.2-1.8c5,0,8.7,1.5,11.2,4.6
				c2.5,3.1,3.7,6.9,3.7,11.6v32.7h-7.1v-31.9c0-3.1-0.9-5.7-2.7-7.6c-1.8-1.9-4.2-2.9-7.3-2.9c-2.9,0-5.4,0.4-7.7,1.1
				c-2.3,0.8-4.8,1.9-7.6,3.6v37.7h-7.1V459.4z"/>
			<path class="st0" d="M805.7,463.3l-10.8,0.9c1.2,0.8,2.2,1.6,3,2.4s1.5,2,2.2,3.7c0.6,1.7,0.9,3.7,0.9,6.3c0,4.2-1.3,7.7-4,10.4
				c-2.7,2.8-7,4.1-13,4.1h-7.6c-2.7,0-4.7,0.4-6.1,1.2c-1.4,0.8-2.1,2.1-2.1,4c0,1.3,0.5,2.3,1.5,3c1,0.7,2.2,1,3.6,1h15.9
				c5.6,0,9.7,1.1,12.5,3.2c2.7,2.2,4.1,5.5,4.1,10v2c0,4.4-1.5,7.9-4.5,10.4c-3,2.5-7.4,3.7-13.2,3.7h-13.4c-4.9,0-8.7-1-11.6-3
				c-2.9-2-4.3-5-4.3-8.9v-2.2c0-2.6,0.7-4.9,2.2-6.8c1.4-1.9,3.3-3.3,5.7-4.3c-1.5-0.7-2.6-1.7-3.4-2.9c-0.8-1.2-1.2-2.6-1.2-4.2
				c0-4.6,2.7-7.4,8.1-8.6c-3.1-1.3-5.3-3.1-6.6-5.6c-1.3-2.5-1.9-5.3-1.9-8.3c0-10.3,6.2-15.5,18.5-15.5h25.6V463.3z M775.9,505.8
				c-2.9,0-5.3,0.7-7.3,2.1c-2,1.4-3,3.5-3,6.3v2c0,5.3,3.6,8,10.7,8h11.2c3.7,0,6.6-0.7,8.6-2.1c2-1.4,3-3.6,3-6.4v-1.8
				c0-2.6-0.8-4.6-2.4-6c-1.6-1.4-4.4-2.1-8.3-2.1H775.9z M792.1,483c1.6-1.8,2.5-4.2,2.5-7.2c0-7.3-3.5-10.9-10.4-10.9H779
				c-3.6,0-6.3,0.8-8.2,2.4c-1.9,1.6-2.8,4.2-2.8,7.9c0,7,3.3,10.5,9.9,10.5h5.4C787.5,485.7,790.4,484.8,792.1,483z"/>
			<path class="st0" d="M839,441.2h7.2v30.7h33.1v-30.7h7.1v66.2h-7.1v-29.2h-33.1v29.2H839V441.2z"/>
			<path class="st0" d="M906.7,505.7c-2.8-1.5-4.9-4-6.2-7.6c-1.3-3.5-1.9-8.5-1.9-14.9c0-6.4,0.6-11.4,1.9-14.9
				c1.3-3.5,3.4-6,6.3-7.5c2.9-1.4,6.9-2.2,12-2.2c4.4,0,7.9,0.5,10.5,1.4c2.6,1,4.6,2.6,5.9,4.9c1.3,2.3,1.9,5.5,1.9,9.6
				c0,4.1-1.2,7-3.6,8.9c-2.4,1.8-5.7,2.7-10.1,2.7h-17.6c0.1,4.1,0.5,7.3,1.3,9.6c0.8,2.3,2.2,3.9,4.3,4.9c2.1,1.1,5.1,1.6,9.1,1.6
				h15.5v4.3c-3.2,0.4-6.1,0.7-8.6,0.9c-2.5,0.2-5.4,0.3-8.5,0.3C913.5,508,909.5,507.2,906.7,505.7z M922.7,481.6
				c2.8,0,4.8-0.5,6-1.5c1.3-1,1.9-2.8,1.9-5.3c0-4-0.9-6.8-2.7-8.3c-1.8-1.5-4.8-2.3-9.2-2.3c-3.5,0-6.2,0.5-8,1.5
				c-1.9,1-3.2,2.8-4,5.2c-0.8,2.5-1.2,6-1.2,10.7H922.7z"/>
			<path class="st0" d="M952.1,504c-2.1-2.3-3.1-6.3-3.1-12v-53.3h7.1v52.4c0,4,0.5,6.7,1.6,8.1s2.8,2.3,5.1,2.6l4.9,0.5v5.1h-6.1
				C957.3,507.5,954.2,506.4,952.1,504z"/>
			<path class="st0" d="M978.6,504c-2.1-2.3-3.1-6.3-3.1-12v-53.3h7.1v52.4c0,4,0.5,6.7,1.6,8.1s2.8,2.3,5.1,2.6l4.9,0.5v5.1h-6.1
				C983.8,507.5,980.6,506.4,978.6,504z"/>
			<path class="st0" d="M1009.1,505.9c-3-1.4-5.2-3.9-6.7-7.4c-1.5-3.6-2.2-8.6-2.2-15.2c0-6.6,0.7-11.7,2.3-15.3
				c1.5-3.6,3.7-6,6.7-7.3c2.9-1.3,6.9-2,11.9-2c4.9,0,8.9,0.7,11.9,2c3,1.4,5.2,3.8,6.8,7.4c1.5,3.6,2.3,8.6,2.3,15.2
				c0,6.5-0.8,11.6-2.3,15.2c-1.5,3.6-3.7,6-6.7,7.4c-3,1.4-6.9,2.1-11.9,2.1C1016.1,508,1012.1,507.3,1009.1,505.9z M1028.8,500.8
				c1.9-0.9,3.3-2.7,4.4-5.4c1-2.7,1.5-6.8,1.5-12.1s-0.5-9.4-1.5-12.1c-1-2.7-2.4-4.4-4.4-5.3c-1.9-0.9-4.5-1.3-7.8-1.3
				c-3.4,0-6,0.4-7.9,1.3c-1.9,0.9-3.3,2.6-4.3,5.3c-1,2.7-1.5,6.7-1.5,12.1s0.5,9.5,1.5,12.1c1,2.7,2.4,4.5,4.3,5.4
				c1.9,0.9,4.5,1.3,7.9,1.3C1024.3,502.1,1026.9,501.7,1028.8,500.8z"/>
			<path class="st0" d="M1074.4,441.2h7.4l14.2,56.4l16.4-56.4h7.2l16.3,56.4l14.2-56.4h7.4l-17,66.2h-7.7l-16.7-56.3l-16.8,56.3
				h-7.7L1074.4,441.2z"/>
			<path class="st0" d="M1170.9,505.9c-3-1.4-5.2-3.9-6.7-7.4c-1.5-3.6-2.2-8.6-2.2-15.2c0-6.6,0.8-11.7,2.3-15.3
				c1.5-3.6,3.7-6,6.7-7.3c2.9-1.3,6.9-2,11.9-2c4.9,0,8.9,0.7,11.9,2c3,1.4,5.3,3.8,6.8,7.4c1.5,3.6,2.3,8.6,2.3,15.2
				c0,6.5-0.8,11.6-2.3,15.2c-1.5,3.6-3.7,6-6.7,7.4c-3,1.4-6.9,2.1-11.9,2.1C1177.9,508,1173.9,507.3,1170.9,505.9z M1190.6,500.8
				c1.9-0.9,3.3-2.7,4.4-5.4c1-2.7,1.5-6.8,1.5-12.1s-0.5-9.4-1.5-12.1c-1-2.7-2.4-4.4-4.4-5.3c-1.9-0.9-4.5-1.3-7.8-1.3
				c-3.4,0-6,0.4-7.9,1.3c-1.9,0.9-3.3,2.6-4.3,5.3c-1,2.7-1.5,6.7-1.5,12.1s0.5,9.5,1.5,12.1c1,2.7,2.4,4.5,4.3,5.4
				c1.9,0.9,4.5,1.3,7.9,1.3C1186.1,502.1,1188.7,501.7,1190.6,500.8z"/>
			<path class="st0" d="M1215.7,459.4h5.4l1.7,8.4c2.3-2.8,4.9-5,7.6-6.6c2.7-1.6,5.7-2.3,8.9-2.3c1.6,0,3.1,0.2,4.5,0.5v7.3
				c-2.7-0.3-4.4-0.5-5.2-0.5c-3.2,0-5.9,0.6-8.2,1.7c-2.3,1.1-4.8,3-7.5,5.5v34.1h-7.1V459.4z"/>
			<path class="st0" d="M1255.9,504c-2.1-2.3-3.1-6.3-3.1-12v-53.3h7.1v52.4c0,4,0.5,6.7,1.6,8.1s2.8,2.3,5.1,2.6l4.9,0.5v5.1h-6.1
				C1261.1,507.5,1257.9,506.4,1255.9,504z"/>
			<path class="st0" d="M1281.7,502.1c-2.8-3.9-4.2-10-4.2-18.4c0-6,0.6-10.8,1.8-14.5c1.2-3.7,3.1-6.3,5.8-8
				c2.6-1.7,6.2-2.5,10.6-2.5c4.6,0,9.5,1,14.8,2.9v-22.9h7.1v68.7h-5.8l-1.3-4.9c-1.4,1.3-3.8,2.5-6.9,3.6
				c-3.2,1.2-6.1,1.8-8.7,1.8C1288.8,508,1284.5,506,1281.7,502.1z M1303.8,501c2.1-0.7,4.3-1.7,6.6-2.9v-31.4
				c-2.8-0.8-5.1-1.4-6.9-1.8c-1.8-0.4-3.8-0.5-6-0.5c-3.2,0-5.7,0.6-7.6,1.8c-1.9,1.2-3.2,3.1-4.1,5.9c-0.9,2.8-1.3,6.6-1.3,11.5
				c0,6.7,0.9,11.5,2.8,14.4c1.9,2.9,5,4.3,9.5,4.3C1299.4,502.1,1301.7,501.8,1303.8,501z"/>
		</g>
		<g>
			<path class="st0" d="M678.9,638.2l-0.8,2.7h-3.2v-38.2h4v13.9c1.4-0.8,2.9-1.5,4.5-2c1.6-0.5,3-0.8,4.3-0.8
				c3.3,0,5.7,1.1,7.2,3.2c1.5,2.1,2.3,5.7,2.3,10.7c0,9-3.1,13.4-9.4,13.4C684.7,641.2,681.8,640.2,678.9,638.2z M691.5,635.3
				c1.1-1.7,1.7-4.3,1.7-7.7c0-2.8-0.3-5-0.8-6.5c-0.5-1.5-1.3-2.6-2.3-3.1c-1-0.6-2.2-0.8-3.6-0.8c-1.4,0-2.7,0.2-3.9,0.5
				c-1.2,0.4-2.4,0.9-3.8,1.7v16.3c1.2,0.7,2.5,1.2,3.7,1.6c1.2,0.4,2.5,0.6,4,0.6C688.7,637.9,690.4,637.1,691.5,635.3z"/>
			<path class="st0" d="M713.4,640.9c-1.5,0-2.9-0.5-4.1-1.5c-1.2-1-2.2-2.5-2.9-4.8l-6.4-20.5h4.1l5.9,19.6
				c0.8,2.5,2.2,3.7,4.2,3.7l6.8-23.3h4.1l-9.8,33.6l-2.3,5H710L713.4,640.9z"/>
			<path class="st0" d="M748.1,640.9c-2.3-0.2-4.1-0.4-5.3-0.6v-3c2.6,0.3,6.3,0.4,11,0.4c2.5,0,4.5-0.4,5.9-1.2
				c1.4-0.8,2.1-2.3,2.1-4.3v-2.5c0-3.5-1.8-5.2-5.5-5.2h-3.9c-3.2,0-5.6-0.7-7.2-2.1c-1.6-1.4-2.5-3.7-2.5-6.8v-2.1
				c0-3.4,0.9-5.8,2.7-7.3c1.8-1.5,4.5-2.3,8-2.3c1.5,0,3.3,0.1,5.4,0.3c2.1,0.2,3.8,0.5,5.2,0.7v3c-4.5-0.3-7.9-0.4-10.2-0.4
				c-2.5,0-4.3,0.4-5.5,1.3c-1.2,0.9-1.8,2.5-1.8,4.8v1.7c0,1.9,0.5,3.3,1.5,4.1c1,0.8,2.5,1.2,4.5,1.2h4.3c2.9,0,5.1,0.8,6.6,2.3
				s2.3,3.6,2.3,6.2v2.8c0,3.4-1,5.8-3.1,7.2c-2.1,1.4-4.9,2-8.5,2C752.3,641.2,750.4,641.1,748.1,640.9z"/>
			<path class="st0" d="M772.3,609.2c-0.2-0.2-0.2-0.3-0.2-0.6v-3.9c0-0.5,0.3-0.8,0.8-0.8h2.8c0.5,0,0.8,0.3,0.8,0.8v3.9
				c0,0.5-0.3,0.8-0.8,0.8h-2.8C772.6,609.5,772.5,609.4,772.3,609.2z M772.3,614.2h4v26.7h-4V614.2z"/>
			<path class="st0" d="M783.8,614.2h3.1l0.9,3c3.3-2.3,6.7-3.4,10-3.4c1.6,0,3,0.4,4.2,1.1c1.2,0.7,2.1,1.7,2.8,2.9
				c1.4-1,3.1-1.9,5.1-2.8c2-0.8,3.9-1.2,5.6-1.2c2.8,0,4.8,0.8,6.3,2.5c1.4,1.7,2.1,3.9,2.1,6.6v18h-3.9v-17.7
				c0-1.7-0.5-3.1-1.5-4.2c-1-1.1-2.4-1.6-4.1-1.6c-1.4,0-2.9,0.3-4.5,0.8c-1.6,0.5-3,1.2-4.5,2.1c0.3,1.1,0.5,2.1,0.5,3v17.7h-4
				v-17.7c0-1.7-0.5-3.1-1.5-4.2c-1-1.1-2.3-1.6-4.1-1.6c-1.6,0-3,0.2-4.3,0.6c-1.3,0.4-2.7,1.1-4.2,2v21h-4V614.2z"/>
			<path class="st0" d="M835.2,640.1c-1.7-0.8-2.9-2.1-3.7-4.1c-0.8-2-1.2-4.8-1.2-8.4c0-3.7,0.4-6.5,1.3-8.5c0.8-2,2.1-3.3,3.7-4.1
				c1.6-0.7,3.8-1.1,6.6-1.1c2.7,0,4.9,0.4,6.6,1.1c1.7,0.8,2.9,2.1,3.8,4.1c0.8,2,1.3,4.8,1.3,8.4s-0.4,6.4-1.3,8.4
				c-0.8,2-2.1,3.4-3.7,4.1s-3.9,1.1-6.6,1.1C839.1,641.2,836.9,640.8,835.2,640.1z M846.2,637.2c1-0.5,1.9-1.5,2.4-3
				c0.6-1.5,0.9-3.8,0.9-6.8s-0.3-5.2-0.8-6.7c-0.5-1.5-1.4-2.5-2.4-3c-1.1-0.5-2.5-0.7-4.4-0.7c-1.9,0-3.3,0.2-4.4,0.7
				c-1,0.5-1.9,1.5-2.4,3c-0.5,1.5-0.8,3.7-0.8,6.7s0.3,5.3,0.8,6.8s1.4,2.5,2.4,3c1.1,0.5,2.5,0.7,4.4,0.7
				C843.7,638,845.1,637.7,846.2,637.2z"/>
			<path class="st0" d="M860.1,614.2h3.1l0.8,3c1.4-1,3-1.8,4.7-2.4c1.7-0.7,3.4-1,5.1-1c2.8,0,4.8,0.8,6.2,2.5c1.4,1.7,2,3.9,2,6.5
				v18.2h-4v-17.7c0-1.7-0.5-3.1-1.5-4.2c-1-1.1-2.3-1.6-4.1-1.6c-1.6,0-3,0.2-4.3,0.6c-1.3,0.4-2.7,1.1-4.2,2v21h-4V614.2z"/>
			<path class="st0" d="M907.7,640.9c-2.3-0.2-4.1-0.4-5.3-0.6v-3c2.6,0.3,6.3,0.4,11,0.4c2.5,0,4.5-0.4,5.9-1.2
				c1.4-0.8,2.1-2.3,2.1-4.3v-2.5c0-3.5-1.8-5.2-5.5-5.2h-3.9c-3.2,0-5.6-0.7-7.2-2.1c-1.7-1.4-2.5-3.7-2.5-6.8v-2.1
				c0-3.4,0.9-5.8,2.7-7.3c1.8-1.5,4.5-2.3,8-2.3c1.5,0,3.3,0.1,5.4,0.3c2.1,0.2,3.8,0.5,5.2,0.7v3c-4.5-0.3-7.9-0.4-10.2-0.4
				c-2.5,0-4.3,0.4-5.5,1.3c-1.2,0.9-1.8,2.5-1.8,4.8v1.7c0,1.9,0.5,3.3,1.5,4.1c1,0.8,2.5,1.2,4.5,1.2h4.3c2.9,0,5.1,0.8,6.6,2.3
				s2.3,3.6,2.3,6.2v2.8c0,3.4-1,5.8-3.1,7.2c-2.1,1.4-4.9,2-8.5,2C911.9,641.2,910,641.1,907.7,640.9z"/>
			<path class="st0" d="M933.7,638.2c-1.8-2-2.8-5.5-2.8-10.6c0-3.6,0.4-6.3,1.3-8.3s2.1-3.4,3.6-4.2c1.6-0.8,3.5-1.2,5.8-1.2
				c3.2,0,6.2,0.2,8.9,0.7v2.3h-7.8c-1.8,0-3.3,0.3-4.4,0.9s-2,1.7-2.5,3.2c-0.6,1.6-0.9,3.8-0.9,6.6c0,2.7,0.3,4.9,0.9,6.4
				c0.6,1.5,1.5,2.6,2.6,3.2c1.1,0.6,2.6,0.9,4.4,0.9h8.1v2.3c-3.1,0.5-6.3,0.8-9.3,0.8C938.2,641.2,935.6,640.2,933.7,638.2z"/>
			<path class="st0" d="M956.4,602.8h4v14.4c1.4-1,2.9-1.8,4.6-2.4c1.7-0.7,3.4-1,5.2-1c2.7,0,4.7,0.8,6.1,2.5
				c1.4,1.7,2.1,3.8,2.1,6.4v18.2h-4v-17.8c0-1.7-0.5-3.1-1.5-4.2c-1-1.1-2.3-1.6-4-1.6c-1.6,0-3,0.2-4.3,0.6
				c-1.3,0.4-2.7,1.1-4.2,2v21h-4V602.8z"/>
			<path class="st0" d="M989.3,640c-1.6-0.8-2.7-2.2-3.4-4.2c-0.7-2-1-4.7-1-8.3c0-3.6,0.4-6.3,1.1-8.3c0.7-2,1.9-3.3,3.5-4.1
				c1.6-0.8,3.8-1.2,6.7-1.2c2.4,0,4.4,0.3,5.8,0.8s2.6,1.4,3.3,2.7c0.7,1.3,1.1,3.1,1.1,5.3c0,2.3-0.7,3.9-2,4.9
				c-1.3,1-3.2,1.5-5.6,1.5h-9.8c0,2.3,0.3,4.1,0.7,5.3c0.4,1.3,1.2,2.2,2.4,2.8c1.2,0.6,2.9,0.9,5.1,0.9h8.6v2.4
				c-1.8,0.2-3.4,0.4-4.8,0.5c-1.4,0.1-3,0.2-4.8,0.2C993.1,641.2,990.9,640.8,989.3,640z M998.2,626.6c1.5,0,2.6-0.3,3.4-0.9
				c0.7-0.6,1-1.5,1-2.9c0-2.2-0.5-3.8-1.5-4.6c-1-0.8-2.7-1.3-5.1-1.3c-1.9,0-3.4,0.3-4.4,0.8c-1,0.6-1.8,1.5-2.2,2.9
				c-0.4,1.4-0.6,3.3-0.6,6H998.2z"/>
			<path class="st0" d="M1014.6,639c-1.1-1.3-1.7-3.5-1.7-6.7v-29.6h4v29.1c0,2.2,0.3,3.7,0.9,4.5c0.6,0.8,1.5,1.3,2.9,1.5l2.7,0.3
				v2.8h-3.4C1017.5,641,1015.7,640.3,1014.6,639z"/>
			<path class="st0" d="M1029.3,639c-1.2-1.3-1.7-3.5-1.7-6.7v-29.6h4v29.1c0,2.2,0.3,3.7,0.9,4.5c0.6,0.8,1.5,1.3,2.8,1.5l2.7,0.3
				v2.8h-3.4C1032.2,641,1030.4,640.3,1029.3,639z"/>
		</g>
		<g>
			<g>
				<path class="st1" d="M615.3,810.7L615.3,810.7c-5.5,13.4-20.8,19.9-34.2,14.4L543.2,799L185.1,660.7l-13.5-15.9l-36.5-14.5
					l-11.9,0.8l-93.6-30.4c-13.4-5.5-27-38.1-27-38.1c8.5-3.6,33.3-16,46.8-10.5l89.2,44.1l7.1,8.4l36.7,15.3l22.2-1.4l352.9,151.1
					l43.6,6.9C614.3,782,620.8,797.3,615.3,810.7z"/>
				<path class="st2" d="M591,829.1c-3.5,0-7.1-0.7-10.6-2.1l-0.4-0.2l-37.7-26.1L183.9,662.4l-13.5-15.9l-35.6-14.1l-11.9,0.8
					l-0.4-0.1l-93.7-30.5c-14-5.7-27.5-37.8-28.1-39.2L0,561.5l1.8-0.8c0.9-0.4,2.1-0.9,3.4-1.5c11.3-5,32.2-14.3,44.9-9.1l0.1,0.1
					l89.5,44.3l7,8.3l35.8,15l22.2-1.4l0.4,0.2l352.7,151l43.6,6.9l0.2,0.1c7,2.8,12.5,8.2,15.4,15.2c2.9,7,3,14.6,0.1,21.6l0,0
					C612.7,822.5,602.1,829.1,591,829.1z M582.1,823.4c12.3,4.9,26.4-1.1,31.4-13.4c2.4-6,2.4-12.6-0.1-18.6
					c-2.5-5.9-7.1-10.5-13-13l-43.6-6.9l-0.2-0.1L204.1,620.5l-22.2,1.4l-37.5-15.7l-7.1-8.4l-88.7-43.8
					c-11.2-4.5-31.8,4.7-41.7,9.1c-0.6,0.2-1.1,0.5-1.6,0.7c3,6.8,14.3,30.7,25,35.2l93.2,30.3l12-0.8l37.4,14.8l13.5,15.9
					l357.9,138.1L582.1,823.4z"/>
			</g>
			<g>
				<line class="st3" x1="135.1" y1="630.3" x2="145.6" y2="604.5"/>
				
					<rect x="126.4" y="614.9" transform="matrix(0.377 -0.9262 0.9262 0.377 -484.4322 514.6809)" class="st2" width="27.9" height="5"/>
			</g>
			<g>
				<line class="st3" x1="171.6" y1="644.8" x2="181.8" y2="619.7"/>
				
					<rect x="163.2" y="629.7" transform="matrix(0.377 -0.9262 0.9262 0.377 -475.5028 557.5751)" class="st2" width="27.1" height="5"/>
			</g>
			<g>
				<line class="st3" x1="176.9" y1="634.7" x2="612.7" y2="812.1"/>
				
					<rect x="392.3" y="488.1" transform="matrix(0.377 -0.9262 0.9262 0.377 -424.0837 816.4037)" class="st2" width="5" height="470.6"/>
			</g>
		</g>
		<g>
			<path class="st2" d="M1653.9,656c-1.3,0-2.6-0.1-3.9-0.2c-11.1-1-31.3-7.6-41.3-40.4c-14-45.8,5.5-60.6,28-77.6
				c15.1-11.4,32.2-24.4,42.4-49.1c4.4-10.7,4.6-19.4,0.6-26.4c-10.3-18.2-47.3-23.9-86.4-29.9c-24.7-3.8-50.3-7.7-71.1-15.1
				c-10.4-3.7-17.1-9.7-19.9-17.8c-7.7-22.3,15-57.8,37-92.1c17.7-27.7,36.1-56.3,36.4-75.5c0.4-24.7-38-44.2-82.6-66.9
				c-15.8-8-32.3-16.4-48.1-25.6c-21.4,41.1-57,84.6-101.9,121c-19.4,15.7-37.1,22.3-54.3,20.1c-30-3.7-52.4-33.7-74-62.6
				c-18.6-24.8-36.1-48.3-57.2-54.8c-36.6-11.2-48.7-2.4-70.7,13.7c-13.6,9.9-30.5,22.3-58.7,34.2c-31,13-68.6,3.4-108.8-27.7
				c-30.1-23.3-51.5-50.9-51.7-51.2l3.2-2.4c0.2,0.3,21.3,27.5,51,50.5c27.2,21,67.4,42.8,104.8,27.1c27.7-11.7,44.4-23.9,57.9-33.7
				c22.3-16.3,35.7-26.1,74.2-14.3c22.3,6.9,40.3,30.8,59.3,56.2c21.2,28.3,43.1,57.5,71.3,61.1c16,2,32.8-4.3,51.3-19.3
				c42.3-34.3,78.9-77.8,101-119.9c-27.2-16.1-51.9-34.6-66.7-57.5c-17.6-27.3-14.5-46-8.8-56.8c7.2-13.7,23.1-22.6,41.5-23.2
				c21.4-0.7,40.5,9.2,51.2,26.5c15.9,25.8,10,66.1-11.8,109.4c15.8,9.2,32.3,17.6,48.1,25.6c45.7,23.3,85.2,43.4,84.7,70.5
				c-0.4,20.3-18.2,48.1-37,77.6c-21.4,33.5-43.6,68.1-36.6,88.6c2.4,7,8.1,12,17.4,15.3c20.5,7.2,45.9,11.1,70.4,14.9
				c40.1,6.2,78,12,89.3,31.9c4.6,8.2,4.5,18-0.4,29.9c-10.6,25.8-28.2,39.1-43.7,50.8c-22.2,16.8-39.8,30.1-26.6,73.2
				c8.9,29,25.5,36.4,37.9,37.5c18.4,1.6,36.1-9.6,41.9-21c2.1-4.1,3.7-10.1-0.9-15.5c-10.2-11.8-19.3-17.5-27-16.9
				c-5.7,0.4-10.9,4.3-15.5,11.7l-3.4-2.1c5.3-8.4,11.6-13,18.6-13.5c9.1-0.7,19.3,5.5,30.3,18.3c4.7,5.5,5.2,12.6,1.5,19.9
				C1689.8,644.4,1672.5,656,1653.9,656z M1409.8,4c-0.7,0-1.4,0-2.1,0c-17,0.6-31.5,8.7-38.1,21.1c-5.2,9.9-7.9,27,8.6,52.8
				c14.3,22.2,38.4,40.3,65.1,56.1c0.1-0.1,0.1-0.3,0.2-0.4c22.1-44,26.3-81.3,11.7-104.9C1445.8,13.1,1428.8,4,1409.8,4z"/>
		</g>
		<g>
			<g>
				<path class="st1" d="M1706.2,522.7l-2.5,2.6c-5.9,6-15.5,6-21.5,0.1l-331.7-318.3l5.8-20.8l-77.9-74.8l-22.8,22.3
					c-4.5,3.6-9.2-3.1-6.4-5.6l30.5-29.7l84.5,80.6l21.1-5.7l320.8,327.9C1712.1,507.1,1712.1,516.8,1706.2,522.7z"/>
				<path class="st2" d="M1692.9,531.8c-4.4,0-8.8-1.7-12.1-5l-332.5-319.1l5.8-20.8l-75.6-72.7l-21.5,21c-3.3,2.6-6.9,1.3-8.8-1
					c-2.2-2.6-2.2-5.9-0.1-7.7l31.8-31l85.1,81.1l21.1-5.7l321.6,328.7c6.7,6.7,6.8,17.6,0.1,24.3l-2.5,2.6
					C1701.7,530.1,1697.3,531.8,1692.9,531.8z M1352.7,206.5l330.8,317.4c2.5,2.5,5.8,3.8,9.3,3.8c0,0,0,0,0.1,0
					c3.5,0,6.8-1.4,9.3-3.9l2.5-2.6c5.1-5.2,5.1-13.5-0.1-18.7l-320-327.1l-21,5.6l-83.9-80l-29.1,28.4c-0.4,0.4-0.2,1.4,0.5,2.2
					c0.6,0.7,1.7,1.6,3.2,0.5l24.1-23.5l80.1,77L1352.7,206.5z"/>
			</g>
			<g>
				<line class="st1" x1="1356.3" y1="186.3" x2="1364.2" y2="179"/>
				
					<rect x="1354.8" y="180.7" transform="matrix(0.7353 -0.6777 0.6777 0.7353 236.2326 970.2062)" class="st2" width="10.9" height="4"/>
			</g>
			<g>
				<polyline class="st1" points="1350.5,207.1 1368,190.1 1385.3,173.3 				"/>
				
					<rect x="1343.6" y="188.2" transform="matrix(0.7178 -0.6963 0.6963 0.7178 253.6192 1006.1279)" class="st2" width="48.5" height="4"/>
			</g>
			<g>
				<line class="st1" x1="1703.7" y1="525.3" x2="1365.8" y2="190.7"/>
				
					<rect x="1532.7" y="120.2" transform="matrix(0.7037 -0.7105 0.7105 0.7037 200.4383 1196.5586)" class="st2" width="4" height="475.5"/>
			</g>
		</g>
		<g>
			<g>
				<g>
					<path class="st2" d="M369.9,1136.5c-29.1,0-55.6-18.1-63.8-46.2c-4.9-16.7-2.6-34.4,6.4-49.8c9-15.4,23.5-26.7,41-31.8
						c36.2-10.5,73.8,8.9,83.8,43.3c4.9,16.7,2.6,34.4-6.4,49.8c-9,15.4-23.5,26.7-41,31.8C383.2,1135.5,376.5,1136.5,369.9,1136.5z
						 M354.1,1010.7l0.6,1.9c-16.5,4.8-30.3,15.4-38.7,29.9c-8.4,14.5-10.5,31-6,46.6c9.4,32.3,44.8,50.5,78.8,40.6
						c16.5-4.8,30.3-15.4,38.7-29.9c8.4-14.5,10.5-31,6-46.6c-9.4-32.3-44.8-50.5-78.8-40.6L354.1,1010.7z"/>
				</g>
				<g>
					<path class="st2" d="M369.9,1136.5c-29.1,0-55.6-18.1-63.8-46.2c-4.9-16.7-2.6-34.4,6.4-49.8c9-15.4,23.5-26.7,41-31.8
						c36.2-10.5,73.8,8.9,83.8,43.3c4.9,16.7,2.6,34.4-6.4,49.8c-9,15.4-23.5,26.7-41,31.8C383.2,1135.5,376.5,1136.5,369.9,1136.5z
						 M354.1,1010.7l0.6,1.9c-16.5,4.8-30.3,15.4-38.7,29.9c-8.4,14.5-10.5,31-6,46.6c9.4,32.3,44.8,50.5,78.8,40.6
						c16.5-4.8,30.3-15.4,38.7-29.9c8.4-14.5,10.5-31,6-46.6c-9.4-32.3-44.8-50.5-78.8-40.6L354.1,1010.7z"/>
				</g>
				<g>
					<path class="st1" d="M363.2,980.3l-89.7,26.1c-0.4,0.1-0.8,0.2-1.2,0.4c0.4-0.1,0.8-0.2,1.2-0.3l89.7-26.1l0.1,0.4l205.5-59.9
						l0.6-1.1l-206.4,60.1L363.2,980.3z"/>
					<path class="st2" d="M272.4,1008.8c-0.9,0-1.7-0.6-1.9-1.4c-0.3-1,0.2-2,1.2-2.4c0.4-0.2,0.9-0.3,1.3-0.5l88.6-25.8
						c0.3-0.3,0.6-0.6,1-0.7l206.4-60.2c0.8-0.2,1.6,0,2.1,0.7c0.5,0.6,0.6,1.5,0.2,2.2l-0.6,1.1c-0.3,0.5-0.7,0.8-1.2,1
						l-205.5,59.9c-0.4,0.1-0.8,0.1-1.2,0l-88.6,25.8c-0.5,0.1-0.9,0.2-1.4,0.3C272.7,1008.8,272.5,1008.8,272.4,1008.8z"/>
				</g>
				<g>
					<path class="st2" d="M319.5,963.5c-29.1,0-55.6-18.1-63.8-46.2c-10-34.4,11.2-71,47.4-81.5c36.2-10.5,73.8,8.9,83.8,43.3
						c4.9,16.7,2.6,34.4-6.4,49.8c-9,15.4-23.5,26.7-41,31.8l-0.6-1.9l0.6,1.9C332.8,962.6,326.1,963.5,319.5,963.5z M323.1,837
						c-6.2,0-12.6,0.9-18.9,2.7c-34.1,9.9-54.1,44.3-44.7,76.6c9.4,32.3,44.8,50.5,78.8,40.6c16.5-4.8,30.3-15.4,38.7-29.9
						c8.4-14.5,10.5-31,6-46.6C375.4,853.9,350.5,837,323.1,837z"/>
				</g>
				<g>
					<path class="st2" d="M319.5,963.5c-29.1,0-55.6-18.1-63.8-46.2c-10-34.4,11.2-71,47.4-81.5c36.2-10.5,73.8,8.9,83.8,43.3
						c4.9,16.7,2.6,34.4-6.4,49.8c-9,15.4-23.5,26.7-41,31.8l-0.6-1.9l0.6,1.9C332.8,962.6,326.1,963.5,319.5,963.5z M323.1,837
						c-6.2,0-12.6,0.9-18.9,2.7c-34.1,9.9-54.1,44.3-44.7,76.6c9.4,32.3,44.8,50.5,78.8,40.6c16.5-4.8,30.3-15.4,38.7-29.9
						c8.4-14.5,10.5-31,6-46.6C375.4,853.9,350.5,837,323.1,837z"/>
				</g>
				<g>
					<path class="st4" d="M245.5,864.1c-10.4,19-13.7,42.1-7.1,64.4l20.4,69.8c1.7,5.9,7.7,9.5,13.7,8.4c0.4-0.1,0.8-0.2,1.2-0.3
						l89.7-26.1l0.1,0.4l205.5-59.9l0.6-1.1l17.6-32.3l-165.4,48.2l-15-51.5c-13.7-47.1-63.5-74.4-110.7-60.7
						C273.7,830,256,845.1,245.5,864.1z M385.2,880.6c9.7,33.4-10.9,68.8-46.1,79c-35.2,10.3-71.6-8.5-81.3-41.9
						c-9.7-33.4,10.9-68.8,46.1-79C339.1,828.5,375.5,847.2,385.2,880.6z"/>
				</g>
				<g>
					<path class="st1" d="M569.5,919.8l-0.6,1.1l-205.5,59.9l-0.1-0.4l-89.7,26.1c-0.4,0.1-0.8,0.2-1.2,0.3c-5.6,2.3-8.7,8.5-7,14.5
						l20.4,69.8c6.5,22.4,21.6,40,40.6,50.5c19,10.4,42.1,13.7,64.4,7.1c47.1-13.7,74.4-63.5,60.7-110.6l-15-51.5l227-66.2
						l194.4-76.4l-4.2-14.5l-205,40l-61.6,17.9L569.5,919.8z M435.4,1052.6c9.7,33.4-10.9,68.8-46.1,79
						c-35.2,10.3-71.6-8.5-81.3-41.9c-9.7-33.4,10.9-68.8,46.1-79C389.2,1000.5,425.6,1019.2,435.4,1052.6z"/>
					<path class="st2" d="M367.2,1154.2c-14.4,0-28.7-3.6-41.7-10.8c-20.4-11.2-35.1-29.5-41.6-51.7l-20.4-69.8
						c-2-6.9,1.5-14.2,8.2-16.9c0.1-0.1,0.3-0.1,0.4-0.1c0.3-0.1,0.7-0.1,1-0.2l89.7-26.1c0.4-0.1,0.8-0.1,1.2,0l203.6-59.4l0.2-0.3
						c0,0,0,0,0,0l17.6-32.3c0.3-0.5,0.7-0.8,1.2-1l61.6-17.9c0.1,0,0.1,0,0.2,0l205-40c1-0.2,2,0.4,2.3,1.4l4.2,14.5
						c0.3,1-0.2,2-1.2,2.4l-194.4,76.4c-0.1,0-0.1,0-0.2,0.1L439,988l14.4,49.6c6.8,23.3,4.1,47.9-7.7,69.4
						c-11.8,21.4-31.1,37-54.4,43.8C383.4,1153,375.3,1154.2,367.2,1154.2z M273,1008.8c-4.6,2-7.1,7.2-5.7,12l20.4,69.8
						c6.2,21.1,20.3,38.6,39.7,49.3c19.4,10.7,41.8,13.1,62.9,7c22.3-6.5,40.7-21.4,52-41.8c11.2-20.5,13.9-44,7.4-66.3l-15-51.5
						c-0.1-0.5-0.1-1.1,0.2-1.5c0.3-0.5,0.7-0.8,1.2-1l226.9-66.1l192.6-75.7l-3.2-11l-203.1,39.6l-60.7,17.7l-17.7,32.7
						c-0.3,0.5-0.7,0.8-1.2,1l-205.5,59.9c-0.4,0.1-0.8,0.1-1.2,0l-88.6,25.8C273.8,1008.6,273.4,1008.7,273,1008.8z M568.9,920.9
						L568.9,920.9L568.9,920.9z M369.9,1136.5c-29.1,0-55.6-18.1-63.8-46.2c-4.9-16.7-2.6-34.4,6.4-49.8c9-15.4,23.5-26.7,41-31.8
						c36.2-10.5,73.8,8.9,83.8,43.3c4.9,16.7,2.6,34.4-6.4,49.8c-9,15.4-23.5,26.7-41,31.8C383.2,1135.5,376.5,1136.5,369.9,1136.5z
						 M373.5,1009.9c-6.2,0-12.6,0.9-18.9,2.7c-16.5,4.8-30.3,15.4-38.7,29.9c-8.4,14.5-10.5,31-6,46.6
						c9.4,32.3,44.8,50.5,78.8,40.6c16.5-4.8,30.3-15.4,38.7-29.9c8.4-14.5,10.5-31,6-46.6C425.8,1026.9,400.9,1009.9,373.5,1009.9z
						"/>
				</g>
			</g>
			<g>
				<path class="st2" d="M604.7,925.8c-0.1,0-0.2,0-0.2,0c-1.1-0.1-1.9-1.1-1.8-2.2c0.1-0.6,1.8-14.5,13.6-25.8
					c11.4-11,212.8-61.2,235.7-66.9c1.1-0.3,2.2,0.4,2.4,1.5c0.3,1.1-0.4,2.2-1.5,2.4c-89.6,22.2-225.8,58.1-233.9,65.9
					c-10.7,10.3-12.3,23.3-12.4,23.4C606.6,925,605.7,925.8,604.7,925.8z"/>
			</g>
		</g>
		<g>
			<path class="st5" d="M1101.5,559H608c-1.1,0-2-0.9-2-2s0.9-2,2-2h493.5c1.1,0,2,0.9,2,2S1102.6,559,1101.5,559z"/>
		</g>
	</g>
	<g class="st6">
		<path class="st2" d="M635.2,361.7l-6,1.6v-2l6.4-2.7h2.9v29.7h-3.2V361.7z"/>
		<path class="st2" d="M649.7,361.7l-6,1.6v-2l6.4-2.7h2.9v29.7h-3.2V361.7z"/>
		<path class="st2" d="M670.9,357.5h2.6v33.7h-2.6V357.5z"/>
		<path class="st2" d="M690.3,385.7l10.9-10.4c1.7-1.6,2.8-3,3.5-4.3s1-2.8,1-4.4c0-1.6-0.5-2.8-1.4-3.7c-0.9-0.9-2.6-1.3-5-1.3h-8
			v-2.4c1.3-0.1,2.7-0.3,4.3-0.4s3-0.2,4.4-0.2c3.2,0,5.4,0.7,6.8,2c1.4,1.3,2,3.2,2,5.6c0,2.1-0.4,3.9-1.2,5.5
			c-0.8,1.6-2.1,3.3-4,5.1l-9,8.6h15.3v2.9h-19.6V385.7z"/>
		<path class="st2" d="M716.8,386.6c-1.3-1.2-2-2.9-2-5.3v-15.6c0-2.3,0.7-4.1,2-5.3c1.3-1.2,3.1-1.9,5.3-1.9h5.7
			c2.4,0,4.1,0.6,5.3,1.9c1.2,1.3,1.8,3,1.8,5.2v15.6c0,2.3-0.6,4.1-1.9,5.3c-1.3,1.2-3,1.7-5.2,1.7h-5.7
			C719.9,388.4,718.2,387.8,716.8,386.6z M727.2,385.5c3.1,0,4.6-1.5,4.6-4.6v-15c0-3-1.5-4.5-4.5-4.5h-4.6c-1.4,0-2.6,0.4-3.4,1.2
			c-0.8,0.8-1.2,1.9-1.2,3.3v15c0,1.5,0.4,2.6,1.2,3.4c0.8,0.8,2,1.2,3.5,1.2H727.2z"/>
		<path class="st2" d="M745.8,361.7l-6,1.6v-2l6.4-2.7h2.9v29.7h-3.2V361.7z"/>
		<path class="st2" d="M756.9,388.1v-2.4h7.3c2.3,0,4.1-0.9,5.4-2.7c1.3-1.8,1.9-4.4,1.9-7.9c-2,0.3-4.7,0.4-8.1,0.4
			c-2.7,0-4.8-0.5-6.2-1.4c-1.4-1-2-2.5-2-4.7v-4.1c0-2.2,0.6-3.8,1.9-4.9s2.9-1.6,4.9-1.6h4.6c1.8,0,3.3,0.4,4.4,1.3
			c1.2,0.9,2.1,2.4,2.7,4.5c0.6,2.2,1,5.2,1,9c0,10-3.5,15-10.4,15C761.9,388.5,759.4,388.3,756.9,388.1z M771.5,372.7
			c0-2.9-0.2-5.1-0.6-6.8c-0.4-1.6-1-2.8-1.8-3.4c-0.8-0.6-1.8-1-3.1-1h-3.4c-1.3,0-2.4,0.3-3.1,0.9c-0.8,0.6-1.1,1.6-1.1,3.1v3.1
			c0,1.5,0.5,2.6,1.4,3.1c0.9,0.5,2.4,0.8,4.4,0.8H771.5z"/>
		<path class="st2" d="M791.3,358.9h11.6c3.4,0,5.9,1.2,7.4,3.7c1.5,2.5,2.3,6.1,2.3,11c0,4.7-0.8,8.3-2.5,10.9s-4,3.8-7.2,3.8
			h-11.6V358.9z M802.7,385.5c2.3,0,4-1,5.1-3.1c1.1-2.1,1.7-5,1.7-8.7c0-2.9-0.2-5.2-0.7-7c-0.5-1.7-1.2-3-2.2-3.7
			c-1-0.8-2.3-1.1-3.9-1.1h-8.2v23.7H802.7z"/>
		<path class="st2" d="M820.4,387.5c-1.3-0.7-2.2-1.8-2.7-3.4c-0.6-1.6-0.8-3.8-0.8-6.6c0-2.9,0.3-5.1,0.9-6.6
			c0.6-1.6,1.5-2.7,2.8-3.3c1.3-0.6,3.1-1,5.3-1c1.9,0,3.5,0.2,4.7,0.6c1.2,0.4,2,1.2,2.6,2.2c0.6,1,0.8,2.4,0.8,4.3
			c0,1.8-0.5,3.1-1.6,3.9c-1.1,0.8-2.6,1.2-4.5,1.2H820c0,1.8,0.2,3.3,0.6,4.3c0.3,1,1,1.7,1.9,2.2c0.9,0.5,2.3,0.7,4,0.7h6.9v1.9
			c-1.4,0.2-2.7,0.3-3.8,0.4c-1.1,0.1-2.4,0.1-3.8,0.1C823.5,388.5,821.7,388.2,820.4,387.5z M827.6,376.8c1.2,0,2.1-0.2,2.7-0.7
			c0.6-0.5,0.8-1.2,0.8-2.4c0-1.8-0.4-3-1.2-3.7c-0.8-0.7-2.2-1-4.1-1c-1.5,0-2.7,0.2-3.6,0.7c-0.8,0.5-1.4,1.2-1.8,2.3
			c-0.3,1.1-0.5,2.7-0.5,4.8H827.6z"/>
		<path class="st2" d="M836.6,366.9h3.2l6.6,18.4l6.8-18.4h3.2l-8.3,21.4h-3.6L836.6,366.9z"/>
		<path class="st2" d="M862.7,387.6c-1.3-0.6-2.3-1.7-3-3.3c-0.7-1.6-1-3.8-1-6.7c0-2.9,0.3-5.2,1-6.8c0.7-1.6,1.7-2.7,3-3.3
			s3.1-0.9,5.3-0.9c2.2,0,3.9,0.3,5.3,0.9c1.3,0.6,2.3,1.7,3,3.3c0.7,1.6,1,3.8,1,6.7c0,2.9-0.3,5.2-1,6.7c-0.7,1.6-1.7,2.7-3,3.3
			c-1.3,0.6-3.1,0.9-5.3,0.9C865.8,388.5,864,388.2,862.7,387.6z M871.4,385.4c0.8-0.4,1.5-1.2,1.9-2.4c0.5-1.2,0.7-3,0.7-5.4
			c0-2.4-0.2-4.2-0.7-5.4c-0.4-1.2-1.1-2-1.9-2.4c-0.9-0.4-2-0.6-3.5-0.6c-1.5,0-2.7,0.2-3.5,0.6c-0.8,0.4-1.5,1.2-1.9,2.4
			c-0.4,1.2-0.7,3-0.7,5.4c0,2.4,0.2,4.2,0.7,5.4c0.4,1.2,1.1,2,1.9,2.4c0.8,0.4,2,0.6,3.5,0.6C869.4,385.9,870.6,385.7,871.4,385.4
			z"/>
		<path class="st2" d="M891.5,377.8l7.5,10.5h-3.3l-6.1-8.6l-6,8.6h-3.2l7.5-10.8l-7.5-10.5h3.2l6.2,8.6l5.8-8.6l3.3,0L891.5,377.8z
			"/>
		<path class="st2" d="M911.7,377.8l7.5,10.5H916l-6.1-8.6l-6,8.6h-3.2l7.5-10.8l-7.5-10.5h3.2l6.2,8.6l5.8-8.6l3.3,0L911.7,377.8z"
			/>
		<path class="st2" d="M934,358.9h10.6c5.1,0,7.6,2.5,7.6,7.6c0,1.8-0.4,3.2-1.2,4.4c-0.8,1.1-1.8,1.9-3,2.2c1.3,0.3,2.5,1,3.6,2.2
			c1.1,1.2,1.6,2.8,1.6,4.9c0,3-0.7,5.1-2.1,6.3s-3.4,1.8-6.2,1.8h-11V358.9z M944.8,371.9c1.3,0,2.4-0.5,3.2-1.5
			c0.8-1,1.2-2.3,1.2-3.9c0-3.2-1.5-4.8-4.6-4.8h-7.4v10.2H944.8z M944.9,385.5c1.7,0,3-0.4,3.9-1.3c0.9-0.9,1.4-2.4,1.4-4.6
			c0-1.6-0.5-2.9-1.5-3.8c-1-0.9-2.3-1.4-3.8-1.4h-7.8v11H944.9z"/>
		<path class="st2" d="M960.9,387.5c-1.3-0.7-2.2-1.8-2.7-3.4c-0.6-1.6-0.8-3.8-0.8-6.6c0-2.9,0.3-5.1,0.9-6.6
			c0.6-1.6,1.5-2.7,2.8-3.3c1.3-0.6,3.1-1,5.3-1c1.9,0,3.5,0.2,4.7,0.6c1.2,0.4,2,1.2,2.6,2.2c0.6,1,0.8,2.4,0.8,4.3
			c0,1.8-0.5,3.1-1.6,3.9c-1.1,0.8-2.6,1.2-4.5,1.2h-7.8c0,1.8,0.2,3.3,0.6,4.3c0.3,1,1,1.7,1.9,2.2c0.9,0.5,2.3,0.7,4,0.7h6.9v1.9
			c-1.4,0.2-2.7,0.3-3.8,0.4c-1.1,0.1-2.4,0.1-3.8,0.1C963.9,388.5,962.1,388.2,960.9,387.5z M968,376.8c1.2,0,2.1-0.2,2.7-0.7
			c0.6-0.5,0.8-1.2,0.8-2.4c0-1.8-0.4-3-1.2-3.7c-0.8-0.7-2.2-1-4.1-1c-1.5,0-2.7,0.2-3.6,0.7c-0.8,0.5-1.4,1.2-1.8,2.3
			c-0.3,1.1-0.5,2.7-0.5,4.8H968z"/>
		<path class="st2" d="M981.1,386.8c-0.9-1-1.4-2.8-1.4-5.3v-23.7h3.2v23.3c0,1.8,0.2,3,0.7,3.6c0.5,0.6,1.2,1,2.3,1.2l2.2,0.2v2.3
			h-2.7C983.4,388.3,982,387.8,981.1,386.8z"/>
		<path class="st2" d="M1010.5,368.7l-4.8,0.4c0.5,0.3,1,0.7,1.3,1.1c0.4,0.4,0.7,0.9,1,1.6c0.3,0.7,0.4,1.7,0.4,2.8
			c0,1.9-0.6,3.4-1.8,4.6c-1.2,1.2-3.1,1.8-5.8,1.8h-3.4c-1.2,0-2.1,0.2-2.7,0.5c-0.6,0.3-0.9,0.9-0.9,1.8c0,0.6,0.2,1,0.7,1.3
			c0.4,0.3,1,0.4,1.6,0.4h7.1c2.5,0,4.3,0.5,5.5,1.4c1.2,1,1.8,2.4,1.8,4.4v0.9c0,2-0.7,3.5-2,4.6c-1.3,1.1-3.3,1.6-5.9,1.6h-6
			c-2.2,0-3.9-0.4-5.1-1.3c-1.3-0.9-1.9-2.2-1.9-3.9v-1c0-1.2,0.3-2.2,1-3c0.6-0.8,1.5-1.5,2.5-1.9c-0.7-0.3-1.2-0.8-1.5-1.3
			c-0.3-0.5-0.5-1.2-0.5-1.9c0-2,1.2-3.3,3.6-3.8c-1.4-0.6-2.4-1.4-2.9-2.5c-0.6-1.1-0.9-2.3-0.9-3.7c0-4.6,2.7-6.9,8.2-6.9h11.4
			V368.7z M997.3,387.6c-1.3,0-2.4,0.3-3.3,0.9c-0.9,0.6-1.3,1.6-1.3,2.8v0.9c0,2.4,1.6,3.6,4.8,3.6h5c1.7,0,2.9-0.3,3.8-0.9
			c0.9-0.6,1.3-1.6,1.3-2.9v-0.8c0-1.1-0.4-2-1.1-2.7c-0.7-0.6-1.9-0.9-3.7-0.9H997.3z M1004.5,377.4c0.7-0.8,1.1-1.9,1.1-3.2
			c0-3.2-1.5-4.8-4.6-4.8h-2.3c-1.6,0-2.8,0.4-3.6,1.1c-0.8,0.7-1.2,1.9-1.2,3.5c0,3.1,1.5,4.7,4.4,4.7h2.4
			C1002.4,378.6,1003.7,378.2,1004.5,377.4z"/>
		<path class="st2" d="M1014.5,363c-0.1-0.1-0.2-0.3-0.2-0.5v-3.1c0-0.4,0.2-0.6,0.6-0.6h2.2c0.4,0,0.6,0.2,0.6,0.6v3.1
			c0,0.4-0.2,0.6-0.6,0.6h-2.2C1014.8,363.1,1014.6,363.1,1014.5,363z M1014.5,366.9h3.2v21.4h-3.2V366.9z"/>
		<path class="st2" d="M1023.7,382v-15h3.2v14.2c0,1.7,0.4,2.9,1.1,3.6c0.8,0.7,1.9,1,3.5,1c1.2,0,2.3-0.2,3.4-0.5
			c1-0.3,2.1-0.8,3.3-1.5v-16.8h3.2v21.4h-2.5l-0.7-2.4c-2.7,1.7-5.4,2.6-8,2.6C1025.8,388.5,1023.7,386.3,1023.7,382z"/>
		<path class="st2" d="M1047.3,366.9h2.5l0.7,2.4c2.7-1.8,5.3-2.7,8-2.7c1.3,0,2.4,0.3,3.3,0.9c0.9,0.6,1.7,1.3,2.2,2.3
			c1.1-0.8,2.5-1.6,4.1-2.2c1.6-0.6,3.1-1,4.5-1c2.2,0,3.9,0.7,5,2c1.1,1.4,1.7,3.1,1.7,5.3v14.4h-3.2v-14.2c0-1.4-0.4-2.5-1.2-3.4
			c-0.8-0.9-1.9-1.3-3.3-1.3c-1.1,0-2.3,0.2-3.6,0.6c-1.2,0.4-2.4,1-3.6,1.7c0.3,0.9,0.4,1.7,0.4,2.4v14.1h-3.2v-14.2
			c0-1.4-0.4-2.5-1.2-3.4c-0.8-0.9-1.9-1.3-3.3-1.3c-1.3,0-2.4,0.2-3.4,0.5s-2.1,0.9-3.4,1.6v16.8h-3.2V366.9z"/>
	</g>
</g>
</svg>
