<?xml version="1.0" encoding="utf-8"?>
<!-- Generator: Adobe Illustrator 22.0.1, SVG Export Plug-In . SVG Version: 6.00 Build 0)  -->
<svg version="1.1" id="Ebene_1" xmlns="http://www.w3.org/2000/svg" xmlns:xlink="http://www.w3.org/1999/xlink" x="0px" y="0px"
	 viewBox="0 0 1367 933.6" style="enable-background:new 0 0 1367 933.6;" xml:space="preserve">
<style type="text/css">
	.st0{fill:#030405;}
	.st1{fill:#182C49;}
	.st2{fill:#4E789B;}
	.st3{fill:#859DC1;}
	.st4{fill:#253654;stroke:#4E789B;stroke-width:4;stroke-miterlimit:10;}
	.st5{fill:#253654;}
	.st6{fill:#151D28;}
	.st7{fill:#A2C8DD;}
	.st8{fill:#7188AA;}
	.st9{fill:#97B9D3;}
	.st10{fill:#DDDDDD;}
	.st11{fill:#F58219;}
</style>
<g>
	<g>
		<g>
			<g>
				<ellipse class="st0" cx="249.9" cy="899.7" rx="239.4" ry="33.9"/>
			</g>
		</g>
		<g>
			<g>
				<ellipse class="st0" cx="832" cy="902" rx="215.2" ry="27.1"/>
			</g>
		</g>
		<g>
			<g>
				<g>
					<path class="st1" d="M730.4,505.5l-14,8.1l5.9,11.5v11.9l-5.5,7.6l2.1,15.3l1.3,9.8l-3.8,4.2l-5.5,2.1l-4.2,9.8l-6.8,11.5
						c0,0-3,7.3-4.4,11.9v0c-0.4,1.3-0.7,2.4-0.7,3c0,2.5-22.9,16.1-22.9,16.1l-5.5,17.2l-0.1,0.2l-0.8,13.2l3.8,7.2l14.4-4.7
						l11.9,29.7l-7.6,23.8l-5.7,9.4c-14.9-21.8-25-47.1-29.1-74.3c-1.3-8.7-2-17.6-2-26.7c0-6,0.3-11.9,0.9-17.8
						c5.1-51.5,31.9-96.6,71.1-126.1l18.2,17.6L730.4,505.5z"/>
				</g>
				<g>
					<path class="st2" d="M682.4,727.9l-1.8-2.6c-15.5-22.7-25.4-48-29.4-75.1c-1.3-8.9-2-17.9-2-27c0-6,0.3-12,0.9-18
						c4.9-50.4,31.2-96.9,71.9-127.5l1.4-1l21.1,20.4l-13.1,10.1l-12.4,7.1l5.3,10.2v13l-5.4,7.5l2,14.5l1.4,10.7l-4.8,5.3l-5.2,2
						l-4,9.2l-6.7,11.3c-0.4,1-2.9,7.2-4.2,11.3v0l-0.1,0.3c-0.6,1.9-0.6,2.4-0.6,2.4c0,1.1,0,3.6-23.3,17.5l-5.2,16.5l-0.8,12.4
						l2.8,5.2l14.6-4.7l12.9,32.1l-7.9,24.7L682.4,727.9z M723,482c-39.1,29.9-64.2,74.9-69,123.6c-0.6,5.8-0.9,11.7-0.9,17.6
						c0,8.9,0.7,17.7,1.9,26.4c3.8,25.5,12.9,49.3,27,70.9l3.9-6.5l7.4-22.9l-10.9-27.3l-14.3,4.6l-4.9-9.2l0.9-14l0.1-0.4l5.7-17.9
						l0.7-0.4c9.5-5.6,20.4-12.8,22-14.8c0-0.5,0.2-1.4,0.7-3l0.1-0.2c1.4-4.6,4.4-11.7,4.5-12l0.1-0.3l6.7-11.4l4.5-10.4l5.9-2.3
						l2.9-3.2l-1.2-8.9l-2.2-16.1l5.6-7.8v-10.8l-6.6-12.7l15.6-9l9.1-7L723,482z"/>
				</g>
			</g>
			<g>
				<g>
					<path class="st2" d="M881.2,665.5c-10.6,0-19.2-8.6-19.2-19.2v-82.8c0-0.4,0-0.9,0.1-1.3c0.3-5.2,2.9-10.1,6.9-13.5
						c3.4-2.8,7.8-4.4,12.2-4.4c3,0,6,0.7,8.7,2.1l2.4-1.6l17.8-3.9l10.1-1.8l10.3,6l17.2-0.9l7.7,14.1l7.5,8.4l1.8,17.3l-7.4,17.9
						l-3.7,9.7l-16.6,6.6l-6.9-4.1l-11.2-1.8l-4.9-9.8l0-0.4c-0.1-1.4-0.5-5.2-0.8-6.5c-0.2-0.6-2-2.6-4-4.5l-4.4,1.6l-0.4,8.2
						l-4,5.9v39.6C900.4,656.9,891.7,665.5,881.2,665.5z M881.2,548.3c-3.5,0-6.9,1.2-9.7,3.5c-3.2,2.7-5.2,6.6-5.5,10.7
						c0,0.4,0,0.7,0,1v82.8c0,8.4,6.8,15.2,15.2,15.2c8.4,0,15.2-6.8,15.2-15.2v-40.8l4.1-6l0.5-9.7l9.2-3.4l0.9,0.8
						c2.1,1.9,5.6,5.4,6.1,7.4c0.4,1.6,0.8,5.4,0.9,6.7l3.6,7.2l10,1.6l5.9,3.5l13.1-5.3l3.1-8.1l7-17l-1.6-15l-6.9-7.8l-6.7-12.3
						l-15.9,0.8l-10.1-5.9l-8.6,1.6l-17,3.7l-3.8,2.6l-1.1-0.6C886.6,549.1,883.9,548.3,881.2,548.3z M769.9,665.5
						c-10.6,0-19.2-8.6-19.2-19.2v-82.8c0-10.6,8.6-19.2,19.2-19.2c5.1,0,9.9,2,13.6,5.6c0.2,0.2,0.4,0.4,0.6,0.6
						c3.3,3.6,5.1,8.2,5.1,13v82.8C789.1,656.9,780.5,665.5,769.9,665.5z M769.9,548.3c-8.4,0-15.2,6.8-15.2,15.2v82.8
						c0,8.4,6.8,15.2,15.2,15.2c8.4,0,15.2-6.8,15.2-15.2v-82.8c0-3.8-1.4-7.4-4-10.3l0,0c-0.1-0.2-0.3-0.3-0.5-0.5
						C777.7,549.9,773.9,548.3,769.9,548.3z"/>
				</g>
			</g>
			<g>
				<g>
					<path class="st1" d="M926.2,775.4c-27.6,17.4-60.3,27.4-95.4,27.4c-9.7,0-19.2-0.8-28.4-2.2l-4.1-7.6l-3.8-6.4l-0.4-8.5
						l-8.9-9.8l11.9-13.2l11.5-14.9l13.6-8.1l14-2.1l12.3-6.4h15.7l25.1,5.9l22.9,6.4l3.8,4.7l7.2,14l2.5,13.6L926.2,775.4z"/>
				</g>
				<g>
					<path class="st2" d="M830.8,804.8c-9.6,0-19.3-0.8-28.7-2.3l-1-0.2l-4.5-8.5l-4-6.7l-0.4-8.3l-9.7-10.6l13.1-14.5l11.7-15.1
						l14.3-8.5l14.1-2.1l12.5-6.4h16.4l25.3,6l23.6,6.6l4.5,5.5l7.4,14.3l2.6,14.1l0.6,8.3l-1,0.6
						C898.4,795.2,865.1,804.8,830.8,804.8z M803.7,798.7c8.9,1.4,18,2.1,27.1,2.1c33.1,0,65.3-9.1,93.3-26.5l-0.4-5.8l-2.5-13.2
						l-7-13.6l-3.3-4l-22.3-6.2l-24.8-5.9h-15l-12.2,6.3l-14,2.1l-12.9,7.7l-11.3,14.7l-10.7,11.8l8.2,9l0.4,8.7l3.6,5.9
						L803.7,798.7z"/>
				</g>
			</g>
			<g>
				<g>
					<path class="st1" d="M864,562.4c0,0.4,0,0.7,0,1.1v40.1h-12.5l-1.3-8.5l4.7-7.2l1.7-5.9l-3-12.7l6.4-5.1L864,562.4z"/>
				</g>
				<g>
					<path class="st2" d="M866,605.6h-16.3l-1.6-10.9l4.9-7.6l1.5-5.2l-3.1-13.5l7.6-6.1l7.4-3l-0.3,3.3c0,0.3,0,0.6,0,0.9V605.6z
						 M853.1,601.6h8.8v-36.2l-1,0.4l-5.2,4.1l2.8,12l-1.9,6.7l-4.4,6.8L853.1,601.6z"/>
				</g>
			</g>
			<g>
				<g>
					<path class="st1" d="M1010.4,623.2c0,4.2-0.1,8.3-0.4,12.4c-2.5,36-15.5,69.1-36.1,96.2l-6.1-0.8c0,0-1.3-2.1-8.1-5.1
						c-6.8-3,5.1-3.8,5.1-3.8l3.4-18.3l-9.8-10.6v10.2l-7.2,14l-6.8-1.3c0,0-0.8-5.9-1.7-7.2c-0.8-1.3-11-1.3-11-1.3l0.8-7.2l0.8-11
						l1.3-13.2l-12.3-4.7l-5.9,6.4l-3.4,11l-1.3,11l-9.3-2.1l-1.7-5.9l4.2-8.9v-8.9l-9.3,1.7l-17.4,1.3l-8.5,8.1l-0.8,14.9l-8.5,9.8
						l-18.7,4.2l-7.2-11.5l-16.1-13.6l-2.1-8.5l7.2-9.8l9.8-8.1l6.4-5.5v-8.9l0.8-14l6.8-12.3l7.2-6.8l9.6-2v33.3
						c0,9.5,7.7,17.2,17.2,17.2c9.5,0,17.2-7.7,17.2-17.2v-40.2l4-5.9l0.4-8.9l6.8-2.5c0,0,5.1,4.7,5.5,6.4c0.4,1.7,0.8,6.8,0.8,6.8
						l4.2,8.5l10.6,1.7l6.4,3.8l14.9-5.9l3.4-8.9l7.2-17.4l-1.7-16.1l-7.2-8.1l-7.2-13.2l-16.6,0.8l-10.2-5.9l-9.3,1.7l-17.4,3.8
						l-3.1,2.1c-2.6-1.5-5.6-2.4-8.8-2.4c-4.1,0-8,1.5-10.9,3.9l-19.2-2.7l-0.4-13.6l4.2-10.2l9.3-6.8l14.9-5.1l3.4-8.1l11.9-2.5
						l20.4-3.4l25.1,0.8l6.4,2.1l13.6,5.5h7.5c20.6,24,35,53.5,40.6,86C1009.5,602.4,1010.4,612.7,1010.4,623.2z"/>
				</g>
				<g>
					<path class="st2" d="M974.8,733.9l-8.2-1.1l-0.5-0.8c0,0,0,0,0,0c0,0-1.4-1.8-7.2-4.3c-1-0.4-3.7-1.6-3.3-3.9
						c0.1-0.8,0.5-2.8,7.5-3.6l2.9-15.8l-5.6-6.1v5.5l-8.1,15.8l-9.7-1.8l-0.2-1.4c-0.3-2.3-0.9-5-1.3-6.1c-1.4-0.4-5.9-0.7-9.5-0.7
						h-2.2l1.1-9.5l0.8-11l1.1-11.7l-9.6-3.7l-4.7,5.1l-3.2,10.4l-1.5,13.1l-12.7-2.9l-2.2-7.8l4.4-9.2v-6.1l-7.2,1.3L879,679
						l-7.4,7l-0.8,14.8l-9.4,10.8l-20.7,4.7l-7.8-12.4L816.5,690l-2.5-10l7.9-10.7l10-8.2l5.6-4.9l0-8.1l0.9-14.5l7.2-13l7.9-7.4
						l12.5-2.7v35.8c0,8.4,6.8,15.2,15.2,15.2c8.4,0,15.2-6.8,15.2-15.2v-40.8l4.1-6l0.5-9.7l9.2-3.4l0.9,0.8
						c2.1,1.9,5.6,5.4,6.1,7.4c0.4,1.6,0.8,5.4,0.9,6.7l3.6,7.2l10,1.6l5.9,3.5l13.1-5.3l3.1-8.1l7-17l-1.6-15l-6.9-7.8l-6.7-12.3
						l-15.9,0.8l-10.1-5.9l-8.6,1.6l-17,3.7l-3.8,2.6l-1.1-0.6c-2.3-1.4-5-2.1-7.7-2.1c-3.5,0-6.9,1.2-9.7,3.5l-0.7,0.6l-21.8-3.1
						l-0.5-15.7l4.6-11.1l10-7.3l14.3-4.9l3.5-8.2l12.9-2.8l20.7-3.4l25.5,0.9l6.8,2.3l13.2,5.4h8.1l0.6,0.7
						c21.3,24.8,35.5,54.9,41,87c1.8,10.2,2.7,20.7,2.7,31.2c0,4.2-0.1,8.4-0.4,12.5c-2.4,35.4-15,69-36.5,97.3L974.8,733.9z
						 M968.8,729.1l4.2,0.6c20.6-27.4,32.7-60,35-94.2c0.3-4.1,0.4-8.2,0.4-12.3c0-10.2-0.9-20.5-2.6-30.5
						c-5.4-31.1-19-60.2-39.5-84.4h-7l-13.9-5.6l-6-2l-24.6-0.8l-20.2,3.4l-10.8,2.3l-3.3,7.9l-15.4,5.3l-8.6,6.3l-3.9,9.3l0.4,11.5
						l16.7,2.4c3.3-2.5,7.4-3.8,11.5-3.8c3,0,6,0.7,8.7,2.1l2.4-1.6l17.8-3.9l10.1-1.8l10.3,6l17.2-0.9l7.7,14.1l7.5,8.4l1.8,17.3
						l-7.4,17.9l-3.7,9.7l-16.6,6.6l-6.9-4.1l-11.2-1.8l-4.9-9.8l0-0.4c-0.1-1.4-0.5-5.2-0.8-6.5c-0.2-0.6-2-2.6-4-4.5l-4.4,1.6
						l-0.4,8.2l-4,5.9v39.6c0,10.6-8.6,19.2-19.2,19.2c-10.6,0-19.2-8.6-19.2-19.2v-30.9l-6.6,1.4l-6.6,6.2l-6.4,11.6l-0.8,13.5v9.8
						l-7.1,6.1l-9.6,7.9l-6.5,8.8l1.7,7l15.9,13.4l6.6,10.5l16.7-3.8l7.6-8.8l0.9-15l9.6-9.1l18-1.3l11.6-2.1v11.8l-4.1,8.6l1.2,4.1
						l6,1.4l1.1-9.2l3.5-11.5l7.2-7.7l15,5.7l-1.4,14.7l-0.8,11l-0.6,5.1c9.1,0.2,10,1.4,10.5,2.1c0.8,1.2,1.4,4.2,1.8,6.6l3.9,0.7
						l6.3-12.3V688l13.9,15.1l-3.9,20.8l-1.5,0.1c-1.2,0.1-2.4,0.3-3.4,0.4C965.8,726.5,967.9,728.1,968.8,729.1z"/>
				</g>
			</g>
			<g>
				<g>
					<path class="st3" d="M930.6,473.8l-1,2h-23.4l-15.7-6.4l-2.1,11.5c0,0-25.9-3.8-26.3-5.1c-0.4-1.3-4.7-5.1-23.4-5.1
						s-26.8,3.4-26.8,3.4s-28.9-5.5-28.9-6.8c0-0.8-8.8-7.6-15.1-12.4c19.6-7.3,40.7-11.3,62.9-11.3
						C867.7,443.6,902,454.7,930.6,473.8z"/>
				</g>
				<g>
					<path class="st2" d="M890,483.1l-1.9-0.3c-26.4-3.9-27.5-5.1-27.9-6.3c-0.3-0.3-3.8-3.8-21.5-3.8c-17.9,0-25.9,3.2-26,3.2
						l-0.6,0.2l-0.6-0.1c-26.7-5.1-30-6.5-30.4-8.1c-0.7-0.8-3.5-3.3-14.3-11.5l-2.9-2.2l3.4-1.3c20.3-7.6,41.7-11.4,63.6-11.4
						c36.1,0,71,10.6,100.9,30.6l1.5,1l-2.4,4.6h-25l-13.8-5.6L890,483.1z M863.5,474.3c2.3,0.8,13,2.7,23.2,4.3l2.2-12l17.6,7.1
						h20.3c-28.6-18.5-61.8-28.2-96-28.2c-20.2,0-39.9,3.3-58.7,9.9c8.7,6.6,11.5,9.1,12.5,10.4c2.5,1,15.4,3.8,27.2,6.1
						c2.2-0.8,10.6-3.3,26.9-3.3C857.2,468.7,862.2,472.3,863.5,474.3z M863.9,475.1C863.9,475.1,863.9,475.1,863.9,475.1
						C863.9,475.1,863.9,475.1,863.9,475.1z M863.2,474.2"/>
				</g>
			</g>
			<g>
				<g>
					<path class="st4" d="M967.8,731c0,0-1.3-2.1-8.1-5.1c-6.8-3,5.1-3.8,5.1-3.8l3.4-18.3l-9.8-10.6v10.2l-7.2,14l-6.8-1.3
						c0,0-0.8-5.9-1.7-7.2c-0.8-1.3-11-1.3-11-1.3l0.8-7.2l0.8-11l1.3-13.2l-12.3-4.7l-5.9,6.4l-3.4,11l-1.3,11l-9.3-2.1l-1.7-5.9
						l4.2-8.9v-8.9l-9.3,1.7l-17.4,1.3l-8.5,8.1l-0.8,14.9l-8.5,9.8l-18.7,4.2l-7.2-11.5l-16.1-13.6l-2.1-8.5l7.2-9.8l9.8-8.1
						l6.4-5.5v-8.9l0.8-14l6.8-12.3l7.2-6.8l9.6-2v-9.4h-12.5l-1.3-8.5l4.7-7.2l1.7-5.9l-3-12.7l6.4-5.1l4.1-1.7
						c0.3-4.9,2.7-9.2,6.2-12.1l-19.2-2.7l-0.4-13.6l4.2-10.2l9.3-6.8l14.9-5.1l3.4-8.1l11.9-2.5l20.4-3.4l25.1,0.8l6.4,2.1
						l13.6,5.5h7.5c-10.7-12.4-23-23.4-36.7-32.5l-1,2h-23.4l-15.7-6.4l-2.1,11.5c0,0-25.9-3.8-26.3-5.1c-0.4-1.3-4.7-5.1-23.4-5.1
						s-26.8,3.4-26.8,3.4s-28.9-5.5-28.9-6.8c0-0.8-8.8-7.6-15.1-12.4c0,0,0,0,0,0c-16.1,6-31.2,14.3-44.8,24.5l18.2,17.6l-11,8.5
						l-14,8.1l5.9,11.5v11.9l-5.5,7.6l2.1,15.3l1.3,9.8l-3.8,4.2l-5.5,2.1l-4.2,9.8l-6.8,11.5c0,0-5.1,12.3-5.1,14.9
						c0,2.5-22.9,16.1-22.9,16.1l-5.5,17.4l-0.8,13.2l3.8,7.2l14.4-4.7l11.9,29.7l-7.6,23.8l-5.7,9.4c16.2,23.8,38,43.5,63.5,57.3
						c12.9,6.9,26.6,12.3,41.1,16c5.1,1.3,10.3,2.3,15.5,3.2l-4.1-7.6l-3.8-6.4l-0.4-8.5l-8.9-9.8l11.9-13.2l11.5-14.9l13.6-8.1
						l14-2.1l12.3-6.4h15.7l25.1,5.9l22.9,6.4l3.8,4.7l7.2,14l2.5,13.6l0.5,7.1c18.4-11.6,34.6-26.4,47.7-43.6L967.8,731z
						 M842.9,578.5l4.2,4.7l-3.8,8.1l-6.4-4.7L842.9,578.5z M774.1,780.7l-2.5-8.9l5.5-2.5l3,5.9l1.7,9.8L774.1,780.7z M787.1,646.3
						c0,9.5-7.7,17.2-17.2,17.2c-9.5,0-17.2-7.7-17.2-17.2v-66.1l-4-5.1l-12.3-8.5l-4.7-14.9l4.7-8.1l16.6-11l15.3-1.3l10.6,10.2
						l5.1,5.9l-1.4,4.4c2.8,3.1,4.5,7.2,4.5,11.6V646.3z"/>
				</g>
			</g>
			<g>
				<g>
					<g>
						<path class="st3" d="M1102.9,514.2c-0.6,10.6-1.4,25.7-2.4,46.4c-1,21.5-14,51.1-69.7,69.3c-7.1,2.3-14.1,4.2-20.7,5.8
							c0.3-4.1,0.4-8.2,0.4-12.4c0-10.5-0.9-20.8-2.6-30.8c3.4-0.9,6.9-1.9,10.3-3.1c14.6-4.8,39.1-15.3,39.9-30.8
							c1-19.9,1.8-34.7,2.4-45.3l42.3,1L1102.9,514.2z"/>
					</g>
					<g>
						<path class="st2" d="M1007.8,638.1l0.2-2.7c0.3-4.1,0.4-8.2,0.4-12.3c0-10.2-0.9-20.5-2.6-30.5l-0.3-1.8l1.8-0.5
							c3.6-1,7-2,10.2-3c11.3-3.8,37.8-14.1,38.5-29c0.8-17.3,1.6-32.6,2.4-45.4l0.1-1.9l46.5,1.2l-0.1,2
							c-0.7,12.5-1.5,28.1-2.4,46.3c-1.1,22.2-14.3,52.5-71.1,71.1c-6.5,2.1-13.5,4.1-20.9,5.8L1007.8,638.1z M1010.1,593.8
							c1.6,9.6,2.4,19.5,2.4,29.4c0,3.3-0.1,6.6-0.3,9.8c6.3-1.5,12.3-3.2,17.9-5.1c54.6-17.9,67.3-46.6,68.3-67.5
							c0.8-17.3,1.6-32.2,2.3-44.3l-38.5-1c-0.7,12.4-1.5,27-2.3,43.4c-0.8,16.8-26.2,27.6-41.3,32.6
							C1016,592.1,1013.1,593,1010.1,593.8z"/>
					</g>
				</g>
			</g>
			<g>
				<g>
					<path class="st5" d="M1119.6,506.2l0,1.2c-0.1,3.9-3.4,7.1-7.3,7l-9.4-0.2l-0.2,0l-42.3-1l-5.8-0.1l-7.2-0.2
						c-3.9-0.1-7.1-3.4-7-7.3l0-1.2c0.1-3.1,2.1-5.7,4.9-6.6c0.8-0.3,1.6-0.4,2.4-0.4l13.6,0.3l42.5,1l7.2,0.2h0l1.7,0
						C1116.5,499,1119.7,502.3,1119.6,506.2z"/>
				</g>
				<g>
					<path class="st2" d="M1112.4,516.4c-0.1,0-0.1,0-0.2,0l-64.9-1.6c-2.4-0.1-4.7-1.1-6.4-2.8c-1.7-1.8-2.6-4.1-2.5-6.5l0-1.2
						c0.1-3.8,2.6-7.2,6.3-8.5c1-0.3,2.1-0.5,3.1-0.5l64.9,1.6c2.4,0.1,4.7,1.1,6.4,2.8c1.7,1.8,2.6,4.1,2.5,6.5l0,1.2
						C1121.4,512.4,1117.4,516.4,1112.4,516.4z M1047.5,499.3c-0.5,0-1.1,0.1-1.6,0.3c-2.1,0.7-3.5,2.6-3.5,4.8l0,1.2
						c0,1.4,0.5,2.7,1.4,3.7c0.9,1,2.2,1.6,3.6,1.6l64.9,1.6c2.8,0.1,5.2-2.2,5.3-5l0-1.2c0-1.4-0.5-2.7-1.4-3.7
						c-1-1-2.2-1.6-3.6-1.6l-8.8-0.2l-56-1.4C1047.6,499.3,1047.6,499.3,1047.5,499.3z"/>
				</g>
			</g>
			<g>
				<g>
					<path class="st5" d="M1146.1,422.6l-15.4,30.9c0.2,5.4-0.6,11.7-2.3,18.3c-3.7,14.1-10.9,24.8-17.5,27l-63.2-1.6
						c-0.8,0-1.7,0.1-2.4,0.4c-10.9-4.4-18.9-15-20.4-27.7l-26-27.3c-4.3-4.5-4.1-11.6,0.4-15.9c2.2-2.1,5.2-3.1,8-3.1
						c2.9,0.1,5.7,1.2,7.9,3.5l9.8,10.2l6.3,6.7l0.4,0.4c0.1-0.1,0.2-0.2,0.2-0.3c1.5,0.1,3.1-0.2,4.6-1c3-1.5,4.8-4.5,4.8-7.4
						c0.2-0.1,0-1,0.2-1.1c-0.4-0.8-0.1-1-0.3-2L1035,395c-1-6.1,3.1-11.9,9.2-12.9c0.7-0.1,1.4-0.2,2.1-0.2c5.3,0.1,9.9,4,10.8,9.4
						l4.3,25.5l0.9,5.3c0.6,0.4,1.4,0.6,2.2,0.6c1.1,0,2.1-0.3,2.8-0.9c-0.2-0.9-0.2-1.9-0.1-2.8l0.2-2.5l2.8-35.6
						c0.5-6.2,5.9-10.8,12.1-10.3c6,0.5,10.5,5.6,10.4,11.5c0,0.2,0,0.4,0,0.6l-2.7,34.9l-0.3,3.2c0,0.4-0.1,0.9-0.2,1.3
						c0.5,1.1,1.6,1.9,2.7,1.9c0.9,0,1.7-0.4,2.3-1.1l1-3.2l8.9-27.9c1.9-5.9,8.2-9.2,14.1-7.3c4.9,1.6,7.9,6.1,7.8,11
						c0,1-0.2,2.1-0.5,3.1l-9.8,30.5l-1.2,3.6c0.3,1.8,1.7,3.1,3.4,3.2c0.5,0,1-0.1,1.4-0.3l2.2-4.3l8.3-16.6
						c2.2-4.4,7.5-6.2,11.9-4c3.2,1.6,5,4.8,4.9,8.2C1147,420.2,1146.7,421.4,1146.1,422.6z"/>
				</g>
				<g>
					<path class="st2" d="M1111.2,500.9l-63.6-1.6c-0.6,0-1.2,0.1-1.7,0.3l-0.7,0.2l-0.7-0.3c-11.6-4.7-19.8-15.7-21.5-28.7
						L997.5,444c-5-5.3-4.8-13.7,0.5-18.7c2.6-2.4,5.9-3.7,9.5-3.6c3.5,0.1,6.8,1.5,9.3,4.1l15.6,16.4c1.1,0,2.3-0.2,3.4-0.8
						c2.3-1.1,3.7-3.3,3.7-5.6l0-1.1l0.1-0.1c-0.1-0.4-0.1-0.7-0.1-1.1c0-0.1,0-0.3,0-0.5l-6.3-37.7c-1.2-7.2,3.7-14,10.9-15.2
						c0.8-0.1,1.7-0.2,2.5-0.2c6.3,0.2,11.7,4.8,12.8,11.1l5,29.7c0.1,0,0.3,0,0.5,0c0.2,0,0.4,0,0.6-0.1c0-0.6,0-1.2,0-1.8l3-38.1
						c0.3-3.5,1.9-6.7,4.6-9s6.1-3.4,9.6-3.2c7,0.5,12.4,6.5,12.2,13.5c0,0.2,0,0.5,0,0.7l-3,38.1c0,0.2,0,0.5-0.1,0.7
						c0.2,0.2,0.4,0.3,0.7,0.4c0.2,0,0.4-0.1,0.5-0.2l9.8-30.6c2.2-7,9.7-10.8,16.6-8.6c5.6,1.8,9.4,7.1,9.2,13
						c0,1.2-0.2,2.5-0.6,3.7l-10.7,33.6c0.2,0.6,0.8,1.1,1.4,1.1c0,0,0,0,0,0l10-20.1c2.7-5.4,9.2-7.6,14.6-4.9
						c3.8,1.9,6.1,5.8,6,10c0,1.6-0.4,3.1-1.1,4.6l0,0l-15.2,30.4c0.1,5.7-0.7,12-2.4,18.4c-3.9,14.5-11.4,25.9-18.7,28.4
						L1111.2,500.9z M1047.6,495.3c0.1,0,0.1,0,0.2,0l62.8,1.5c5.1-2,12.1-11.3,15.9-25.6c1.6-6.2,2.4-12.3,2.2-17.7l0-0.5
						l15.6-31.3c0.4-0.9,0.7-1.9,0.7-2.9c0.1-2.7-1.4-5.2-3.8-6.3c-3.4-1.7-7.5-0.3-9.2,3.1l-10.8,21.6l-0.7,0.3
						c-0.7,0.3-1.5,0.5-2.3,0.5c-2.6-0.1-4.9-2.1-5.3-4.8l-0.1-0.5l11.1-34.6c0.3-0.8,0.4-1.7,0.4-2.6c0.1-4.1-2.5-7.8-6.4-9.1
						c-4.9-1.6-10.1,1.1-11.6,6l-10.1,31.5l-0.3,0.3c-1,1.1-2.4,1.8-3.9,1.7c-1.9,0-3.6-1.2-4.5-3.1l-0.3-0.6l0.1-0.7
						c0.1-0.3,0.1-0.7,0.1-1.1l3-38.1c0-0.2,0-0.3,0-0.5c0.1-4.9-3.6-9.1-8.5-9.4c-2.5-0.2-4.8,0.6-6.7,2.2c-1.9,1.6-3,3.8-3.2,6.3
						l-3,38.1c-0.1,0.8,0,1.6,0.1,2.3l0.2,1.2l-1,0.7c-1.1,0.8-2.6,1.3-4.1,1.3c-1.1,0-2.2-0.3-3.1-0.9l-0.8-0.5l-5.3-31.8
						c-0.7-4.4-4.5-7.6-8.9-7.7c-0.6,0-1.2,0-1.7,0.1c-5,0.8-8.4,5.6-7.6,10.6l6.3,37.7c0.1,0.5,0.1,0.9,0.1,1.2c0,0.1,0,0.1,0,0.2
						c0,0,0,0.1,0.1,0.1l0.8,1.7l-0.7,0.4c0,0.1,0,0.2-0.1,0.3c-0.2,3.6-2.4,7-5.9,8.7c-1.4,0.7-2.9,1.1-4.5,1.2l-1.1,1.4l-18.1-19
						c-1.7-1.8-4-2.8-6.5-2.8c-2.5-0.1-4.8,0.8-6.6,2.5c-3.7,3.5-3.8,9.4-0.3,13.1l26.4,27.8l0.1,0.7c1.3,11.6,8.4,21.4,18.5,25.8
						C1046.1,495.4,1046.9,495.3,1047.6,495.3z"/>
				</g>
			</g>
			<g>
				<g>
					<g>
						<path class="st3" d="M786.9,797.4l-2.8,29.1h-42.7l4.3-45.1C758.6,788.4,772.4,793.8,786.9,797.4z"/>
					</g>
					<g>
						<path class="st2" d="M785.9,828.5h-46.7l4.8-50.3l2.7,1.4c12.9,6.9,26.5,12.2,40.7,15.8l1.7,0.4L785.9,828.5z M743.6,824.5
							h38.6l2.5-25.6c-12.9-3.4-25.4-8.2-37.3-14.3L743.6,824.5z"/>
					</g>
				</g>
			</g>
			<g>
				<g>
					<path class="st1" d="M804.7,836.7v4.2c0,2.2-0.7,4.3-1.9,5.9c-1.9,2.6-4.9,4.3-8.3,4.3h-62.8c-2.2,0-4.2-0.7-5.9-1.9
						c-2.6-1.9-4.3-4.9-4.3-8.3v-4.2c0-5.6,4.6-10.2,10.2-10.2h62.8C800.1,826.5,804.7,831.1,804.7,836.7z"/>
				</g>
				<g>
					<path class="st2" d="M794.5,853.1h-62.8c-2.5,0-5-0.8-7.1-2.3c-3.2-2.3-5.1-6-5.1-9.9v-4.2c0-6.7,5.5-12.2,12.2-12.2h62.8
						c6.7,0,12.2,5.5,12.2,12.2v4.2c0,2.6-0.8,5-2.3,7.1C802.1,851.2,798.4,853.1,794.5,853.1z M731.7,828.5c-4.5,0-8.2,3.7-8.2,8.2
						v4.2c0,2.6,1.3,5.1,3.4,6.7c1.4,1,3,1.5,4.7,1.5h62.8c2.6,0,5.1-1.3,6.6-3.4c1-1.4,1.5-3,1.5-4.8v-4.2c0-4.5-3.7-8.2-8.2-8.2
						H731.7z"/>
				</g>
			</g>
			<g>
				<g>
					<path class="st1" d="M802.8,847.3V889c-2.7-12.6-14-22.2-27.4-22.2h-39.8c-3.4,0-6.7,0.6-9.8,1.7v-19.2
						c1.7,1.2,3.7,1.9,5.9,1.9h62.8c3.4,0,6.4-1.7,8.3-4.3C802.8,847,802.8,847.2,802.8,847.3z"/>
				</g>
				<g>
					<path class="st2" d="M802.8,891c-0.9,0-1.8-0.6-2-1.6c-2.6-11.9-13.3-20.6-25.5-20.6h-39.8c-3.1,0-6.2,0.5-9.1,1.5
						c-0.6,0.2-1.3,0.1-1.8-0.3c-0.5-0.4-0.8-1-0.8-1.6v-19.2c0-0.8,0.4-1.4,1.1-1.8c0.7-0.3,1.5-0.3,2.1,0.2c1.4,1,3,1.5,4.7,1.5
						h62.8c2.6,0,5.1-1.3,6.6-3.4c0.5-0.7,1.3-1,2.1-0.8c0.8,0.2,1.4,0.9,1.5,1.7c0,0.2,0,0.4,0,0.7V889c0,1-0.8,1.9-1.8,2
						C802.9,891,802.9,891,802.8,891z M735.5,864.8h39.8c10.5,0,20,5.6,25.4,14.1v-27.5c-1.9,1.1-4,1.8-6.3,1.8h-62.8
						c-1.3,0-2.7-0.2-3.9-0.6v13.3C730.3,865.1,732.9,864.8,735.5,864.8z"/>
				</g>
			</g>
			<g>
				<g>
					<path class="st5" d="M802.8,889v8c0,3.4-1.7,6.4-4.2,8.2c0,0-0.1,0-0.1,0.1c-1.5,0.9-3.3,1.5-5.3,1.5H716c-2.8,0-5.4-1.1-7.2-3
						c-1.8-1.9-3-4.4-3-7.2c0-13,8.4-24,20-28.1c3.1-1.1,6.4-1.7,9.8-1.7h39.8C788.8,866.8,800.1,876.3,802.8,889z"/>
				</g>
				<g>
					<path class="st2" d="M793.2,908.8H716c-3.2,0-6.3-1.3-8.6-3.6c-2.3-2.3-3.6-5.4-3.6-8.6c0-13.5,8.6-25.5,21.3-30
						c3.4-1.2,6.9-1.8,10.4-1.8h39.8c14.1,0,26.4,10,29.4,23.7c0,0.1,0,0.3,0,0.4v8c0,3.9-1.9,7.5-5,9.8c0,0-0.1,0.1-0.2,0.1
						c0,0-0.1,0-0.1,0.1C797.6,908.2,795.5,908.8,793.2,908.8z M735.5,868.8c-3.1,0-6.2,0.5-9.1,1.5c-11.2,3.9-18.7,14.4-18.7,26.2
						c0,2.2,0.9,4.2,2.4,5.8c1.6,1.5,3.6,2.4,5.8,2.4h77.3c1.5,0,2.9-0.4,4.2-1.2c0,0,0,0,0,0c2.1-1.6,3.3-4,3.3-6.6v-7.8
						c-2.7-11.8-13.3-20.4-25.4-20.4H735.5z"/>
				</g>
			</g>
			<g>
				<g>
					<path class="st2" d="M798.6,907.2c-0.6,0-1.3-0.3-1.7-0.9c-0.6-0.9-0.4-2.1,0.5-2.7c2.1-1.6,3.4-4,3.4-6.6v-8
						c0-1,0.8-1.9,1.8-2c1-0.1,2,0.6,2.2,1.6c0.4,2.1,0.7,4.2,0.7,6.3v1.7c0,4.2-2.2,8.1-5.8,10.3
						C799.3,907.1,799,907.2,798.6,907.2z"/>
				</g>
			</g>
			<g>
				<g>
					<g>
						<path class="st3" d="M876.4,797.4l2.8,29.1h42.7l-4.3-45.1C904.7,788.4,890.9,793.8,876.4,797.4z"/>
					</g>
					<g>
						<path class="st2" d="M924.1,828.5h-46.7l-3.2-32.6l1.7-0.4c14.1-3.5,27.8-8.9,40.7-15.8l2.7-1.4L924.1,828.5z M881.1,824.5
							h38.6l-3.8-39.9c-11.9,6.1-24.4,10.9-37.3,14.3L881.1,824.5z"/>
					</g>
				</g>
			</g>
			<g>
				<g>
					<path class="st1" d="M858.6,836.7v4.2c0,2.2,0.7,4.3,1.9,5.9c1.9,2.6,4.9,4.3,8.3,4.3h62.8c2.2,0,4.2-0.7,5.9-1.9
						c2.6-1.9,4.3-4.9,4.3-8.3v-4.2c0-5.6-4.6-10.2-10.2-10.2h-62.8C863.2,826.5,858.6,831.1,858.6,836.7z"/>
				</g>
				<g>
					<path class="st2" d="M931.7,853.1h-62.8c-3.9,0-7.6-1.9-9.9-5.1c-1.5-2.1-2.3-4.5-2.3-7.1v-4.2c0-6.7,5.5-12.2,12.2-12.2h62.8
						c6.7,0,12.2,5.5,12.2,12.2v4.2c0,3.9-1.9,7.6-5.1,9.9C936.7,852.4,934.2,853.1,931.7,853.1z M868.8,828.5
						c-4.5,0-8.2,3.7-8.2,8.2v4.2c0,1.7,0.5,3.4,1.5,4.8c1.5,2.1,4,3.4,6.7,3.4h62.8c1.7,0,3.3-0.5,4.7-1.5c2.2-1.5,3.4-4,3.4-6.7
						v-4.2c0-4.5-3.7-8.2-8.2-8.2H868.8z"/>
				</g>
			</g>
			<g>
				<g>
					<path class="st1" d="M860.5,847.3V889c2.7-12.6,14-22.2,27.4-22.2h39.8c3.4,0,6.7,0.6,9.8,1.7v-19.2c-1.7,1.2-3.7,1.9-5.9,1.9
						h-62.8c-3.4,0-6.4-1.7-8.3-4.3C860.5,847,860.5,847.2,860.5,847.3z"/>
				</g>
				<g>
					<path class="st2" d="M860.5,891c-0.1,0-0.1,0-0.2,0c-1-0.1-1.8-1-1.8-2v-41.6c0-0.2,0-0.4,0-0.7c0.1-0.8,0.7-1.5,1.5-1.7
						c0.8-0.2,1.6,0.1,2.1,0.8c1.5,2.1,4,3.4,6.6,3.4h62.8c1.7,0,3.3-0.5,4.7-1.5c0.6-0.4,1.4-0.5,2.1-0.2c0.7,0.3,1.1,1,1.1,1.8
						v19.2c0,0.6-0.3,1.3-0.8,1.6c-0.5,0.4-1.2,0.5-1.8,0.3c-2.9-1-6-1.5-9.1-1.5H888c-12.2,0-22.9,8.7-25.5,20.6
						C862.3,890.3,861.5,891,860.5,891z M862.5,851.4v27.5c5.4-8.5,14.9-14.1,25.4-14.1h39.8c2.6,0,5.2,0.3,7.8,1v-13.3
						c-1.2,0.4-2.6,0.6-3.9,0.6h-62.8C866.6,853.1,864.4,852.5,862.5,851.4z"/>
				</g>
			</g>
			<g>
				<g>
					<path class="st5" d="M860.5,889v8c0,3.4,1.7,6.4,4.2,8.2c0,0,0.1,0,0.1,0.1c1.5,0.9,3.3,1.5,5.3,1.5h77.3c2.8,0,5.4-1.1,7.2-3
						c1.8-1.9,3-4.4,3-7.2c0-13-8.4-24-20-28.1c-3.1-1.1-6.4-1.7-9.8-1.7H888C874.6,866.8,863.3,876.3,860.5,889z"/>
				</g>
				<g>
					<path class="st2" d="M947.4,908.8h-77.3c-2.2,0-4.4-0.6-6.3-1.8c0,0-0.1,0-0.1-0.1c-0.1,0-0.1-0.1-0.2-0.1c-3.1-2.3-5-6-5-9.8
						v-8c0-0.1,0-0.3,0-0.4c3-13.7,15.3-23.7,29.4-23.7h39.8c3.6,0,7.1,0.6,10.4,1.8c12.8,4.5,21.3,16.5,21.3,30
						c0,3.2-1.3,6.3-3.6,8.6C953.7,907.5,950.6,908.8,947.4,908.8z M865.9,903.6c1.3,0.8,2.7,1.2,4.2,1.2h77.3
						c2.2,0,4.2-0.9,5.8-2.4c1.5-1.6,2.4-3.6,2.4-5.8c0-11.8-7.5-22.3-18.7-26.2c-2.9-1-6-1.5-9.1-1.5H888
						c-12.1,0-22.8,8.6-25.4,20.4v7.8C862.5,899.6,863.8,902,865.9,903.6C865.9,903.6,865.9,903.6,865.9,903.6z"/>
				</g>
			</g>
			<g>
				<g>
					<path class="st2" d="M864.7,907.2c-0.4,0-0.7-0.1-1.1-0.3c-3.6-2.2-5.8-6.1-5.8-10.3v-1.7c0-2.1,0.2-4.2,0.7-6.3
						c0.2-1,1.1-1.7,2.2-1.6c1,0.1,1.8,1,1.8,2v8c0,2.6,1.3,5.1,3.4,6.6c0.9,0.6,1.1,1.8,0.5,2.7C866,906.9,865.4,907.2,864.7,907.2
						z"/>
				</g>
			</g>
			<g>
				<g>
					<path class="st6" d="M787.1,563.5v82.8c0,9.5-7.7,17.2-17.2,17.2c-9.5,0-17.2-7.7-17.2-17.2v-82.8c0-9.5,7.7-17.2,17.2-17.2
						c4.7,0,9,1.9,12.1,5.1c0.2,0.2,0.3,0.4,0.5,0.5C785.4,555,787.1,559.1,787.1,563.5z"/>
				</g>
			</g>
			<g>
				<g>
					<path class="st5" d="M962.7,583.6l-7.2,17.4l-3.4,8.9l-14.9,5.9l-6.4-3.8l-10.6-1.7l-4.2-8.5c0,0-0.4-5.1-0.8-6.8
						c-0.4-1.7-5.5-6.4-5.5-6.4l-6.8,2.5l-0.4,8.9l-4,5.9v-42.6c0-4.7-1.9-9-5.1-12.1c-1-1-2.1-1.9-3.4-2.6l3.1-2.1l17.4-3.8
						l9.3-1.7l10.2,5.9l16.6-0.8l7.2,13.2l7.2,8.1L962.7,583.6z"/>
				</g>
				<g>
					<path class="st2" d="M937,618.1l-6.9-4.1l-11.2-1.8l-4.9-9.8l0-0.4c-0.1-1.4-0.5-5.2-0.8-6.5c-0.2-0.6-2-2.6-4-4.5l-4.4,1.6
						l-0.4,8.2l-8,11.8v-49.1c0-4-1.6-7.9-4.5-10.7c-0.9-0.9-1.9-1.7-3-2.3l-2.7-1.6l6.1-4l17.8-3.9l10.1-1.8l10.3,6l17.2-0.9
						l7.7,14.1l7.5,8.4l1.8,17.3l-7.4,17.9l-3.7,9.7L937,618.1z M921.5,608.6l10,1.6l5.9,3.5l13.1-5.3l3.1-8.1l7-17l-1.6-15
						l-6.9-7.8l-6.7-12.3l-15.9,0.8l-10.1-5.9l-8.6,1.6l-17,3.7l-0.4,0.3c0.4,0.4,0.9,0.8,1.3,1.2c3.6,3.6,5.6,8.5,5.6,13.6v36.1
						l0.1-0.1l0.5-9.7l9.2-3.4l0.9,0.8c2.1,1.9,5.6,5.4,6.1,7.4c0.4,1.6,0.8,5.4,0.9,6.7L921.5,608.6z"/>
				</g>
			</g>
			<g>
				<g>
					<path class="st6" d="M893.3,551.4c-1-1-2.1-1.9-3.4-2.6c-2.6-1.5-5.6-2.4-8.8-2.4c-4.1,0-8,1.5-10.9,3.9
						c-3.6,2.9-5.9,7.3-6.2,12.1c0,0.4,0,0.7,0,1.1v82.8c0,9.5,7.7,17.2,17.2,17.2c9.5,0,17.2-7.7,17.2-17.2v-82.8
						C898.3,558.8,896.4,554.5,893.3,551.4z M875.9,597.8c-3,0-5.4-2.4-5.4-5.4c0-3,2.4-5.4,5.4-5.4c3,0,5.4,2.4,5.4,5.4
						C881.3,595.4,878.9,597.8,875.9,597.8z M883,582.5c-6.3,0-11.3-4.9-11.3-11c0-6.1,5.1-11,11.3-11c6.3,0,11.3,4.9,11.3,11
						C894.3,577.5,889.2,582.5,883,582.5z"/>
				</g>
				<g>
					<path class="st7" d="M881.2,665.5c-10.6,0-19.2-8.6-19.2-19.2v-82.8c0-0.4,0-0.9,0.1-1.3c0.3-5.2,2.9-10.1,6.9-13.5
						c3.4-2.8,7.8-4.4,12.2-4.4c3.5,0,6.8,0.9,9.8,2.7c1.4,0.8,2.6,1.8,3.8,2.9l0,0c3.6,3.6,5.6,8.5,5.6,13.6v82.8
						C900.4,656.9,891.7,665.5,881.2,665.5z M881.2,548.3c-3.5,0-6.9,1.2-9.7,3.5c-3.2,2.7-5.2,6.6-5.5,10.7c0,0.4,0,0.7,0,1v82.8
						c0,8.4,6.8,15.2,15.2,15.2c8.4,0,15.2-6.8,15.2-15.2v-82.8c0-4-1.6-7.8-4.5-10.7l0,0c-0.9-0.9-1.9-1.7-3-2.3
						C886.6,549.1,883.9,548.3,881.2,548.3z M875.9,599.8c-4.1,0-7.4-3.3-7.4-7.4c0-4.1,3.3-7.4,7.4-7.4c4.1,0,7.4,3.3,7.4,7.4
						C883.3,596.5,880,599.8,875.9,599.8z M875.9,589c-1.9,0-3.4,1.5-3.4,3.4c0,1.9,1.5,3.4,3.4,3.4c1.9,0,3.4-1.5,3.4-3.4
						C879.3,590.5,877.8,589,875.9,589z M883,584.5c-7.4,0-13.3-5.9-13.3-13c0-7.2,6-13,13.3-13c7.3,0,13.3,5.9,13.3,13
						C896.3,578.6,890.3,584.5,883,584.5z M883,562.4c-5.1,0-9.3,4.1-9.3,9s4.2,9,9.3,9c5.1,0,9.3-4.1,9.3-9S888.1,562.4,883,562.4z
						"/>
				</g>
			</g>
			<g>
				<g>
					<path class="st3" d="M894.3,571.4c0,6.1-5.1,11-11.3,11c-6.3,0-11.3-4.9-11.3-11c0-6.1,5.1-11,11.3-11
						C889.2,560.4,894.3,565.3,894.3,571.4z"/>
				</g>
				<g>
					<path class="st2" d="M883,584.5c-7.4,0-13.3-5.9-13.3-13c0-7.2,6-13,13.3-13c7.3,0,13.3,5.9,13.3,13
						C896.3,578.6,890.3,584.5,883,584.5z M883,562.4c-5.1,0-9.3,4.1-9.3,9s4.2,9,9.3,9c5.1,0,9.3-4.1,9.3-9S888.1,562.4,883,562.4z
						"/>
				</g>
			</g>
			<g>
				<g>
					<path class="st3" d="M881.3,592.4c0,3-2.4,5.4-5.4,5.4c-3,0-5.4-2.4-5.4-5.4c0-3,2.4-5.4,5.4-5.4
						C878.9,587,881.3,589.4,881.3,592.4z"/>
				</g>
				<g>
					<path class="st2" d="M875.9,599.8c-4.1,0-7.4-3.3-7.4-7.4c0-4.1,3.3-7.4,7.4-7.4c4.1,0,7.4,3.3,7.4,7.4
						C883.3,596.5,880,599.8,875.9,599.8z M875.9,589c-1.9,0-3.4,1.5-3.4,3.4c0,1.9,1.5,3.4,3.4,3.4c1.9,0,3.4-1.5,3.4-3.4
						C879.3,590.5,877.8,589,875.9,589z"/>
				</g>
			</g>
			<g>
				<g>
					<ellipse class="st3" cx="771.7" cy="571.4" rx="11.3" ry="11"/>
				</g>
				<g>
					<path class="st2" d="M771.7,584.5c-7.3,0-13.3-5.9-13.3-13s6-13,13.3-13s13.3,5.9,13.3,13S779.1,584.5,771.7,584.5z
						 M771.7,562.4c-5.1,0-9.3,4.1-9.3,9s4.2,9,9.3,9s9.3-4.1,9.3-9S776.9,562.4,771.7,562.4z"/>
				</g>
			</g>
			<g>
				<g>
					<circle class="st3" cx="764.6" cy="592.4" r="5.4"/>
				</g>
				<g>
					<path class="st2" d="M764.6,599.8c-4.1,0-7.4-3.3-7.4-7.4s3.3-7.4,7.4-7.4s7.4,3.3,7.4,7.4S768.7,599.8,764.6,599.8z
						 M764.6,589c-1.9,0-3.4,1.5-3.4,3.4s1.5,3.4,3.4,3.4s3.4-1.5,3.4-3.4S766.5,589,764.6,589z"/>
				</g>
			</g>
			<g>
				<g>
					<polygon class="st1" points="781.8,784.9 774.1,780.7 771.6,771.7 777.1,769.2 780.1,775.1 					"/>
				</g>
				<g>
					<path class="st2" d="M784.5,788.7l-12-6.7l-3.2-11.4l8.8-4.1l4,7.9L784.5,788.7z M775.8,779.3l3.3,1.8l-0.9-5.4l-2-3.9l-2.2,1
						L775.8,779.3z"/>
				</g>
			</g>
			<g>
				<g>
					<polygon class="st1" points="847.2,583.2 843.3,591.3 837,586.6 842.9,578.5 					"/>
				</g>
				<g>
					<path class="st2" d="M844.1,594.3l-9.9-7.3l8.6-11.6l6.8,7.5L844.1,594.3z M839.8,586.2l2.8,2.1l2.2-4.7l-1.7-1.9L839.8,586.2z
						"/>
				</g>
			</g>
			<g>
				<g>
					<path class="st1" d="M783.9,547.5l-1.4,4.4c-0.2-0.2-0.3-0.4-0.5-0.5c-3.1-3.1-7.4-5.1-12.1-5.1c-9.5,0-17.2,7.7-17.2,17.2
						v16.7l-4-5.1l-12.3-8.5l-4.7-14.9l4.7-8.1l16.6-11l15.3-1.3l10.6,10.2L783.9,547.5z"/>
				</g>
				<g>
					<path class="st2" d="M754.7,586l-7.4-9.5l-12.6-8.7l-5.1-16.4l5.3-9.2l17.4-11.6l16.7-1.4l11.4,11l5.8,6.8l-2.7,8.8l-2.4-2.6
						c-0.1-0.2-0.3-0.3-0.5-0.5c-2.9-2.9-6.7-4.5-10.7-4.5c-8.4,0-15.2,6.8-15.2,15.2V586z M738,565.4l12,8.3l0.7,0.8v-11
						c0-10.6,8.6-19.2,19.2-19.2c4.3,0,8.3,1.4,11.7,4l0.1-0.3l-4.3-5l-9.9-9.5l-13.9,1.2l-15.7,10.5l-4,6.9L738,565.4z"/>
				</g>
			</g>
			<g>
				<g>
					
						<rect x="781.8" y="550.5" transform="matrix(0.294 -0.9558 0.9558 0.294 24.2897 1137.8253)" class="st2" width="1.2" height="4"/>
				</g>
			</g>
			<g>
				<g>
					
						<rect x="751" y="580.2" transform="matrix(0.7858 -0.6185 0.6185 0.7858 -197.8354 590.0715)" class="st2" width="4" height="1"/>
				</g>
			</g>
			<g>
				<g>
					<path class="st7" d="M833.4,704.2c-11.2,0-21.3-4.8-25.8-12.2l4.3-2.6c3.6,6,12,9.8,21.5,9.8c12.8,0,23.2-7,23.2-15.5
						c0-5.9-5.1-11.3-13-14l1.6-4.7c10,3.3,16.4,10.7,16.4,18.7C861.6,694.9,848.9,704.2,833.4,704.2z"/>
				</g>
			</g>
			<g>
				<g>
					<path class="st7" d="M836.2,742.8c-17.1,0-32.5-4.5-33.5-4.8l1.4-4.8c0.4,0.1,36.3,10.6,58-0.7c20.2-10.5,19.5-17.6,19.5-17.7
						c0,0.1,0,0.1,0,0.1l4.9-1.2c0.4,1.7,1.4,11-22.1,23.2C856,741.4,845.8,742.8,836.2,742.8z"/>
				</g>
			</g>
			<g>
				<g>
					<path class="st2" d="M147.2,315.6l-0.1-0.2c-0.1-0.1-0.2-0.3-0.2-0.4l3.6-1.7l0,0c0.1,0.1,0.1,0.2,0.2,0.3L147.2,315.6z"/>
				</g>
			</g>
			<g>
				<g>
					<path class="st3" d="M182.8,484.1l-8.6,127.9l-1.7,25.3l0,0.1l-3.2,47.2l-3.6,53.5l-14.4,13.6l-30.6,28.9l17-292l-40,135.5
						l-6.7-2l-55.8-16.5l-19.3-5.7l74.4-252c3.6-20.4,14.8-38.2,30.7-50.2c4.7,3.4,10.8,5.5,17.4,5.5c1.8,0,3.5-0.2,5.2-0.4
						c0.1,0.2,0.2,0.4,0.2,0.6c0.2,0.6,0.5,1.2,0.7,1.8c0.2,0.5,0.5,1.1,0.7,1.6c0.1,0.2,0.2,0.5,0.3,0.7c0.2,0.5,0.4,1,0.7,1.5
						c0,0,0,0,0,0c0.3,0.6,0.5,1.1,0.8,1.7c0.2,0.5,0.5,1,0.8,1.5c0.2,0.4,0.4,0.7,0.6,1.1c0,0.1,0.1,0.2,0.1,0.3l0.3,0.6
						c0,0,0,0.1,0.1,0.1c0.1,0.2,0.2,0.3,0.3,0.5c0,0.1,0.1,0.1,0.1,0.2l-22.2,50.9C127.1,366.2,166.1,423.8,182.8,484.1z"/>
				</g>
				<g>
					<path class="st2" d="M118,786.8l16.1-276.6L99.5,627.3l-86.7-25.6l75.1-254.3c3.6-20.5,14.8-38.9,31.6-51.7l1.5-1.1l1.5,1.1
						c4.4,3.2,10.1,5,15.9,5c1.6,0,3.2-0.1,4.8-0.4l2-0.3l1,2.5c0.2,0.6,0.5,1.2,0.7,1.8c0.2,0.5,0.4,1.1,0.7,1.6l0.3,0.6
						c0.2,0.5,0.4,0.9,0.6,1.4l0.1,0.2c0.2,0.5,0.5,1.1,0.8,1.6c0.2,0.5,0.5,1,0.7,1.5c0.2,0.4,0.4,0.7,0.5,1.1l1.6,2.9l-0.5,1.1
						l-21.7,49.7c5.6,8.5,39.9,62.2,55.3,117.5l0.1,0.4l-17.1,255.5L118,786.8z M141.6,467.1l-17.9,307.4l39.7-37.5l16.9-252.7
						c-16.5-59.1-54.9-116.2-55.3-116.8l-0.8-1.1l22.3-51.1l-0.2-0.4c-0.1-0.1-0.1-0.2-0.2-0.3c-0.2-0.4-0.4-0.7-0.6-1.1
						c-0.2-0.5-0.5-1-0.8-1.5c-0.3-0.5-0.5-1.1-0.8-1.6l-0.1-0.1c-0.2-0.5-0.5-1-0.7-1.5L143,308c-0.3-0.6-0.5-1.2-0.7-1.7
						c-0.1-0.2-0.2-0.4-0.3-0.7c-7.4,0.8-14.9-0.9-20.9-4.7c-15,12-25,28.8-28.3,47.6l-0.1,0.3L19,598.4l77.1,22.8L141.6,467.1z"/>
				</g>
			</g>
			<g>
				<g>
					<path class="st3" d="M501.6,577.1l-11.7,5l-52.1,22.3l-14.7,6.3l-60.3-140.9l17,311l-31.4-29.6l-13.6-12.9l-3.6-48l-3.9-52.7
						l0-0.1l-1.9-25.3l-7.6-103.4c8.2-67.5,51.9-141.5,51.9-141.5l-27-52.8c0.3-0.5,0.5-1,0.8-1.6c0.3-0.5,0.5-1.1,0.8-1.6
						c0.8-1.6,1.5-3.2,2.2-4.8c0.2-0.5,0.5-1.1,0.7-1.6c0.2-0.5,0.4-1.1,0.7-1.6c0-0.1,0-0.1,0.1-0.2c1.4,0.2,2.9,0.3,4.4,0.3
						c7.7,0,14.6-2.8,19.6-7.3c12,9.2,21,22.2,25.3,37.1v0L501.6,577.1z"/>
				</g>
				<g>
					<path class="st2" d="M382.7,786.8l-50.3-47.4l-17.1-230.8l0-0.2C323,445.8,361.3,377,367,367.1L340,314.4l0.6-1.1
						c0.3-0.5,0.5-1,0.8-1.5c0.3-0.5,0.5-1,0.8-1.5c0.8-1.7,1.5-3.2,2.1-4.7c0.2-0.5,0.5-1.1,0.7-1.6c0.2-0.5,0.4-1.1,0.6-1.6
						c0-0.1,0.1-0.2,0.1-0.3l0.8-1.8l1.9,0.3c1.4,0.2,2.7,0.3,4.1,0.3c6.8,0,13.2-2.4,17.9-6.6l1.5-1.4l1.7,1.3
						c12.5,9.6,21.8,23.2,26.1,38.2l105.3,246.1l-83.1,35.5l-55.7-130.2L382.7,786.8z M337.3,737.1l39.7,37.5l-17.4-318.9
						l64.9,151.6l73.9-31.6L394.8,333.6v-0.2c-3.9-13.3-11.9-25.4-22.7-34.2c-6.1,4.8-14.1,7.1-22.4,6.4c0,0,0,0,0,0.1
						c-0.2,0.6-0.5,1.1-0.7,1.7c-0.6,1.5-1.4,3.1-2.2,4.9c-0.3,0.5-0.5,1.1-0.8,1.6c-0.1,0.1-0.2,0.3-0.2,0.4l27,52.9l-0.7,1.2
						c-0.4,0.7-43.4,74.1-51.6,140.3L337.3,737.1z"/>
				</g>
			</g>
			<g>
				<g>
					<path class="st8" d="M182.8,353v131.1c-16.8-60.3-55.7-118-55.7-118l22.2-50.9c0.4,0.8,0.9,1.6,1.3,2.4c0.3,0.5,0.6,1,0.9,1.6
						c0.3,0.6,0.7,1.2,1.1,1.8c0.3,0.4,0.5,0.9,0.8,1.3c0.3,0.4,0.5,0.8,0.8,1.2c0.3,0.5,0.6,1,1,1.4c0.4,0.6,0.9,1.2,1.3,1.9
						c1.2,1.7,2.5,3.4,3.8,5c0.3,0.3,0.5,0.7,0.8,1c0.3,0.4,0.6,0.7,0.9,1.1c0.3,0.4,0.7,0.8,1,1.2c0.4,0.5,0.8,0.9,1.2,1.4
						c0.3,0.4,0.7,0.8,1.1,1.2c0.3,0.4,0.7,0.7,1,1.1c1.6,1.7,3.3,3.4,5.1,5C175,347.1,178.8,350.2,182.8,353z"/>
				</g>
				<g>
					<path class="st2" d="M185.3,502.5l-4.9-17.7c-16.5-59.2-55-116.6-55.4-117.2l-0.8-1.1l24.8-56.9l2.4,4.5
						c0.4,0.8,0.8,1.6,1.3,2.3c0.3,0.5,0.6,1,0.9,1.5c0.4,0.6,0.7,1.2,1.1,1.7c0.3,0.5,0.5,0.9,0.8,1.2c0.3,0.5,0.5,0.9,0.8,1.3
						c0.3,0.5,0.6,0.9,0.9,1.4c0.4,0.6,0.8,1.2,1.3,1.8c1.2,1.7,2.4,3.3,3.7,4.9c0.3,0.4,0.5,0.7,0.8,1c0.3,0.4,0.6,0.7,0.9,1.1
						c0.3,0.4,0.6,0.8,1,1.1c0.4,0.5,0.8,0.9,1.1,1.3l1.1,1.3c0.3,0.4,0.6,0.7,0.9,1c1.7,1.8,3.3,3.4,5,4.9
						c3.5,3.3,7.3,6.3,11.2,9.1l1.1,0.7V502.5z M129.9,365.9c5,7.7,33.6,52.3,50.4,101.7V354.3c-3.7-2.7-7.3-5.6-10.7-8.7
						c-1.7-1.6-3.5-3.3-5.2-5.2c-0.3-0.3-0.6-0.7-1-1l-1.2-1.4c-0.4-0.4-0.8-0.9-1.2-1.3c-0.3-0.4-0.7-0.8-1-1.2
						c-0.3-0.3-0.6-0.7-0.9-1.1c-0.3-0.3-0.5-0.7-0.8-1c-1.3-1.6-2.6-3.3-3.8-5.1c-0.4-0.6-0.9-1.2-1.3-1.9c-0.3-0.5-0.7-1-1-1.5
						c-0.3-0.4-0.6-0.9-0.8-1.3c-0.3-0.4-0.5-0.8-0.8-1.3c-0.3-0.5-0.6-1-0.9-1.5L129.9,365.9z"/>
				</g>
			</g>
			<g>
				<g>
					<path class="st8" d="M369.8,367.2c0,0-43.7,74-51.9,141.5V346c0.8-0.7,1.7-1.5,2.5-2.2c1-1,2-1.9,3-2.9
						c0.4-0.4,0.9-0.9,1.3-1.3c0.1-0.1,0.2-0.2,0.3-0.3c0.3-0.3,0.7-0.7,1-1c0.2-0.2,0.4-0.4,0.6-0.7c0.3-0.3,0.6-0.7,0.9-1
						c0.2-0.2,0.3-0.3,0.5-0.5c0.4-0.5,0.8-0.9,1.2-1.4c0.5-0.5,0.9-1.1,1.3-1.6c0.4-0.5,0.7-0.9,1.1-1.4c0.4-0.5,0.8-1,1.2-1.5
						c2.1-2.7,4.1-5.5,5.9-8.4c0.3-0.4,0.5-0.8,0.8-1.3c0-0.1,0.1-0.1,0.1-0.2c0.4-0.6,0.7-1.2,1-1.7c0.1-0.1,0.1-0.2,0.2-0.3
						c0.4-0.6,0.7-1.2,1.1-1.9c0.4-0.7,0.7-1.4,1.1-2.1L369.8,367.2z"/>
				</g>
				<g>
					<path class="st2" d="M320.4,509l-5-0.3V344.9l0.9-0.7c0.8-0.7,1.6-1.4,2.4-2.2c1-0.9,2-1.9,2.9-2.8c0.4-0.4,0.9-0.9,1.3-1.3
						l0.2-0.2c0.3-0.4,0.7-0.7,1-1c0.2-0.2,0.4-0.4,0.6-0.6c0.3-0.3,0.6-0.6,0.9-1l0.1-0.1c0.1-0.1,0.3-0.3,0.4-0.4
						c0.4-0.5,0.8-0.9,1.2-1.3c0.5-0.5,0.9-1,1.3-1.6c0.4-0.5,0.7-0.9,1.1-1.3c0.4-0.5,0.8-1,1.1-1.4c2.1-2.7,4-5.4,5.8-8.3
						c0.3-0.4,0.5-0.8,0.8-1.2l0.2-0.3c0.2-0.4,0.5-0.8,0.7-1.2l0.3-0.5c0,0,0.1-0.1,0.1-0.2l0.1-0.1c0.4-0.6,0.7-1.2,1-1.8
						c0.4-0.7,0.8-1.4,1.1-2.1l2.3-4.2l29.8,58.3l-0.7,1.2C371.5,369.2,328.4,442.8,320.4,509z M320.4,347.1v134.2
						c12.9-54,41.8-105.7,46.6-114.1l-24.2-47.4l-0.4,0.6c-0.3,0.4-0.5,0.9-0.8,1.3l-0.1,0.2c-0.2,0.4-0.5,0.9-0.8,1.3
						c-1.8,2.9-3.9,5.8-6,8.6c-0.4,0.5-0.8,1-1.2,1.5c-0.3,0.4-0.7,0.9-1.1,1.4c-0.4,0.5-0.9,1.1-1.4,1.6c-0.4,0.4-0.8,0.9-1.2,1.4
						c-0.1,0.1-0.3,0.4-0.5,0.6c-0.3,0.3-0.6,0.6-0.9,1c-0.2,0.2-0.4,0.5-0.6,0.7c-0.3,0.3-0.6,0.7-1,1c-0.1,0.1-0.2,0.2-0.3,0.3
						c-0.5,0.5-0.9,0.9-1.4,1.4c-1,1-2,2-3.1,3C321.5,346.1,320.9,346.6,320.4,347.1z"/>
				</g>
			</g>
			<g>
				<g>
					<path class="st9" d="M379.6,279.6c0,6.4-2.9,12.2-7.6,16.5c-5,4.5-11.9,7.3-19.6,7.3c-1.5,0-3-0.1-4.4-0.3c0,0.1,0,0.1-0.1,0.2
						c-0.2,0.5-0.4,1.1-0.7,1.6c-0.2,0.5-0.5,1.1-0.7,1.6c-0.7,1.6-1.4,3.2-2.2,4.8c-0.3,0.5-0.5,1.1-0.8,1.6
						c-0.3,0.5-0.5,1-0.8,1.6c-0.4,0.7-0.7,1.4-1.1,2.1c-0.3,0.6-0.7,1.3-1.1,1.9c-0.1,0.1-0.1,0.2-0.2,0.3c-0.3,0.6-0.7,1.2-1,1.7
						c0,0.1-0.1,0.1-0.1,0.2c-0.3,0.4-0.5,0.8-0.8,1.3c-1.8,2.9-3.8,5.7-5.9,8.4c-0.4,0.5-0.8,1-1.2,1.5c-0.4,0.5-0.7,0.9-1.1,1.4
						c-0.4,0.5-0.9,1.1-1.3,1.6c-0.4,0.5-0.8,0.9-1.2,1.4c-0.1,0.2-0.3,0.3-0.5,0.5c-0.3,0.3-0.6,0.7-0.9,1
						c-0.2,0.2-0.4,0.4-0.6,0.7c-0.3,0.3-0.7,0.7-1,1c-0.1,0.1-0.2,0.2-0.3,0.3c-0.4,0.4-0.8,0.9-1.3,1.3c-1,1-2,2-3,2.9
						c-0.8,0.8-1.6,1.5-2.5,2.2c-13.8,12-30.5,20.6-49,24.6c0.5,1.6,0.8,3.3,0.8,5c0,10.8-10.7,19.5-23.8,19.5
						c-13.1,0-23.8-8.7-23.8-19.5c0-1.7,0.3-3.4,0.8-5c-14.6-3.1-28.2-9.2-40-17.5c-4-2.8-7.9-5.9-11.5-9.3c-1.7-1.6-3.4-3.3-5.1-5
						c-0.3-0.3-0.7-0.7-1-1.1c-0.3-0.4-0.7-0.8-1.1-1.2c-0.4-0.5-0.8-0.9-1.2-1.4c-0.3-0.4-0.7-0.8-1-1.2c-0.3-0.4-0.6-0.7-0.9-1.1
						c-0.3-0.3-0.6-0.7-0.8-1c-1.3-1.6-2.6-3.3-3.8-5c-0.4-0.6-0.9-1.2-1.3-1.9c-0.3-0.5-0.6-1-1-1.4c-0.3-0.4-0.5-0.8-0.8-1.2
						c-0.3-0.4-0.6-0.9-0.8-1.3c-0.4-0.6-0.7-1.2-1.1-1.8c-0.3-0.5-0.6-1-0.9-1.6c-0.5-0.8-0.9-1.6-1.3-2.4c0-0.1-0.1-0.1-0.1-0.2
						c-0.1-0.2-0.2-0.3-0.3-0.5c0,0,0-0.1-0.1-0.1c-0.1-0.1-0.1-0.2-0.2-0.3c-0.1-0.1-0.1-0.2-0.2-0.3c-0.1-0.1-0.1-0.2-0.1-0.3
						c-0.2-0.4-0.4-0.7-0.6-1.1c-0.3-0.5-0.5-1-0.8-1.5c-0.3-0.6-0.5-1.1-0.8-1.7c0,0,0,0,0,0c-0.2-0.5-0.5-1-0.7-1.5
						c-0.1-0.2-0.2-0.5-0.3-0.7c-0.2-0.5-0.5-1.1-0.7-1.6c-0.3-0.6-0.5-1.2-0.7-1.8c-0.1-0.2-0.2-0.4-0.2-0.6
						c-1.7,0.3-3.4,0.4-5.2,0.4c-6.6,0-12.7-2.1-17.4-5.5c-6-4.4-9.8-10.9-9.8-18.3c0-11.8,9.7-21.5,22.5-23.4l3.8,7.3l2.1,17.8
						l18.3-5.1l-10.2,27.6l51.8-14.4l16.1,22.9l14.9,0.8l20.8-8.5l20.4,21.2l16.1-20.8c0,0,11.9,2.5,20.8,4.2
						c8.9,1.7,28.9,5.9,28.9,5.9l2.1-19.1l8.9,3.4l-3.4-26.3l-3.8-14l13.7-4c0,0.2,0,0.5,0.1,0.7
						C368.9,257.1,379.6,267.2,379.6,279.6z"/>
				</g>
				<g>
					<path class="st2" d="M245.9,397.6c-14.5,0-26.3-9.9-26.3-22c0-1,0.1-2.1,0.3-3.1c-13.8-3.3-26.7-9.1-38.4-17.4
						c-4.1-2.9-8.1-6.1-11.7-9.5c-1.7-1.6-3.5-3.3-5.2-5.2c-0.3-0.3-0.6-0.7-1-1l-1.2-1.4c-0.4-0.4-0.8-0.9-1.2-1.3
						c-0.3-0.4-0.7-0.8-1-1.2c-0.3-0.3-0.6-0.7-0.9-1.1c-0.3-0.3-0.6-0.7-0.8-1c-1.3-1.6-2.6-3.3-3.8-5.1c-0.4-0.6-0.9-1.2-1.3-1.9
						c-0.3-0.5-0.7-1-1-1.5c-0.3-0.4-0.6-0.9-0.8-1.3c-0.3-0.4-0.5-0.8-0.8-1.3c-0.4-0.7-0.8-1.3-1.1-1.9c-0.3-0.5-0.6-1.1-0.9-1.6
						c-0.5-0.8-0.9-1.6-1.4-2.4c0-0.1-0.1-0.2-0.1-0.3l-0.3-0.6c0-0.1-0.1-0.2-0.1-0.2c-0.1-0.2-0.2-0.3-0.2-0.4
						c0-0.1-0.1-0.2-0.2-0.3c-0.2-0.4-0.4-0.7-0.6-1.1c-0.2-0.5-0.5-1-0.8-1.5c-0.3-0.5-0.5-1.1-0.8-1.6l-0.1-0.1
						c-0.2-0.5-0.5-1-0.7-1.5L143,308c-0.3-0.6-0.5-1.2-0.7-1.7c-0.1-0.2-0.2-0.4-0.3-0.7c-1.2,0.1-2.4,0.2-3.6,0.2
						c-6.9,0-13.6-2.1-18.9-6c-6.9-5-10.8-12.4-10.8-20.3c0-12.9,10.4-23.8,24.7-25.9l1.8-0.3l4.8,9.3l1.8,15.4l20.2-5.6L151.8,300
						l48.8-13.6l16.5,23.4l13.1,0.7l21.9-8.9l19.6,20.4l15.3-19.8l1.5,0.3c0.1,0,12,2.6,20.8,4.2c6.9,1.3,20.5,4.2,26.2,5.4
						l2.2-19.6l8,3.1l-2.8-22l-4.4-16.2l18.9-5.5l0.2,1.7c14.2,2.1,24.7,12.9,24.7,25.9c0,6.9-3,13.4-8.4,18.3
						c-6.3,5.7-15,8.6-24.1,7.8c0,0,0,0,0,0.1c-0.2,0.6-0.5,1.1-0.7,1.7c-0.6,1.5-1.4,3.1-2.2,4.9c-0.3,0.5-0.5,1.1-0.8,1.6
						c-0.3,0.5-0.6,1.1-0.8,1.6c-0.4,0.7-0.8,1.4-1.1,2.1c-0.3,0.6-0.7,1.3-1.1,1.9l-0.5,0.8c-0.3,0.4-0.5,0.9-0.8,1.3l-0.1,0.2
						c-0.2,0.4-0.5,0.9-0.8,1.3c-1.8,2.9-3.9,5.8-6,8.6c-0.4,0.5-0.8,1-1.2,1.5c-0.3,0.4-0.7,0.9-1.1,1.4c-0.4,0.5-0.8,1-1.3,1.5
						l-0.1,0.1c-0.4,0.5-0.8,0.9-1.2,1.4c-0.1,0.2-0.3,0.4-0.5,0.6c-0.3,0.3-0.6,0.6-0.9,1c-0.2,0.2-0.4,0.5-0.6,0.7
						c-0.3,0.3-0.6,0.7-1,1c-0.1,0.1-0.2,0.2-0.3,0.3c-0.5,0.5-0.9,0.9-1.4,1.4c-1,1-2,2-3.1,3c-0.8,0.8-1.7,1.5-2.5,2.3
						c-13.7,11.9-30.1,20.4-47.6,24.6c0.2,1,0.3,2.1,0.3,3.1C272.1,387.7,260.3,397.6,245.9,397.6z M148.5,308l0.1,0.2
						c0.2,0.5,0.5,1.1,0.8,1.6c0.2,0.5,0.5,1,0.7,1.5c0.2,0.4,0.4,0.7,0.5,1.1l0.2,0.3c0,0.1,0.1,0.1,0.1,0.2
						c0.1,0.2,0.1,0.3,0.2,0.3l0.5,0.9c0.4,0.8,0.8,1.5,1.3,2.3c0.3,0.5,0.6,1,0.9,1.5c0.4,0.6,0.7,1.2,1.1,1.7
						c0.3,0.5,0.5,0.9,0.8,1.2c0.3,0.5,0.5,0.9,0.8,1.3c0.3,0.5,0.6,0.9,0.9,1.4c0.4,0.6,0.8,1.2,1.3,1.8c1.2,1.7,2.4,3.3,3.7,4.9
						c0.3,0.4,0.5,0.7,0.8,1c0.3,0.4,0.6,0.7,0.9,1.1c0.3,0.4,0.6,0.8,1,1.1c0.4,0.5,0.8,0.9,1.1,1.3l1.1,1.3c0.3,0.4,0.6,0.7,0.9,1
						c1.7,1.8,3.3,3.4,5,4.9c3.5,3.3,7.3,6.3,11.2,9.1c11.8,8.3,25,14.1,39.1,17.1l2.7,0.6l-0.8,2.6c-0.4,1.4-0.7,2.8-0.7,4.2
						c0,9.4,9.5,17,21.3,17c11.7,0,21.3-7.6,21.3-17c0-1.4-0.2-2.8-0.7-4.2l-0.8-2.6l2.7-0.6c17.7-3.8,34.2-12.1,47.9-24
						c0.8-0.7,1.6-1.4,2.4-2.2c1-0.9,2-1.9,2.9-2.8c0.4-0.4,0.9-0.9,1.3-1.3l0.2-0.2c0.3-0.4,0.7-0.7,1-1c0.2-0.2,0.4-0.4,0.6-0.6
						c0.3-0.3,0.6-0.6,0.9-1l0.1-0.1c0.1-0.1,0.3-0.3,0.4-0.4c0.4-0.5,0.8-0.9,1.2-1.4l0.1-0.1c0.4-0.5,0.8-1,1.2-1.5
						c0.4-0.5,0.7-0.9,1.1-1.3c0.4-0.5,0.8-1,1.1-1.4c2.1-2.7,4-5.4,5.8-8.3c0.3-0.4,0.5-0.8,0.8-1.2l0.2-0.3
						c0.2-0.4,0.5-0.8,0.7-1.2l-1-0.2c-0.2,0-20-4.3-28.8-5.9c-7-1.3-15.8-3.2-19.3-3.9l-17,21.9l-21.2-22.1l-19.8,8.1l-16.6-1
						l-15.8-22.5l-50.8,14.2l0.1,0.2C148.1,307.1,148.3,307.6,148.5,308z M341.8,299.6l-1.6,14.4c0.1-0.3,0.3-0.5,0.4-0.8
						c0.3-0.5,0.5-1,0.8-1.5c0.3-0.5,0.5-1,0.8-1.5c0.8-1.7,1.5-3.2,2.1-4.7c0.2-0.5,0.5-1.1,0.7-1.6c0.2-0.5,0.4-1.1,0.6-1.6
						c0-0.1,0.1-0.2,0.1-0.3l0.4-0.8L341.8,299.6z M145.2,300.1l0.7,1.6l8.1-21.8l-16.4,4.6l-2.4-20.3l-2.7-5.3
						c-10.9,2.3-18.7,10.8-18.7,20.6c0,6.3,3.2,12.2,8.8,16.3c4.4,3.2,10.1,5,15.9,5c1.6,0,3.2-0.1,4.8-0.4L145.2,300.1z
						 M351.3,300.8c7.3,0.3,14.1-2.1,19-6.6c4.4-4,6.8-9.2,6.8-14.6c0-11-9.5-20.1-22.2-21.2l-1.4-0.1l-9.1,2.6l3.2,12L351.3,300.8z
						"/>
				</g>
			</g>
			<g>
				<g>
					<path class="st1" d="M325.5,612.1H174.3l8.6-127.9V353c11.8,8.3,25.4,14.4,40,17.5c-0.5,1.6-0.8,3.3-0.8,5
						c0,10.8,10.7,19.5,23.8,19.5c13.1,0,23.8-8.7,23.8-19.5c0-1.7-0.3-3.4-0.8-5c18.5-3.9,35.3-12.6,49-24.6v162.7L325.5,612.1z"/>
				</g>
				<g>
					<path class="st2" d="M327.7,614.1H172.1l0.1-2.1l8.5-127.9V349.2l3.2,2.2c11.9,8.4,25.1,14.2,39.3,17.2l2.2,0.5l-0.7,2.1
						c-0.5,1.4-0.7,2.9-0.7,4.4c0,9.7,9.8,17.5,21.8,17.5c12,0,21.8-7.9,21.8-17.5c0-1.5-0.2-2.9-0.7-4.4l-0.7-2.1l2.2-0.5
						c17.7-3.8,34.4-12.1,48.1-24.1l3.3-2.9v167L327.7,614.1z M176.4,610.1h147l-7.5-101.4V350.3c-13,10.5-28.3,18-44.6,21.8
						c0.2,1.1,0.3,2.3,0.3,3.5c0,11.9-11.6,21.5-25.8,21.5c-14.2,0-25.8-9.7-25.8-21.5c0-1.2,0.1-2.3,0.3-3.5
						c-12.7-3-24.6-8.1-35.6-15.2l0,127.4L176.4,610.1z"/>
				</g>
			</g>
			<g>
				<g>
					<path class="st5" d="M348.5,751.1v90.8c-5-1.9-10.5-3-16.1-3h-56.7c-8.6,0-16.3,4.6-20.6,11.4h-0.8V656.2H245v194.1h-0.9
						c-4.3-6.8-11.9-11.4-20.6-11.4h-56.7c-5.4,0-10.6,1-15.4,2.7v-89.8l14.4-13.6l3.6-53.5l3.2-47.2l0-0.1l1.7-25.3h151.2l1.9,25.3
						l0,0.1l3.9,52.7l3.6,48L348.5,751.1z"/>
				</g>
				<g>
					<path class="st2" d="M256.2,852.3h-3.9V658.2H247v194.1h-4l-0.6-0.9c-4.1-6.6-11.2-10.5-18.9-10.5h-56.7
						c-5.1,0-10,0.9-14.7,2.6l-2.7,1V751l14.5-13.6l8.5-127.3h155l9.4,127.3l13.7,12.9v94.6l-2.7-1c-4.9-1.9-10.1-2.9-15.4-2.9
						h-56.7c-7.7,0-14.7,3.9-18.9,10.5L256.2,852.3z M166.8,836.9h56.7c7.5,0,14.6,3.2,19.5,8.7V654.2h13.3v191.2
						c4.9-5.4,11.9-8.5,19.3-8.5h56.7c4.8,0,9.6,0.7,14.1,2.2V752l-13.6-12.8l-9.3-125.1H176.1l-8.4,125.1l-14.3,13.5v86.1
						C157.8,837.5,162.3,836.9,166.8,836.9z"/>
				</g>
			</g>
			<g>
				<g>
					<polygon class="st2" points="329.3,690.3 323.4,610.1 327.6,610.1 333.3,690.1 					"/>
				</g>
			</g>
			<g>
				<g>
					<path class="st1" d="M247.8,863.2v35.9c0,5.6-4.6,10.2-10.2,10.2h-106c-5.6,0-10.2-4.6-10.2-10.2v-14.8
						c0-19.6,12.6-36.4,30-42.7c4.8-1.8,10-2.7,15.4-2.7h56.7c8.6,0,16.3,4.6,20.6,11.4C246.4,854,247.8,858.5,247.8,863.2z"/>
				</g>
				<g>
					<path class="st2" d="M237.6,911.3h-106c-6.7,0-12.2-5.5-12.2-12.2v-14.8c0-19.9,12.6-37.8,31.3-44.6c5.1-1.9,10.6-2.8,16.1-2.8
						h56.7c9.1,0,17.4,4.6,22.3,12.3c2.6,4.2,4,9,4,14v35.9C249.8,905.9,244.3,911.3,237.6,911.3z M166.8,840.9
						c-5.1,0-10,0.9-14.7,2.6c-17.2,6.2-28.7,22.6-28.7,40.8v14.8c0,4.5,3.7,8.2,8.2,8.2h106c4.5,0,8.2-3.7,8.2-8.2v-35.9
						c0-4.2-1.2-8.3-3.4-11.8c-4.1-6.6-11.2-10.5-18.9-10.5H166.8z"/>
				</g>
			</g>
			<g>
				<g>
					<path class="st1" d="M377.7,884.3v14.8c0,5.6-4.6,10.2-10.2,10.2h-106c-5.6,0-10.2-4.6-10.2-10.2v-35.9c0-4.7,1.4-9.1,3.7-12.9
						c4.3-6.8,11.9-11.4,20.6-11.4h56.7c5.7,0,11.1,1.1,16.1,3C365.5,848.4,377.7,865,377.7,884.3z"/>
				</g>
				<g>
					<path class="st2" d="M367.6,911.3h-106c-6.7,0-12.2-5.5-12.2-12.2v-35.9c0-5,1.4-9.8,4-14c4.9-7.7,13.2-12.3,22.3-12.3h56.7
						c5.8,0,11.5,1.1,16.9,3.1c18.3,7,30.5,24.8,30.5,44.3v14.8C379.7,905.9,374.3,911.3,367.6,911.3z M275.7,840.9
						c-7.7,0-14.7,3.9-18.9,10.5c-2.2,3.5-3.4,7.6-3.4,11.8v35.9c0,4.5,3.7,8.2,8.2,8.2h106c4.5,0,8.2-3.7,8.2-8.2v-14.8
						c0-17.8-11.2-34.1-28-40.5c-4.9-1.9-10.1-2.9-15.4-2.9H275.7z"/>
				</g>
			</g>
			<g>
				<g>
					<path class="st9" d="M101.8,659.9c-2,30-25.7,52.8-53.1,51c-27.4-1.8-48-27.5-46-57.5c1.4-22.1,14.8-40.3,32.6-47.7L91,622.2
						C98.6,632.4,102.7,645.7,101.8,659.9z"/>
				</g>
				<g>
					<path class="st2" d="M51.7,713.5c-1,0-2.1,0-3.1-0.1c-14-0.9-26.7-7.7-35.8-19.1c-9.1-11.3-13.6-25.9-12.6-41
						c1.5-22.3,14.9-41.9,34.2-49.8l0.8-0.3l57.4,17l0.5,0.7c8.2,11.1,12.2,25,11.2,39.3l0,0C102.3,690.2,79,713.5,51.7,713.5z
						 M35.4,608.4c-17.1,7.4-29,25-30.3,45.2c-0.9,13.9,3.2,27.2,11.5,37.6c8.3,10.3,19.7,16.4,32.2,17.2
						c26,1.7,48.6-20.1,50.5-48.7l0,0c0.8-12.8-2.6-25.3-9.8-35.3L35.4,608.4z"/>
				</g>
			</g>
			<g>
				<g>
					<rect x="136.2" y="413.8" class="st2" width="4" height="73.4"/>
				</g>
			</g>
			<g>
				<g>
					<rect x="360.4" y="415.1" class="st2" width="4" height="53.6"/>
				</g>
			</g>
			<g>
				<g>
					<path class="st1" d="M355.1,255.2l-13.7,4l3.8,14l3.4,26.3l-8.9-3.4l-2.1,19.1c0,0-20-4.2-28.9-5.9c-8.9-1.7-20.8-4.2-20.8-4.2
						l-16.1,20.8l-20.4-21.2l-20.8,8.5l-14.9-0.8l-16.1-22.9l-51.8,14.4l10.2-27.6l-18.3,5.1l-2.1-17.8l-3.8-7.3l-2.2-4.2l-16.1-3
						l16.6-15.7l-2.5-24.2l40.8-37.4l25.5-18.7l22.5-12.7v-9.8l38.6,7.2l48,22.1l23.8,17.4c0,0,6.4,6.4,18.3,15.7
						c11.9,9.3,5.5,28.5,5.5,28.5l10.2,14.4l5.1,15.7L355.1,255.2z"/>
				</g>
				<g>
					<path class="st2" d="M271.9,328.9l-21-21.9l-20,8.2l-16.3-0.9l-15.9-22.6l-54.2,15.1l10.2-27.6l-16.7,4.7l-2.4-19.8l-5.3-10.3
						l-19-3.5l18.7-17.7l-2.6-24.2l41.7-38.2l25.7-18.8l21.5-12.2v-11l41.3,7.7l48.6,22.4l24,17.6c0.1,0.1,6.4,6.4,18.1,15.6
						c11.4,8.9,7.7,25.4,6.5,29.7l9.8,13.9l5.8,18l-26.4,7.7l3.4,12.4l3.8,29.6l-9.6-3.7l-2.1,18.7l-2.2-0.5c-0.2,0-20-4.3-28.8-5.9
						c-7.2-1.4-16.3-3.3-19.6-4L271.9,328.9z M251.9,302.2l19.7,20.5l15.5-20l1.2,0.3c0.1,0,12,2.6,20.8,4.2
						c7.1,1.4,21.3,4.3,26.8,5.5l2.2-19.5l8.2,3.1l-3-22.9l-4.3-15.8l26.2-7.6l-4.4-13.5l-10.6-15l0.3-1c0.1-0.2,5.8-17.9-4.9-26.2
						c-11.1-8.8-17.4-14.8-18.3-15.8l-23.5-17.2l-47.6-21.9l-36-6.7v8.5l-23.4,13.3l-25.3,18.6l-39.9,36.6l2.5,24.2l-14.4,13.7
						l13.2,2.4l6.6,12.7l1.9,15.9l19.8-5.5L151,300.8l49.4-13.8l16.4,23.3l13.4,0.8L251.9,302.2z"/>
				</g>
			</g>
			<g>
				<g>
					<path class="st1" d="M220.8,339.4l0.4,5.1c0,0-11.9-5.1-21.7-3.8c-9.8,1.3-11,1.3-11,1.3s8.1-5.9,18.3-6.8
						C217,334.3,220.8,339.4,220.8,339.4z"/>
				</g>
				<g>
					<path class="st2" d="M223.5,347.7l-3.1-1.3c-0.1,0-11.5-4.9-20.6-3.7c-9.4,1.2-11.1,1.3-11.3,1.3h-6.1l4.9-3.6
						c0.3-0.3,8.6-6.3,19.3-7.2c11.2-0.9,15.6,4.8,15.8,5l0.3,0.5L223.5,347.7z M202.9,338.5c6.2,0,12.5,1.8,16.1,3l-0.1-1.3
						c-1.1-1-4.6-3.7-11.9-3.1c-2.6,0.2-5,0.8-7.2,1.5C200.8,338.6,201.8,338.5,202.9,338.5z"/>
				</g>
			</g>
			<g>
				<g>
					<path class="st2" d="M209.9,358.6c-3.9,0-8.8-1-14.3-4.2l2-3.5c12.7,7.3,20.6,1.5,20.7,1.4l2.4,3.2
						C220.5,355.7,216.5,358.6,209.9,358.6z"/>
				</g>
			</g>
			<g>
				<g>
					<path class="st1" d="M266.2,339.4l-0.4,5.1c0,0,11.9-5.1,21.7-3.8c9.8,1.3,11,1.3,11,1.3s-8.1-5.9-18.3-6.8
						C270.1,334.3,266.2,339.4,266.2,339.4z"/>
				</g>
				<g>
					<path class="st2" d="M263.5,347.7l0.7-9l0.3-0.5c0.2-0.2,4.6-6,15.8-5c10.6,0.9,18.9,6.9,19.3,7.2l4.9,3.6h-6.1
						c-0.2,0-1.9-0.1-11.3-1.3c-9.1-1.2-20.5,3.6-20.6,3.7L263.5,347.7z M268.2,340.3l-0.1,1.3c4.2-1.5,12.1-3.7,19.2-2.9
						c-2.2-0.7-4.6-1.3-7.2-1.5C272.8,336.6,269.2,339.3,268.2,340.3z"/>
				</g>
			</g>
			<g>
				<g>
					<path class="st2" d="M277.1,358.6c-6.6,0-10.5-2.9-10.8-3.1l2.4-3.2l-1.2,1.6l1.2-1.6c0.3,0.2,8.1,5.8,20.7-1.4l2,3.5
						C285.9,357.5,281,358.6,277.1,358.6z"/>
				</g>
			</g>
			<g>
				<g>
					<g>
						<g>
							<path class="st3" d="M653.2,655c-4.2,1.4-8.6,2.8-13,4.2c-26.3,8.3-45.4,13.1-59.7,15.6l3-44c10.8-2.4,25.1-6.2,44-12.1
								c8.6-2.7,17-5.5,24.7-8.2c-0.6,5.8-0.9,11.8-0.9,17.8C651.2,637.3,651.9,646.3,653.2,655z"/>
						</g>
						<g>
							<path class="st2" d="M578.3,677.2l3.2-48l1.5-0.3c12.3-2.7,27-6.8,43.8-12.1c7.8-2.5,16.1-5.2,24.6-8.2l2.9-1l-0.3,3.1
								c-0.6,5.8-0.9,11.7-0.9,17.6c0,8.8,0.7,17.7,1.9,26.4l0.2,1.7l-1.6,0.5c-4.3,1.4-8.7,2.9-13,4.2c-24,7.6-44.2,12.9-60,15.6
								L578.3,677.2z M585.3,632.4l-2.7,39.9c15.2-2.9,34.4-7.9,57-15.1c3.8-1.2,7.6-2.4,11.4-3.7c-1.2-8.3-1.8-16.8-1.8-25.3
								c0-4.9,0.2-9.9,0.6-14.9c-7.5,2.6-14.9,5-21.8,7.2C611.7,625.7,597.4,629.7,585.3,632.4z"/>
						</g>
					</g>
				</g>
			</g>
			<g>
				<g>
					<path class="st1" d="M563.8,622.5c-0.2,0.7-0.4,1.5-0.4,2.3l-0.6,9.6l-2.9,42.8l-0.6,8.5c-0.1,0.9,0,1.7,0.1,2.5
						c-3.7,8.5-12.5,14.3-22.2,13.6l-44.8-3c-0.7,0-1.3-0.1-2-0.2c1.8-0.2,3.7-0.6,5.5-1c28.7-6.9,45.9-38.3,38.2-70.1
						c-2.2-9.1-6.1-17.2-11.3-24l19.3,1.3C552.7,605.5,561.2,612.9,563.8,622.5z"/>
				</g>
				<g>
					<path class="st2" d="M538.7,703.8c-0.5,0-1.1,0-1.6-0.1l-44.8-3c-0.7,0-1.4-0.1-2.1-0.2l-16.4-1.9l16.4-2
						c1.8-0.2,3.6-0.5,5.3-1c13.3-3.2,24.5-12,31.5-24.7c7-12.8,8.9-28.1,5.3-43c-2.1-8.6-5.8-16.4-11-23.3l-2.7-3.5l23.7,1.6
						c11.1,0.8,20.5,8.5,23.4,19.2l0.2,0.6l-0.2,0.6c-0.2,0.6-0.3,1.2-0.3,1.8l-4.1,60.9c0,0.7,0,1.4,0.1,2l0.1,0.6l-0.2,0.6
						C557.4,698,548.4,703.8,538.7,703.8z M503,697.4l34.3,2.3c8.5,0.6,16.4-4.2,20-11.9c-0.1-0.8-0.1-1.6-0.1-2.4l4.1-60.9
						c0-0.7,0.2-1.4,0.3-2.1c-2.6-8.8-10.5-15.1-19.6-15.7l-15.1-1c4.3,6.4,7.3,13.6,9.2,21.3c3.8,15.9,1.8,32.1-5.7,45.8
						C524.2,684.4,514.6,693,503,697.4z"/>
				</g>
			</g>
			<g>
				<g>
					<path class="st1" d="M583.8,625.4c0,0.2,0,0.5,0,0.7l-0.3,4.7l-3,44l-0.8,12.2c-0.4,5.6-5.3,9.9-10.9,9.5
						c-4.7-0.3-8.5-3.9-9.3-8.3c-0.2-0.8-0.2-1.7-0.1-2.5l0.6-8.5l2.9-42.8l0.6-9.6c0.1-0.8,0.2-1.5,0.4-2.3
						c1.3-4.4,5.6-7.5,10.4-7.2C579.6,615.6,583.8,620.1,583.8,625.4z"/>
				</g>
				<g>
					<path class="st2" d="M569.4,698.5c-0.3,0-0.5,0-0.8,0c-5.6-0.4-10.2-4.5-11.2-10c-0.2-1-0.2-2-0.2-3l4.1-60.9
						c0.1-0.9,0.2-1.8,0.5-2.7c1.6-5.4,6.9-9,12.5-8.6c6.4,0.4,11.4,5.8,11.4,12.2c0,0.3,0,0.6,0,0.8l-4.1,60.9
						c-0.2,3.2-1.7,6.2-4.1,8.4C575.2,697.5,572.4,698.5,569.4,698.5z M573.6,617.3c-3.6,0-6.8,2.4-7.8,5.8
						c-0.2,0.6-0.3,1.2-0.3,1.8l-4.1,60.9c0,0.7,0,1.4,0.1,2c0.7,3.7,3.8,6.5,7.5,6.7c2.2,0.1,4.3-0.6,5.9-2
						c1.7-1.4,2.6-3.4,2.8-5.6l4.1-60.9c0-0.2,0-0.4,0-0.6c0-4.3-3.4-7.9-7.6-8.2C573.9,617.3,573.8,617.3,573.6,617.3z"/>
				</g>
			</g>
			<g>
				<g>
					<path class="st9" d="M496,697.6c-1.8,0.4-3.7,0.8-5.5,1c0,0,0,0,0,0c-26.9,3.2-53.2-16.4-60.3-46.1
						c-4.2-17.5-0.9-34.8,7.7-48.1l52.1-22.3c12.8,2.7,24.5,10.3,32.9,21.4c5.2,6.8,9.2,15,11.3,24
						C541.9,659.3,524.7,690.7,496,697.6z"/>
				</g>
				<g>
					<path class="st2" d="M484.5,701.4c-26.2,0-50-19.8-56.8-48.4c-4.2-17.5-1.3-35.7,8-50l0.4-0.6l53.6-22.9l0.8,0.2
						c13.4,2.8,25.6,10.7,34.4,22.3c5.6,7.3,9.6,15.7,11.8,25c3.8,16,1.8,32.4-5.7,46.2c-7.6,13.9-19.8,23.4-34.4,26.9h0
						c-1.9,0.5-3.8,0.8-5.8,1.1l-0.2,0C488.6,701.3,486.5,701.4,484.5,701.4z M439.5,606.4c-8.2,13.1-10.7,29.6-6.9,45.5
						c6.8,28.3,31.5,47.4,57.6,44.2l0.2,0c1.7-0.2,3.4-0.5,5.1-0.9v0c13.2-3.2,24.3-11.9,31.1-24.5c6.9-12.7,8.8-27.8,5.2-42.6
						c-2-8.5-5.7-16.3-10.9-23.1c-7.9-10.4-18.8-17.6-30.7-20.3L439.5,606.4z"/>
				</g>
			</g>
			<g>
				<path class="st7" d="M769.9,665.5c-10.6,0-19.2-8.6-19.2-19.2v-82.8c0-10.6,8.6-19.2,19.2-19.2c5.1,0,9.9,2,13.6,5.6
					c0.2,0.2,0.4,0.4,0.6,0.6c3.3,3.6,5.1,8.2,5.1,13v82.8C789.1,656.9,780.5,665.5,769.9,665.5z M769.9,548.3
					c-8.4,0-15.2,6.8-15.2,15.2v82.8c0,8.4,6.8,15.2,15.2,15.2c8.4,0,15.2-6.8,15.2-15.2v-82.8c0-3.8-1.4-7.4-4-10.3
					c-0.1-0.2-0.3-0.3-0.5-0.5C777.7,549.9,773.9,548.3,769.9,548.3z"/>
			</g>
		</g>
	</g>
	<g>
		<g>
			<path class="st0" d="M1367,191c0,81.9-74.3,150.9-175.5,171.6c-7.5,1.5-15,2.8-22.8,3.8c-13.3,1.7-26.9,2.6-40.8,2.6
				c-42.8,0-82.9-8.4-117.6-23c-20.9,10.1-36.1,26.1-41.6,46.5c-2.7,10.1-2.9,20.4-0.8,30.6c-22.8-28.3-32.3-65.5-22.4-101.6
				c1.1-4.1,2.4-8.1,4-12C911.9,277.9,889,236.5,889,191c0-98.3,107-178,239-178S1367,92.7,1367,191z"/>
		</g>
	</g>
	<g>
		<g>
			<path class="st10" d="M1346,181c0,81.9-74.3,150.9-175.5,171.6c-7.5,1.5-15,2.8-22.8,3.8c-13.3,1.7-26.9,2.6-40.8,2.6
				c-42.8,0-82.9-8.4-117.6-23c-20.9,10.1-36.1,26.1-41.6,46.5c-2.7,10.1-2.9,20.4-0.8,30.6c-22.8-28.3-32.3-65.5-22.4-101.6
				c1.1-4.1,2.4-8.1,4-12C890.9,267.9,868,226.5,868,181C868,82.7,975,3,1107,3S1346,82.7,1346,181z"/>
		</g>
		<g>
			<path class="st11" d="M947,416c-0.9,0-1.8-0.4-2.3-1.1c-24.4-30.4-32.7-68.4-23-104.3c1-3.5,2.1-7,3.3-10.3
				c-38.7-33-60-75.3-60-119.3c0-48.5,25.3-94.1,71.2-128.3C981.9,18.7,1042.5,0,1107,0s125.1,18.7,170.8,52.7
				c45.9,34.2,71.2,79.8,71.2,128.3c0,40.6-17.5,79-50.7,110.9c-32,30.8-77.1,53.4-127.1,63.6c-7.5,1.5-15.2,2.8-23,3.8
				c-13.5,1.7-27.3,2.6-41.2,2.6c-41.2,0-81.8-7.9-117.5-22.7c-20.1,10.1-33.8,25.6-38.8,44c-2.5,9.4-2.8,19.2-0.7,29.2
				c0.3,1.4-0.4,2.7-1.7,3.3C947.9,415.9,947.4,416,947,416z M1107,6C976.9,6,871,84.5,871,181c0,42.8,21.1,84.1,59.5,116.1
				c1,0.8,1.3,2.2,0.9,3.4c-1.5,3.7-2.8,7.7-3.9,11.7c-8.3,30.5-2.7,62.6,15.2,89.7c-0.3-6.9,0.5-13.7,2.3-20.3
				c5.5-20.4,20.9-37.6,43.2-48.4c0.8-0.4,1.7-0.4,2.5-0.1c35.3,14.9,75.6,22.8,116.5,22.8c13.6,0,27.2-0.9,40.4-2.6
				c7.6-1,15.2-2.2,22.5-3.7C1271.9,328.8,1343,259.5,1343,181C1343,84.5,1237.2,6,1107,6z"/>
		</g>
	</g>
	<g>
		<g>
			<path class="st5" d="M982.9,91.8h-13.7v-4.3h32v4.3h-13.6v39.8h-4.7V91.8z"/>
		</g>
		<g>
			<path class="st5" d="M1006.8,85.9h4.7v17.3c1.6-1.2,3.5-2.1,5.6-2.9c2.1-0.8,4.1-1.2,6.2-1.2c3.2,0,5.7,1,7.4,3
				c1.7,2,2.5,4.6,2.5,7.7v21.8h-4.7v-21.3c0-2-0.6-3.7-1.8-5c-1.2-1.3-2.8-1.9-4.9-1.9c-1.9,0-3.6,0.3-5.1,0.8
				c-1.5,0.5-3.2,1.3-5.1,2.4v25.1h-4.7V85.9z"/>
		</g>
		<g>
			<path class="st5" d="M1042.4,129.9c-1.5-1.4-2.3-3.4-2.3-5.9v-2.3c0-2.6,0.8-4.7,2.5-6.2c1.7-1.5,4.2-2.3,7.5-2.3h10.9v-4
				c0-2.2-0.6-3.8-1.8-4.8c-1.2-1-3.4-1.6-6.5-1.6h-10v-2.8c3.8-0.6,7.7-1,11.7-1c3.9,0,6.7,0.8,8.5,2.4c1.8,1.6,2.7,4.1,2.7,7.5
				v22.6h-3.7l-0.9-3.7c-0.3,0.2-1.2,0.7-2.6,1.4c-1.5,0.7-3.1,1.3-5,1.8c-1.9,0.5-3.7,0.8-5.3,0.8
				C1045.9,132,1043.9,131.3,1042.4,129.9z M1054.3,127.9c1.6-0.4,3-0.8,4.2-1.3c1.3-0.4,2.1-0.7,2.5-0.9v-10.1l-9.8,0.4
				c-2.2,0.1-3.8,0.6-4.8,1.6c-1,1-1.5,2.4-1.5,4.1v1.4c0,1.8,0.5,3.2,1.6,4c1.1,0.8,2.3,1.3,3.9,1.3
				C1051.5,128.5,1052.8,128.3,1054.3,127.9z"/>
		</g>
		<g>
			<path class="st5" d="M1074.7,99.6h3.7l1,3.5c1.7-1.2,3.5-2.1,5.6-2.9c2-0.8,4.1-1.2,6.1-1.2c3.3,0,5.8,1,7.4,3.1
				c1.6,2,2.5,4.6,2.5,7.7v21.8h-4.7v-21.2c0-2.1-0.6-3.8-1.8-5.1c-1.2-1.3-2.8-1.9-4.9-1.9c-1.9,0-3.6,0.3-5.1,0.8
				c-1.5,0.5-3.2,1.3-5.1,2.4v25.1h-4.7V99.6z"/>
		</g>
		<g>
			<path class="st5" d="M1110,85.9h4.7v26.5h4.6l9.8-12.8h5l-11.3,14.9l12,17.1h-5l-10.7-15h-4.4v15h-4.7V85.9z"/>
		</g>
		<g>
			<path class="st5" d="M1169.2,131.7c-1.8,0-3.4-0.6-4.9-1.8c-1.5-1.1-2.6-3-3.5-5.7l-7.7-24.5h5l7.1,23.5c1,3,2.7,4.4,5,4.4
				l8.2-28h4.9l-11.7,40.3l-2.8,5.9h-3.7L1169.2,131.7z"/>
		</g>
		<g>
			<path class="st5" d="M1193.8,130.7c-2-0.9-3.5-2.6-4.5-5c-1-2.4-1.5-5.7-1.5-10.1c0-4.4,0.5-7.8,1.5-10.2c1-2.4,2.5-4,4.4-4.9
				c2-0.9,4.6-1.3,7.9-1.3c3.3,0,5.9,0.5,7.9,1.4s3.5,2.5,4.5,4.9c1,2.4,1.5,5.8,1.5,10.1c0,4.4-0.5,7.7-1.5,10.1
				c-1,2.4-2.5,4-4.5,5c-2,0.9-4.6,1.4-8,1.4C1198.5,132,1195.8,131.6,1193.8,130.7z M1206.9,127.3c1.3-0.6,2.2-1.8,2.9-3.6
				s1-4.5,1-8.1s-0.3-6.3-1-8.1c-0.7-1.8-1.6-3-2.9-3.5c-1.3-0.6-3-0.9-5.2-0.9c-2.2,0-4,0.3-5.3,0.9c-1.3,0.6-2.2,1.8-2.9,3.5
				c-0.7,1.8-1,4.5-1,8.1s0.3,6.3,1,8.1c0.7,1.8,1.6,3,2.9,3.6c1.3,0.6,3,0.9,5.3,0.9C1204,128.1,1205.7,127.8,1206.9,127.3z"/>
		</g>
		<g>
			<path class="st5" d="M1223.6,122.2V99.6h4.7V121c0,2.6,0.6,4.3,1.7,5.3c1.1,1,2.9,1.5,5.3,1.5c1.8,0,3.5-0.2,5-0.8
				c1.6-0.5,3.2-1.3,4.9-2.3V99.6h4.7v32h-3.7l-1-3.5c-4.1,2.6-8.1,3.9-12.1,3.9C1226.8,132,1223.6,128.8,1223.6,122.2z"/>
		</g>
		<g>
			<path class="st5" d="M1005.3,177.5h-4.9v-3.1l4.9-0.8V170c0-3.6,0.7-6.2,2.1-7.9c1.4-1.7,3.8-2.6,7.1-2.6c2,0,4.1,0.2,6.2,0.6
				v3.4h-5.3c-2,0-3.4,0.5-4.2,1.5c-0.7,1-1.1,2.6-1.1,4.8v3.9h10v3.9h-10v28.1h-4.7V177.5z"/>
		</g>
		<g>
			<path class="st5" d="M1030.4,204.7c-2-0.9-3.5-2.6-4.5-5c-1-2.4-1.5-5.8-1.5-10.1c0-4.4,0.5-7.8,1.5-10.2c1-2.4,2.5-4,4.4-4.9
				c2-0.9,4.6-1.3,7.9-1.3c3.3,0,5.9,0.5,7.9,1.3c2,0.9,3.5,2.5,4.5,4.9c1,2.4,1.5,5.8,1.5,10.1c0,4.4-0.5,7.7-1.5,10.1
				c-1,2.4-2.5,4-4.5,5c-2,0.9-4.6,1.4-8,1.4C1035,206,1032.4,205.6,1030.4,204.7z M1043.5,201.3c1.3-0.6,2.2-1.8,2.9-3.6
				c0.7-1.8,1-4.5,1-8.1s-0.3-6.3-1-8.1c-0.7-1.8-1.6-3-2.9-3.5c-1.3-0.6-3-0.9-5.2-0.9c-2.2,0-4,0.3-5.3,0.9
				c-1.3,0.6-2.2,1.8-2.9,3.5c-0.7,1.8-1,4.5-1,8.1s0.3,6.3,1,8.1c0.7,1.8,1.6,3,2.9,3.6c1.3,0.6,3,0.9,5.3,0.9
				C1040.5,202.1,1042.2,201.8,1043.5,201.3z"/>
		</g>
		<g>
			<path class="st5" d="M1060.2,173.6h3.6l1.1,5.6c1.6-1.9,3.2-3.3,5-4.4c1.8-1,3.8-1.6,5.9-1.6c1.1,0,2.1,0.1,3,0.3v4.9
				c-1.8-0.2-3-0.3-3.5-0.3c-2.1,0-4,0.4-5.5,1.1c-1.5,0.8-3.2,2-5,3.7v22.7h-4.7V173.6z"/>
		</g>
		<g>
			<path class="st5" d="M1113.8,205.7c-1.8,0-3.4-0.6-4.9-1.8c-1.5-1.1-2.6-3-3.5-5.7l-7.7-24.5h5l7.1,23.5c1,3,2.7,4.4,5,4.4
				l8.2-28h4.9l-11.7,40.3l-2.8,5.9h-3.7L1113.8,205.7z"/>
		</g>
		<g>
			<path class="st5" d="M1138.4,204.7c-2-0.9-3.5-2.6-4.5-5s-1.5-5.8-1.5-10.1c0-4.4,0.5-7.8,1.5-10.2c1-2.4,2.5-4,4.4-4.9
				c2-0.9,4.6-1.3,7.9-1.3c3.3,0,5.9,0.5,7.9,1.3c2,0.9,3.5,2.5,4.5,4.9c1,2.4,1.5,5.8,1.5,10.1c0,4.4-0.5,7.7-1.5,10.1
				c-1,2.4-2.5,4-4.5,5c-2,0.9-4.6,1.4-7.9,1.4C1143,206,1140.4,205.6,1138.4,204.7z M1151.5,201.3c1.3-0.6,2.2-1.8,2.9-3.6
				c0.7-1.8,1-4.5,1-8.1s-0.3-6.3-1-8.1c-0.7-1.8-1.6-3-2.9-3.5c-1.3-0.6-3-0.9-5.2-0.9c-2.2,0-4,0.3-5.3,0.9
				c-1.3,0.6-2.2,1.8-2.9,3.5c-0.7,1.8-1,4.5-1,8.1s0.3,6.3,1,8.1c0.7,1.8,1.6,3,2.9,3.6c1.3,0.6,3,0.9,5.3,0.9
				C1148.5,202.1,1150.2,201.8,1151.5,201.3z"/>
		</g>
		<g>
			<path class="st5" d="M1168.1,196.2v-22.6h4.7V195c0,2.6,0.6,4.3,1.7,5.3c1.1,1,2.9,1.5,5.3,1.5c1.8,0,3.5-0.3,5-0.8
				c1.6-0.5,3.2-1.3,4.9-2.3v-25.1h4.7v32h-3.7l-1-3.5c-4.1,2.6-8.1,3.9-12.1,3.9C1171.3,206,1168.1,202.8,1168.1,196.2z"/>
		</g>
		<g>
			<path class="st5" d="M1203.5,173.6h3.6l1.1,5.6c1.6-1.9,3.2-3.3,5-4.4c1.8-1,3.8-1.6,5.9-1.6c1.1,0,2.1,0.1,3,0.3v4.9
				c-1.8-0.2-3-0.3-3.5-0.3c-2.1,0-4,0.4-5.5,1.1c-1.5,0.8-3.2,2-5,3.7v22.7h-4.7V173.6z"/>
		</g>
		<g>
			<path class="st5" d="M991.1,277.9c-1.5-1.4-2.3-3.4-2.3-5.9v-2.3c0-2.6,0.8-4.7,2.5-6.2s4.2-2.3,7.5-2.3h10.9v-4
				c0-2.2-0.6-3.8-1.8-4.8s-3.4-1.6-6.5-1.6h-10v-2.8c3.8-0.6,7.7-1,11.7-1c3.9,0,6.7,0.8,8.5,2.4c1.8,1.6,2.7,4.1,2.7,7.5v22.6
				h-3.7l-0.9-3.7c-0.3,0.2-1.1,0.7-2.6,1.4c-1.5,0.7-3.1,1.3-5,1.8c-1.9,0.5-3.7,0.8-5.3,0.8C994.6,280,992.6,279.3,991.1,277.9z
				 M1003,275.9c1.6-0.4,3-0.8,4.2-1.3c1.3-0.4,2.1-0.7,2.5-0.9v-10.1l-9.8,0.4c-2.2,0.1-3.8,0.6-4.8,1.6c-1,1-1.5,2.4-1.5,4.1v1.4
				c0,1.8,0.5,3.2,1.6,4c1.1,0.8,2.3,1.3,3.9,1.3C1000.1,276.5,1001.5,276.3,1003,275.9z"/>
		</g>
		<g>
			<path class="st5" d="M1027.1,277.2c-1.5-1.6-2.2-4.3-2.1-8l0.2-17.8h-5.1v-3.1l5.2-0.8l0.8-8.9h3.7v8.9h9.2v3.9h-9.2v17.8
				c0,2.4,0.5,4.1,1.4,5c0.9,0.9,2.1,1.4,3.5,1.5l3.9,0.4v3.5h-4.4C1030.9,279.7,1028.6,278.9,1027.1,277.2z"/>
		</g>
		<g>
			<path class="st5" d="M1049.1,277.2c-1.5-1.6-2.2-4.3-2.1-8l0.2-17.8h-5.1v-3.1l5.2-0.8l0.8-8.9h3.7v8.9h9.2v3.9h-9.2v17.8
				c0,2.4,0.5,4.1,1.4,5c0.9,0.9,2.1,1.4,3.5,1.5l3.9,0.4v3.5h-4.4C1052.9,279.7,1050.6,278.9,1049.1,277.2z"/>
		</g>
		<g>
			<path class="st5" d="M1071.7,278.5c-1.9-1-3.3-2.7-4.1-5c-0.8-2.4-1.3-5.7-1.3-9.9c0-4.3,0.4-7.6,1.3-10c0.9-2.4,2.3-4,4.2-5
				c1.9-1,4.6-1.4,8-1.4c2.9,0,5.3,0.3,7,1c1.8,0.6,3.1,1.7,3.9,3.3c0.8,1.5,1.3,3.7,1.3,6.4c0,2.7-0.8,4.7-2.4,5.9
				c-1.6,1.2-3.8,1.8-6.8,1.8h-11.8c0,2.8,0.3,4.9,0.8,6.4c0.5,1.5,1.5,2.6,2.9,3.3c1.4,0.7,3.4,1,6.1,1h10.3v2.9
				c-2.2,0.3-4.1,0.5-5.8,0.6c-1.7,0.1-3.6,0.2-5.7,0.2C1076.3,280,1073.6,279.5,1071.7,278.5z M1082.4,262.5c1.8,0,3.2-0.3,4-1
				c0.8-0.7,1.3-1.9,1.3-3.5c0-2.7-0.6-4.5-1.8-5.5c-1.2-1-3.2-1.5-6.1-1.5c-2.3,0-4.1,0.3-5.3,1c-1.2,0.7-2.1,1.8-2.6,3.5
				c-0.5,1.6-0.8,4-0.8,7.1H1082.4z"/>
		</g>
		<g>
			<path class="st5" d="M1099.9,247.6h3.7l1,3.5c1.7-1.2,3.5-2.1,5.6-2.9s4.1-1.2,6.1-1.2c3.3,0,5.8,1,7.4,3.1
				c1.6,2,2.5,4.6,2.5,7.7v21.8h-4.7v-21.2c0-2.1-0.6-3.8-1.8-5.1s-2.8-2-4.9-2c-1.9,0-3.6,0.3-5.1,0.8s-3.2,1.3-5.1,2.4v25.1h-4.7
				V247.6z"/>
		</g>
		<g>
			<path class="st5" d="M1138.9,277.2c-1.5-1.6-2.2-4.3-2.1-8l0.2-17.8h-5.1v-3.1l5.2-0.8l0.8-8.9h3.7v8.9h9.2v3.9h-9.2v17.8
				c0,2.4,0.5,4.1,1.4,5c0.9,0.9,2.1,1.4,3.5,1.5l3.9,0.4v3.5h-4.4C1142.7,279.7,1140.3,278.9,1138.9,277.2z"/>
		</g>
		<g>
			<path class="st5" d="M1157.3,241.7c-0.2-0.2-0.3-0.4-0.3-0.7v-4.7c0-0.6,0.3-1,1-1h3.4c0.6,0,0.9,0.3,0.9,1v4.7
				c0,0.6-0.3,1-0.9,1h-3.4C1157.7,241.9,1157.4,241.8,1157.3,241.7z M1157.2,247.6h4.7v32h-4.7V247.6z"/>
		</g>
		<g>
			<path class="st5" d="M1175.9,278.7c-2-0.9-3.5-2.6-4.5-5c-1-2.4-1.5-5.8-1.5-10.1c0-4.4,0.5-7.8,1.5-10.2c1-2.4,2.5-4,4.4-4.9
				c2-0.9,4.6-1.3,7.9-1.3c3.3,0,5.9,0.5,7.9,1.3c2,0.9,3.5,2.5,4.5,4.9c1,2.4,1.5,5.8,1.5,10.1c0,4.4-0.5,7.7-1.5,10.1
				s-2.5,4-4.5,5s-4.6,1.4-8,1.4C1180.5,280,1177.9,279.6,1175.9,278.7z M1189,275.3c1.3-0.6,2.2-1.8,2.9-3.6c0.7-1.8,1-4.5,1-8.1
				s-0.3-6.3-1-8.1c-0.7-1.8-1.6-3-2.9-3.5c-1.3-0.6-3-0.9-5.2-0.9c-2.2,0-4,0.3-5.3,0.9c-1.3,0.6-2.2,1.8-2.9,3.5
				c-0.7,1.8-1,4.5-1,8.1s0.3,6.3,1,8.1c0.7,1.8,1.6,3,2.9,3.6c1.3,0.6,3,0.9,5.3,0.9C1186,276.1,1187.7,275.8,1189,275.3z"/>
		</g>
		<g>
			<path class="st5" d="M1205.7,247.6h3.7l1,3.5c1.7-1.2,3.5-2.1,5.6-2.9s4.1-1.2,6.1-1.2c3.3,0,5.8,1,7.4,3.1
				c1.6,2,2.5,4.6,2.5,7.7v21.8h-4.7v-21.2c0-2.1-0.6-3.8-1.8-5.1c-1.2-1.3-2.8-2-4.9-2c-1.9,0-3.6,0.3-5.1,0.8s-3.2,1.3-5.1,2.4
				v25.1h-4.7V247.6z"/>
		</g>
	</g>
</g>
</svg>
