<?xml version="1.0" encoding="utf-8"?>
<!-- Generator: Adobe Illustrator 22.0.1, SVG Export Plug-In . SVG Version: 6.00 Build 0)  -->
<svg version="1.1" id="Ebene_1" xmlns="http://www.w3.org/2000/svg" xmlns:xlink="http://www.w3.org/1999/xlink" x="0px" y="0px"
	 viewBox="0 0 789 910.1" style="enable-background:new 0 0 789 910.1;" xml:space="preserve">
<style type="text/css">
	.st0{fill:#030405;}
	.st1{fill:#859DC1;}
	.st2{fill:#4E789B;}
	.st3{fill:#97B9D3;}
	.st4{fill:#182C49;}
	.st5{fill:#7188AA;}
	.st6{fill:#253654;}
	.st7{fill:#253654;stroke:#4E789B;stroke-width:4;stroke-miterlimit:10;}
	.st8{fill:#151D28;}
	.st9{fill:#6C99B7;}
	.st10{opacity:0.5;}
	.st11{opacity:0.4;}
	.st12{opacity:0.6;}
	.st13{fill:#A2C8DD;}
	.st14{opacity:0.8;}
	.st15{fill:#B4C4DB;}
	.st16{opacity:0.7;}
</style>
<g>
	<g>
		<ellipse class="st0" cx="485.6" cy="827.6" rx="283.2" ry="82.5"/>
	</g>
	<g>
		<g>
			<path class="st1" d="M328.5,348.1L328.5,348.1l-62.4,30v0l-21,10.1c-0.3-12.6-0.6-24.5-1-35.3c0.6,8.3,1,17,1.2,26.3
				c14.4-84.3,25-117.3,30.2-122.8c-4.4-4.8-12.3-14.1-22.9-20.5h3.2c21.4,0,39.8,13.7,46.9,32.7l0.2,0L328.5,348.1z"/>
			<path class="st2" d="M242.6,392.1l-0.1-3.9c-0.3-13.8-0.6-25.3-1-35.3l5-0.3c0.1,1.1,0.2,2.3,0.2,3.4
				c9.7-53.2,18.9-89.2,25.5-99.5c-4.5-5-11.8-12.9-21-18.5l-7.7-4.6h12.2c21,0,40.2,12.8,48.3,32.2l0.3-0.1l26.5,82.2v2
				L242.6,392.1z M247.4,379.5c0,1.5,0.1,3.1,0.1,4.7l78-37.5l-24.2-75.1l-0.1,0l-0.8-2.2c-6.3-17-21.7-28.8-39.4-30.8
				c6.7,5.3,12,11.1,15.5,15l2.5,2.7l-1.6,1.7c-1.1,1.2-11.4,14.6-29.6,121.5L247.4,379.5z"/>
		</g>
		<g>
			<path class="st1" d="M183,425.1l-0.4,1l-5,10.8L167,459.4l-13.5,29.1l-1.4,3l-5.3-2.5l-84-39.1v0l-28.6-13.3l-2.6-0.3
				c-18.2-2.6-29-19.7-29-39.1c0-9.7,3.5-18.6,9.3-25.4l50.3-114.7l0.5-1.1c6.8-12.8,20.7-20.1,36.1-20.1h0.8
				c-9.4,10.3-14,16.8-14,16.8s26.9,31.1,39.1,56.2c1.5,3.1,2.9,6.4,4.3,10c0.3,0.7,0.6,1.5,0.9,2.2c0.4,1,0.7,2,1.1,3
				c0.3,0.8,0.6,1.6,0.9,2.4c0.6,1.6,1.1,3.2,1.6,4.8c0.3,0.8,0.5,1.6,0.8,2.4c0,0.1,0.1,0.2,0.1,0.3c0.3,0.9,0.6,1.9,0.9,2.8
				c0.1,0.5,0.3,0.9,0.4,1.4c0.2,0.8,0.5,1.6,0.7,2.4c0.3,0.9,0.5,1.9,0.8,2.8c0.3,0.9,0.5,1.8,0.8,2.7c0.3,0.9,0.5,1.8,0.7,2.7
				c0.5,1.9,1,3.8,1.5,5.7c0.2,0.7,0.3,1.3,0.5,2c1.1,4.5,2.1,8.6,2.9,11.9c0,0.2,0.1,0.4,0.1,0.6c0.1,0.4,0.2,0.8,0.3,1.1
				c0,0.2,0.1,0.4,0.1,0.5c0.1,0.4,0.2,0.8,0.3,1.1c0.1,0.4,0.2,0.7,0.2,1c0.1,0.6,0.3,1.2,0.4,1.7c0.1,0.6,0.2,1.1,0.3,1.5
				c0.1,0.2,0.1,0.5,0.1,0.7c0.1,0.3,0.1,0.5,0.1,0.7c0,0.1,0.1,0.2,0.1,0.3c0,0,0,0,0,0c0,0,0-0.1,0-0.1c0-0.1,0-0.2,0-0.3
				c0-0.1,0-0.1,0-0.2c0-0.1,0-0.3,0-0.5c0-0.3-0.1-0.6-0.1-1c0-0.3-0.1-0.7-0.1-1.1c0,0,0-0.1,0-0.1c-0.1-0.5-0.1-1.2-0.2-1.8
				c0-0.2,0-0.5-0.1-0.7c0-0.3-0.1-0.7-0.1-1c0-0.3,0-0.5-0.1-0.8c0-0.4-0.1-0.7-0.1-1.1c0-0.3-0.1-0.6-0.1-0.9
				c0-0.4-0.1-0.8-0.1-1.2c0-0.1,0-0.2,0-0.3c0-0.4-0.1-0.8-0.1-1.3c0-0.4-0.1-0.8-0.1-1.2c-0.1-0.6-0.1-1.3-0.2-1.9
				c0-0.2,0-0.4-0.1-0.7c0-0.4-0.1-0.9-0.1-1.4c0-0.5-0.1-0.9-0.1-1.4c0-0.1,0-0.3,0-0.4c-0.1-1.1-0.2-2.3-0.3-3.5
				c0-0.3-0.1-0.7-0.1-1c0-0.5-0.1-1-0.1-1.4c0-0.4-0.1-0.8-0.1-1.2c0-0.5-0.1-1.1-0.1-1.6c-0.1-1.6-0.2-3.2-0.4-4.8
				c-0.1-0.7-0.1-1.4-0.2-2.1c-0.1-0.9-0.1-1.8-0.2-2.8c-0.1-1.1-0.2-2.2-0.2-3.3c-0.1-1.3-0.2-2.6-0.3-4c-0.1-1-0.1-2-0.2-3
				c0-0.5-0.1-1-0.1-1.4c0-0.3,0-0.5-0.1-0.8c0-0.7-0.1-1.5-0.1-2.2c2.4,28.5,4.5,55.1,5.4,66.2c0.3,3.5,0.4,9.5,0.5,17.3l27.1,12.6
				L183,425.1z"/>
			<path class="st2" d="M153.3,494.8l-7.6-3.6L33.4,439l-2.2-0.3C12.8,436.1,0,419,0,397.2c0-9.8,3.4-19.3,9.7-26.7l50.7-115.6
				c7.1-13.4,21.4-21.4,38.3-21.4h6.5l-3.8,4.2c-6.6,7.2-10.8,12.5-12.6,15c5.6,6.6,27.3,33,38.1,55.2c1.5,3,2.9,6.4,4.4,10.1
				l0.4,0.9c0.2,0.5,0.4,0.9,0.5,1.4c0.4,1,0.8,2,1.1,3c0.3,0.8,0.6,1.6,0.9,2.4c0.5,1.5,1.1,3.1,1.6,4.7l0.1,0.2
				c0.3,0.8,0.5,1.7,0.8,2.5c0,0.1,0.1,0.2,0.1,0.3c0.3,0.9,0.6,1.9,0.9,2.8l0,0.2c0.1,0.4,0.3,0.9,0.4,1.3c0.2,0.7,0.4,1.4,0.6,2.1
				l0.1,0.3c0.2,0.7,0.4,1.5,0.6,2.2l0.2,0.6c0.3,0.9,0.5,1.8,0.8,2.8c0,0,0,0,0,0.1l-0.7-9.5c-0.1-1.1-0.2-2.3-0.2-3.4
				c-0.1-0.9-0.1-1.8-0.2-2.7l0-0.4c0-0.5-0.1-1-0.1-1.4l-0.2-3.1l5-0.4c2.6,31.1,4.6,55.9,5.4,66.2c0.3,3.3,0.4,8.6,0.5,15.9
				l36.5,17l-6.5,14.1L153.3,494.8z M65.3,448.3l85.6,39.8l28.8-61.8l-34.8-16.2l0-1.6c-0.1-8-0.3-13.8-0.5-17.2
				c-0.2-3-0.6-7.2-1-12.4l-0.2-0.2l0-0.9c0-0.2-0.1-0.4-0.1-0.6l0-0.1c0-0.2-0.1-0.4-0.1-0.6c-0.1-0.5-0.2-1-0.3-1.5l-0.1-0.2
				c-0.1-0.4-0.2-0.9-0.3-1.4c0-0.2-0.1-0.3-0.1-0.5c0-0.2-0.1-0.4-0.1-0.6l-0.3-1.3c0-0.1-0.1-0.3-0.1-0.4l-0.3-1.1
				c0-0.1-0.1-0.3-0.1-0.4c-0.9-3.9-1.9-7.9-2.9-11.9c-0.1-0.5-0.2-0.9-0.4-1.4l-0.2-0.6c-0.5-1.8-1-3.7-1.5-5.6
				c-0.2-0.9-0.5-1.8-0.7-2.7c-0.2-0.9-0.5-1.8-0.8-2.7l-0.2-0.6c-0.2-0.7-0.4-1.4-0.6-2.2l-0.1-0.3c-0.2-0.7-0.4-1.4-0.6-2.1
				c-0.1-0.4-0.3-0.8-0.4-1.2l-0.1-0.2c-0.3-1-0.6-1.9-0.9-2.8l-0.1-0.3c-0.3-0.8-0.5-1.6-0.8-2.4l-0.1-0.2c-0.5-1.5-1-3.1-1.6-4.6
				c-0.3-0.8-0.6-1.6-0.8-2.4c-0.4-1-0.7-2-1.1-2.9c-0.2-0.5-0.3-0.9-0.5-1.3l-0.3-0.9c-1.4-3.6-2.8-6.9-4.2-9.8
				c-11.9-24.5-38.5-55.4-38.7-55.7l-1.3-1.5l1.1-1.6c0.2-0.2,3.4-4.9,10.2-12.6c-12.8,1.4-23.4,8-28.8,18.4l-0.5,1.1L14,373.1
				l-0.2,0.3C8.1,380,5,388.4,5,397.2c0,19.6,10.8,34.3,26.9,36.6l3,0.4L65.3,448.3z"/>
		</g>
		<g>
			<ellipse class="st0" cx="204.1" cy="792.9" rx="190.6" ry="39.4"/>
		</g>
		<g>
			<path class="st3" d="M276.4,122.3c0,40.6-26.7,75.3-64.1,88.6c-10.6,3.8-22,5.8-33.9,5.8s-23.3-2-33.9-5.8
				c-7.8-2.7-15-6.4-21.7-10.9c-12.1-8-22.2-18.6-29.6-30.9v0c-0.1,0-0.3,0.1-0.4,0.1c-10.3,2.6-21.9-8.4-26-24.5
				c-4-16.1,1-31.3,11.3-33.9c0.5-0.1,1-0.2,1.5-0.3c0.3,0,0.5-0.1,0.8-0.1c0.2,0,0.4,0,0.6,0h0.1c2.6,0,5.3,0.8,7.8,2.2l15.2-11.4
				l17.4,5c0,0,18.8-37.6,35.3-41.2c16.5-3.7,30.2-7.8,30.2-7.8l16.9,21.1l6.4-19.7l12.4,6.9l5-8.7c0,0,10.7,1,20.9-0.2
				C265.9,73.5,276.4,96.7,276.4,122.3z"/>
			<path class="st2" d="M178.4,219.2c-12,0-23.6-2-34.7-5.9c-7.9-2.8-15.4-6.5-22.3-11.1c-11.9-7.9-22-18.3-29.4-30.2
				c-0.8,0.1-1.5,0.2-2.3,0.2c-10.7,0-21.3-10.9-25.3-26.8c-2.1-8.3-2-16.6,0.3-23.4c2.4-7.2,7-12,12.8-13.5
				c0.6-0.2,1.2-0.3,1.8-0.3c0.2,0,0.6-0.1,0.9-0.1c0.3,0,0.5,0,0.8,0h0.1c2.5,0,5.1,0.6,7.6,1.8l15-11.2l16.6,4.8
				c4.1-7.8,20.6-37.3,36-40.7c16.2-3.6,29.9-7.7,30.1-7.7l1.6-0.5l15.1,18.8L209,55l12.9,7.2l4.6-8l1.6,0.1
				c0.1,0,10.6,0.9,20.3-0.2l1.2-0.1l0.9,0.8c18.3,18.2,28.4,42.1,28.4,67.5c0,40.4-26.4,77-65.8,90.9
				C202,217.2,190.4,219.2,178.4,219.2z M95.7,168.4c7.1,11.7,16.9,21.9,28.4,29.6c6.6,4.4,13.7,7.9,21.2,10.6
				c10.6,3.8,21.7,5.7,33.1,5.7s22.5-1.9,33.1-5.7c37.4-13.3,62.5-47.9,62.5-86.2c0-23.6-9.3-46-26.1-63.1
				c-7.7,0.8-15.3,0.4-18.5,0.2l-5.5,9.5l-11.9-6.6L205,83.5l-18.8-23.4c-4.1,1.2-15.7,4.4-28.8,7.4c-12.6,2.8-28.5,29.8-33.6,39.9
				l-0.9,1.9l-18.2-5.3l-15.5,11.6l-1.4-0.8c-2.2-1.3-4.4-1.9-6.5-1.9c0,0,0,0-0.1,0H81c-0.1,0-0.3,0-0.4,0l-0.1,0
				c-0.2,0-0.3,0-0.5,0c-0.5,0.1-0.9,0.1-1.2,0.2c-4.1,1-7.4,4.7-9.3,10.2c-2,6-2.1,13.3-0.2,20.6c3.7,14.5,14.2,24.9,23,22.7
				c0.1,0,0.1,0,0.2-0.1l3.3-1.1V168.4z"/>
		</g>
		<g>
			<path class="st3" d="M212.3,210.9v30.9c-4.8,4.6-18.6,7.9-34.8,7.9c-14.5,0-27.1-2.6-33-6.5v-32.3c10.6,3.8,22,5.8,33.9,5.8
				S201.7,214.6,212.3,210.9z"/>
			<path class="st2" d="M177.5,252.2c-14.6,0-27.8-2.6-34.3-6.9l-1.1-0.7v-37.2l3.3,1.2c10.6,3.8,21.7,5.7,33.1,5.7
				s22.5-1.9,33.1-5.7l3.3-1.2v35.5l-0.8,0.7C208.6,248.8,194.2,252.2,177.5,252.2z M147,241.8c6.1,3.3,17.8,5.4,30.5,5.4
				c16.4,0,27.9-3.3,32.3-6.5v-26.3c-10.1,3.2-20.6,4.8-31.4,4.8s-21.3-1.6-31.4-4.8V241.8z"/>
		</g>
		<g>
			<path class="st2" d="M177.5,251.7c-14.5,0-27.6-2.6-34.1-6.8l-0.9-0.6v-6.4H141v-4h5.5v8.2c6.1,3.4,18.1,5.6,31,5.6
				c16.8,0,28.5-3.4,32.8-6.8v-7h4.3v4h-0.3v4.7l-0.6,0.6C208.3,248.3,194.1,251.7,177.5,251.7z"/>
		</g>
		<g>
			
				<rect x="262.8" y="311.9" transform="matrix(0.9993 -3.751852e-02 3.751852e-02 0.9993 -12.7578 10.1795)" class="st2" width="4" height="66.2"/>
		</g>
		<g>
			<path class="st2" d="M326.6,348.7l-25-77.6l-0.1,0l-0.6-1.8c-7-18.8-25-31.4-45-31.4h-3.2v-4h3.2c21,0,40.1,12.9,48,32.3l0.3-0.1
				l26.2,81.4L326.6,348.7z"/>
		</g>
		<g>
			<polygon class="st2" points="146.5,410.4 84.4,381.4 106.9,330.2 110.6,331.8 89.6,379.5 148.2,406.7 			"/>
		</g>
		<g>
			<polygon class="st2" points="151.2,493.3 144.7,490.3 144.7,489 146.7,489 147.6,487.2 152.9,489.7 			"/>
		</g>
		<g>
			<path class="st2" d="M326.6,348.7l-25-77.6l-0.1,0l-0.6-1.8c-7-18.8-25-31.4-45-31.4h-3.2v-4h3.2c21,0,40.1,12.9,48,32.3l0.3-0.1
				l26.2,81.4L326.6,348.7z"/>
		</g>
		<g>
			
				<rect x="262.8" y="311.9" transform="matrix(0.9993 -3.751852e-02 3.751852e-02 0.9993 -12.7578 10.1795)" class="st2" width="4" height="66.2"/>
		</g>
		<g>
			<path class="st2" d="M177.5,251.7c-14.5,0-27.6-2.6-34.1-6.8l-0.9-0.6v-8.4h4v6.2c6.1,3.4,18.1,5.6,31,5.6
				c16.8,0,28.5-3.4,32.8-6.8v-7h4.3v4h-0.3v4.7l-0.6,0.6C208.3,248.3,194.1,251.7,177.5,251.7z"/>
		</g>
		<g>
			
				<rect x="262.8" y="311.9" transform="matrix(0.9993 -3.751852e-02 3.751852e-02 0.9993 -12.7578 10.1795)" class="st2" width="4" height="66.2"/>
		</g>
		<g>
			<polygon class="st2" points="146.5,410.4 84.4,381.4 106.9,330.2 110.6,331.8 89.6,379.5 148.2,406.7 			"/>
		</g>
		<g>
			<path class="st4" d="M246.3,515.3c-6.3-2.6-11.9-6.6-16.4-11.7c-5.7,2.8-12.1,4.4-18.8,4.4c-0.2,0-0.5,0-0.7,0
				c-4.1-0.2-10.5-1.9-17.8-4.2c-13.7-4.5-30.2-11.4-39.2-15.3l-1.4,3l-5.3-2.5v0c-0.2,13.4-0.5,27-0.7,40.1h100.3
				C246.3,524.6,246.3,520,246.3,515.3z M227.4,411.4L221,415l-1.7,0.8c4.4,0.9,8.5,2.4,12.3,4.5L227.4,411.4z M236.9,392.1
				L236.9,392.1l-0.8,0.4l1.3,0.6L236.9,392.1z M244.1,352.8L244.1,352.8c-5.1-74.2-23.5-107.7-29.5-116.9h-2.3v5.9
				c-4.8,4.6-18.6,7.9-34.8,7.9c-14.5,0-27.1-2.6-33-6.5v-7.3H141c-3.4,15.2-1.8,55.1,0.4,88.8c0,0.1,0,0.2,0,0.3
				c2.4,28.5,4.5,55.1,5.4,66.2c0.3,3.5,0.4,9.5,0.5,17.3l27.1,12.6l62.1-29.9l0.4,0.8l8.2-3.9v0
				C244.8,375.6,244.5,363.7,244.1,352.8z M227.4,411.4L221,415l-1.7,0.8c4.4,0.9,8.5,2.4,12.3,4.5L227.4,411.4z"/>
			<path class="st2" d="M248.3,531.1H144l0-2c0.3-13.1,0.5-26.7,0.7-40.1l0.1-3.1l6.3,2.9l1.4-3l1.8,0.8c8.6,3.7,25.2,10.7,39,15.2
				c7.9,2.6,13.7,4,17.3,4.1c0.2,0,0.4,0,0.6,0c6.3,0,12.3-1.4,17.9-4.2l1.4-0.7l1,1.2c4.3,4.9,9.7,8.7,15.6,11.2l1.2,0.5
				L248.3,531.1z M148,527.1h96.3l0-10.5c-5.6-2.5-10.7-6.1-14.9-10.6c-5.8,2.6-11.9,4-18.3,4c-0.3,0-0.5,0-0.8,0
				c-3.9-0.2-10.1-1.6-18.3-4.3c-13.1-4.3-28.5-10.7-37.6-14.6l-1.4,3.1l-4.4-2C148.5,503.8,148.3,515.6,148,527.1z M236.2,425.1
				l-5.5-3c-3.7-2-7.6-3.5-11.8-4.3l-5.9-1.2l7-3.4l8.2-4.6L236.2,425.1z M224.8,415.2c0.9,0.3,1.8,0.6,2.6,0.9l-0.9-1.9
				L224.8,415.2z M174.4,423.4l-29.1-13.5l0-1.3c-0.1-8-0.3-13.8-0.5-17.2c-0.8-10.4-2.8-35.1-5.4-66.2c0-0.1,0-0.3,0-0.4
				c-2.1-32.1-3.9-73.6-0.4-89.3l0.4-1.6h7.1v8.2c6.1,3.4,18.1,5.6,31,5.6c16.8,0,28.5-3.4,32.8-6.8v-7h5.3l0.6,0.9
				c5.7,8.7,24.7,42.8,29.9,117.8l0,0.1h0c0.3,10,0.7,21.6,1,35.4l0,1.3l-7.5,3.6l2.1,4.2l-5.6-2.6l-0.1,0.1l-0.1-0.2l-0.9-0.4
				L174.4,423.4z M149.3,407.3l25.1,11.7l63.1-30.3l0.4,0.8l1.1-0.5v0l4.1-2c-0.3-13.2-0.6-24.3-0.9-34l0-0.1
				c-4.8-68.6-21-102.3-27.8-113.6v3.4l-0.6,0.6c-5.4,5.1-19.6,8.4-36.2,8.4c-14.5,0-27.6-2.6-34.1-6.8l-0.9-0.6v-5.9
				c-2.3,13.2-2,42.9,0.9,86.2l0,0.3c2.6,31.1,4.6,55.9,5.4,66.2C149,394.3,149.2,399.8,149.3,407.3z"/>
		</g>
		<g>
			<path class="st5" d="M146.7,489L146.7,489c-0.2,13.4-0.5,27-0.7,40.1c-0.1,4-0.2,8-0.2,11.9c-0.9,41.5-1.7,75.1-1.7,75.1
				l-61.8,16.3l-23.4,6.2c0,0-4.2-130.1,3.9-188.6L146.7,489z"/>
			<path class="st2" d="M56.4,641.8l-0.1-3.1c0-1.3-4.1-131,3.9-189.1l0.5-3.4l88.5,41.2v1.6c-0.2,13.4-0.5,27-0.7,40.1l-0.2,11.9
				c-0.8,41-1.7,74.8-1.7,75.1l0,1.9L56.4,641.8z M64.8,453.6c-6.7,53.9-4.1,161.9-3.5,181.7l80.3-21.2c0.2-7.7,0.9-37.7,1.7-73.2
				l0.2-11.9c0.2-12.6,0.5-25.6,0.7-38.4L64.8,453.6z"/>
		</g>
		<g>
			<path class="st5" d="M145.6,377.8C145.6,377.8,145.6,377.8,145.6,377.8c0-0.1,0-0.2-0.1-0.3c0-0.2-0.1-0.4-0.1-0.7
				c0-0.2-0.1-0.4-0.1-0.7c-0.1-0.4-0.2-1-0.3-1.5c-0.1-0.5-0.2-1.1-0.4-1.7c-0.1-0.3-0.1-0.7-0.2-1c-0.1-0.4-0.2-0.7-0.3-1.1
				c0-0.2-0.1-0.3-0.1-0.5c-0.1-0.4-0.2-0.7-0.3-1.1c0-0.2-0.1-0.4-0.1-0.6c-0.8-3.4-1.7-7.4-2.9-11.9c-0.2-0.7-0.3-1.3-0.5-2
				c-0.5-1.8-1-3.7-1.5-5.7c-0.2-0.9-0.5-1.8-0.7-2.7c-0.2-0.9-0.5-1.8-0.8-2.7c-0.3-0.9-0.5-1.8-0.8-2.8c-0.2-0.8-0.5-1.6-0.7-2.4
				c-0.1-0.5-0.3-0.9-0.4-1.4c-0.3-0.9-0.6-1.9-0.9-2.8c0-0.1-0.1-0.2-0.1-0.3c-0.3-0.8-0.5-1.6-0.8-2.4c-0.5-1.6-1.1-3.2-1.6-4.8
				c-0.3-0.8-0.6-1.6-0.9-2.4c-0.4-1-0.7-2-1.1-3c-0.3-0.8-0.6-1.5-0.9-2.2c-1.4-3.5-2.8-6.9-4.3-10c-12.2-25-39.1-56.2-39.1-56.2
				s4.5-6.5,14-16.8c1-1.1,2-2.2,3.1-3.4c11.6-12.2,40.3-1.8,40.3-1.8c-0.8,1-1.5,2.8-2,5.2c-3.4,15.2-1.8,55.1,0.4,88.8
				c0,0.1,0,0.2,0,0.3c0,0.8,0.1,1.5,0.1,2.2c0,0.3,0,0.5,0.1,0.8c0,0.5,0.1,1,0.1,1.4c0.1,1,0.1,2,0.2,3c0.1,1.3,0.2,2.7,0.3,4
				c0.1,1.1,0.2,2.2,0.2,3.3c0.1,0.9,0.1,1.9,0.2,2.8c0.1,0.7,0.1,1.4,0.2,2.1c0.1,1.6,0.3,3.3,0.4,4.8c0,0.5,0.1,1.1,0.1,1.6
				c0,0.4,0.1,0.8,0.1,1.2c0,0.5,0.1,1,0.1,1.4c0,0.3,0.1,0.7,0.1,1c0.1,1.2,0.2,2.4,0.3,3.5c0,0.1,0,0.3,0,0.4c0,0.5,0.1,1,0.1,1.4
				c0,0.5,0.1,0.9,0.1,1.4c0,0.2,0,0.4,0.1,0.7c0.1,0.7,0.1,1.3,0.2,1.9c0,0.4,0.1,0.8,0.1,1.2c0,0.4,0.1,0.9,0.1,1.3
				c0,0.1,0,0.2,0,0.3c0,0.4,0.1,0.8,0.1,1.2c0,0.3,0.1,0.6,0.1,0.9c0,0.4,0.1,0.8,0.1,1.1c0,0.3,0,0.6,0.1,0.8c0,0.4,0.1,0.7,0.1,1
				c0,0.2,0,0.5,0.1,0.7c0.1,0.7,0.1,1.3,0.2,1.8c0,0.1,0,0.1,0,0.1c0,0.4,0.1,0.8,0.1,1.1c0,0.4,0.1,0.7,0.1,1c0,0.2,0,0.3,0,0.5
				c0,0.1,0,0.1,0,0.2c0,0.1,0,0.2,0,0.3C145.6,377.7,145.6,377.8,145.6,377.8z"/>
			<path class="st2" d="M148.1,383.6l-5-4.8l0-0.9c0-0.2-0.1-0.4-0.1-0.6l0-0.1c0-0.2-0.1-0.4-0.1-0.6c-0.1-0.5-0.2-1-0.3-1.5
				l-0.1-0.2c-0.1-0.4-0.2-0.9-0.3-1.4c0-0.2-0.1-0.3-0.1-0.5c0-0.2-0.1-0.4-0.1-0.6l-0.3-1.3c0-0.1-0.1-0.3-0.1-0.4l-0.3-1.1
				c0-0.1-0.1-0.3-0.1-0.4c-0.9-3.9-1.9-7.9-2.9-11.9c-0.1-0.5-0.2-0.9-0.4-1.4l-0.2-0.6c-0.5-1.8-1-3.7-1.5-5.6
				c-0.2-0.9-0.5-1.8-0.7-2.7c-0.2-0.9-0.5-1.8-0.8-2.7c-0.3-0.9-0.5-1.8-0.8-2.7c-0.2-0.8-0.5-1.6-0.7-2.4
				c-0.1-0.4-0.3-0.8-0.4-1.2l-0.1-0.2c-0.3-1-0.6-1.9-0.9-2.8l-0.1-0.3c-0.3-0.8-0.5-1.6-0.8-2.4c-0.5-1.6-1.1-3.2-1.6-4.8
				c-0.3-0.8-0.6-1.6-0.8-2.4c-0.4-1-0.7-2-1.1-2.9c-0.3-0.8-0.6-1.5-0.8-2.2c-1.4-3.6-2.9-6.9-4.3-9.8
				c-11.9-24.5-38.5-55.4-38.7-55.7l-1.3-1.5l1.1-1.6c0.2-0.3,4.7-6.8,14.2-17.1c1-1.1,2.1-2.2,3.2-3.4c12.6-13.2,41.7-2.9,43-2.5
				l3.2,1.2l-2.1,2.7c-0.3,0.4-0.9,1.5-1.6,4.2c-2.7,12-2.6,42.5,0.5,88l0.2,3.4c0,0.5,0.1,1,0.1,1.5l0,0.4c0.1,0.9,0.1,1.8,0.2,2.7
				c0.1,1.1,0.2,2.3,0.2,3.4l1,13.4c0,0.5,0.1,1.1,0.1,1.6c0,0.4,0.1,0.8,0.1,1.2l0.3,3.6c0.1,0.8,0.1,1.6,0.2,2.3
				c0,0.1,0,0.3,0,0.5c0,0.4,0.1,0.8,0.1,1.2l0.4,4.3c0,0.4,0.1,0.7,0.1,1.1l0.3,3.7c0,0.4,0.1,0.7,0.1,1.1l0.1,0.8
				c0,0.4,0.1,0.7,0.1,1l0.2,2.7c0,0,0,0,0,0c0,0.2,0,0.4,0.1,0.6l0.2,1.8c0,0.1,0,0.2,0,0.3l0,0.2c0,0.2,0,0.3,0,0.4V383.6z
				 M145.5,377.8h0.2H145.5z M136.7,333.3c0.3,0.9,0.6,1.9,0.9,2.8l0,0.2c0.1,0.4,0.3,0.9,0.4,1.3c0.2,0.8,0.5,1.6,0.7,2.4
				c0.3,0.9,0.5,1.8,0.8,2.8c0.3,0.9,0.5,1.8,0.8,2.7c0,0,0,0,0,0.1l-0.7-9.5c-0.1-1.1-0.2-2.3-0.2-3.4c-0.1-0.9-0.1-1.8-0.2-2.7
				l0-0.4c0-0.5-0.1-1-0.1-1.4l-0.2-3.1c0-0.1,0-0.2,0-0.3c-2.1-32.1-3.9-73.7-0.3-89.4c0.3-1.2,0.6-2.2,0.9-3.2
				c-7.1-2.1-26.5-6.8-34.9,2.1c-1.1,1.2-2.1,2.3-3.1,3.3c-6.6,7.2-10.7,12.5-12.6,15c5.6,6.6,27.3,33,38.1,55.2
				c1.5,3,2.9,6.4,4.4,10.1c0.3,0.8,0.6,1.5,0.9,2.3c0.4,1,0.7,2,1.1,3c0.3,0.8,0.6,1.6,0.9,2.4c0.6,1.6,1.1,3.2,1.7,4.9
				c0.3,0.8,0.5,1.6,0.8,2.5C136.6,333.1,136.7,333.2,136.7,333.3z"/>
		</g>
		<g>
			<path class="st2" d="M254.6,431c-1.1,0-2.2-0.2-3.3-0.6c-2.5-0.9-4.6-2.7-5.7-5.1c-2.4-5-0.3-11,4.7-13.4c5-2.4,11-0.3,13.4,4.7
				c1.2,2.4,1.3,5.1,0.4,7.7c-0.9,2.5-2.7,4.6-5.1,5.7l0,0C257.5,430.6,256.1,431,254.6,431z M254.6,414.9c-0.9,0-1.8,0.2-2.6,0.6
				c-3,1.4-4.2,5-2.8,8c0.7,1.5,1.9,2.5,3.4,3.1c1.5,0.5,3.1,0.4,4.6-0.3l0,0c1.4-0.7,2.5-1.9,3.1-3.4c0.5-1.5,0.4-3.1-0.3-4.6
				C259,416.2,256.8,414.9,254.6,414.9z"/>
		</g>
		<g>
			<path class="st2" d="M249.4,486.1l-1.9-1.9l0.7-1.3c2.4-4.5,4-9.5,4.7-14.6l0.9-6.5l9.7,20.2L249.4,486.1z M255.6,474.8
				c-0.6,2-1.2,4.1-2,6l4.3-1.3L255.6,474.8z"/>
		</g>
		<g>
			<polygon class="st2" points="279.3,488.8 277.1,471.2 284.4,486.3 			"/>
		</g>
		<g>
			<path class="st5" d="M289,510v118.3l-11.6-4.3l-31.1-11.6c0,0,0.2-31.7,0.2-75.1c0-2.7,0-5.5,0-8.2c0-4.5,0-9.1,0-13.8
				c5.1,2.1,10.7,3.2,16.6,3.2C272.7,518.5,281.7,515.4,289,510z"/>
			<path class="st2" d="M291.5,631.9l-47.8-17.7l0-1.8c0-0.3,0.2-32.2,0.2-75.1l0-25.7l3.5,1.4c5,2,10.2,3.1,15.7,3.1
				c8.9,0,17.4-2.8,24.6-8.1l4-2.9V631.9z M248.7,610.7l37.7,14V514.6c-7.1,4.2-15.2,6.4-23.5,6.4c-4.8,0-9.6-0.7-14.1-2.2l0,18.5
				C248.9,574.5,248.7,603.5,248.7,610.7z"/>
		</g>
		<g>
			<path class="st5" d="M275.5,256.4c-5.2,5.5-15.9,38.5-30.2,122.8c-0.2-9.3-0.6-18-1.2-26.3v-0.1c-5.1-74.1-23.5-107.6-29.5-116.9
				c-1.2-1.9-2-2.7-2-2.7c15.4-7.4,29.1-3.9,40,2.7C263.2,242.3,271.2,251.6,275.5,256.4z"/>
			<path class="st2" d="M247.7,379.6l-5-0.4c-0.2-9.1-0.6-17.9-1.2-26.2l0-0.2c-5.1-73.9-23.6-107.1-29.1-115.6
				c-1.1-1.7-1.8-2.5-1.8-2.5l-2-2.5l2.9-1.4c13.9-6.7,28.1-5.8,42.4,2.9c10.2,6.2,17.9,14.8,22.6,19.9l2.5,2.7l-1.6,1.7
				C276.2,259.3,266,272.7,247.7,379.6z M246.6,352.8c0.1,1.1,0.1,2.2,0.2,3.3c9.7-53.2,18.9-89.2,25.5-99.5
				c-4.5-5-11.8-12.9-21-18.5c-11.7-7.1-23.5-8.4-34.9-3.8c0.1,0.1,0.1,0.2,0.2,0.3c5.7,8.7,24.7,42.9,29.9,118.1L246.6,352.8z"/>
		</g>
		<g>
			<path class="st6" d="M277.3,624v124.7c-0.8,0.3-1.6,0.7-2.5,1c-11.8,4.6-29.1,7.4-48.4,7.4c-15.6,0-30-1.9-41.2-5
				c-0.5-0.1-1-0.3-1.4-0.4v0.7c-0.2,0.1-0.4,0.2-0.6,0.3c-11.8,5-29.9,8.2-50.2,8.2c-20.2,0-38.2-3.2-50-8.1
				c-0.3-0.1-0.6-0.2-0.8-0.3v-120l61.8-16.3c0,0,0.9-33.7,1.7-75.1c0.1-3.9,0.2-7.9,0.2-11.9h100.3c0,2.8,0,5.5,0,8.2
				c0,43.4-0.2,75.1-0.2,75.1L277.3,624z"/>
			<path class="st2" d="M133.1,762.9c-19.7,0-38.2-3-50.8-8.2c-0.3-0.1-0.6-0.2-0.9-0.4l-1.2-0.5V630.9l61.9-16.3
				c0.2-7,0.9-37.5,1.7-73.6l0.3-13.9h104.3l0,10.2c0,37.8-0.1,67.1-0.1,73.7l31.1,11.6v127.4l-1.2,0.5c-0.8,0.4-1.7,0.7-2.6,1.1
				c-12.5,4.8-30.4,7.6-49.1,7.6c-15.1,0-29.8-1.8-41.5-5.1l-0.3,0.1c-0.2,0.1-0.5,0.2-0.7,0.3C171.5,759.8,152.9,762.9,133.1,762.9
				z M84.2,751.1c12.1,4.9,29.9,7.8,48.8,7.8c19,0,36.8-2.8,48.8-7.8V749l2.6,0.8c0.5,0.1,0.9,0.3,1.4,0.4c11.4,3.2,25.8,5,40.6,5
				c18.3,0,35.6-2.7,47.6-7.3c0.4-0.2,0.8-0.3,1.2-0.5v-122l-31.2-11.6l0-1.4c0-0.3,0.2-32.2,0.2-75.1l0-6.2H148l-0.2,10
				c-0.8,41-1.7,74.8-1.7,75.1l0,1.5l-61.8,16.3V751.1z"/>
		</g>
		<g>
			<rect x="181.9" y="595" class="st2" width="4" height="156.7"/>
		</g>
		<g>
			<path class="st4" d="M209.6,792.3c0,5.8-2.4,11.1-6.2,14.9c-1.6,1.6-3.4,2.9-5.5,3.9c-2.8,1.4-6,2.3-9.4,2.3h-81.5
				c-14.8,0-26.9-12.1-26.9-26.9v-26.3c0-2.9,1.1-5.5,3-7.5c11.8,4.9,29.8,8.1,50,8.1c20.3,0,38.4-3.2,50.2-8.2
				c0.4,0.2,0.7,0.3,1.1,0.5C199.2,760,209.6,775,209.6,792.3z"/>
			<path class="st2" d="M188.5,815.4h-81.5c-15.9,0-28.9-13-28.9-28.9v-26.3c0-3.3,1.2-6.4,3.5-8.8l0.9-1l1.3,0.5
				c12.1,5,30,7.9,49.3,7.9c19.3,0,37.4-2.9,49.5-8l0.8-0.3l0.8,0.3c0.3,0.1,0.6,0.3,0.9,0.4l0.2,0.1c16,7.4,26.4,23.5,26.4,41
				c0,6.1-2.4,11.9-6.8,16.3c-1.8,1.8-3.8,3.2-6,4.3C195.6,814.5,192.1,815.4,188.5,815.4z M83.7,755.2c-1,1.5-1.6,3.2-1.6,5.1v26.3
				c0,13.7,11.2,24.9,24.9,24.9h81.5c3,0,5.9-0.7,8.5-2c1.8-0.9,3.5-2.1,4.9-3.6c3.6-3.6,5.6-8.4,5.6-13.5c0-16-9.4-30.6-24-37.3
				l-0.2-0.1c0,0,0,0-0.1,0c-12.5,5.1-30.8,8-50.2,8C114,762.9,96.2,760.1,83.7,755.2z"/>
		</g>
		<g>
			<path class="st4" d="M311.2,792.3c0,5.8-2.4,11.1-6.2,14.9c-3.8,3.8-9.1,6.2-14.9,6.2h-81.5c-3.8,0-7.4-0.8-10.7-2.3
				c2-1,3.9-2.4,5.5-3.9c3.8-3.8,6.2-9.1,6.2-14.9c0-17.3-10.4-32.3-25.2-39.1c0.3-0.4,0.6-0.7,1-1c11.2,3.1,25.5,5,41.2,5
				c19.3,0,36.5-2.9,48.4-7.4C295.4,753,311.2,770.9,311.2,792.3z"/>
			<path class="st2" d="M290.2,815.4h-81.5c-4,0-7.9-0.8-11.5-2.4l-3.9-1.7l3.8-1.9c1.8-0.9,3.5-2.1,4.9-3.6
				c3.6-3.6,5.6-8.4,5.6-13.5c0-16-9.4-30.6-24-37.3l-2.4-1.1l1.6-2c0.3-0.4,0.7-0.8,1.2-1.2l0.8-0.7l1.1,0.3
				c11.4,3.2,25.8,5,40.6,5c18.3,0,35.6-2.7,47.6-7.3l0.5-0.2l0.5,0.1c21.7,3.4,38.1,22.6,38.1,44.5c0,6.1-2.4,11.9-6.8,16.3
				C302.1,813,296.3,815.4,290.2,815.4z M202.5,810.6c2,0.5,4.1,0.8,6.1,0.8h81.5c5.1,0,9.9-2,13.5-5.6c3.6-3.6,5.6-8.4,5.6-13.5
				c0-19.8-14.7-37.1-34.2-40.5c-12.4,4.7-30.1,7.4-48.6,7.4c-11.7,0-23.2-1.1-33.3-3.1c11.4,8.4,18.3,21.8,18.3,36.2
				c0,6.1-2.4,11.9-6.8,16.3C204,809.3,203.3,810,202.5,810.6z"/>
		</g>
		<g>
			<path class="st7" d="M280.6,483l-1.5-12.2l-4.6-37.7l-3-24l-14.3-6.7l-11.9-5.6l-7.8-3.7l-1.3-0.6l0.8-0.4l-0.4-0.8l-62.1,29.9
				l8.6,4l-0.4,1c7.7-6.9,17.7-11.1,28.6-11.1c2.8,0,5.5,0.3,8.2,0.8l1.7-0.8l6.4-3.6l4.3,8.9c1.9,1.1,3.8,2.3,5.5,3.6
				c3.8,2.9,7.2,6.5,9.9,10.5c2.5,3.7,4.6,7.8,6,12.2c1.5,4.7,2.3,9.7,2.3,14.9c0,2.4-0.2,4.8-0.5,7.1l5.9,12.2l-10.7,3.1l-0.1-0.1
				c-1.1,2.1-2.3,4.1-3.7,6c-1.9,2.6-4,4.9-6.3,7l6,5.8l0.3-0.2l34.6-16.7L280.6,483z M251.1,413.7c4-1.9,8.8-0.2,10.7,3.8
				c1.9,4,0.2,8.8-3.8,10.7c-4,1.9-8.8,0.2-10.7-3.7C245.4,420.4,247.1,415.7,251.1,413.7z"/>
		</g>
		<g>
			<path class="st2" d="M236.2,425.1l-5.5-3c-3.7-2-7.6-3.5-11.8-4.3l-5.9-1.2l7-3.4l8.2-4.6L236.2,425.1z M224.8,415.2
				c0.9,0.3,1.8,0.6,2.6,0.9l-0.9-1.9L224.8,415.2z"/>
		</g>
		<g>
			<path class="st2" d="M254.6,431c-1.1,0-2.2-0.2-3.3-0.6c-2.5-0.9-4.6-2.7-5.7-5.1c-2.4-5-0.3-11,4.7-13.4c5-2.4,11-0.3,13.4,4.7
				c1.2,2.4,1.3,5.1,0.4,7.7c-0.9,2.5-2.7,4.6-5.1,5.7l0,0C257.5,430.6,256.1,431,254.6,431z M254.6,414.9c-0.9,0-1.8,0.2-2.6,0.6
				c-3,1.4-4.2,5-2.8,8c0.7,1.5,1.9,2.5,3.4,3.1c1.5,0.5,3.1,0.4,4.6-0.3l0,0c1.4-0.7,2.5-1.9,3.1-3.4c0.5-1.5,0.4-3.1-0.3-4.6
				C259,416.2,256.8,414.9,254.6,414.9z"/>
		</g>
		<g>
			<path class="st2" d="M249.4,486.1l-1.9-1.9l0.7-1.3c2.4-4.5,4-9.5,4.7-14.6l0.9-6.5l9.7,20.2L249.4,486.1z M255.6,474.8
				c-0.6,2-1.2,4.1-2,6l4.3-1.3L255.6,474.8z"/>
		</g>
		<g>
			<polygon class="st2" points="241.6,397.3 231.4,392.6 238.9,388.9 238.9,391.7 			"/>
		</g>
		<g>
			<polygon class="st2" points="279.3,488.8 277.1,471.2 284.4,486.3 			"/>
		</g>
		<g>
			<polygon class="st5" points="511.6,303.8 502.3,307.6 492.8,318.6 482.4,323.4 475.5,332.3 464.8,337.2 457,346.8 446.4,351.8 
				437.5,362.2 426.8,367.2 419.8,376.2 410.6,380 403.2,389.3 393.3,393.7 385.2,403.5 375.5,407.7 367.2,417.7 354.6,424.3 
				345.5,434.9 333.4,441 325.3,450.7 315.1,455.4 307.3,465 305.6,465.7 298.4,468.6 290.1,478.6 289,479.5 281.7,485.2 280.6,483 
				279.1,470.7 274.4,433 271.5,409 257.1,402.3 245.2,396.8 237.4,393.1 236.9,392.1 236.9,392.1 245.1,388.2 245.1,388.2 
				266.1,378.1 266.1,378.1 328.5,348.1 328.5,348.1 494.5,268.2 			"/>
			<path class="st2" d="M280.8,489.1l-2.6-5.4l-1.6-12.6l-7.4-60.3L235.5,395l-1.1-2.3v-2.2l9.6-4.6l83.4-40.1l168.3-80.9L515,305
				l-11.1,4.7l-9.5,10.9l-10.4,4.8l-6.9,8.9l-10.7,5l-7.8,9.6l-10.7,5l-8.9,10.5l-10.7,5l-7,9l-9.2,3.9l-7.3,9.2l-9.9,4.4l-8.1,9.8
				l-9.7,4.2l-8.3,9.9l-12.6,6.6l-9.1,10.6L335,443l-8.1,9.8l-10.3,4.7l-7.8,9.6l-8.9,3.6l-8.1,9.7L280.8,489.1z M241.9,392.5
				l31.9,14.9l9.1,73.7l5.5-4.3l8.6-10.3l8.9-3.6l7.7-9.5l10.3-4.7l8-9.7l12.1-6.1l9.1-10.6l12.6-6.5l8.4-10.1l9.7-4.2l8.1-9.8
				l9.9-4.4l7.4-9.2l9.2-3.9l7-8.9l10.8-5.1l8.9-10.5l10.6-5l7.8-9.6l10.6-5l6.9-8.9l10.5-4.8l9.6-11l7.3-3.1l-14.8-30.9L331,349.6
				l-1.4,0.7L241.9,392.5z"/>
		</g>
		<g>
			<polygon class="st2" points="241.6,397.3 231.4,392.5 237.8,389.5 			"/>
		</g>
		<g>
			<polygon class="st2" points="279.4,489.6 277.1,471.2 284.2,485.8 			"/>
		</g>
		<g>
			<path class="st2" d="M236.2,425.1l-5.5-3c-3.7-2-7.6-3.5-11.8-4.3l-5.9-1.2l7-3.4l8.2-4.6L236.2,425.1z M224.8,415.2
				c0.9,0.3,1.8,0.6,2.6,0.9l-0.9-1.9L224.8,415.2z"/>
		</g>
		<g>
			<path class="st2" d="M249.4,486.1l-1.9-1.9l0.7-1.3c2.4-4.5,4-9.5,4.7-14.6l0.9-6.5l9.7,20.2L249.4,486.1z M255.6,474.8
				c-0.6,2-1.2,4.1-2,6l4.3-1.3L255.6,474.8z"/>
		</g>
		<g>
			<path class="st4" d="M258,428.2c-4,1.9-8.8,0.2-10.7-3.7c-1.9-4-0.2-8.8,3.7-10.7c4-1.9,8.8-0.2,10.7,3.8
				C263.7,421.5,262,426.3,258,428.2z"/>
			<path class="st2" d="M254.6,431c-1.1,0-2.2-0.2-3.3-0.6c-2.5-0.9-4.6-2.7-5.7-5.1c-2.4-5-0.3-11,4.7-13.4c5-2.4,11-0.3,13.4,4.7
				c1.2,2.4,1.3,5.1,0.4,7.7c-0.9,2.5-2.7,4.6-5.1,5.7l0,0C257.5,430.6,256.1,431,254.6,431z M254.6,414.9c-0.9,0-1.8,0.2-2.6,0.6
				c-3,1.4-4.2,5-2.8,8c0.7,1.5,1.9,2.5,3.4,3.1c1.5,0.5,3.1,0.4,4.6-0.3l0,0c1.4-0.7,2.5-1.9,3.1-3.4c0.5-1.5,0.4-3.1-0.3-4.6
				C259,416.2,256.8,414.9,254.6,414.9z"/>
		</g>
		<g>
			<path class="st2" d="M210.4,510c-4.4-0.1-8.8-0.8-13-2.2c-2-0.6-3.9-1.4-5.6-2.3l1.5-3.7c7.9,2.6,13.7,4,17.3,4.1L210.4,510z"/>
		</g>
		<g>
			<path class="st3" d="M255.4,461.5c0,2.4-0.2,4.8-0.5,7.1c-0.8,5.5-2.5,10.6-4.9,15.2c-1.1,2.1-2.3,4.1-3.7,6
				c-1.9,2.6-4,4.9-6.3,7c-3,2.7-6.4,5-10,6.8c-5.7,2.8-12.1,4.4-18.8,4.4c-0.2,0-0.5,0-0.7,0c-4.1-0.2-10.5-1.9-17.8-4.2
				c-13.7-4.5-30.2-11.4-39.2-15.3l13.5-29.1l10.5-22.5l5-10.8c7.7-6.9,17.7-11.1,28.6-11.1c2.8,0,5.5,0.3,8.2,0.8
				c4.4,0.9,8.5,2.4,12.3,4.5c1.9,1.1,3.8,2.3,5.5,3.6c3.8,2.9,7.2,6.5,9.9,10.5c2.5,3.7,4.6,7.8,6,12.2
				C254.6,451.3,255.4,456.3,255.4,461.5z"/>
			<path class="st2" d="M211.2,510.5c-0.3,0-0.5,0-0.8,0c-4-0.2-10-1.6-18.5-4.4c-14-4.6-30.7-11.6-39.4-15.4l-2.4-1l30.3-65.2
				l0.4-0.3c8.4-7.6,19.2-11.7,30.3-11.7c2.9,0,5.8,0.3,8.6,0.8c4.6,0.9,9,2.5,13.1,4.8c2,1.1,4,2.4,5.8,3.8
				c4,3.1,7.6,6.8,10.5,11.1c2.7,3.9,4.8,8.3,6.3,12.9c1.6,5,2.4,10.3,2.4,15.6c0,2.5-0.2,5-0.5,7.4c-0.8,5.6-2.6,11-5.2,16
				c-1.1,2.2-2.5,4.3-3.9,6.3c-2,2.7-4.2,5.2-6.6,7.4c-3.2,2.9-6.8,5.3-10.5,7.2C224.8,508.9,218.1,510.5,211.2,510.5z M156.8,487.2
				c9,3.9,24,10,36.6,14.2c7.9,2.6,13.6,4,17.1,4.1c0.2,0,0.4,0,0.6,0c6.2,0,12.1-1.4,17.7-4.1c3.4-1.7,6.5-3.8,9.4-6.4
				c2.2-2,4.2-4.2,6-6.6c1.3-1.8,2.5-3.7,3.5-5.7c2.3-4.5,3.9-9.4,4.6-14.5c0.3-2.2,0.5-4.5,0.5-6.7c0-4.8-0.7-9.6-2.2-14.1
				c-1.3-4.1-3.2-8-5.6-11.6c-2.6-3.8-5.8-7.2-9.4-10c-1.7-1.3-3.4-2.4-5.2-3.4c-3.6-2-7.5-3.4-11.6-4.2c-2.5-0.5-5.1-0.7-7.7-0.7
				c-9.7,0-19.1,3.6-26.6,10.1L156.8,487.2z"/>
		</g>
		<g>
			<path class="st3" d="M306.7,475c0,14.3-7,27-17.7,35c-7.3,5.4-16.3,8.5-26,8.5c-5.9,0-11.5-1.2-16.6-3.2
				c-6.3-2.6-11.9-6.6-16.4-11.7c3.6-1.8,7-4.1,10-6.8l6,5.8l0.3-0.2l34.6-16.7l0.8-0.4l-0.1-0.2l7.3-5.8l1.1-0.9l8.3-10.9l7.2-2
				C306.3,468.7,306.7,471.8,306.7,475z"/>
			<path class="st2" d="M262.9,521c-6.1,0-12-1.2-17.5-3.4c-6.6-2.7-12.6-7-17.3-12.4l-2.1-2.4l2.9-1.4c3.4-1.7,6.5-3.8,9.4-6.4
				l1.7-1.6l6.5,6.2l33.2-15.9l8.7-6.9l8.6-11.3l10.6-2.9l0.6,2.6c0.7,3.2,1.1,6.6,1.1,9.9c0,14.5-7,28.3-18.7,37
				C282.4,517.9,272.9,521,262.9,521z M234,504.3c3.8,3.7,8.3,6.7,13.3,8.7c5,2,10.2,3.1,15.7,3.1c8.9,0,17.4-2.8,24.6-8.1
				c10.5-7.7,16.7-20,16.7-33c0-2.1-0.2-4.2-0.5-6.2l-3.8,1.1l-8,10.5l-7.1,5.6l0.3,0.6l-3,1.5l-36.5,17.6l-5.7-5.4
				C238,501.7,236,503.1,234,504.3z"/>
		</g>
		<g>
			<path class="st2" d="M93.8,171l-1.1-3.8c2.4-0.7,4.5-2.2,6.2-4.4l3.2,2.4C99.8,168,97,170.1,93.8,171z"/>
		</g>
		<g>
			<path class="st2" d="M90.6,116.1c-0.8-0.7-1.7-1.3-2.6-1.8l2-3.5c1.1,0.6,2.2,1.3,3.2,2.2L90.6,116.1z"/>
		</g>
		<g>
			<path class="st2" d="M203.1,163.7c-5.1,0-9.9-1.5-13.5-4.1l2.4-3.2c2.9,2.2,6.9,3.4,11.1,3.4c8.5,0,15.4-4.9,15.4-10.8
				c0-3.1-1.9-6.1-5.3-8.2l2.1-3.4c4.6,2.8,7.2,7,7.2,11.6C222.5,157,213.8,163.7,203.1,163.7z"/>
		</g>
		<g>
			<path class="st2" d="M194.8,186.5c-12.6,0-21.8-5.7-22.4-6l2.1-3.4c0.2,0.1,15.9,9.7,33.6,2.9l1.4,3.7
				C204.4,185.7,199.4,186.5,194.8,186.5z"/>
		</g>
		<g>
			<ellipse class="st8" cx="171.1" cy="125.7" rx="7.9" ry="11"/>
			<path class="st2" d="M171.1,138.7c-5.5,0-9.9-5.8-9.9-13c0-7.2,4.5-13,9.9-13c5.5,0,9.9,5.8,9.9,13
				C181,132.8,176.6,138.7,171.1,138.7z M171.1,116.7c-3.2,0-5.9,4.1-5.9,9c0,4.9,2.7,9,5.9,9s5.9-4.1,5.9-9
				C177,120.8,174.3,116.7,171.1,116.7z"/>
		</g>
		<g>
			<ellipse class="st8" cx="235.2" cy="120.2" rx="7.9" ry="11"/>
			<path class="st2" d="M235.2,133.2c-5.5,0-9.9-5.8-9.9-13s4.5-13,9.9-13c5.5,0,9.9,5.8,9.9,13S240.7,133.2,235.2,133.2z
				 M235.2,111.2c-3.2,0-5.9,4.1-5.9,9s2.7,9,5.9,9s5.9-4.1,5.9-9S238.4,111.2,235.2,111.2z"/>
		</g>
		<g>
			<path class="st4" d="M184.8,96.7l-0.9,9.2c0,0-10.5-4.6-18.8-0.5c-8.2,4.1-13.3,6.9-13.3,6.9s4.6-12.8,17.4-16.5
				C182.1,92.1,184.8,96.7,184.8,96.7z"/>
			<path class="st2" d="M148.2,116.5l1.8-4.9c0.2-0.6,5.1-13.8,18.7-17.7c13.9-4,17.5,1.2,17.8,1.8l0.3,0.6l-1.3,12.5l-2.5-1.1
				c-0.1,0-9.8-4.1-17.1-0.5c-8.1,4.1-13.2,6.8-13.2,6.8L148.2,116.5z M177.9,96.3c-2,0-4.6,0.3-8.1,1.3c-6.3,1.8-10.5,6.1-13,9.7
				c2-1.1,4.6-2.3,7.5-3.8c6.5-3.2,14.1-1.7,17.9-0.5l0.6-5.7C182.1,97,180.7,96.3,177.9,96.3z"/>
		</g>
		<g>
			<path class="st4" d="M220.1,92.5l1.4,7.8c0,0,11.9-6,19.2-3.2c7.3,2.7,7.3,2.7,7.3,2.7s-5-9.6-12.8-10.1S220.1,92.5,220.1,92.5z"
				/>
			<path class="st2" d="M252.2,103.6L240,99c-5.3-2-14.5,1.6-17.6,3.1l-2.4,1.2l-2.1-12l1.4-0.6c0.3-0.1,7.9-3.4,16-2.9
				c8.8,0.5,14.3,10.7,14.5,11.1L252.2,103.6z M222.3,93.8l0.6,3.6c4.1-1.7,12.4-4.5,18.4-2.2l1,0.4c-1.9-1.9-4.4-3.6-7.3-3.8
				C229.8,91.5,224.8,93,222.3,93.8z"/>
		</g>
		<g>
			<path class="st4" d="M263.1,52.2c-3.4,2.4-8.8,3.7-14.4,4.4c-10.2,1.2-20.9,0.2-20.9,0.2l-5,8.7l-12.4-6.9l-6.4,19.7l-16.9-21.1
				c0,0-13.7,4.1-30.2,7.8c-16.5,3.7-35.3,41.2-35.3,41.2l-17.4-5L89,112.6c-2.5-1.5-5.2-2.3-7.8-2.2H81c-0.2,0-0.4,0-0.6,0
				c-0.2,0-0.5,0-0.8,0.1c-0.5,0.1-1,0.1-1.5,0.3c-10.3,2.6-15.4,17.8-11.3,33.9c4.1,16.1,15.7,27.1,26,24.5c0.1,0,0.3-0.1,0.4-0.1
				c7.3,12.3,17.5,22.9,29.6,30.9l-16.8-2.6l-15.6,9.2l-1.8-27H78.1l-13.3-10.1l-8.7-30.2l-6.9-26.1l0.5-20.6l10.1-17.9L63,48.6
				l37.6-9.6l9.6-28.4l22-4.6c0,0,19.2,6.9,30.2-0.5s50.4-0.9,50.4-0.9l20.2,16.5l24.7-3.7l-15.1,22.9
				C242.5,40.3,256.7,49.5,263.1,52.2z"/>
			<path class="st2" d="M88.7,210l-1.9-28.4h-9.3l-14.4-10.9l-8.9-30.9l-7-26.4L47.7,92l10.1-18L61.1,47L99,37.3l9.6-28.5l23.7-4.9
				l0.5,0.2c0.2,0.1,18.4,6.4,28.5-0.2c11.5-7.7,50.2-1.5,51.8-1.2l0.5,0.1L233.5,19l28.3-4.2l-16.5,24.9
				c3.9,2.5,13.7,8.6,18.6,10.7l3.3,1.4l-2.9,2.1c-3.3,2.3-8.4,3.9-15.4,4.7c-8.3,1-16.8,0.5-20,0.3l-5.4,9.3l-12-6.6l-6.8,20.9
				l-18.4-22.9c-3.8,1.1-15.6,4.4-29.1,7.4c-15.4,3.4-33.7,39.8-33.9,40.2l-0.7,1.5l-18.1-5.2L89.1,115l-1.1-0.7
				c-2.3-1.3-4.5-2-6.7-2c0,0-0.1,0-0.1,0H81c-0.2,0-0.3,0-0.5,0c-0.3,0-0.5,0-0.6,0.1c-0.5,0.1-0.9,0.1-1.3,0.2
				c-4.3,1.1-7.7,4.8-9.7,10.6c-2,6-2.1,13.5-0.2,20.9c3.8,15,14.4,25.4,23.6,23.1l1.8-0.5l0.8,1.3c7.1,12,17.1,22.5,28.9,30.3
				l7.6,5l-25-3.8L88.7,210z M78.8,177.6h11.7l1.7,25.7l13.4-7.9l9.3,1.4c-9-7.1-16.7-15.8-22.7-25.5c-11.1,1.9-23.2-9.6-27.4-26.2
				c-2.1-8.2-1.9-16.4,0.3-23.2c2.4-7.1,6.8-11.8,12.5-13.2c0.6-0.1,1.2-0.3,1.8-0.3c0.3,0,0.6-0.1,0.9-0.1c0.2,0,0.5,0,0.7,0h0.1
				c2.6,0,5.1,0.6,7.6,1.9l15-11.2l16.8,4.9c3.8-7.2,20.4-37.4,35.9-40.8c16.2-3.6,30-7.7,30.1-7.8l1.3-0.4l15.5,19.2l6-18.5
				l12.8,7.1l4.7-8.1l1.3,0.1c0.1,0,10.6,0.9,20.4-0.2c4.2-0.5,7.6-1.2,10.2-2.3c-7-3.7-16.8-10-17.3-10.3l-1.7-1.1L253.5,20
				l-21.2,3.1L211.9,6.5c-11.2-1.8-40.1-4.9-48.4,0.7c-10.8,7.2-28.1,2-31.5,0.9l-20.3,4.2l-9.6,28.3l-37.3,9.5l-3.1,25.1l-10,17.8
				l-0.4,19.8l6.8,25.8l8.5,29.5L78.8,177.6z"/>
		</g>
		<g>
			
				<rect x="121.3" y="199.5" transform="matrix(0.1554 -0.9879 0.9879 0.1554 -93.4883 290.8438)" class="st2" width="4" height="1.1"/>
		</g>
		<g>
			<ellipse class="st9" cx="174.7" cy="130" rx="3.4" ry="3"/>
		</g>
		<g>
			<ellipse class="st9" cx="237.6" cy="125.1" rx="2.5" ry="2.7"/>
		</g>
		<g>
			<path class="st5" d="M88.6,125.1c-1.3-0.7-2.6-1-3.9-0.7c-5,0.9-7.7,9-6,18.1c1.7,9.1,7.1,15.6,12.1,14.7
				c0.6-0.1,1.2-0.3,1.8-0.7"/>
			<path class="st2" d="M89.7,159.7c-2.9,0-5.8-1.6-8.3-4.6c-2.5-3.1-4.4-7.4-5.3-12.2c-0.9-4.8-0.7-9.5,0.6-13.3
				c1.4-4.3,4.1-7,7.4-7.7c1.8-0.3,3.8,0,5.6,1l-2.4,4.4c-0.8-0.4-1.6-0.6-2.3-0.5c-1.5,0.3-2.8,1.8-3.6,4.3c-1,3-1.1,6.9-0.4,10.8
				c0.7,3.9,2.3,7.5,4.3,10c1.7,2,3.4,3,4.9,2.7c0.3-0.1,0.6-0.2,0.9-0.4l2.6,4.3c-0.8,0.5-1.7,0.8-2.6,1
				C90.7,159.7,90.2,159.7,89.7,159.7z"/>
		</g>
	</g>
	<g>
		<g>
			<path class="st1" d="M460.4,477.9c-0.1,0-0.2,0.1-0.1,0.1L460.4,477.9c-0.1,0.1-0.2,0.1-0.2,0.1c0,0,0,0,0,0
				c-0.9,0.2-0.9,0.3-1.4,0.5c0,0-0.1,0-0.1,0c-0.1,0-0.2,0.1-0.3,0.1c-0.1,0-0.2,0.1-0.4,0.1c-1.9,0.5-3.9,1-5.8,1.6
				c-1,0.8-2,1.5-3,2.3c-0.6,0.3-1.1,0.6-1.7,0.9c-0.1,0-0.1,0.1-0.2,0.1c-0.5,0.2-0.9,0.5-1.4,0.7c-0.7,0.4-1.4,0.8-2.1,1.2
				c-0.5,0.3-1.1,0.6-1.6,0.9c-0.4,0.2-0.7,0.4-1.1,0.7c-0.4,0.2-0.7,0.4-1.1,0.7c-1.6,1-3.2,2.1-4.7,3.2c-0.4,0.3-0.8,0.6-1.2,0.9
				c-1.7,1.3-3.4,2.6-5,3.9c-0.4,0.3-0.8,0.7-1.2,1c-0.6,0.5-1.2,1.1-1.9,1.6c-0.5,0.4-1,0.9-1.4,1.3c-1,0.9-1.9,1.9-2.9,2.8
				c-0.3,0.2-0.5,0.5-0.8,0.8c-0.6,0.6-1.1,1.1-1.6,1.7c-0.3,0.3-0.6,0.7-0.9,1c-1.1,1.2-2.2,2.4-3.2,3.6c-0.3,0.4-0.7,0.8-1,1.2
				c0,0-0.1,0.1-0.1,0.1c-0.3,0.4-0.6,0.8-1,1.2c-0.7,0.9-1.4,1.8-2.1,2.7c-0.3,0.4-0.6,0.8-0.9,1.2c-1.3,1.8-2.6,3.6-3.9,5.4
				c-0.6,0.8-1.1,1.7-1.7,2.5c-0.4,0.6-0.7,1.1-1.1,1.7c-0.3,0.5-0.6,0.9-0.9,1.4c-0.4,0.6-0.8,1.3-1.2,1.9c-0.2,0.3-0.4,0.7-0.6,1
				c-0.6,1-1.1,2-1.7,3c-0.3,0.5-0.6,1-0.8,1.5c-0.5,1-1.1,2-1.6,3.1c-0.3,0.5-0.5,1-0.8,1.6c-0.2,0.4-0.4,0.9-0.7,1.3
				c-0.1,0.2-0.2,0.4-0.3,0.6c-0.2,0.4-0.4,0.8-0.6,1.2c-0.7,1.6-1.5,3.2-2.2,4.8c-0.2,0.5-0.5,1.1-0.7,1.6
				c-0.4,0.9-0.8,1.8-1.1,2.8c-0.1,0.4-0.3,0.7-0.4,1.1c-0.3,0.7-0.5,1.4-0.8,2.1c-0.2,0.6-0.4,1.2-0.7,1.8c-0.6,1.7-1.2,3.3-1.8,5
				c-0.2,0.7-0.5,1.4-0.7,2c-0.1,0.2-0.1,0.3-0.1,0.5l-17.7,5.9l-7.1-15.4l-21.3-1.2l0.6-15.9c10.3-11.9,22.5-22.6,36.3-31.6
				c26.1-17,55-26.2,84-28C460.9,477.8,460.6,477.9,460.4,477.9z"/>
			<path class="st2" d="M366.8,573.1l-7.4-16.1l-22.3-1.2l0.7-19.2l0.6-0.7c10.7-12.3,23.1-23.1,36.8-32.1
				c25.5-16.7,55-26.5,85.2-28.5c0.4,0,0.8,0,1.1,0.1h21.6l-20.5,4.6v0.5l-2.2,0c-0.1,0-0.1,0.1-0.2,0.1c-0.2,0.1-0.3,0.2-0.6,0.3
				c-0.1,0.1-0.3,0.1-0.4,0.1l-0.7,0.2c-1.8,0.5-3.6,0.9-5.3,1.4c-0.9,0.7-1.8,1.3-2.6,2l-0.2,0.2l-0.2,0.1
				c-0.5,0.3-1.1,0.5-1.6,0.8c-0.1,0.1-0.2,0.1-0.3,0.2c-0.4,0.2-0.8,0.4-1.3,0.7c-0.7,0.4-1.4,0.8-2.1,1.2c-0.5,0.3-1,0.6-1.5,0.9
				c-0.4,0.2-0.7,0.4-1,0.6c-0.4,0.2-0.7,0.4-1,0.7c-1.5,1-3.1,2-4.6,3.1c-0.4,0.3-0.8,0.6-1.2,0.9c-1.8,1.3-3.3,2.6-4.9,3.9
				c-0.4,0.3-0.8,0.7-1.2,1c-0.6,0.5-1.2,1.1-1.8,1.6c-0.5,0.4-0.9,0.8-1.4,1.3c-1,0.9-1.9,1.8-2.9,2.8c-0.3,0.2-0.5,0.5-0.7,0.7
				c-0.6,0.6-1.1,1.1-1.6,1.7c-0.3,0.3-0.6,0.6-0.9,1c-1.1,1.2-2.1,2.4-3.2,3.6c-0.3,0.4-0.7,0.8-1,1.2c-0.1,0.1-0.1,0.1-0.2,0.2
				l-0.3,0.4c-0.2,0.2-0.4,0.5-0.6,0.7c-0.7,0.9-1.4,1.7-2.1,2.6c-0.3,0.4-0.6,0.8-0.9,1.2c-1.3,1.8-2.6,3.5-3.8,5.3
				c-0.6,0.8-1.1,1.7-1.7,2.5c-0.4,0.6-0.7,1.1-1,1.6c-0.3,0.5-0.6,0.9-0.9,1.4c-0.4,0.6-0.8,1.3-1.1,1.9c-0.2,0.4-0.4,0.7-0.6,1
				c-0.6,1-1.1,2-1.7,3c-0.2,0.4-0.4,0.8-0.7,1.2l-0.2,0.3c-0.5,1-1.1,2-1.6,3c-0.3,0.5-0.5,1-0.8,1.5c-0.2,0.4-0.3,0.7-0.5,1
				l-0.4,0.9c-0.2,0.3-0.3,0.6-0.5,1l-0.1,0.2c-0.7,1.5-1.4,3.1-2.1,4.7c-0.2,0.5-0.5,1.1-0.7,1.6c-0.4,0.9-0.8,1.8-1.1,2.7
				l-0.4,1.1c-0.3,0.7-0.5,1.3-0.8,2c-0.2,0.6-0.4,1.2-0.7,1.8c-0.7,1.9-1.2,3.4-1.7,5c-0.2,0.7-0.5,1.4-0.7,2
				c-0.1,0.2-0.1,0.3-0.1,0.4l-0.4,1.2l-1.2,0.5L366.8,573.1z M342.3,551.1l20.4,1.1l6.8,14.7l14.4-4.8c0.1-0.4,0.3-0.9,0.4-1.3
				c0.5-1.5,1.1-3.2,1.8-5.1c0.2-0.6,0.4-1.2,0.7-1.8c0.3-0.7,0.5-1.4,0.8-2.1l0.4-1.1c0.4-0.9,0.8-1.9,1.1-2.8
				c0.3-0.6,0.5-1.2,0.7-1.7c0.7-1.6,1.5-3.3,2.2-4.9l0.1-0.2c0.2-0.3,0.3-0.7,0.5-1l0.4-0.9c0.2-0.4,0.3-0.7,0.5-1
				c0.2-0.5,0.5-1,0.8-1.6c0.5-1,1.1-2.1,1.6-3.1l0.1-0.3c0.2-0.4,0.5-0.9,0.7-1.3c0.5-1,1.1-2,1.7-3c0.2-0.3,0.4-0.7,0.6-1.1
				c0.3-0.6,0.7-1.3,1.1-1.9c0.3-0.5,0.6-1,0.9-1.5c0.3-0.5,0.7-1.1,1.1-1.7c0.6-0.9,1.1-1.7,1.7-2.6c1.2-1.8,2.6-3.7,3.9-5.5
				c0.3-0.4,0.6-0.8,1-1.3c0.7-0.9,1.4-1.8,2.1-2.7c0.2-0.3,0.4-0.5,0.6-0.8l0.5-0.5c0.4-0.4,0.7-0.8,1.1-1.2
				c1.1-1.2,2.2-2.5,3.3-3.7c0.3-0.3,0.6-0.7,0.9-1c0.5-0.6,1.1-1.2,1.7-1.7c0.2-0.2,0.5-0.5,0.8-0.8c1-1,2-1.9,2.9-2.9
				c0.5-0.5,1-0.9,1.5-1.3c0.6-0.6,1.2-1.1,1.9-1.7c0.4-0.4,0.8-0.7,1.3-1.1c1.6-1.3,3.3-2.7,5.1-4c0.4-0.3,0.9-0.6,1.3-0.9
				c1.6-1.2,3.2-2.3,4.8-3.3c0.3-0.2,0.7-0.4,1-0.6c0.4-0.3,0.8-0.5,1.2-0.7c0.5-0.3,1.1-0.6,1.6-1c0.7-0.4,1.4-0.8,2.2-1.2
				c0.1,0,0.1-0.1,0.2-0.1c-23.8,3.8-46.6,12.6-66.9,25.9c-13.1,8.6-25,18.8-35.2,30.5L342.3,551.1z M460.7,480.5L460.7,480.5
				C460.7,480.5,460.7,480.5,460.7,480.5z"/>
		</g>
		<g>
			<path class="st5" d="M494,824.1c-24.3,3.1-48.8,1-72-5.9c0.6-0.6,1.1-1.1,1.6-1.7c0.5-0.6,1-1.2,1.4-1.9c0.6-0.9,1.2-1.9,1.6-2.9
				c0.1-0.2,0.2-0.5,0.3-0.7c0.1-0.2,0.2-0.4,0.2-0.6c0.1-0.3,0.3-0.7,0.4-1c0.1-0.4,0.2-0.7,0.4-1.1c0.2-0.7,0.4-1.4,0.5-2.1
				c0-0.1,0.1-0.3,0.1-0.4c0.1-0.3,0.1-0.6,0.2-1c0.1-0.4,0.1-0.7,0.1-1.1c0-0.4,0.1-0.7,0.1-1.1v-0.1c0-0.4,0-0.8,0-1.2
				c0-0.3,0-0.5,0-0.8c0-0.3,0-0.6,0-0.9l13.7,1.1l10.9-1.5c0.5,0.3,0.9,0.7,1.4,1c1.2,0.8,2.4,1.7,3.5,2.5c0.6,0.4,1.2,0.8,1.8,1.2
				c0.6,0.4,1.2,0.8,1.8,1.2c0.6,0.4,1.2,0.8,1.9,1.1c0.6,0.4,1.2,0.7,1.9,1.1c0.6,0.4,1.2,0.7,1.9,1.1c0.6,0.4,1.3,0.7,1.9,1
				c0.6,0.3,1.3,0.7,1.9,1c1.3,0.7,2.7,1.3,4,2c0.6,0.3,1.2,0.5,1.8,0.8c0.6,0.3,1.2,0.6,1.9,0.8c0.7,0.3,1.5,0.6,2.2,0.9
				c0.5,0.2,1,0.4,1.6,0.6c0.5,0.2,0.9,0.4,1.4,0.5c0.4,0.1,0.8,0.3,1.1,0.4c0.4,0.1,0.8,0.3,1.1,0.4c1.5,0.5,3,1,4.6,1.5h0
				C492.2,820.5,493.1,822.3,494,824.1z"/>
			<path class="st2" d="M471.8,828.1c-17,0-33.9-2.5-50.5-7.4l-4-1.2l3-3c0.5-0.5,1-1,1.4-1.6c0.5-0.6,0.9-1.1,1.3-1.7
				c0.6-0.8,1.1-1.7,1.5-2.6l0.1-0.2c0.1-0.1,0.1-0.2,0.2-0.4c0.1-0.2,0.2-0.3,0.2-0.5l0.1-0.2c0.1-0.3,0.2-0.6,0.3-0.8
				c0.1-0.4,0.2-0.7,0.3-1c0.2-0.6,0.3-1.2,0.5-1.8c0-0.1,0.1-0.3,0.1-0.4c0.1-0.3,0.1-0.6,0.2-0.9c0-0.3,0.1-0.6,0.1-1
				c0-0.4,0.1-0.7,0.1-1l0-0.1c0-0.3,0-0.7,0-1c0-0.2,0-0.5,0-0.7c0-0.3,0-0.5,0-0.8l-0.2-2.9l16.4,1.3l11.6-1.6l2.2,1.6
				c1.1,0.8,2.3,1.6,3.5,2.4c0.6,0.4,1.2,0.8,1.8,1.2l1.8,1.2c0.6,0.4,1.2,0.7,1.7,1.1c0.7,0.4,1.3,0.8,1.9,1.1
				c0.6,0.4,1.2,0.7,1.8,1c0.6,0.4,1.3,0.7,1.9,1c0.6,0.3,1.2,0.7,1.9,1c1.2,0.6,2.6,1.3,3.9,1.9c0.5,0.3,1.1,0.5,1.7,0.8
				c0.6,0.3,1.2,0.5,1.8,0.8l0.3,0.1c0.6,0.3,1.3,0.5,1.9,0.8l0.2,0.1c0.4,0.2,0.9,0.3,1.3,0.5c0.5,0.2,0.9,0.4,1.4,0.5l0.4,0.1
				c0.2,0.1,0.5,0.2,0.7,0.3c0.4,0.2,0.8,0.3,1.1,0.4c1.4,0.5,2.7,0.9,4.1,1.3h1.3l0.7,1.5c0.8,1.9,1.7,3.7,2.7,5.5l1.7,3.2
				l-3.6,0.5C486.8,827.6,479.3,828.1,471.8,828.1z M426.5,816.9c20.9,5.7,42.3,7.5,63.7,5.1c-0.2-0.5-0.5-1-0.7-1.5
				c-1.2-0.4-2.4-0.8-3.6-1.2c-0.4-0.1-0.8-0.3-1.2-0.4c-0.2-0.1-0.5-0.2-0.8-0.3l-0.3-0.1c-0.5-0.2-1-0.4-1.5-0.6
				c-0.4-0.2-0.9-0.3-1.4-0.5l-0.2-0.1c-0.7-0.3-1.3-0.5-2-0.8l-0.3-0.1c-0.6-0.3-1.3-0.5-1.9-0.8c-0.6-0.2-1.2-0.5-1.8-0.8
				c-1.4-0.7-2.8-1.3-4.1-2c-0.6-0.3-1.3-0.7-1.9-1c-0.7-0.4-1.3-0.7-1.9-1.1c-0.6-0.3-1.3-0.7-1.9-1.1c-0.6-0.4-1.2-0.7-1.9-1.1
				c-0.7-0.4-1.3-0.8-1.9-1.2l-1.9-1.2c-0.6-0.4-1.3-0.8-1.9-1.3c-1.2-0.8-2.4-1.6-3.6-2.5L453,802l-10.2,1.4l-11.3-0.9
				c0,0.1,0,0.2,0,0.2l0,0.1c0,0.4-0.1,0.8-0.1,1.3c0,0.4-0.1,0.8-0.1,1.2c-0.1,0.4-0.1,0.7-0.2,1.1c0,0.1-0.1,0.3-0.1,0.5
				c-0.2,0.8-0.3,1.5-0.6,2.3c-0.1,0.4-0.2,0.8-0.4,1.2c-0.1,0.3-0.3,0.7-0.4,1.1c-0.1,0.2-0.2,0.5-0.3,0.7c0,0.1-0.1,0.3-0.2,0.5
				l-0.1,0.2c-0.5,1.1-1.2,2.2-1.8,3.2C426.9,816.3,426.7,816.6,426.5,816.9z"/>
		</g>
		<g>
			<path class="st5" d="M385.1,785l-15.3,7.5c-4.3-3.1-8.5-6.4-12.5-10l19.1-1.9L385.1,785z"/>
			<path class="st2" d="M369.6,795.4l-1.2-0.9c-4.4-3.2-8.6-6.6-12.7-10.1l-4.3-3.8l25.6-2.5l13.8,6.9L369.6,795.4z M363.4,784.5
				c2.2,1.8,4.4,3.5,6.6,5.1l9.4-4.6l-3.5-1.8L363.4,784.5z"/>
		</g>
		<g>
			<path class="st6" d="M453.6,799.3l-10.9,1.5l-13.7-1.1c0-0.3,0-0.6-0.1-0.9v0c0,0,0,0,0,0c0-0.1,0-0.3,0-0.4
				c0-0.2-0.1-0.5-0.1-0.7c0-0.1,0-0.3-0.1-0.4c0-0.2-0.1-0.4-0.1-0.7c0-0.1,0-0.1,0-0.2c-0.1-0.4-0.2-0.7-0.3-1.1
				c-0.1-0.4-0.2-0.8-0.4-1.2c-0.1-0.3-0.2-0.6-0.3-0.9c-0.1-0.2-0.2-0.4-0.3-0.7c-0.1-0.2-0.1-0.4-0.2-0.5
				c-0.1-0.3-0.3-0.6-0.4-0.9c-5.7-11.7-19.9-16.6-31.7-10.9l-9.8,4.8l-8.7-4.3l-19.1,1.9c-11.7-10.2-22.2-22.2-31.1-35.8
				c-22.9-35-31.6-75.2-27.4-113.8l12.5,14l22.5,4.7V628l8.3-20.1l-8.3-18.9l-13-9.5l-9.1,3.9c7-16.5,16.6-32,28.6-45.8l-0.6,15.9
				l21.3,1.2l7.1,15.4l17.7-5.9c-0.4,1.4-0.9,2.8-1.3,4.2c-0.5,1.5-0.9,3.1-1.3,4.7c-0.5,1.8-0.9,3.5-1.3,5.3
				c-0.1,0.6-0.3,1.2-0.4,1.8c-0.1,0.6-0.3,1.1-0.4,1.7c-0.1,0.4-0.2,0.9-0.3,1.3c-0.1,0.6-0.3,1.2-0.4,1.8c-0.1,0.5-0.2,1-0.3,1.5
				c-0.1,0.5-0.2,1-0.3,1.5c-0.3,1.4-0.5,2.9-0.8,4.3c-0.1,0.7-0.2,1.4-0.3,2.2c-0.1,0.9-0.3,1.9-0.4,2.8c-0.1,0.8-0.2,1.7-0.3,2.5
				c-7.7,41.8-1.8,86.4,19.1,126.7c1.1,2.5,2.3,5,3.6,7.5c0.3,0.7,0.7,1.3,1,2c0.3,0.6,0.6,1.2,0.9,1.8c0.3,0.5,0.5,1,0.8,1.5
				c0.6,1.2,1.3,2.4,2,3.6c0.4,0.7,0.8,1.4,1.2,2.1c0.4,0.7,0.9,1.5,1.3,2.2c0.9,1.5,1.7,2.9,2.6,4.3c0.4,0.7,0.9,1.4,1.3,2.1
				c0.5,0.7,0.9,1.4,1.4,2.1c0.3,0.5,0.6,1,1,1.5c0.4,0.6,0.8,1.2,1.2,1.7c1,1.4,1.9,2.8,2.9,4.2c0.3,0.4,0.6,0.9,1,1.3
				c3.1,4.2,6.4,8.3,9.7,12.1c0.4,0.5,0.8,0.9,1.3,1.4c0.6,0.7,1.2,1.3,1.8,2c0.4,0.4,0.8,0.8,1.2,1.3c3.1,3.3,6.3,6.4,9.6,9.4
				c0.5,0.4,1,0.9,1.5,1.3c0.5,0.4,1,0.9,1.5,1.3c0.7,0.6,1.4,1.2,2.1,1.8c0.5,0.4,1,0.9,1.6,1.3c0.6,0.5,1.2,0.9,1.8,1.4
				c0.6,0.5,1.2,0.9,1.8,1.3C453.3,799.1,453.5,799.2,453.6,799.3z"/>
			<path class="st2" d="M442.8,802.8l-15.7-1.2l-0.1-1.8c0-0.1,0-0.1,0-0.2l0,0l0-0.7c0,0,0-0.1,0-0.1c0-0.3-0.1-0.5-0.1-0.7l0-0.2
				c0-0.1,0-0.2,0-0.3c0-0.2-0.1-0.3-0.1-0.5l-0.1-0.3c-0.1-0.3-0.2-0.7-0.2-1c-0.1-0.4-0.2-0.7-0.3-1.1c-0.1-0.3-0.2-0.6-0.3-0.9
				c-0.1-0.2-0.1-0.4-0.2-0.6c-0.1-0.2-0.2-0.4-0.2-0.5c-0.1-0.3-0.3-0.6-0.4-0.9c-5.2-10.7-18.3-15.2-29-9.9l-10.7,5.3l-9-4.5
				l-19.4,1.9l-0.7-0.6c-12-10.5-22.6-22.7-31.4-36.2c-22.2-34-32.1-74.8-27.7-115.1l0.5-4.5l15.1,16.8l19.4,4.1v-21.6l8.1-19.7
				l-7.7-17.7l-11.7-8.5l-12.6,5.4l1.9-4.6c7.2-16.9,16.9-32.5,28.9-46.4l3.7-4.3l-0.7,19.6l20.6,1.1l6.9,14.9L389,561l-1.2,3.7
				c-0.4,1.4-0.9,2.8-1.3,4.1c-0.4,1.5-0.9,3.1-1.3,4.6c-0.5,1.7-0.9,3.4-1.3,5.3c-0.2,0.6-0.3,1.2-0.4,1.8
				c-0.1,0.6-0.3,1.1-0.4,1.7c-0.1,0.4-0.2,0.9-0.3,1.3c-0.1,0.6-0.3,1.2-0.4,1.8c-0.1,0.5-0.2,1-0.3,1.5c-0.1,0.5-0.2,1-0.3,1.5
				c-0.3,1.4-0.5,2.9-0.8,4.3l0,0.1c-0.1,0.7-0.2,1.3-0.3,2c-0.2,1-0.3,1.9-0.4,2.8c-0.1,0.8-0.2,1.7-0.3,2.5l0,0.1
				c-7.8,42.4-1.1,86.9,18.9,125.4l0,0.1c1.1,2.5,2.3,5,3.5,7.4c0.3,0.6,0.6,1.2,0.9,1.7l1,2c0.3,0.5,0.5,1,0.8,1.5
				c0.7,1.2,1.3,2.4,2,3.6c0.4,0.7,0.8,1.4,1.2,2.1c0.4,0.7,0.8,1.5,1.3,2.2c0.8,1.4,1.7,2.8,2.6,4.3c0.4,0.7,0.9,1.4,1.3,2.1
				c0.4,0.7,0.9,1.4,1.3,2.1c0.3,0.4,0.5,0.8,0.8,1.2l0.2,0.3c0.4,0.6,0.8,1.1,1.1,1.7c1,1.4,1.9,2.8,2.9,4.1
				c0.3,0.4,0.6,0.9,0.9,1.3c3.1,4.2,6.3,8.2,9.6,12l1.3,1.4c0.5,0.6,1.1,1.2,1.6,1.8l1.3,1.4c3.1,3.3,6.3,6.4,9.5,9.3
				c0.5,0.4,1,0.9,1.5,1.3c0.5,0.5,1,0.9,1.5,1.3c0.7,0.6,1.4,1.2,2.1,1.8c0.5,0.4,1,0.8,1.5,1.2c0.6,0.5,1.2,0.9,1.7,1.3
				c0.4,0.3,0.8,0.6,1.2,0.9l1,0.8l3.7,2.9L442.8,802.8z M430.8,797.9l11.9,0.9l5.9-0.8c-0.1-0.1-0.2-0.1-0.2-0.2
				c-0.5-0.4-1.1-0.9-1.6-1.3c-0.7-0.6-1.5-1.2-2.2-1.8c-0.5-0.4-1-0.9-1.5-1.3c-0.5-0.4-1-0.9-1.5-1.3c-3.3-2.9-6.6-6.1-9.8-9.5
				l-1.4-1.5c-0.6-0.6-1.1-1.2-1.7-1.8l-1.3-1.4c-3.4-3.8-6.7-7.9-9.8-12.2c-0.3-0.4-0.7-0.9-1-1.3c-1-1.3-2-2.8-3-4.2
				c-0.4-0.6-0.8-1.1-1.2-1.7l-0.2-0.3c-0.3-0.4-0.6-0.8-0.8-1.2c-0.4-0.7-0.9-1.4-1.4-2.1c-0.5-0.7-0.9-1.4-1.4-2.2
				c-1-1.5-1.8-3-2.7-4.4c-0.4-0.7-0.9-1.5-1.3-2.2c-0.4-0.7-0.8-1.4-1.2-2.1c-0.7-1.2-1.3-2.4-2-3.7c-0.3-0.5-0.5-1-0.8-1.5
				l-1.1-2.1c-0.3-0.6-0.6-1.2-0.9-1.8c-1.2-2.5-2.4-5-3.6-7.5c-20.3-39.2-27.2-84.6-19.3-127.9c0.1-0.8,0.2-1.7,0.3-2.5
				c0.1-1,0.3-1.9,0.4-2.9c0.1-0.7,0.2-1.3,0.3-2l0-0.1c0.2-1.5,0.5-2.9,0.8-4.4c0.1-0.5,0.2-1,0.3-1.5c0.1-0.5,0.2-1,0.3-1.6
				c0.1-0.6,0.2-1.2,0.4-1.8c0.1-0.4,0.2-0.8,0.3-1.3c0.1-0.6,0.2-1.2,0.4-1.7c0.1-0.6,0.3-1.2,0.4-1.8c0.4-1.9,0.9-3.6,1.3-5.4
				c0.4-1.6,0.9-3.2,1.3-4.7c0-0.2,0.1-0.3,0.1-0.5l-15.7,5.2l-7.3-15.9l-22.1-1.2l0.4-12c-9,11.1-16.5,23.2-22.5,36.2l5.5-2.3
				l14.4,10.5l8.8,20.2l-8.5,20.5v25.7l-25.5-5.4l-9.9-11.1c-3.1,37.9,6.6,76.1,27.5,108c8.5,13,18.6,24.7,30.1,34.8l18.9-1.8
				l8.3,4.1l9-4.4c12.7-6.2,28.1-0.9,34.4,11.8c0.2,0.3,0.3,0.7,0.5,1c0.1,0.2,0.2,0.4,0.3,0.6c0.1,0.2,0.2,0.5,0.3,0.7
				c0.1,0.3,0.2,0.7,0.3,1c0.1,0.4,0.3,0.9,0.4,1.3c0.1,0.3,0.2,0.7,0.3,1.1c0,0.1,0,0.2,0.1,0.3l0,0.1c0,0.2,0.1,0.4,0.1,0.6
				c0,0.2,0.1,0.3,0.1,0.5C430.7,797.6,430.8,797.8,430.8,797.9z"/>
		</g>
		<g>
			<polygon class="st4" points="680.6,747.6 675.9,766.5 661.7,777.2 651.1,760.6 634.5,736.9 637.5,725.6 640.4,714.4 660.5,713.2 
				667.3,724.7 			"/>
			<path class="st2" d="M661.2,780l-11.8-18.4l-17.1-24.4l6.5-24.8l22.8-1.3l21.2,36.1l-5.1,20.4L661.2,780z M636.7,736.5l16,22.9
				l9.5,14.8l11.9-8.9l4.4-17.5l-19.1-32.6l-17.5,1L636.7,736.5z"/>
		</g>
		<g>
			<path class="st4" d="M594.7,535.4c-4.5,2-8.8,4.2-13.1,6.5C555,506.3,518,486.5,481,493c-4.5,0.8-8.9,1.9-13.1,3.4
				c-0.7,0.3-1,0.5-2.3,0.8c-2.7,1-5.2,2.2-7.8,3.5c-33.4,17-56.5,56.5-62.6,104.4c-2.5,19.5-2.2,40.5,1.5,61.9
				c3.1,18.3,8.3,35.4,15.2,51c16.6,37.6,43.1,65.9,72.8,78.5c1.3,8.2,3.7,15.5,6.5,21.9c-1.5-0.4-3.1-0.9-4.6-1.5
				c-0.4-0.1-0.8-0.3-1.1-0.4c-0.4-0.1-0.8-0.3-1.1-0.4c-0.5-0.2-0.9-0.3-1.4-0.5c-0.5-0.2-1.1-0.4-1.6-0.6
				c-0.8-0.3-1.5-0.6-2.2-0.9c-0.6-0.3-1.2-0.5-1.9-0.8c-0.6-0.3-1.2-0.5-1.8-0.8c-1.3-0.6-2.7-1.3-4-2c-0.6-0.3-1.3-0.7-1.9-1
				c-0.6-0.3-1.3-0.7-1.9-1c-0.6-0.3-1.2-0.7-1.9-1.1c-0.6-0.4-1.2-0.7-1.9-1.1c-0.6-0.4-1.2-0.8-1.9-1.1c-0.6-0.4-1.2-0.8-1.8-1.2
				c-0.6-0.4-1.2-0.8-1.8-1.2c-1.2-0.8-2.4-1.6-3.5-2.5c-0.5-0.3-0.9-0.7-1.4-1c-0.1-0.1-0.3-0.2-0.5-0.3c-0.6-0.4-1.2-0.9-1.8-1.3
				c-0.6-0.4-1.2-0.9-1.8-1.4c-0.5-0.4-1.1-0.8-1.6-1.3c-0.7-0.6-1.4-1.2-2.1-1.8c-0.5-0.4-1-0.9-1.5-1.3c-0.5-0.4-1-0.9-1.5-1.3
				c-3.3-2.9-6.5-6.1-9.6-9.4c-0.4-0.4-0.8-0.8-1.2-1.3c-0.6-0.7-1.2-1.3-1.8-2c-0.4-0.5-0.8-0.9-1.3-1.4c-3.4-3.8-6.6-7.9-9.7-12.1
				c-0.3-0.4-0.6-0.9-1-1.3c-1-1.4-2-2.8-2.9-4.2c-0.4-0.6-0.8-1.1-1.2-1.7c-0.3-0.5-0.7-1-1-1.5c-0.5-0.7-0.9-1.4-1.4-2.1
				c-0.5-0.7-0.9-1.4-1.3-2.1c-0.9-1.4-1.8-2.9-2.6-4.3c-0.4-0.7-0.9-1.5-1.3-2.2c-0.4-0.7-0.8-1.4-1.2-2.1c-0.7-1.2-1.3-2.4-2-3.6
				c-0.3-0.5-0.5-1-0.8-1.5c-0.3-0.6-0.6-1.2-0.9-1.8c-0.3-0.7-0.7-1.3-1-2c-1.2-2.5-2.4-5-3.6-7.5c-7.9-17.5-13.8-36.7-17.4-57.2
				c-4.1-24-4.5-47.5-1.7-69.5c0.1-0.8,0.2-1.7,0.3-2.5c0.1-0.9,0.3-1.9,0.4-2.8c0.1-0.7,0.2-1.4,0.3-2.2c0.2-1.4,0.5-2.9,0.8-4.3
				c0.1-0.5,0.2-1,0.3-1.5c0.1-0.5,0.2-1,0.3-1.5c0.1-0.6,0.2-1.2,0.4-1.8c0.1-0.4,0.2-0.9,0.3-1.3c0.1-0.6,0.2-1.1,0.4-1.7
				c0.1-0.6,0.3-1.2,0.4-1.8c0.4-1.8,0.9-3.6,1.3-5.3c0.4-1.6,0.8-3.1,1.3-4.7c0.4-1.4,0.8-2.8,1.3-4.2c0-0.2,0.1-0.3,0.1-0.5
				c0.2-0.7,0.4-1.4,0.7-2c0.6-1.7,1.2-3.4,1.8-5c0.2-0.6,0.4-1.2,0.7-1.8c0.3-0.7,0.5-1.4,0.8-2.1c0.1-0.4,0.3-0.7,0.4-1.1
				c0.4-0.9,0.8-1.9,1.1-2.8c0.2-0.6,0.5-1.1,0.7-1.6c0.7-1.6,1.4-3.2,2.2-4.8c0.2-0.4,0.4-0.8,0.6-1.2c0.1-0.2,0.2-0.4,0.3-0.6
				c0.2-0.4,0.4-0.9,0.7-1.3c0.3-0.5,0.5-1,0.8-1.6c0.5-1,1.1-2,1.6-3.1c0.3-0.5,0.6-1,0.8-1.5c0.6-1,1.1-2,1.7-3
				c0.2-0.3,0.4-0.7,0.6-1c0.4-0.6,0.8-1.3,1.2-1.9c0.3-0.5,0.6-1,0.9-1.4c0.3-0.6,0.7-1.1,1.1-1.7c0.6-0.9,1.1-1.7,1.7-2.5
				c1.2-1.8,2.5-3.6,3.9-5.4c0.3-0.4,0.6-0.8,0.9-1.2c0.7-0.9,1.4-1.8,2.1-2.7c0.3-0.4,0.6-0.8,1-1.2c0,0,0.1-0.1,0.1-0.1
				c0.3-0.4,0.7-0.8,1-1.2c1-1.2,2.1-2.4,3.2-3.6l0.9-1c0.5-0.6,1.1-1.1,1.6-1.7c0.2-0.3,0.5-0.5,0.8-0.8c1-1,1.9-1.9,2.9-2.8
				c0.5-0.4,0.9-0.9,1.4-1.3c0.6-0.6,1.2-1.1,1.9-1.6c0.4-0.4,0.8-0.7,1.2-1c1.6-1.4,3.3-2.7,5-3.9c0.4-0.3,0.8-0.6,1.2-0.9
				c1.6-1.1,3.1-2.2,4.7-3.2c0.4-0.2,0.7-0.4,1.1-0.7c0.4-0.2,0.7-0.4,1.1-0.7c0.5-0.3,1.1-0.6,1.6-0.9c0.7-0.4,1.4-0.8,2.1-1.2
				c0.5-0.3,0.9-0.5,1.4-0.7c0.1,0,0.1-0.1,0.2-0.1c0.6-0.3,1.1-0.6,1.7-0.9c2.9-1.5,5.8-2.8,8.9-3.9c0.1,0,0.3-0.1,0.4-0.1
				c0.1,0,0.2-0.1,0.3-0.1c0,0,0.1,0,0.1,0c0.6-0.2,1.1-0.4,1.4-0.5c0,0,0,0,0,0c0.1,0,0.1,0,0.2,0h-0.1c0,0,0.1,0,0.1-0.1
				c0.2,0,0.6-0.1,0.2-0.1c4.8-1.7,9.8-3,14.9-3.8C519.8,466.4,564.1,491.4,594.7,535.4z"/>
			<path class="st2" d="M494.9,821.6l-4.1-1.2c-1.6-0.5-3.2-1-4.7-1.5c-0.4-0.1-0.8-0.3-1.2-0.4c-0.2-0.1-0.5-0.2-0.8-0.3l-0.4-0.1
				c-0.5-0.2-1-0.4-1.4-0.6c-0.4-0.2-0.9-0.3-1.4-0.5l-0.2-0.1c-0.7-0.3-1.3-0.5-2-0.8l-0.3-0.1c-0.6-0.3-1.3-0.6-1.9-0.8
				c-0.6-0.3-1.2-0.5-1.8-0.8c-1.4-0.7-2.8-1.3-4.1-2c-0.6-0.3-1.3-0.7-1.9-1c-0.7-0.4-1.3-0.7-1.9-1.1c-0.6-0.3-1.3-0.7-1.9-1.1
				c-0.6-0.4-1.2-0.7-1.9-1.1c-0.7-0.4-1.3-0.8-1.9-1.2l-1.9-1.2c-0.6-0.4-1.3-0.8-1.9-1.2c-1.2-0.8-2.4-1.6-3.6-2.5l-2.5-1.8
				c-0.4-0.3-0.8-0.6-1.3-1c-0.6-0.4-1.2-0.9-1.8-1.4c-0.5-0.4-1.1-0.9-1.6-1.3c-0.7-0.6-1.5-1.2-2.2-1.8c-0.5-0.4-1-0.9-1.5-1.3
				c-0.5-0.4-1-0.9-1.5-1.3c-3.3-2.9-6.6-6.1-9.8-9.5l-1.4-1.5c-0.6-0.6-1.1-1.2-1.7-1.8l-1.3-1.4c-3.4-3.8-6.7-7.9-9.8-12.2
				c-0.3-0.4-0.7-0.9-1-1.3c-1-1.3-2-2.8-3-4.2c-0.4-0.6-0.8-1.1-1.2-1.7l-0.2-0.3c-0.3-0.4-0.6-0.8-0.8-1.2
				c-0.4-0.7-0.9-1.4-1.4-2.1c-0.5-0.7-0.9-1.4-1.4-2.2c-1-1.5-1.8-3-2.7-4.4c-0.4-0.7-0.9-1.5-1.3-2.2c-0.4-0.7-0.8-1.4-1.2-2.1
				c-0.7-1.2-1.3-2.4-2-3.7c-0.3-0.5-0.5-1-0.8-1.5l-1.1-2.1c-0.3-0.6-0.6-1.2-0.9-1.8c-1.2-2.5-2.4-5-3.6-7.5
				c-8.1-18-14-37.5-17.5-57.7c-4.1-23.7-4.7-47.3-1.7-70.1c0.1-0.9,0.2-1.7,0.3-2.5c0.1-1,0.3-1.9,0.4-2.9c0.1-0.7,0.2-1.5,0.3-2.2
				c0.2-1.5,0.5-2.9,0.8-4.4c0.1-0.5,0.2-1,0.3-1.5c0.1-0.5,0.2-1,0.3-1.6c0.1-0.6,0.2-1.2,0.4-1.8c0.1-0.4,0.2-0.8,0.3-1.3
				c0.1-0.6,0.2-1.2,0.4-1.7c0.1-0.6,0.3-1.2,0.4-1.8c0.4-1.9,0.9-3.6,1.3-5.4c0.5-1.8,0.9-3.3,1.3-4.7c0.4-1.4,0.8-2.8,1.3-4.2
				c0.1-0.2,0.1-0.4,0.2-0.5c0.2-0.6,0.4-1.3,0.7-2c0.5-1.5,1.1-3.2,1.8-5.1l0.1-0.4c0.2-0.5,0.4-1,0.5-1.5c0.3-0.7,0.5-1.4,0.8-2.1
				l0.4-1.1c0.4-0.9,0.8-1.8,1.1-2.8c0.3-0.6,0.5-1.2,0.7-1.7c0.7-1.6,1.5-3.3,2.2-4.9c0.2-0.4,0.4-0.8,0.6-1.2l1-1.9
				c0.3-0.5,0.5-1,0.8-1.6c0.5-1,1.1-2.1,1.6-3.1l0.8-1.5c0.6-1,1.1-2,1.7-3c0.2-0.3,0.4-0.7,0.6-1c0.3-0.6,0.7-1.3,1.1-1.9
				c0.3-0.5,0.6-0.9,0.9-1.4c0.4-0.6,0.7-1.2,1.1-1.7c0.6-0.9,1.1-1.7,1.7-2.6c1.2-1.8,2.6-3.7,3.9-5.5c0.3-0.5,0.6-0.9,1-1.3
				c0.7-0.9,1.4-1.8,2.1-2.7c0.2-0.3,0.4-0.5,0.6-0.8l0.5-0.6c0.3-0.4,0.7-0.8,1-1.2c1-1.2,2.1-2.5,3.3-3.7l0.9-1
				c0.6-0.6,1.1-1.2,1.7-1.7c0.2-0.2,0.5-0.5,0.8-0.8c1-1,2-1.9,2.9-2.8c0.5-0.4,1-0.9,1.5-1.3c0.6-0.6,1.2-1.1,1.9-1.7
				c0.4-0.4,0.8-0.7,1.3-1.1c1.6-1.3,3.2-2.6,5.1-4l0.3-0.2c0.3-0.3,0.7-0.5,1-0.7c1.6-1.1,3.2-2.3,4.8-3.3c0.3-0.2,0.7-0.4,1-0.6
				c0.4-0.3,0.8-0.5,1.2-0.7c0.5-0.3,1.1-0.6,1.6-1c0.7-0.4,1.4-0.8,2.2-1.2c0.4-0.2,0.9-0.5,1.3-0.7l0.2-0.1
				c0.6-0.3,1.2-0.6,1.8-0.9c0.3-0.2,0.7-0.3,1-0.5l-2.4,0.1l13-4.6c4.9-1.7,10.1-3,15.2-3.9c43.6-7.5,88.9,15.8,121.2,62.3l1.4,2
				l-2.2,1c-4.4,2-8.8,4.2-13,6.5l-1.5,0.8l-1-1.4c-27.1-36.3-63.9-54.3-98.6-48.2c-4.3,0.8-8.6,1.9-12.7,3.3l-0.3,0.1
				c-0.5,0.2-1,0.5-2.1,0.8c-2.6,1-5.1,2.1-7.5,3.4c-32.4,16.5-55.4,55-61.5,102.9c-2.5,19.9-2.1,40.6,1.4,61.3
				c3,17.7,8,34.7,15,50.5c16.3,36.8,42.5,65,71.8,77.4l1,0.4l0.2,1.1c1.2,7.4,3.4,14.6,6.4,21.4L494.9,821.6z M415.5,512.5
				l-0.3,0.4c-0.2,0.2-0.4,0.5-0.6,0.7c-0.7,0.9-1.4,1.7-2.1,2.6c-0.3,0.4-0.6,0.8-0.9,1.1c-1.4,1.8-2.6,3.6-3.8,5.4
				c-0.6,0.8-1.1,1.7-1.7,2.5c-0.4,0.6-0.7,1.1-1.1,1.6c-0.3,0.5-0.6,1-0.9,1.4c-0.4,0.6-0.8,1.3-1.1,1.9c-0.2,0.4-0.4,0.7-0.6,1
				c-0.6,1-1.1,2-1.7,3l-0.8,1.5c-0.5,1-1.1,2-1.6,3c-0.3,0.5-0.5,1-0.8,1.5l-0.9,1.9c-0.2,0.4-0.4,0.8-0.6,1.2
				c-0.7,1.5-1.5,3.1-2.2,4.8c-0.2,0.5-0.5,1.1-0.7,1.6c-0.4,1-0.8,1.8-1.1,2.8l-0.4,1.1c-0.3,0.7-0.5,1.4-0.8,2
				c-0.2,0.5-0.4,0.9-0.5,1.4l-0.1,0.4c-0.7,1.9-1.2,3.5-1.7,5c-0.2,0.7-0.5,1.4-0.7,2c-0.1,0.2-0.1,0.3-0.1,0.4
				c-0.5,1.5-0.9,2.8-1.3,4.2c-0.4,1.4-0.8,2.8-1.3,4.6c-0.5,1.7-0.9,3.4-1.3,5.3c-0.2,0.6-0.3,1.2-0.4,1.8
				c-0.1,0.6-0.3,1.1-0.4,1.7c-0.1,0.4-0.2,0.9-0.3,1.3c-0.1,0.6-0.3,1.2-0.4,1.8c-0.1,0.5-0.2,1-0.3,1.5c-0.1,0.5-0.2,1-0.3,1.5
				c-0.3,1.4-0.5,2.9-0.8,4.3c-0.1,0.7-0.2,1.4-0.3,2.1c-0.2,1-0.3,1.9-0.4,2.9c-0.1,0.8-0.2,1.7-0.3,2.5
				c-2.9,22.4-2.3,45.5,1.7,68.9c3.4,19.9,9.2,39,17.2,56.7c1.1,2.5,2.3,5,3.5,7.4c0.3,0.6,0.6,1.2,0.9,1.7l1,2
				c0.3,0.5,0.5,1,0.8,1.5c0.7,1.2,1.3,2.4,2,3.6c0.4,0.7,0.8,1.4,1.2,2.1c0.4,0.7,0.8,1.5,1.3,2.2c0.8,1.4,1.7,2.8,2.6,4.3
				c0.4,0.7,0.9,1.4,1.3,2.1c0.4,0.7,0.9,1.4,1.3,2.1c0.3,0.4,0.5,0.8,0.8,1.2l0.2,0.3c0.4,0.6,0.8,1.1,1.1,1.7
				c1,1.4,1.9,2.8,2.9,4.1c0.3,0.4,0.6,0.9,0.9,1.3c3.1,4.2,6.3,8.2,9.6,12l1.3,1.4c0.5,0.6,1.1,1.2,1.6,1.8l1.3,1.4
				c3.1,3.3,6.3,6.4,9.5,9.3c0.5,0.4,1,0.9,1.5,1.3c0.5,0.5,1,0.9,1.5,1.3c0.7,0.6,1.4,1.2,2.1,1.8c0.5,0.4,1,0.8,1.5,1.2
				c0.6,0.5,1.2,0.9,1.7,1.3c0.4,0.3,0.8,0.6,1.2,0.9l2.4,1.8c1.1,0.8,2.3,1.6,3.5,2.4c0.6,0.4,1.2,0.8,1.8,1.2l1.8,1.2
				c0.6,0.4,1.2,0.7,1.8,1.1c0.7,0.4,1.3,0.8,1.9,1.1c0.6,0.4,1.2,0.7,1.8,1c0.6,0.4,1.3,0.7,1.9,1c0.6,0.3,1.2,0.7,1.9,1
				c1.3,0.6,2.6,1.3,3.9,1.9c0.6,0.3,1.1,0.5,1.7,0.8c0.6,0.3,1.2,0.5,1.8,0.8l0.3,0.1c0.6,0.3,1.3,0.5,1.9,0.8l0.2,0.1
				c0.4,0.2,0.9,0.4,1.3,0.5c0.5,0.2,0.9,0.4,1.4,0.5l0.4,0.1c0.2,0.1,0.5,0.2,0.7,0.3c0.4,0.2,0.8,0.3,1.1,0.4
				c0.1,0.1,0.3,0.1,0.4,0.2c-2.2-5.6-3.8-11.4-4.8-17.3c-29.9-13-56.4-41.7-72.9-79.1c-7.1-16.1-12.3-33.4-15.3-51.5
				c-3.6-21.1-4.1-42.2-1.5-62.5c6.3-49.2,30.1-88.8,63.6-106c2.5-1.3,5.2-2.5,8-3.6l0.2-0.1c0.9-0.2,1.1-0.4,1.6-0.6l0.5-0.2
				c4.4-1.5,8.9-2.7,13.4-3.5c35.8-6.3,73.6,11.8,101.5,48.3c3.1-1.7,6.3-3.3,9.5-4.8c-31.3-43.9-74.4-65.8-115.8-58.6h2.8
				l-16.4,3.7v0.4l-1.6,0c-0.3,0.1-0.7,0.3-1.1,0.4c-0.1,0-0.2,0.1-0.2,0.1l-0.6,0.2c-3,1.1-5.9,2.4-8.6,3.8
				c-0.6,0.3-1.1,0.6-1.6,0.8c-0.1,0.1-0.2,0.1-0.3,0.2c-0.4,0.2-0.8,0.5-1.3,0.7c-0.7,0.4-1.4,0.8-2.1,1.2c-0.5,0.3-1,0.6-1.6,0.9
				c-0.4,0.2-0.7,0.4-1.1,0.6c-0.4,0.2-0.7,0.4-1,0.7c-1.5,1-3.1,2-4.6,3.2c-0.3,0.2-0.7,0.5-1,0.7l-0.3,0.2
				c-1.7,1.3-3.3,2.6-4.9,3.9c-0.4,0.3-0.8,0.7-1.2,1c-0.6,0.5-1.2,1.1-1.8,1.6c-0.5,0.4-0.9,0.8-1.4,1.3c-1,0.9-1.9,1.8-2.9,2.8
				c-0.3,0.3-0.5,0.5-0.7,0.7c-0.6,0.6-1.1,1.1-1.6,1.7l-0.9,1c-1.1,1.2-2.1,2.4-3.2,3.6c-0.3,0.4-0.7,0.8-1,1.2
				C415.6,512.4,415.6,512.4,415.5,512.5z"/>
		</g>
		<g>
			<path class="st8" d="M581.6,542c-28.1,15.3-52.2,37.6-70,64.8c-17.9,27.3-29.3,59.6-31.8,94.7c-1.5,21.3,0.3,42,5.1,61.7
				c-1.9,12.5-1.7,23.7-0.1,33.6c-29.8-12.6-56.2-40.9-72.8-78.5c-6.9-15.6-12.1-32.7-15.2-51c-3.6-21.4-3.9-42.4-1.5-61.9
				c6.1-48,29.2-87.4,62.6-104.4c2.5-1.3,5.1-2.5,7.8-3.5c1.3-0.3,1.6-0.5,2.3-0.8c4.2-1.5,8.6-2.6,13.1-3.4
				C518,486.5,555,506.3,581.6,542z"/>
			<path class="st2" d="M487.3,799.8l-3.3-1.4c-30.3-12.8-57.2-41.8-73.9-79.5c-7.1-16.1-12.3-33.4-15.3-51.5
				c-3.6-21.2-4.1-42.2-1.5-62.5c6.3-49.2,30.1-88.8,63.6-106c2.5-1.3,5.2-2.5,8-3.6l0.2-0.1c0.9-0.2,1.1-0.4,1.6-0.6l0.5-0.2
				c4.4-1.5,8.9-2.7,13.4-3.5c36.2-6.4,74.6,12.2,102.5,49.7l1.4,1.8l-2,1.1c-27.8,15.2-51.8,37.3-69.2,64.1
				c-18.2,27.8-29.1,60.2-31.5,93.7c-1.5,20.7,0.2,41.2,5,61.1l0.1,0.4l-0.1,0.4c-1.8,11.5-1.8,22.6-0.1,32.9L487.3,799.8z
				 M466.3,499.2c-2.6,1-5.1,2.1-7.5,3.4c-32.4,16.5-55.4,55-61.5,102.9c-2.5,19.9-2.1,40.6,1.4,61.3c3,17.7,8,34.7,15,50.5
				c15.7,35.4,40.5,62.9,68.5,76c-1.2-9.6-1-19.7,0.6-30.2c-4.8-20.1-6.5-41-5-61.9c2.5-34.2,13.6-67.2,32.1-95.6
				c17.4-26.7,41.1-48.8,68.6-64.3c-26.9-35-63.1-52.3-97.2-46.4c-4.3,0.8-8.6,1.9-12.7,3.3l-0.3,0.1
				C467.9,498.7,467.4,498.9,466.3,499.2z"/>
		</g>
		<g>
			<g>
				<path class="st1" d="M429,801.5c0,0.4,0,0.8,0,1.2v0.1c0,0.4,0,0.7-0.1,1.1c0,0.4-0.1,0.7-0.1,1.1c0,0.3-0.1,0.6-0.2,1
					c0,0.1-0.1,0.3-0.1,0.4c-0.1,0.7-0.3,1.4-0.5,2.1c-0.1,0.4-0.2,0.7-0.4,1.1c-0.1,0.3-0.3,0.7-0.4,1c-0.1,0.2-0.2,0.4-0.2,0.6
					c-0.1,0.2-0.2,0.5-0.3,0.7c-0.5,1-1,2-1.6,2.9c-0.4,0.6-0.9,1.3-1.4,1.9c-0.5,0.6-1,1.2-1.6,1.7c-1.8,1.8-3.9,3.3-6.3,4.5
					l-42.1,20.6l-13.1-46.2c0,0,0-0.1,0-0.1l9.3-4.5l15.3-7.5l9.8-4.8c11.8-5.7,25.9-0.9,31.7,10.9c0.1,0.3,0.3,0.6,0.4,0.9
					c0.1,0.2,0.2,0.4,0.2,0.5c0.1,0.2,0.2,0.4,0.3,0.7c0.1,0.3,0.2,0.6,0.3,0.9c0.1,0.4,0.3,0.8,0.4,1.2c0.1,0.4,0.2,0.7,0.3,1.1
					c0,0.1,0,0.1,0,0.2c0,0.2,0.1,0.4,0.1,0.7c0,0.1,0,0.3,0.1,0.4c0,0.2,0.1,0.5,0.1,0.7c0,0.1,0,0.3,0,0.4c0,0,0,0,0,0v0
					c0,0.3,0.1,0.6,0.1,0.9c0,0.3,0,0.6,0,0.9C429,800.9,429,801.2,429,801.5z"/>
				<path class="st2" d="M372.1,846.9l-13.9-49l-1-2l36.6-17.9c13-6.3,28.7-1,35,12c0.2,0.3,0.3,0.7,0.5,1.1
					c0.1,0.2,0.2,0.4,0.3,0.6c0.1,0.2,0.2,0.5,0.3,0.7c0.1,0.3,0.2,0.7,0.4,1c0.1,0.4,0.3,0.9,0.4,1.4c0.1,0.3,0.2,0.7,0.3,1.1
					c0,0.1,0.1,0.2,0.1,0.3l0,0.1c0,0.2,0.1,0.4,0.1,0.6c0,0.2,0.1,0.3,0.1,0.5c0,0.1,0,0.3,0.1,0.4l0.9,1.1l-0.7,0.8
					c0,0.3,0,0.6,0,0.9c0,0.3,0,0.6,0,0.9c0,0.4,0,0.8,0,1.3l0,0.1c0,0.4-0.1,0.8-0.1,1.3c0,0.4-0.1,0.8-0.1,1.2
					c-0.1,0.4-0.1,0.7-0.2,1.1l-0.1,0.5c-0.2,0.8-0.3,1.5-0.6,2.3c-0.1,0.4-0.2,0.8-0.4,1.2c-0.1,0.4-0.3,0.8-0.4,1.1
					c-0.1,0.2-0.2,0.5-0.3,0.7c0,0.1-0.1,0.3-0.2,0.5l-0.1,0.2c-0.5,1.1-1.2,2.2-1.8,3.2c-0.5,0.7-1,1.4-1.5,2.1
					c-0.5,0.6-1.1,1.3-1.8,1.9c-2,2-4.4,3.7-7,5L372.1,846.9z M363.5,798.4l11.7,41.4l39.4-19.3c2.1-1,4-2.4,5.6-4
					c0.5-0.5,1-1,1.4-1.6c0.5-0.6,0.9-1.1,1.3-1.7c0.6-0.8,1.1-1.7,1.5-2.6l0.1-0.2c0.1-0.1,0.1-0.2,0.2-0.4
					c0.1-0.2,0.2-0.3,0.2-0.5l0.1-0.2c0.1-0.3,0.2-0.6,0.3-0.9c0.1-0.3,0.2-0.6,0.3-0.9c0.2-0.6,0.3-1.2,0.5-1.8l0.1-0.5
					c0-0.2,0.1-0.5,0.1-0.8c0-0.3,0.1-0.6,0.1-1c0-0.4,0.1-0.7,0.1-1l0-0.1c0-0.3,0-0.7,0-1c0-0.2,0-0.5,0-0.7c0-0.3,0-0.5,0-0.8
					c0,0,0-0.1,0-0.1l0,0l-0.1-0.9c0,0,0-0.1,0-0.1l0-0.1c0-0.2-0.1-0.4-0.1-0.6l0-0.2c0-0.1,0-0.2,0-0.2c0-0.2-0.1-0.3-0.1-0.4
					L426,797c-0.1-0.3-0.1-0.6-0.2-1c-0.1-0.4-0.2-0.7-0.3-1.1c-0.1-0.3-0.2-0.6-0.3-0.9c-0.1-0.2-0.1-0.4-0.2-0.5
					c-0.1-0.2-0.2-0.4-0.2-0.5c-0.1-0.3-0.3-0.6-0.4-0.8c-5.1-10.5-17.8-14.8-28.3-9.7L363.5,798.4z M358.1,797.7
					C358.1,797.7,358.1,797.7,358.1,797.7L358.1,797.7z"/>
			</g>
		</g>
		<g>
			<path class="st6" d="M368.5,860l-25.5,7.2c-0.7,0.5-1.6,0.9-2.4,1.1L302.1,880c5-1.5,7.8-6.8,6.3-11.8l-28.2-93.4
				c-2.8-9.4-11.2-15.6-20.4-16.3c-2.7-0.2-5.5,0.1-8.2,0.9l2.1-0.6c31-9.4,64,7.4,75,37.5l20.2-5.7c5-1.4,10.2,1.5,11.7,6.4
				c0,0,0,0.1,0,0.1l13.1,46.2l1.4,4.9C376.5,853.3,373.5,858.6,368.5,860z"/>
			<path class="st2" d="M302.6,881.9l-1.2-3.8c0,0,0,0,0,0l0,0c3.9-1.2,6.2-5.4,5-9.3l-28.2-93.4c-2.5-8.3-10-14.2-18.6-14.9
				c-2.5-0.2-5,0.1-7.5,0.8l-0.1,0l-1.2-3.8c0,0,0,0,0.1,0l2-0.6c31.4-9.5,64.7,6.8,76.8,37l18.5-5.2c6-1.7,12.3,1.8,14.1,7.7
				l0.1,0.2l14.5,51.1c1.7,6.1-1.8,12.4-7.9,14.2h0l-25.2,7.1c-0.8,0.5-1.7,0.9-2.7,1.2L302.6,881.9
				C302.6,881.9,302.6,881.9,302.6,881.9L302.6,881.9z M267.6,758.3c6.9,2.8,12.3,8.6,14.5,15.9l28.2,93.4c0.8,2.7,0.6,5.5-0.5,8
				l30.2-9.1c0.7-0.2,1.3-0.5,1.9-0.9l0.3-0.2l25.8-7.3h0c4-1.1,6.3-5.3,5.1-9.2l-14.5-51.2c-1.2-3.9-5.3-6.2-9.2-5.1l-22,6.2
				l-0.6-1.7C317.7,772,293.2,756.7,267.6,758.3z M358.6,797.6C358.6,797.6,358.6,797.6,358.6,797.6L358.6,797.6z M362.5,796.6
				L362.5,796.6C362.5,796.6,362.5,796.6,362.5,796.6z"/>
		</g>
		<g>
			<path class="st2" d="M283.1,886.6c-11.8,0-22.7-7.7-26.3-19.5l-23.2-77c-4.2-13.8,3.7-28.4,17.5-32.5c2.9-0.9,5.9-1.2,9-1
				c10.3,0.7,19.2,7.9,22.2,17.7l28.2,93.4c0.9,2.9,0.6,6-0.9,8.7c-1.5,2.7-3.9,4.7-6.8,5.6l0,0l-11.7,3.5
				C288.3,886.2,285.7,886.6,283.1,886.6z M258.2,760.5c-2,0-4,0.3-6,0.9c-11.7,3.5-18.3,15.9-14.8,27.6l23.2,77
				c3.7,12.4,16.8,19.4,29.2,15.7l11.7-3.5c1.9-0.6,3.5-1.9,4.4-3.6c0.9-1.8,1.2-3.8,0.6-5.7l-28.2-93.4c-2.5-8.3-10-14.2-18.6-14.9
				C259.2,760.5,258.7,760.5,258.2,760.5z"/>
		</g>
		<g>
			<path class="st4" d="M302.1,880l-11.7,3.5c-13.4,4-27.7-3.6-31.7-17l-23.2-77c-3.8-12.7,3.4-26.2,16.1-30.1
				c2.7-0.8,5.5-1.1,8.2-0.9c9.2,0.7,17.6,6.9,20.4,16.3l28.2,93.4C309.9,873.2,307,878.5,302.1,880z"/>
			<path class="st2" d="M283.1,886.6c-11.8,0-22.7-7.7-26.3-19.5l-23.2-77c-4.2-13.8,3.7-28.4,17.5-32.5c2.9-0.9,5.9-1.2,9-1
				c10.3,0.7,19.2,7.9,22.2,17.7l28.2,93.4c0.9,2.9,0.6,6-0.9,8.7c-1.5,2.7-3.9,4.7-6.8,5.6l0,0l-11.7,3.5
				C288.3,886.2,285.7,886.6,283.1,886.6z M258.2,760.5c-2,0-4,0.3-6,0.9c-11.7,3.5-18.3,15.9-14.8,27.6l23.2,77
				c3.7,12.4,16.8,19.4,29.2,15.7l11.7-3.5c1.9-0.6,3.5-1.9,4.4-3.6c0.9-1.8,1.2-3.8,0.6-5.7l-28.2-93.4c-2.5-8.3-10-14.2-18.6-14.9
				C259.2,760.5,258.7,760.5,258.2,760.5z"/>
		</g>
		<g>
			<path class="st2" d="M636.9,727.5c-9.5-2.5-17.2-7.5-21.2-13.7l3.4-2.2c3.5,5.3,10.3,9.7,18.9,12L636.9,727.5z"/>
		</g>
		<g>
			<path class="st2" d="M667.9,726.6l-1.4-3.8c6.7-2.4,11.7-6.5,13.6-11.1l3.7,1.5C681.5,719,675.9,723.8,667.9,726.6z"/>
		</g>
		<g>
			<path class="st2" d="M729.9,705.2c-6.1,0-11.8-1.7-16.3-5.1l2.4-3.2c6.4,4.9,16.4,5.6,25.4,2c11.1-4.5,18.3-14.5,17-23.8l4-0.5
				c1.5,11.1-6.8,22.9-19.5,28C738.6,704.3,734.1,705.2,729.9,705.2z"/>
		</g>
		<g>
			<path class="st2" d="M721.7,726c-1-1-2.1-1.9-3.3-2.6l2-3.4c1.6,0.9,3,2,4.2,3.3L721.7,726z"/>
		</g>
		<g>
			<path class="st2" d="M703.1,754c-4.6-1.8-8.3-5.1-10.5-9.4l3.6-1.8c1.7,3.4,4.7,6.1,8.3,7.5L703.1,754z"/>
		</g>
		<g>
			<path class="st4" d="M680.6,747.6l-4.7,18.9l-14.2,10.7l-10.7-16.6l-16.6-23.7l3-11.3c3.1,0.8,6.4,1.4,9.9,1.7
				c7.3,0.5,14.2-0.4,19.9-2.5L680.6,747.6z"/>
			<path class="st2" d="M661.2,780l-11.8-18.4l-17.1-24.4l3.7-14.2l1.9,0.5c3,0.8,6.2,1.4,9.5,1.6c6.8,0.5,13.4-0.3,19.1-2.4
				l1.6-0.6l14.6,25l-5.1,20.4L661.2,780z M636.7,736.5l16,22.9l9.5,14.8l11.9-8.9l4.4-17.5l-12.2-20.7c-5.8,1.8-12.4,2.6-19.1,2.1
				c-2.8-0.2-5.6-0.6-8.3-1.2L636.7,736.5z"/>
		</g>
		<g>
			<path class="st2" d="M651.3,729.4c-1.4,0-2.7,0-4.1-0.1c-3.5-0.3-7-0.8-10.3-1.7L635,727l3.8-14.5l22.8-1.3l8.6,14.6l-2.3,0.8
				C662.9,728.4,657.2,729.4,651.3,729.4z M639.9,724.1c2.4,0.6,5,0.9,7.6,1.1c5.9,0.4,11.6-0.1,16.8-1.6l-4.9-8.3l-17.5,1
				L639.9,724.1z"/>
		</g>
		<g>
			<path class="st4" d="M342.1,607.9l-8.3,20.1v23.7l-22.5-4.7l-12.5-14c1.8-17,6.2-33.8,12.9-49.6l9.1-3.9l13,9.5L342.1,607.9z"/>
			<path class="st2" d="M335.8,654.2l-25.5-5.4l-13.5-15.1l0.1-0.9c1.9-17.3,6.3-34.2,13.1-50.2l0.3-0.7l10.9-4.7l14.4,10.5
				l8.8,20.2l-8.5,20.5V654.2z M312.4,645.1l19.4,4.1v-21.6l8.1-19.7l-7.7-17.7l-11.7-8.5l-7.3,3.1c-6.4,15.1-10.5,31.1-12.4,47.4
				L312.4,645.1z"/>
		</g>
		<g class="st10">
			<path class="st1" d="M493.3,687.5c0,0-72.6-13.4-78.9-101.8c-6.3-88.4,59.2-85.2,28.4-138.1s-34.7-78.1,3.9-116.8
				s223.3,11,222.5-26c-0.8-37.1-22.9-48.1-41-41.8c26-24.5,55.2-37.9,78.9-10.3s49.7,85.2,22.1,108.9
				c-27.6,23.7-142.1,41.8-121.5,67.1c20.5,25.3,50.5,58.4,38.7,84.4c-11.8,26-15,44.2-15,44.2L493.3,687.5z"/>
			<path class="st2" d="M494.1,690.2l-1.2-0.2c-0.8-0.1-19-3.6-38.2-18.2c-17.7-13.5-39.5-39.3-42.8-85.9
				c-3.2-45.1,11.8-66.7,23.9-84c11.7-16.8,19.5-28,4.9-53C409.3,395,405.3,368.8,445,329c20.6-20.6,79.7-17.2,131.8-14.1
				c40.1,2.3,78.1,4.6,87.9-4.9c1.5-1.5,2.2-3.1,2.2-5.2c-0.4-17.2-5.7-30.3-14.9-36.7c-6.5-4.5-14.8-5.6-22.8-2.8l-11.1,3.9l8.6-8
				c19.4-18.3,37.2-27.1,52.8-26.3c11.1,0.6,21.1,6,29.8,16.2c13.4,15.6,25.2,37.4,30.8,56.9c7.3,25.1,4.2,44.3-9,55.6
				c-11.4,9.7-36.6,18.5-61.1,26.9c-27.6,9.5-58.9,20.3-61.8,30.8c-0.4,1.2-0.6,3.2,1.7,5.9c1.6,1.9,3.2,3.9,4.9,5.9
				c20.4,24.8,45.7,55.7,34.2,81.1c-11.5,25.4-14.8,43.4-14.8,43.6l-0.1,0.8l-0.6,0.6L494.1,690.2z M517.9,317.6
				c-30.8,0-57.6,3.2-69.4,15c-37.7,37.7-34,61.5-3.6,113.8c16.2,27.8,6.8,41.3-5.1,58.4c-11.6,16.7-26.1,37.5-23,80.8
				c2.6,35.8,16.2,63.4,40.7,82.1c15.5,11.9,30.7,16.1,35,17.2L629.1,556c0.8-3.9,4.5-20.7,15-44c10.3-22.6-14-52.2-33.5-75.9
				c-1.7-2-3.3-4-4.9-5.9c-2.7-3.4-3.6-6.9-2.6-10.5c3.7-12.9,33.5-23.2,65-34.1c24-8.3,48.8-16.9,59.4-26
				c14.6-12.5,12.1-34.3,7.4-50.4c-6.5-22.5-19.7-43.2-29.8-55c-7.8-9.1-16.6-13.9-26.2-14.4c-12.4-0.7-26.6,5.7-42.4,18.9
				c6.4-0.3,12.7,1.5,18.1,5.2c7.5,5.2,16.6,16.5,17.1,40.7c0.1,3.5-1.2,6.5-3.7,8.9c-11.4,10.9-48.5,8.8-91.6,6.3
				C557.1,318.8,536.8,317.6,517.9,317.6z"/>
		</g>
		<g class="st11">
			<g>
				<path class="st1" d="M504.6,649.6c0.2,0.8,0.4,1.7,0.4,2.4c0,0.6,0,1.3-0.1,1.9c-0.1,0.6-0.2,1.3-0.4,1.9
					c-0.1,0.3-0.2,0.6-0.3,1c-0.1,0.4-0.2,0.6-0.3,0.8c-0.2,0.5-0.5,0.9-0.7,1.3c-0.1,0.2-0.3,0.4-0.4,0.7c-0.1,0.2-0.3,0.4-0.4,0.6
					c-0.3,0.3-0.6,0.7-0.9,1c-0.3,0.3-0.6,0.5-1,0.7c-0.4,0.3-0.6,0.4-0.9,0.5c-0.3,0.2-0.6,0.3-0.9,0.4c-0.3,0.1-0.6,0.2-0.9,0.2
					c-0.3,0.1-0.6,0.1-0.8,0.1c-0.5,0-1.1-0.1-1.5-0.2c-0.5-0.2-0.8-0.4-1.2-0.6c-0.4-0.2-0.8-0.4-1.2-0.6c-0.4-0.2-0.7-0.4-1-0.6
					c-0.6-0.4-1.3-0.9-1.8-1.3c-0.5-0.4-1-0.8-1.5-1.3c-0.4-0.4-0.9-0.8-1.3-1.2c-3.2-3.2-5.1-6-6.8-8.8c-0.9-1.4-1.6-2.7-2.3-4
					c-0.7-1.3-1.3-2.6-1.9-3.9c-1.2-2.6-2.3-5.1-3.2-7.5c-2-5-3.5-9.9-5-14.7c-0.7-2.4-1.4-4.9-2-7.3c-0.6-2.4-1.2-4.8-1.8-7.2
					c-1.1-4.8-2.1-9.6-2.9-14.4c-0.9-4.8-1.6-9.6-2.3-14.4c-0.7-4.8-1.2-9.6-1.7-14.4l-0.7-7.2l-0.3-3.6c-0.1-1.3-0.2-2.8-0.3-4.2
					c-0.3-5.7-0.1-11.6,0.7-17.5c0.8-5.9,2.2-11.9,4.3-17.7c2.1-5.7,4.8-11.3,8.1-16.3c3.2-5,6.9-9.6,10.6-13.7
					c7.5-8.2,15.7-14.7,22.4-20.3c3.3-2.8,6.3-5.5,8.2-7.6c0.9-1.1,1.6-2,2-2.6c0.4-0.6,0.5-0.9,0.6-1.1c0.1-0.2,0.2-0.5,0.1-1.2
					c-0.1-0.7-0.3-1.7-0.8-2.9c-1-2.4-2.9-5.5-5.3-8.6c-2.4-3.1-5.2-6.2-8.2-9.2c-1.5-1.5-3-3.1-4.6-4.6l-2.7-2.6
					c-1.1-1.1-2.2-2.2-3.3-3.4c-2.1-2.4-4.2-5.1-5.9-8.3c-1.7-3.1-3.2-6.7-4-10.6c-0.8-3.9-0.9-8-0.2-11.9c0.6-3.9,2-7.5,3.6-10.6
					c3.3-6.3,7.7-10.8,12.2-14.4c4.5-3.7,9.2-6.5,13.9-8.9c9.5-4.7,19.2-7.8,29-9.9c9.8-2.1,19.6-3.1,29.4-3.3
					c9.8-0.2,19.5,0.5,29,2.1c9.5,1.6,18.8,4.1,27.6,7.6c-18.9-1.8-37.4-0.6-55.2,3.2c-8.9,1.9-17.5,4.5-25.7,7.7
					c-8.2,3.3-16,7.2-22.7,12c-3.3,2.3-6.4,4.9-8.8,7.6c-2.4,2.7-4.2,5.4-5,7.7c-0.4,1.1-0.5,2.1-0.4,2.8c0,0.8,0.2,1.4,0.5,2
					c0.6,1.3,1.8,3.2,4.1,5.1c0.5,0.5,1.2,1,1.8,1.5l1.1,0.9l1.5,1.2c2,1.6,3.9,3.1,5.9,4.8c3.9,3.3,7.7,6.9,11.5,10.9
					c1.9,2,3.7,4.2,5.5,6.6c1.8,2.4,3.6,5,5.1,8c1.6,3,3,6.4,4,10.3c1,3.9,1.4,8.4,1,12.8c-0.4,4.5-1.8,8.7-3.5,12.3
					c-1.7,3.6-3.7,6.6-5.7,9.2c-4,5.2-7.9,8.9-11.5,12.4c-3.6,3.5-7,6.6-10,9.6c-3.1,3-5.8,5.9-8.2,8.9c-4.8,5.9-8.1,11.8-10.1,18
					c-2,6.2-2.6,13-2.2,20.3c0.1,0.9,0.1,1.8,0.2,2.8l0.3,3.4l0.7,6.8l1.3,13.6c0.9,9,1.9,18,3,26.9c0.6,4.4,1.1,8.8,1.9,13.1
					c0.7,4.3,1.4,8.5,2.3,12.5c0.4,2,0.9,3.9,1.4,5.7c0.3,0.9,0.5,1.7,0.8,2.6c0.3,0.8,0.5,1.6,0.8,2.3c0.5,1.4,1.1,2.6,1.1,2.8
					c0,0,0,0.1-0.1,0.1c-0.1,0-0.1-0.1-0.2-0.1c0,0-0.3-0.2-0.4-0.2c-0.1,0-0.1,0-0.3-0.1c-0.1-0.1-0.3-0.1-0.4-0.2
					c-0.2-0.1-0.2-0.1-0.5-0.2c-0.2-0.1-0.5,0-0.7,0.1c-0.1,0.1-0.3,0.2-0.4,0.3c-0.2,0.1-0.3,0.2-0.5,0.3c-0.2,0.1-0.4,0.3-0.5,0.5
					c-0.2,0.2-0.3,0.4-0.5,0.7c-0.2,0.3-0.4,0.5-0.5,0.8c-0.2,0.3-0.3,0.7-0.5,1c-0.1,0.2-0.1,0.4-0.2,0.6c-0.1,0.2-0.1,0.4-0.2,0.7
					c-0.1,0.4-0.2,0.9-0.3,1.4c0,0.2-0.1,0.4-0.1,0.8c0,0.3,0,0.6-0.1,0.9c0,0.6,0,1.3,0.1,1.9c0.1,0.6,0.2,1.2,0.3,1.8
					C504,648.1,504.3,648.9,504.6,649.6z"/>
			</g>
		</g>
		<g class="st10">
			<g>
				<path class="st1" d="M581.7,564c-0.9-2.8-1.2-5.1-1.3-7.1c-0.1-2.1,0.1-3.9,0.5-5.6c0.4-1.7,1-3.2,1.7-4.7
					c0.7-1.5,1.4-2.9,2.1-4.4c1.4-3,2.6-6,3.8-9c1.2-3,2.2-6,3.1-9.1c3.7-12.1,5.1-24.4,2.8-35.1l-0.5-2l-0.2-1l-0.3-0.9l-0.6-1.9
					l-0.8-1.8l-0.4-0.9l-0.5-1.1l-1-2.2c-0.7-1.4-1.4-2.9-2.2-4.3c-1.5-2.8-3.1-5.7-4.8-8.5c-1.7-2.8-3.5-5.6-5.3-8.4
					c-3.6-5.6-7.5-11.2-11.5-17.2c-2-3-3.9-6.1-5.8-9.5c-1.9-3.4-3.7-7-5.1-11.2c-0.7-2.1-1.3-4.4-1.6-6.8c-0.3-2.4-0.5-5-0.2-7.5
					c0.1-1.3,0.4-2.6,0.6-3.8c0.3-1.2,0.7-2.5,1.1-3.7l0.7-1.7l0.4-0.9l0.4-0.8c0.6-1.1,1.1-2.1,1.9-3.2c1.4-2.1,3-3.9,4.7-5.5
					c0.8-0.8,1.7-1.5,2.6-2.2c0.9-0.6,1.8-1.3,2.7-1.9c3.6-2.4,7.3-4.1,10.9-5.5c7.3-2.8,14.4-4.4,21.5-5.7c7.1-1.3,14-2.2,21-3
					c13.8-1.6,27.5-2.8,40.8-5.3c6.6-1.3,13.2-2.9,19.2-5.7c3-1.4,5.8-3.2,8.3-5.4c1.2-1.1,2.3-2.4,3.3-3.8c0.9-1.4,1.7-3,2.3-4.6
					c-0.2,1.7-0.6,3.4-1.3,5.1c-0.7,1.6-1.6,3.2-2.6,4.7c-2.1,2.9-4.9,5.4-7.8,7.5c-2.9,2.1-6.1,3.9-9.4,5.4
					c-3.2,1.5-6.6,2.9-9.9,4.1c-13.4,4.8-27.2,7.7-40.6,10.9c-6.7,1.6-13.3,3.2-19.8,5c-6.4,1.8-12.7,3.9-18.1,6.5
					c-5.5,2.6-10,6-11.8,9.4c-0.2,0.4-0.4,0.9-0.7,1.4l-0.2,0.4l-0.1,0.4l-0.2,0.7c-0.1,0.5-0.2,0.9-0.3,1.3c0,0.4-0.1,0.9-0.1,1.3
					c-0.1,0.9,0.1,1.8,0.3,2.8c0.3,1,0.6,2.1,1.1,3.2c0.9,2.3,2.3,4.8,4,7.4c1.6,2.6,3.5,5.2,5.5,7.9c3.9,5.4,8.3,10.9,12.4,16.8
					c4.1,5.9,8.2,12,11.7,18.5c0.9,1.6,1.8,3.3,2.6,4.9l1.2,2.5l0.6,1.3l0.6,1.5l1.2,2.9l1,3l0.5,1.5l0.4,1.5l0.7,3.1
					c1.6,8.2,1.6,16.5,0.4,24.3c-1.2,7.8-3.4,15.2-6.2,22.2c-2.8,7-6.2,13.6-10,19.8c-1,1.6-1.9,3.1-2.9,4.6c-1,1.5-2.2,3-3.6,4.2
					c-0.7,0.6-1.5,1.2-2.4,1.7c-0.4,0.3-0.9,0.5-1.4,0.7c-0.4,0.2-1,0.4-1.5,0.6C587,563.5,584.7,564.1,581.7,564z"/>
			</g>
		</g>
		<g class="st12">
			<g>
				<path class="st1" d="M559.6,577.9c-1.9,1.5-3.7,2.6-5.2,3.4c-0.7,0.4-1.5,0.8-2.2,1.2l-1,0.4l-0.5,0.2l-0.4,0.2
					c-0.6,0.2-1.2,0.5-1.7,0.6l-0.8,0.2c-0.3,0.1-0.5,0.1-0.7,0.1c-1,0.2-1.8,0.3-2.5,0.2c-1.4-0.1-2.4-0.6-2.9-1.4
					c-0.6-0.8-1.2-1.6-1.8-2.3c-2.3-3.2-4.4-6.5-6.3-10c-3.7-6.9-6.4-14.6-7.7-22.7c-1.3-8-1.1-16.4,0.6-24.2
					c0.8-3.9,2-7.7,3.4-11.3l1.1-2.7c0.2-0.4,0.4-0.9,0.6-1.3l0.6-1.2l1.2-2.4l1.3-2.4c3.5-6.3,7.7-12.1,12-17.2
					c2.2-2.6,4.4-4.9,6.4-7.1c2.1-2.2,3.9-4.1,5.2-5.9c1.4-1.8,2.3-3.2,2.8-5.2c0.6-2,0.5-4.5,0.1-7.3c-0.4-2.8-1.2-5.7-2.2-8.7
					c-0.9-3-2.1-6-3.2-9.1l0.8-0.6c2.7,1.9,5.2,4,7.6,6.3c1.2,1.1,2.4,2.4,3.5,3.7c1.1,1.3,2.2,2.7,3.2,4.2c1,1.5,2,3.1,2.8,4.9
					c0.4,0.9,0.7,1.9,1.1,2.8c0.3,1,0.6,2,0.8,3.1c0.8,4.3,0.3,9.1-0.9,13c-1.2,4-2.8,7.3-4.2,10.4c-1.5,3-2.9,5.8-4.1,8.5
					c-2.5,5.3-4.6,10.4-6.2,15.6l-0.6,1.9l-0.6,2l-0.3,1c-0.1,0.3-0.1,0.6-0.2,0.9l-0.4,1.8c-0.4,2.4-0.8,4.7-0.9,7
					c-0.1,2.3-0.1,4.5,0.1,6.7c0.2,2.2,0.6,4.4,1.1,6.5c0.5,2.1,1.3,4.3,2.1,6.4c0.9,2.1,1.9,4.2,3,6.2c1.2,2,2.5,4,3.9,5.9
					c0.4,0.5,0.7,0.9,1.1,1.4c0.4,0.4,0.5,1.1,0.1,2.2c-0.2,0.5-0.5,1.2-0.9,2l-0.3,0.6L567,567c-0.2,0.4-0.6,0.9-0.9,1.5l-0.2,0.4
					l-0.3,0.4l-0.6,0.9l-1.4,2l-3.5,5.1L559.6,577.9z"/>
			</g>
		</g>
		<g>
			<g>
				<path class="st1" d="M556.2,821.6c-0.2,0.4-0.4,0.7-0.5,1.1l-7.2,20.2l-8.4,23.4c-5.3-2.2-21.6-10-35.4-26.5
					c-3.7-4.4-7.4-9.7-10.7-15.8c-1-1.8-1.9-3.7-2.7-5.6h0c-2.9-6.5-5.2-13.7-6.5-21.9c-1.6-9.9-1.8-21,0.1-33.6
					c0.9-6,2.4-12.4,4.4-19.1c1.2-3.9,3.3-7.3,6-10c6-5.9,14.9-8.4,23.5-5.8c12.5,3.8,19.6,17,15.8,29.5
					c-6.3,20.9-4.5,37.9,5.4,50.6C545.7,815.5,552.7,819.8,556.2,821.6z"/>
				<path class="st2" d="M541.6,869.7l-2.4-1c-4.9-2.1-22.1-10.2-36.4-27.2c-4.2-5-7.9-10.4-10.9-16.2c-0.8-1.4-1.5-2.8-2.1-4.3h0
					l-0.7-1.5c-3.2-7.1-5.4-14.7-6.7-22.5c-1.8-10.8-1.7-22.4,0.1-34.3c1-6.3,2.5-12.9,4.5-19.4c1.3-4.2,3.6-8,6.6-11
					c6.8-6.7,16.8-9.2,26-6.4c13.8,4.2,21.6,18.8,17.5,32.6c-6.1,20.1-4.4,36.4,4.9,48.3c5.3,6.8,12,10.9,15.4,12.7l2.3,1.2
					l-1.3,2.3c-0.1,0.2-0.2,0.4-0.3,0.7L541.6,869.7z M493.2,816.5l0.4,1c0.8,1.9,1.7,3.7,2.7,5.5c2.9,5.4,6.4,10.6,10.4,15.3
					c11.8,14,25.6,21.7,32.1,24.7l14.4-40.3c-4-2.3-10-6.5-15-12.9c-10.4-13.3-12.4-31.1-5.8-52.9c3.4-11.2-3-23-14.1-26.4
					c-7.4-2.2-15.5-0.3-21,5.2c-2.5,2.5-4.3,5.5-5.4,8.9c-1.9,6.4-3.4,12.7-4.3,18.8c-1.8,11.4-1.8,22.5-0.1,32.8
					C488.4,803.2,490.4,810,493.2,816.5z"/>
			</g>
			<g>
				<path class="st1" d="M723.8,547.2l-7.7,20.5l-35.5,26l-49.7-5.9l-26,24.9l-46.2-2.4l-45-3.6h-2.1c17.7-27.1,41.8-49.4,70-64.8
					c4.3-2.3,8.6-4.5,13.1-6.5c24.7-11.1,52.1-17.1,80.6-16.6C693.1,525.6,709.5,535.3,723.8,547.2z"/>
				<path class="st2" d="M605.8,615.2l-47.2-2.4l-45-3.5H507l2.5-3.9c17.9-27.4,42.4-50.1,70.8-65.6c4.3-2.3,8.8-4.6,13.3-6.6
					c25.9-11.6,53.3-17.3,81.7-16.9l0.4,0l0.4,0.2c17.9,6.8,34.4,16.5,49.2,28.8l1.4,1.1l-8.6,22.9l-36.9,27.1l-49.5-5.9
					L605.8,615.2z M516.2,604.4l42.7,3.4l45,2.3l26.1-24.9l49.9,5.9l34.1-25l6.8-18.1c-13.9-11.3-29.4-20.3-46.1-26.7
					c-27.5-0.4-54,5.2-79.1,16.4c-4.4,2-8.7,4.1-12.9,6.4C556.3,558.6,533.4,579.3,516.2,604.4z"/>
			</g>
			<g>
				<path class="st4" d="M786.6,693.9c-4,55.9-34.1,103.7-77.4,132.5l-8.4-14.9l-16.6-2.4l3.3-21l0.2-1.5l8.3-18.9l7.8-15.5
					c1.6,0.6,3.4,1,5.2,1.2c9.7,0.7,18.1-6.4,18.8-15.8c0.4-4.9-1.5-9.6-4.7-12.9l7.3-7.8l26-18.9l-0.4-7.6l-0.8-14.9l-16.6-8.3
					h-22.5l-16.6,22.5l-24.9,8.3l-15.4-13l7.1-16.6l4.7-18.9l17.8-24.9l20.1-9.5l24.9-7.1l22.5,2.4l6.7-17
					C780.4,622.6,789.2,657.3,786.6,693.9z"/>
				<path class="st2" d="M708.5,829.2l-9-15.9l-17.6-2.5l3.9-24.7l8.4-19.3l8.6-17.2l1.7,0.7c1.5,0.6,3,0.9,4.6,1
					c4.2,0.3,8.2-1,11.4-3.6c3.1-2.6,5-6.3,5.3-10.3c0.3-4.2-1.2-8.3-4.2-11.4l-1.3-1.4l8.8-9.5l25.2-18.3l-1.1-20.2l-15.1-7.6h-21
					l-16.3,22.2l-26.5,8.8l-17.4-14.7l7.6-17.8l4.8-19.1l18.3-25.6l20.9-9.8l25.2-7.2l21.4,2.2l7.6-19.4l2.1,3.5
					c18.1,30.8,26.3,66,23.8,101.8l0,0c-4,54.8-32.5,103.6-78.3,134L708.5,829.2z M686.5,807.4l15.5,2.2l7.8,13.9
					c43.7-29.8,70.9-77,74.8-129.8c2.4-33.6-4.9-66.7-21.2-95.9l-5.7,14.6l-23.6-2.5l-24.3,7l-19.5,9.2L673,650.2l-4.7,18.9
					l-6.5,15.2l13.4,11.3l23.2-7.7l16.8-22.8h24l18,9l1.3,24.7l-26.8,19.5l-5.9,6.4c2.9,3.7,4.4,8.4,4,13c-0.4,5.1-2.8,9.7-6.7,13.1
					c-4,3.3-9,4.9-14.2,4.6c-1.4-0.1-2.7-0.3-4.1-0.7l-7,13.9l-8.2,18.7L686.5,807.4z"/>
			</g>
			<g>
				<path class="st7" d="M671.2,649.3l17.8-24.9l20.1-9.5l24.9-7.1l22.5,2.4l6.7-17c-10.3-17.5-23.6-33.1-39.3-46.1l-7.7,20.5
					l-35.5,26l-49.7-5.9l-26,24.9l-46.2-2.4l-45-3.6h-2.1c-17.9,27.3-29.3,59.6-31.8,94.7c-1.5,21.3,0.3,42,5.1,61.7
					c0.9-6,2.4-12.4,4.4-19.1c1.2-3.9,3.3-7.3,6-10c6-5.9,14.9-8.4,23.5-5.8c12.5,3.8,19.6,17,15.8,29.5
					c-6.3,20.9-4.5,37.9,5.4,50.6c5.7,7.3,12.7,11.5,16.2,13.4c1.9-3.6,6.3-5.4,10.2-3.9l5.4,1.9c2.3,0.8,4.1,2.6,5,4.8
					c11-8,25.5-10.9,39.3-6.5l4,1.2c15.1,4.8,25.3,18,27.1,32.9c22.4-4.5,43.4-13.3,61.9-25.6l-8.4-14.9l-16.6-2.4l3.3-21l0.2-1.5
					l8.3-18.9l7.8-15.5c1.6,0.6,3.4,1,5.2,1.2c9.7,0.7,18.1-6.4,18.8-15.8c0.4-4.9-1.5-9.6-4.7-12.9l7.3-7.8l26-18.9l-0.4-7.6
					l-0.8-14.9l-16.6-8.3h-22.5l-16.6,22.5l-24.9,8.3l-15.4-13l7.1-16.6L671.2,649.3z M660.5,713.2l6.7,11.5l13.4,22.8l-4.7,18.9
					l-14.2,10.7l-10.7-16.6l-16.6-23.7l3-11.3l2.9-11.2L660.5,713.2z"/>
			</g>
			<g>
				<g>
					<path class="st4" d="M577,830.4l-7,19.6l-9.8,27.4c-0.4,1.2-1.1,2.2-2,3.1c-2.2,2.2-5.6,3.1-8.8,2l-5.5-2
						c-4.4-1.6-6.7-6.4-5.1-10.8l1.2-3.4l8.4-23.4l7.2-20.2c0.1-0.4,0.3-0.8,0.5-1.1c1.9-3.6,6.3-5.4,10.2-4l5.4,1.9
						c2.3,0.8,4.1,2.6,5,4.8C577.6,826.2,577.7,828.4,577,830.4z"/>
					<path class="st2" d="M552.3,885c-1.2,0-2.3-0.2-3.5-0.6l-5.5-2c-5.4-1.9-8.2-7.9-6.3-13.3l16.8-47c0.2-0.5,0.4-1,0.7-1.5
						c2.4-4.5,7.8-6.6,12.7-4.8l5.4,1.9c2.8,1,5,3.2,6.1,5.9c1,2.4,1,5,0.2,7.4l-16.8,47c-0.5,1.5-1.3,2.7-2.4,3.8
						C557.7,883.9,555,885,552.3,885z M563.7,819.2c-2.3,0-4.5,1.3-5.7,3.4c-0.2,0.3-0.3,0.6-0.4,0.9l-16.8,47
						c-1.2,3.3,0.6,7,3.9,8.2l5.5,2c2.3,0.8,5,0.2,6.7-1.5c0.7-0.7,1.2-1.5,1.5-2.3l16.8-47c0.5-1.5,0.5-3.1-0.1-4.6
						c-0.7-1.7-2.1-3-3.8-3.6l-5.4-1.9C565.1,819.3,564.4,819.2,563.7,819.2z"/>
				</g>
			</g>
			<g>
				<path class="st4" d="M645.7,868.2l-3.6,11.4c-4.3,13.7-19.1,21.4-32.9,17.1l-49.3-15.6c-0.6-0.2-1.1-0.4-1.6-0.7
					c0.9-0.8,1.5-1.9,2-3.1L570,850l7-19.6c0.7-2,0.6-4.1-0.1-6c11-8,25.5-10.9,39.3-6.5l4,1.3c15.1,4.8,25.3,18,27.1,32.9
					C647.9,857.3,647.4,862.8,645.7,868.2z"/>
				<path class="st2" d="M617.1,900c-2.8,0-5.7-0.4-8.5-1.3l-49.3-15.6c-0.7-0.2-1.4-0.5-2-0.9l-2.3-1.3l1.9-1.9
					c0.7-0.7,1.2-1.5,1.5-2.3l16.8-47c0.5-1.5,0.5-3.1-0.1-4.6l-0.6-1.4l1.3-0.9c11.9-8.7,27.2-11.2,41.1-6.8l4,1.3
					c15.4,4.9,26.6,18.4,28.4,34.5c0.7,5.8,0.1,11.5-1.6,17.1v0l-3.6,11.4c-2.3,7.2-7.2,13-13.9,16.5C626,898.9,621.5,900,617.1,900
					z M561.4,879.6l48.4,15.3c6.1,1.9,12.7,1.4,18.4-1.6c5.8-3,10-8,11.9-14.2l3.6-11.4c1.6-5,2.1-10.2,1.5-15.4
					c-1.7-14.5-11.8-26.8-25.7-31.2l-4-1.3c-12.2-3.9-25.7-1.8-36.4,5.4c0.5,1.9,0.4,4-0.3,5.9l-16.8,47
					C561.9,878.6,561.7,879.1,561.4,879.6z"/>
			</g>
			<g>
				<path class="st13" d="M691.1,790.8c-15,0-27-5.9-27.8-6.3l2.3-4.5c0.3,0.1,27,13.3,49.3-0.9l2.7,4.2
					C708.8,789,699.5,790.8,691.1,790.8z"/>
			</g>
			<g>
				<path class="st13" d="M709.9,756.1c-1.2,0-2.4-0.1-3.6-0.4c-8.4-1.8-13-9.4-13.2-9.7l4.3-2.6l-2.1,1.3l2.1-1.3
					c0,0.1,3.8,6.1,10,7.4c3.8,0.8,8-0.3,12.2-3.3c4.2-2.9,6.3-6.4,6.3-10.3c-0.1-6.3-5.4-12.1-6.6-12.9c0,0,0.2,0.1,0.5,0.2
					l1.4-4.8c2.2,0.6,8.3,7.5,9.5,14.8c0.8,4.7,0,11.4-8.2,17.1C718.2,754.7,714,756.1,709.9,756.1z"/>
			</g>
			<g>
				<path class="st13" d="M648.6,729.4c-19.2,0-31.7-13-32.2-13.6l3.6-3.4l-1.8,1.7l1.8-1.7c0.1,0.1,13.1,13.5,31.9,11.9
					c21.5-1.9,28.4-12.2,28.7-12.7l4.2,2.7c-0.8,1.3-8.9,12.9-32.5,14.9C651.1,729.4,649.9,729.4,648.6,729.4z"/>
			</g>
			<g>
				<path class="st13" d="M730.5,705.5c-9.4,0-15.8-4.2-16.2-4.4l2.8-4.2c0.5,0.3,12.6,8.1,27.6-0.3c14.9-8.4,13.6-20.5,13.5-20.6
					l5-0.6c0.1,0.6,1.8,15.6-16.1,25.6C741,704.3,735.3,705.5,730.5,705.5z"/>
			</g>
		</g>
		<g class="st14">
			<ellipse class="st15" cx="480.2" cy="459.4" rx="8.2" ry="9.7"/>
		</g>
		<g class="st16">
			<ellipse class="st15" cx="489.7" cy="468.1" rx="8.2" ry="9.7"/>
		</g>
		<g class="st14">
			
				<ellipse transform="matrix(0.2169 -0.9762 0.9762 0.2169 62.6621 971.5891)" class="st15" cx="636.9" cy="446.7" rx="6.7" ry="5.3"/>
		</g>
		<g class="st14">
			
				<ellipse transform="matrix(0.2169 -0.9762 0.9762 0.2169 -15.0779 969.3784)" class="st15" cx="596.7" cy="494.1" rx="6.7" ry="5.3"/>
		</g>
		<g class="st14">
			
				<ellipse transform="matrix(0.9734 -0.2292 0.2292 0.9734 -94.038 151.8103)" class="st15" cx="606.4" cy="480.7" rx="8.2" ry="13.1"/>
		</g>
		<g class="st14">
			
				<ellipse transform="matrix(0.7071 -0.7071 0.7071 0.7071 -6.5885 554.1647)" class="st15" cx="665.6" cy="285" rx="13.1" ry="8.2"/>
		</g>
		<g class="st14">
			<ellipse transform="matrix(0.5 -0.866 0.866 0.5 -46.7634 670.4252)" class="st15" cx="557.2" cy="375.7" rx="5.3" ry="6.7"/>
		</g>
		<g class="st10">
			<ellipse transform="matrix(0.5 -0.866 0.866 0.5 9.5278 620.6115)" class="st15" cx="542.2" cy="302.1" rx="6.7" ry="5.3"/>
		</g>
		<g class="st14">
			<ellipse transform="matrix(0.5 -0.866 0.866 0.5 -7.4766 612.2038)" class="st15" cx="526.4" cy="312.6" rx="6.7" ry="5.3"/>
		</g>
		<g class="st14">
			
				<ellipse transform="matrix(0.4685 -0.8835 0.8835 0.4685 -47.0963 546.8702)" class="st15" cx="431" cy="312.6" rx="8.5" ry="10.8"/>
		</g>
		<g class="st10">
			
				<ellipse transform="matrix(0.4685 -0.8835 0.8835 0.4685 -50.5711 558.4562)" class="st15" cx="438.8" cy="321.3" rx="8.5" ry="10.8"/>
		</g>
		<g class="st14">
			
				<ellipse transform="matrix(0.6528 -0.7575 0.7575 0.6528 -238.2092 533.1518)" class="st15" cx="462.5" cy="526.4" rx="6.7" ry="5.3"/>
		</g>
		<g class="st14">
			
				<ellipse transform="matrix(0.6528 -0.7575 0.7575 0.6528 -244.7852 536.1658)" class="st15" cx="462.5" cy="535.1" rx="6.7" ry="5.3"/>
		</g>
		<g>
			<polygon class="st15" points="441,364 433.8,362.8 428.8,368.1 427.7,360.9 421.1,357.8 427.6,354.5 428.5,347.3 433.7,352.4 
				440.8,351.1 437.5,357.6 			"/>
		</g>
		<g>
			<polygon class="st15" points="616.2,421.8 622.5,415.6 620.9,406.9 628.8,411 636.6,406.8 635.1,415.5 641.5,421.6 632.8,423 
				628.9,430.9 624.9,423 			"/>
		</g>
		<g>
			<polygon class="st15" points="509.4,533.9 510.7,525.5 504.5,519.6 512.9,518.2 516.5,510.5 520.4,518.1 528.9,519.2 
				522.9,525.2 524.5,533.6 516.9,529.8 			"/>
		</g>
		<g>
			<polygon class="st15" points="669.9,311.3 677.2,303.4 674.9,292.8 684.7,297.4 694,291.9 692.7,302.7 700.9,309.8 690.2,311.9 
				685.9,321.9 680.6,312.4 			"/>
		</g>
		<g>
			<polygon class="st15" points="437.3,440.8 443.6,433.8 441.4,424.6 450,428.4 458,423.5 457,432.9 464.2,439 455,440.9 
				451.4,449.6 446.7,441.5 			"/>
		</g>
		<g>
			<polygon class="st15" points="471,590.7 475.9,584 473.1,576.2 481,578.8 487.6,573.7 487.6,582 494.4,586.7 486.5,589.3 
				484.1,597.2 479.3,590.5 			"/>
		</g>
	</g>
</g>
</svg>
