<?xml version="1.0" encoding="utf-8"?>
<!-- Generator: Adobe Illustrator 22.0.1, SVG Export Plug-In . SVG Version: 6.00 Build 0)  -->
<svg version="1.1" id="Ebene_1" xmlns="http://www.w3.org/2000/svg" xmlns:xlink="http://www.w3.org/1999/xlink" x="0px" y="0px"
	 viewBox="0 0 846.8 664.1" style="enable-background:new 0 0 846.8 664.1;" xml:space="preserve">
<style type="text/css">
	.st0{fill:#030405;}
	.st1{fill:#253654;}
	.st2{fill:#4E789B;}
	.st3{fill:#182C49;}
	.st4{fill:#859DC1;}
	.st5{fill:#253654;stroke:#4E789B;stroke-width:4;stroke-miterlimit:10;}
	.st6{fill:#151D28;}
	.st7{fill:#A2C8DD;}
</style>
<g>
	<g>
		<path class="st0" d="M712.9,625.3c0,21.4-135.4,38.8-302.5,38.8s-302.5-17.4-302.5-38.8c0-8,18.7-15.4,50.9-21.6
			c0.7,0.9,1.7,1.6,2.8,2.1l112.9,42c3.3,1.2,7.1-0.5,8.4-3.8l19.2-51.5c2.7,0.3,5.3-1.2,6.5-3.7c31.8-1.5,66.1-2.3,101.9-2.3
			c55.6,0,107.6,1.9,152.4,5.3l-0.3,3c-1.8,21.2,14.1,40.1,35.4,41.9l1.4,0.1c3.6,0.3,6.7-2.4,7-5.9l3-34.8
			C672.8,603.1,712.9,613.6,712.9,625.3z"/>
	</g>
	<g>
		<path class="st1" d="M132,447.4c-0.5,2.4-1.9,4.4-3.6,5.6c-1.2,0.8-2.6,1.4-4,1.5c-0.7,0.1-1.4,0-2.1-0.1l-12.3-2.7l-60.9-13.3
			l-9.3-2c-4.3-0.9-7-5.6-5.9-10.4c0.5-2.4,1.9-4.4,3.6-5.6c1.8-1.3,3.9-1.8,6.1-1.3l7.4,1.6l63.2,13.8l11.9,2.6
			C130.4,438,133,442.7,132,447.4z"/>
		<path class="st2" d="M123.8,456.8c-0.7,0-1.4-0.1-2-0.2l-82.5-18c-5.6-1.2-9-7.1-7.7-13.1c0.6-2.9,2.2-5.3,4.5-7
			c2.3-1.7,5.2-2.3,7.9-1.7l82.5,18c2.5,0.6,4.7,2.1,6.2,4.4c1.6,2.5,2.2,5.7,1.5,8.7c-0.6,2.9-2.2,5.3-4.5,7
			c-1.6,1.1-3.3,1.8-5.1,1.9C124.3,456.8,124.1,456.8,123.8,456.8z M42,421.2c-1.1,0-2.2,0.4-3.2,1.1c-1.4,1-2.3,2.5-2.7,4.2
			c-0.8,3.5,1.1,6.9,4.2,7.6l82.5,18c0.5,0.1,1,0.1,1.4,0.1c1-0.1,2-0.4,2.8-1.1c1.4-1,2.3-2.5,2.7-4.2l0,0c0.4-1.8,0.1-3.7-0.9-5.2
			c-0.8-1.2-2-2.1-3.3-2.4l-82.5-18C42.7,421.3,42.4,421.2,42,421.2z"/>
	</g>
	<g>
		<path class="st3" d="M611.8,312.1c3.8,0.5,7.4,0.9,11,1.2c-5,23.1-13.1,45.2-24,65.8l-15.3-7l-0.8,14.6L569.7,398
			c0,0-11.3-4-12.9-6.5c-1.6-2.4-25.9-8.1-25.9-8.1l-8.9-10.5l1.6-8.9l-4.9-19.4l8.9-19.4l6.5-18.6l-19.4-12.1v15.4l-8.1,15.4
			l-14.6-1.6l-4-11.3l8.9-14.6l-42.1-8.9l-2.4,15.4l-1.6,16.2l-18.6,13.8l0.8-9.7l2.4-29.9l-8.1,14.6l-15.2,1.1
			c-0.3-3.7-1.5-7.4-3.6-10.8c-8.5-13.5-14.1-31.2-15.7-49.8c0-0.4-0.1-0.8-0.1-1.2l1.5-0.8L395,233l12.1-12.1l7.3,4.9v10.5l17-1.6
			l8.9-16.2l-5.7-21l-13.8-7.3l-20.5-1.7c-0.9-8.9-6.7-16.9-15.6-20.3c-12.6-4.8-26.7,1.5-31.5,14.1c-1.9,4.9-3.4,9.9-4.8,15
			l-18.2,14.7l-11.3,3.2l-7.3-3.2l-10.5-12.1l9.7-17l-8.1-7.3l9.7-29.1l20.2-19.4l18.6-15.4l17.8-1.6l17.8-17.8l22.6-4h38.8l30.7,4
			l12.9,11.3l21-10.5l8.9-8.9l18.6-13.8h4.8c45.6,41.8,76.3,100.1,82.1,166.6c0.3,4,0.6,7.9,0.8,11.9c-2.2-0.2-4.5-0.4-6.9-0.8
			c-21-2.7-39.8-9.2-40.4-9.4c-16.8-5.9-35.3,2.9-41.2,19.8c-5.9,16.9,2.9,35.3,19.8,41.3C560.5,300.2,584.1,308.4,611.8,312.1z"/>
		<path class="st2" d="M570.2,400.6l-1.3-0.5c-3.5-1.3-11.9-4.5-14-7.2c-1.9-1.4-14.1-4.9-24.6-7.3l-0.7-0.2l-10.1-11.9l1.7-9.5
			l-4.9-19.7l9.2-20l5.8-16.8l-14.3-9v11.8l-9.1,17.3l-17.6-2l-4.9-13.7l7.8-12.7l-36.5-7.7l-2,12.9l-1.7,17.1l-23.5,17.4l2.8-34.1
			l-3.5,6.3l-18.8,1.3l-0.2-2.3c-0.3-3.5-1.4-6.7-3.3-9.7c-8.7-13.8-14.4-31.9-16-50.8l-0.2-2.8l1.7-0.9l0.8-14.1l14.1-14.1l9.9,6.6
			v9.2l13.2-1.3l7.9-14.3l-5.2-19.2l-12.4-6.6l-21.9-1.8l-0.2-1.9c-0.9-8.3-6.3-15.4-14.1-18.4c-11.4-4.3-24.2,1.4-28.6,12.8
			c-1.8,4.7-3.4,9.7-4.7,14.8l-0.2,0.7L331.4,214l-12.6,3.6l-8.5-3.8l-11.9-13.8l9.6-16.8l-7.8-7l10.4-31.1l20.8-19.9l19.2-15.8
			l17.7-1.6l17.7-17.7l23.8-4.2l39.1,0l31.4,4.1l12.3,10.8l19.3-9.7l8.9-8.9l19.2-14.2h6.4l0.7,0.6c47.8,43.8,77.2,103.5,82.8,168.1
			c0.3,3.9,0.6,7.9,0.8,12l0.1,2.6l-2.6-0.2c-2.2-0.2-4.6-0.4-7-0.8c-21.5-2.8-40.7-9.4-40.8-9.5c-15.6-5.5-32.8,2.8-38.3,18.4
			c-5.5,15.6,2.7,32.8,18.4,38.3c1,0.3,24.6,8.5,51.9,12.2c3.8,0.5,7.4,0.9,10.9,1.2l2.6,0.2l-0.6,2.6c-5,23.1-13.1,45.4-24.2,66.3
			l-1,1.9l-14.2-6.5l-0.7,12.2L570.2,400.6z M532.2,381.3c16.2,3.8,25.1,6.8,26.5,8.9c0.8,1,5.9,3.4,10.5,5.1l11.2-9.8l0.9-17
			l16.4,7.5c10-19.2,17.4-39.6,22.2-60.7c-2.7-0.3-5.6-0.6-8.5-1h0c-27.2-3.7-50.2-11.5-52.8-12.4c-18-6.3-27.5-26.2-21.2-44.2
			c6.3-18,26.2-27.5,44.2-21.2c0.2,0.1,18.9,6.5,39.9,9.3c1.5,0.2,2.9,0.4,4.2,0.5c-0.2-3.1-0.4-6.1-0.6-9.1
			C619.7,174,591,115.7,544.5,72.7h-3.1l-17.9,13.2l-9,9l-22.8,11.4l-13.6-11.9l-29.9-3.9h-38.5l-21.7,3.9l-17.9,17.9l-17.9,1.6
			l-18,14.9l-19.7,19l-9,27.1l8.3,7.5l-9.8,17.2l9.1,10.5l6,2.7l10.1-2.9l17.2-13.9c1.3-5,2.9-9.9,4.7-14.5
			c5.3-13.8,20.7-20.7,34.5-15.5c8.9,3.4,15.2,11,16.8,20.3l19.2,1.6l15.1,8l6.2,22.9l-9.9,18.1l-20.7,2v-11.8l-4.7-3.1L397.3,234
			l-0.8,15l-1.3,0.7c1.6,18.1,7.1,35.3,15.3,48.4c1.9,3,3.1,6.2,3.7,9.5l11.8-0.8l12.7-22.8l-3.7,45.2l13.7-10.1l1.5-15.3L453,286
			l47.6,10.1l-10,16.4l3.2,8.9l11.6,1.3l7.1-13.5v-19l24.5,15.3l-7.2,20.5l-8.6,18.7l4.8,19.1l-1.5,8.3L532.2,381.3z M554.9,392.8
			C554.9,392.8,554.9,392.8,554.9,392.8C554.9,392.8,554.9,392.8,554.9,392.8z"/>
	</g>
	<g>
		<path class="st2" d="M241.9,351.8c-9.2,0-17.7-4.7-22.6-12.5c-12.9-20.6-21-45.7-23.4-72.5c-1-11-0.9-21.9,0.1-32.5l-15.8-2.3
			l-19.9-24.3L164,194l13.9-20.8l53.3,2.5l1,1.3c2.6,0.2,5.1,0.8,7.6,1.7c13.8,5.3,20.7,20.7,15.5,34.5c-1.2,3.1-2.3,6.5-3.1,9.9
			c-0.2,0.5-0.3,1-0.4,1.5c-2.8,11.7-3.6,24.3-2.5,37.5c1.6,18.2,7,35.5,15.4,48.7l0,0c7.8,12.5,4.1,29-8.4,36.9
			c-3.6,2.3-7.7,3.6-11.9,4C243.5,351.8,242.7,351.8,241.9,351.8z M182.7,227.6l18.4,2.7l-0.2,2.2c-1.2,11-1.3,22.4-0.3,33.8
			c2.3,26.2,10.1,50.5,22.7,70.5c4.4,7.1,12.4,11,20.7,10.3c3.5-0.3,6.8-1.4,9.8-3.3c10.3-6.5,13.4-20.2,7-30.5l0,0
			c-8.7-13.8-14.4-31.9-16-50.8c-1.2-13.7-0.3-26.8,2.6-39c0.1-0.5,0.3-1.1,0.4-1.7c0.9-3.5,2-7,3.3-10.3
			c4.3-11.4-1.4-24.2-12.8-28.5c-2.3-0.9-4.7-1.4-7.2-1.4l-1.1,0l-1-1.3l-48.6-2.3l-12,18l-2.8,10.6L182.7,227.6z M387.8,339.1
			c-9.2,0-17.7-4.7-22.6-12.5c-6.8-10.9-12.3-23-16.4-36.2c-2.7-8.8-4.7-18.1-6-27.5l0-0.2c-0.2-1.5-0.4-2.9-0.6-4.5
			c-0.2-1.4-0.3-2.8-0.4-4.2c-1.7-20-0.2-39.2,4.4-57.3c1.4-5.3,3-10.4,4.9-15.3c5.3-13.8,20.7-20.7,34.5-15.5
			c9.5,3.6,16,12.1,17.1,22.2c0.4,4.2-0.1,8.4-1.6,12.3c-1.2,3.3-2.3,6.7-3.2,10.1c-0.1,0.3-0.1,0.6-0.2,0.9v0l-0.1,0.3
			c-2.7,11.3-3.6,23.5-2.6,36.3l0.1,1.2c1.6,18.2,7,35.5,15.4,48.7c2.3,3.6,3.6,7.6,4,11.8l0,0c0.7,8.1-2.3,16.2-8.2,21.8
			c-1.3,1.2-2.7,2.3-4.2,3.3c-3.6,2.3-7.7,3.6-11.9,4C389.4,339,388.6,339.1,387.8,339.1z M347.4,262.4c1.2,9.1,3.2,18,5.8,26.6
			c3.9,12.8,9.3,24.6,15.9,35.1c4.4,7.1,12.4,11,20.7,10.3c3.5-0.3,6.8-1.4,9.8-3.3c1.3-0.8,2.4-1.7,3.5-2.7
			c4.9-4.6,7.4-11.4,6.8-18.1l0,0c-0.3-3.5-1.4-6.7-3.3-9.7c-8.7-13.8-14.4-31.9-16-50.8l-0.1-1.3c-1-13.2-0.1-25.8,2.7-37.6v-0.1
			l0.1-0.3c0.1-0.3,0.2-0.6,0.2-1c0.9-3.7,2.1-7.3,3.4-10.7c1.3-3.3,1.7-6.7,1.3-10.2c-0.9-8.3-6.3-15.4-14.1-18.4
			c-11.4-4.3-24.2,1.4-28.6,12.8c-1.8,4.7-3.4,9.7-4.7,14.8c-4.6,17.6-6,36.3-4.3,55.8c0.1,1.4,0.3,2.7,0.4,4.1
			c0.2,1.6,0.3,3.1,0.6,4.5L347.4,262.4z"/>
	</g>
	<g>
		<path class="st1" d="M440.3,218.4l-8.9,16.2l-17,1.6v-10.5l-7.3-4.9L395,233l-0.8,14.6l-1.5,0.8c-1-13-0.1-25.6,2.7-37.1
			c0,0,0,0,0,0c0.1-0.4,0.2-0.8,0.3-1.2c0.9-3.6,2-7.1,3.3-10.4c1.4-3.7,1.9-7.6,1.5-11.3l20.5,1.7l13.8,7.3L440.3,218.4z"/>
		<path class="st2" d="M390.7,252l-0.3-3.5c-1-13.2-0.1-25.8,2.7-37.6v-0.1l0.1-0.3c0.1-0.3,0.2-0.6,0.2-1c0.9-3.7,2.1-7.3,3.4-10.7
			c1.3-3.3,1.7-6.7,1.3-10.2l-0.3-2.8l23.8,2l15.1,8l6.2,22.9l-9.9,18.1l-20.7,2v-11.8l-4.7-3.1L397.3,234l-0.8,15L390.7,252z
			 M406.9,217.9l9.9,6.6v9.2l13.2-1.3l7.9-14.3l-5.2-19.2l-12.4-6.6l-17.4-1.4c0,3.3-0.6,6.5-1.8,9.6c-1.2,3.3-2.3,6.7-3.2,10.1
			c-0.1,0.3-0.1,0.6-0.2,0.9v0l-0.1,0.3c-1.4,5.8-2.3,11.8-2.7,18L406.9,217.9z"/>
	</g>
	<g>
		<path class="st4" d="M446.6,13.9l-1.4,3.9L425,35.6c0,0-39.6,10.5-44.5,15.4c-4.9,4.9-7.3,14.6-7.3,14.6l-38,4L296.3,76
			c0,0-15.4,13.8-22.6,13.8S253.5,89,253.5,89H209l-12.1,22.6l-27.3-9.6c42.3-54.4,106.2-91.6,180.2-98.1
			C383.4,0.9,416.1,4.6,446.6,13.9z"/>
		<path class="st2" d="M198.2,115.2l-33.4-11.8l2.5-3.2c21.7-27.9,48.3-50.7,79.1-67.8C278.2,14.8,312.9,4.2,349.5,1
			c33.3-2.9,66.3,0.5,97.9,10.2l2.9,0.9l-2.7,7.4l-21.3,18.7l-0.7,0.2c-19.1,5.1-40.5,11.9-43.2,14.6c-4.2,4.2-6.5,13.1-6.5,13.2
			l-0.5,2l-39.9,4.3l-37.9,6.3c-3.8,3.3-16.5,13.9-23.9,13.9c-7,0-19.1-0.7-20.3-0.8h-42.7L198.2,115.2z M174.4,100.6l21.1,7.5
			l11.8-22l46.4,0c0.1,0,12.9,0.8,20,0.8c4.3,0,14.7-7.6,20.7-13l0.6-0.6l39.8-6.6l36.1-3.8c1-3.3,3.5-9.9,7.5-13.9
			c5-5,37.1-13.8,45.1-15.9l19.2-16.9l0.1-0.3C412.8,7,381.6,4,350,6.8C281.3,12.7,217.5,46.9,174.4,100.6z"/>
	</g>
	<g>
		<path class="st3" d="M183.1,360.8v23.5l-4.9,7.3l-0.8,18.6l-3,12.6c-9.7-11.7-18.3-24.2-25.8-37.5c-11.2-19.9-19.9-41.5-25.5-64.4
			c-3.1-12.7-5.3-25.8-6.5-39.2c-4.1-47.1,4.8-92.4,23.7-132.2l18.5,2.6l3.2,14.6L149.9,199l-0.8,12.9v11.3l-11.3,5.7l5.7,21
			l10.5,11.3l-8.1,21.8V296l6.5,3.2l19.4,10.5l8.9,18.6L183.1,360.8z"/>
		<path class="st2" d="M175.6,427.8l-3-3.6c-9.8-11.8-18.5-24.5-26.1-37.9c-11.5-20.4-20.2-42.2-25.7-65
			c-3.2-12.9-5.4-26.2-6.5-39.5c-4-45.9,4.3-92,23.9-133.4l0.7-1.5l21.8,3.1l3.7,16.8l-12.3,32.7l-0.8,12.5v12.7l-10.9,5.5l5,18.7
			l11.1,11.9l-8.4,22.8v11.1l5.2,2.6l20.1,10.9l9.4,19.7l2.5,33v24.2l-4.9,7.3l-0.8,18.4L175.6,427.8z M141.7,152
			c-18.8,40.2-26.7,85-22.8,129.5c1.1,13.1,3.3,26.2,6.4,38.8c5.5,22.3,14,43.8,25.3,63.8c6.6,11.8,14.2,23,22.7,33.6l1.9-7.9
			l0.8-19l4.8-7.2v-22.7l-2.4-31.8l-8.4-17.5l-18.8-10.2l-7.7-3.8v-14.8l7.7-20.9l-9.9-10.7l-6.3-23.4l11.7-5.9l0-10l0.8-13.3l12-32
			l-2.7-12.3L141.7,152z"/>
	</g>
	<g>
		<path class="st5" d="M583.5,372.1l-0.8,14.6L569.7,398c0,0-11.3-4-12.9-6.5c-1.6-2.4-25.9-8.1-25.9-8.1l-8.9-10.5l1.6-8.9
			l-4.9-19.4l8.9-19.4l6.5-18.6l-19.4-12.1v15.4l-8.1,15.4l-14.6-1.6l-4-11.3l8.9-14.6l-42.1-8.9l-2.4,15.4l-1.6,16.2l-18.6,13.8
			l0.8-9.7l2.4-29.9l-8.1,14.6l-15.2,1.1c0.7,7.3-2,14.7-7.5,19.9l3.3,13.8l-6.5,23.5l-32.4-4.9l-25.9-12.9l4-12.9l-0.8-17.8
			l-4-19.4l8.6-9.6c-2.7-8.7-4.6-17.8-5.9-27.1l-1.8,12.4l-6.5,9.7l-9.7-8.1l-6.5-10.5v-21l9.7,5.7l14.2,7.2
			c-0.2-1.4-0.3-2.8-0.4-4.2c-1.7-19.6-0.2-38.9,4.4-56.6l-18.2,14.7l-11.3,3.2l-7.3-3.2l-10.5-12.1l9.7-17l-8.1-7.3l9.7-29.1
			l20.2-19.4l18.6-15.4l17.8-1.6l17.8-17.8l22.6-4h38.8l30.7,4l12.9,11.3l21-10.5l8.9-8.9l18.6-13.8h4.8
			c-28.1-25.7-61.8-45.2-98.8-56.5l-1.4,3.9L425,35.6c0,0-39.6,10.5-44.5,15.4c-4.9,4.9-7.3,14.6-7.3,14.6l-38,4L296.3,76
			c0,0-15.4,13.8-22.6,13.8S253.5,89,253.5,89H209l-12.1,22.6l-27.3-9.6c-11.4,14.7-21.2,30.6-29.3,47.4l18.5,2.6l3.2,14.6
			L149.9,199l-0.8,12.9v11.3l-11.3,5.7l5.7,21l10.5,11.3l-8.1,21.8V296l6.5,3.2l19.4,10.5l8.9,18.6l2.4,32.4v23.5l-4.9,7.3
			l-0.8,18.6l-3,12.6c23.5,28.4,53,51.5,86.3,67.6c19.3,9.3,39.9,16.3,61.4,20.5c23.2,4.6,47.5,6.1,72.3,3.9
			c6.7-0.6,13.3-1.4,19.8-2.5l-20.8-19.6l-12.9-12.1L378,453l-4-34l8.1-12.9l17.8-8.9l29.1-0.8v-30.7l12.9-3.2l21-3.2l16.2-2.4
			l12.1,6.5l8.9,24.3l12.1,14.6l4,12.9l7.3,17l11,25.7c26.3-21.6,48.2-48.4,64.2-78.5L583.5,372.1z M255,345.7
			c-3.4,2.1-7.1,3.3-10.9,3.7c-8.8,0.8-17.8-3.3-22.8-11.3c-12.7-20.3-20.7-45-23-71.5c-1-11.6-0.9-23.2,0.3-34.3l-17.1-2.5
			l-18.6-22.6l3.2-12.1l12.9-19.4l51,2.4l1,1.3c2.7,0.1,5.3,0.6,8,1.6c12.6,4.8,18.9,18.9,14.1,31.5c-5.6,14.7-7.7,31.9-6.1,49.9
			c1.6,18.6,7.2,36.2,15.7,49.8C269.8,323.5,266.4,338.6,255,345.7z M361.9,469.1l-7.3,2.4l-1.6-12.1l1.6-12.9l8.1-0.8l1.6,4.9
			L361.9,469.1z"/>
	</g>
	<g>
		<g>
			<path class="st6" d="M255,345.7c-3.4,2.1-7.1,3.3-10.9,3.7c-8.8,0.8-17.8-3.3-22.8-11.3c-12.7-20.3-20.7-45-23-71.5
				c-1-11.6-0.9-23.2,0.3-34.3c1.4-13.1,4.4-25.7,8.8-37.3c3.8-10,13.5-16,23.6-15.7c2.7,0.1,5.3,0.6,8,1.6
				c12.6,4.8,18.9,18.9,14.1,31.5c-5.6,14.7-7.7,31.9-6.1,49.9c1.6,18.6,7.2,36.2,15.7,49.8C269.8,323.5,266.4,338.6,255,345.7z"/>
		</g>
	</g>
	<g>
		<g>
			<path class="st6" d="M404.7,330c-1.2,1.1-2.4,2.1-3.8,3c-3.4,2.1-7.1,3.3-10.9,3.7c-8.8,0.8-17.8-3.3-22.8-11.3
				c-6.8-10.7-12.2-22.8-16.1-35.6c-2.7-8.7-4.6-17.8-5.9-27.1v0c-0.2-1.5-0.4-3-0.6-4.6c-0.2-1.4-0.3-2.8-0.4-4.2
				c-1.7-19.6-0.2-38.9,4.4-56.6c1.3-5.2,2.9-10.2,4.8-15c4.8-12.6,18.9-18.9,31.5-14.1c8.9,3.4,14.7,11.4,15.6,20.3
				c0.4,3.7-0.1,7.5-1.5,11.3c-1.3,3.3-2.4,6.8-3.3,10.4c-0.1,0.4-0.2,0.8-0.3,1.2c0,0,0,0,0,0c-2.8,11.5-3.7,24.1-2.7,37.1
				c0,0.4,0.1,0.8,0.1,1.2c1.6,18.6,7.2,36.2,15.7,49.8c2.1,3.4,3.3,7,3.6,10.8C412.8,317.4,410.1,324.8,404.7,330z"/>
		</g>
	</g>
	<g>
		<path class="st7" d="M310.3,400.2c-14,0-25.9-9.9-27.1-23.2c-0.7-7.5,2.3-14.9,8-20.3l3.9,4.2c-4.4,4.2-6.7,9.8-6.2,15.5
			c0.9,10.9,11.5,18.8,23.4,17.8c9.5-0.8,17.4-7.1,19.5-15.6l5.6,1.4c-2.7,10.9-12.6,18.9-24.6,19.9
			C312,400.2,311.2,400.2,310.3,400.2z"/>
	</g>
	<g>
		<path class="st4" d="M395.7,210c-0.1,0.4-0.2,0.8-0.3,1.2c0,0,0,0,0,0c-2.1,7.4-8.5,13.1-16.6,13.8c-10.5,0.9-19.7-7-20.6-17.7
			c-0.9-10.7,6.8-20.1,17.2-21c10.5-0.9,19.7,7,20.6,17.7C396.2,206.1,396.1,208.1,395.7,210z"/>
		<path class="st2" d="M377.2,228c-5.2,0-10.1-1.8-14.1-5.3c-4.5-3.8-7.2-9.2-7.7-15.1c-1.1-12.3,7.8-23.1,19.9-24.1
			c5.8-0.5,11.5,1.3,16,5.2c4.5,3.8,7.2,9.2,7.7,15.1c0.2,2.3,0.1,4.6-0.4,6.8c-0.1,0.3-0.1,0.6-0.2,0.9v0.1l-0.1,0.4
			c-2.5,8.9-10,15.1-19.1,15.9C378.4,228,377.8,228,377.2,228z M377.1,189.2c-0.5,0-0.9,0-1.4,0.1c-8.9,0.8-15.4,8.8-14.6,17.9
			c0.4,4.4,2.4,8.4,5.7,11.2c3.3,2.8,7.5,4.2,11.8,3.8c6.5-0.6,11.9-5,13.9-11.4v0l0.1-0.4c0.1-0.3,0.2-0.6,0.2-0.9l0,0
			c0.4-1.6,0.5-3.4,0.3-5.1c-0.4-4.4-2.4-8.4-5.7-11.3C384.5,190.5,380.9,189.2,377.1,189.2z"/>
	</g>
	<g>
		
			<ellipse transform="matrix(0.9962 -8.696584e-02 8.696584e-02 0.9962 -19.505 32.5559)" class="st4" cx="363.9" cy="240.1" rx="9.5" ry="9.7"/>
		<path class="st2" d="M363.9,252.7c-6.4,0-11.8-5-12.4-11.5l0,0c-0.3-3.3,0.7-6.6,2.8-9.2c2.1-2.6,5.1-4.2,8.4-4.5
			c3.3-0.3,6.5,0.8,9.1,2.9c2.5,2.2,4.1,5.2,4.4,8.5c0.6,6.9-4.4,13-11.2,13.6C364.6,252.7,364.3,252.7,363.9,252.7z M357.3,240.7
			c0.3,3.7,3.6,6.5,7.2,6.2c3.6-0.3,6.3-3.6,6-7.4c-0.2-1.8-1-3.5-2.4-4.7c-1.4-1.2-3.1-1.7-4.8-1.6c-1.8,0.2-3.3,1-4.5,2.4
			C357.7,237.1,357.1,238.9,357.3,240.7L357.3,240.7z"/>
	</g>
	<g>
		
			<ellipse transform="matrix(0.9962 -8.696584e-02 8.696584e-02 0.9962 -18.1192 20.9403)" class="st4" cx="231.3" cy="218.4" rx="19" ry="19.4"/>
		<path class="st2" d="M231.3,240.7c-11.2,0-20.9-8.8-21.9-20.4v0c-1.1-12.2,7.8-23.1,19.9-24.1c5.8-0.5,11.5,1.3,16,5.2
			c4.5,3.8,7.2,9.2,7.7,15.1c1.1,12.2-7.8,23.1-19.9,24.1C232.6,240.7,231.9,240.7,231.3,240.7z M215.2,219.8
			c0.8,9.1,8.7,15.8,17.5,15.1c8.9-0.8,15.4-8.8,14.6-17.9c-0.4-4.4-2.4-8.4-5.7-11.3c-3.3-2.8-7.5-4.2-11.8-3.8
			C221,202.7,214.4,210.7,215.2,219.8L215.2,219.8z"/>
	</g>
	<g>
		
			<ellipse transform="matrix(0.9962 -8.696584e-02 8.696584e-02 0.9962 -21.1648 19.9201)" class="st4" cx="218" cy="252.9" rx="9.5" ry="9.7"/>
		<path class="st2" d="M218.1,265.5c-6.4,0-11.8-5-12.4-11.5c-0.3-3.3,0.7-6.6,2.8-9.2c2.1-2.6,5.1-4.2,8.4-4.5
			c3.3-0.3,6.5,0.8,9.1,2.9c2.5,2.2,4.1,5.2,4.4,8.5c0.3,3.3-0.7,6.6-2.8,9.2c-2.1,2.6-5.1,4.2-8.4,4.5
			C218.8,265.4,218.4,265.5,218.1,265.5z M218,246c-0.2,0-0.4,0-0.6,0c-1.8,0.2-3.3,1-4.5,2.4c-1.1,1.4-1.7,3.2-1.5,5
			c0.3,3.7,3.6,6.5,7.2,6.2c1.8-0.2,3.3-1,4.5-2.4c1.1-1.4,1.7-3.2,1.5-5c-0.2-1.8-1-3.5-2.4-4.7C221.1,246.6,219.6,246,218,246z"/>
	</g>
	<g>
		<g>
			<path class="st4" d="M737.7,246.2c-6.5,10.8-16.1,24.8-29.9,40.9c-13.1,15.4-32.3,24.1-57.2,26.3c-8.6,0.8-17.9,0.7-27.8-0.1
				c-3.6-0.3-7.2-0.7-11-1.2c-27.7-3.7-51.3-12-52.3-12.3c-16.9-5.9-25.7-24.4-19.8-41.3c5.9-16.8,24.4-25.7,41.2-19.8
				c0.5,0.2,19.4,6.6,40.4,9.4c2.5,0.3,4.8,0.6,6.9,0.8c20.4,1.7,28.9-2.2,30.4-3.8c8.5-10,14.9-18.7,19.5-25.7L737.7,246.2z"/>
			<path class="st2" d="M638,316.9c-5,0-10.1-0.2-15.4-0.7c-3.5-0.3-7.3-0.7-11.1-1.2c-27.3-3.7-50.3-11.6-52.9-12.5
				c-18.3-6.5-28-26.6-21.5-44.9c6.4-18.3,26.6-28,44.9-21.5c0.2,0.1,18.9,6.5,39.8,9.2c2.4,0.3,4.7,0.6,6.8,0.7
				c19,1.6,26.9-1.9,28-2.9c7.3-8.6,13.8-17.1,19.3-25.3l1.4-2.1l64.7,29.2l-1.7,2.8c-8.1,13.5-18.3,27.4-30.2,41.3
				c-13.6,15.9-33.5,25.1-59.1,27.3C646.7,316.7,642.4,316.9,638,316.9z M570.3,239.8c-12.2,0-23.6,7.6-27.8,19.7
				c-5.4,15.3,2.7,32.2,18,37.6c1,0.3,24.6,8.5,51.7,12.2c3.7,0.5,7.4,0.9,10.8,1.2c9.8,0.8,19,0.9,27.3,0.1
				c24.1-2.1,42.6-10.6,55.2-25.3c10.9-12.7,20.3-25.4,27.9-37.8L679.2,223c-5.3,7.8-11.4,15.8-18.4,23.9
				c-2.2,2.6-11.7,6.6-32.8,4.8c-2.2-0.2-4.6-0.4-7.1-0.8c-21.5-2.8-40.8-9.4-41-9.5C576.8,240.3,573.5,239.8,570.3,239.8z"/>
		</g>
	</g>
	<g>
		<g>
			<path class="st4" d="M148.6,385.2c-2.3,2.3-4.6,4.7-6.9,7.1c-17.7,18.9-25.6,33.6-27.5,42.2L51,420.7c5-22.9,19.8-47.5,44.1-73.3
				c10.2-10.9,20.4-20.1,27.9-26.5C128.7,343.7,137.4,365.3,148.6,385.2z"/>
			<path class="st2" d="M116.4,437.9l-68.8-15l0.6-2.8c5.2-23.4,20.3-48.6,44.9-74.7c10.7-11.4,21.2-20.8,28.2-26.8l3.6-3l1.1,4.5
				c5.5,22.3,14,43.7,25.2,63.7l1.1,1.9l-1.6,1.5c-2.5,2.4-4.7,4.8-6.9,7.1c-21.6,23.1-26,37.1-26.8,40.8L116.4,437.9z M54.5,418.5
				l57.6,12.6c3.4-10.9,13.2-25.5,27.4-40.7c1.7-1.9,3.5-3.7,5.5-5.7c-10.2-18.5-18.1-38.2-23.6-58.7c-6.6,5.8-15.4,13.9-24.2,23.3
				C74.4,373.7,60,396.9,54.5,418.5z"/>
		</g>
	</g>
	<g>
		<g>
			<path class="st4" d="M322.1,510.9l-21.8,62l-60.7-22.6l21.1-60C280,499.7,300.6,506.6,322.1,510.9z"/>
			<path class="st2" d="M302,576.6L236,552l23.1-65.7l2.9,1.4c19.3,9.3,39.7,16.2,60.7,20.3l3.3,0.6L302,576.6z M243.3,548.6
				l55.3,20.5l19.7-56.1c-19.3-4.1-38-10.4-55.9-18.7L243.3,548.6z"/>
		</g>
	</g>
	<g>
		<g>
			<path class="st4" d="M537.6,503.7l-5.6,65.5c-27.1-4.7-51-22.1-69.8-50.7c-3.6-5.4-6.6-10.8-9.2-15.8
				c20.8-6.9,40.4-16.4,58.4-28.1C517.6,486.1,526.6,498.7,537.6,503.7z"/>
			<path class="st2" d="M534.6,572.6l-3.1-0.5c-27.8-4.8-52.6-22.8-71.7-52c-3.3-5.1-6.5-10.5-9.4-16.1l-1.6-3l3.2-1.1
				c20.3-6.7,39.8-16.1,57.8-27.7l2.6-1.7l1.5,2.7c5.4,10,14.1,23,24.9,27.8l1.9,0.8L534.6,572.6z M457.1,504.3
				c2.4,4.4,4.9,8.6,7.5,12.6c17.5,26.7,39.8,43.5,64.8,48.9l5.1-60.4c-10.3-5.5-18.6-17-24.2-26.7
				C493.6,489.3,475.7,497.9,457.1,504.3z"/>
		</g>
	</g>
	<g>
		<g>
			<path class="st1" d="M310.5,583.6l-1.7,4.6c-0.1,0.2-0.1,0.4-0.2,0.5c-1.2,2.5-3.8,3.9-6.5,3.7c-0.5,0-1.1-0.2-1.6-0.4l-6.9-2.5
				c0,0,0,0,0,0l-59.9-22.2l-5-1.9l-0.5-0.2c-3.4-1.3-5.1-5-3.8-8.4l1.7-4.6c1.2-3.4,5-5.1,8.4-3.8l5.2,1.9l60.7,22.6l6.4,2.4
				C310,576.5,311.7,580.2,310.5,583.6z"/>
			<path class="st2" d="M302.7,594.7c-0.3,0-0.6,0-0.9,0c-0.7-0.1-1.4-0.2-2.2-0.5l-72.2-26.8c-4.6-1.7-6.9-6.8-5.2-11.3l1.7-4.6
				c0.8-2.2,2.4-4,4.6-4.9c2.1-1,4.5-1.1,6.7-0.2l72.2,26.8c4.6,1.7,6.9,6.8,5.2,11.3l0,0l-1.7,4.6c-0.1,0.3-0.2,0.6-0.4,0.8
				C309.2,592.8,306,594.7,302.7,594.7z M294,587.1l0.4,0.1l6.9,2.5c0.3,0.1,0.7,0.2,1,0.2c1.8,0.2,3.5-0.8,4.2-2.4
				c0.1-0.2,0.1-0.3,0.2-0.4l1.7-4.6c0.8-2.2-0.3-4.6-2.5-5.4l-72.2-26.8c-1-0.4-2.2-0.3-3.2,0.1c-1,0.5-1.8,1.3-2.2,2.3l-1.7,4.6
				c-0.8,2.2,0.3,4.6,2.5,5.4l5.5,2L294,587.1z"/>
		</g>
		<g>
			<path class="st1" d="M302,592.4l-19.2,51.5c-1.2,3.4-5,5.1-8.4,3.8l-112.9-42c-1.2-0.4-2.1-1.2-2.8-2.1c-1.4-1.7-1.8-4.1-1-6.3
				l0.5-1.3c7.4-20,29.9-30.3,49.9-22.8l15.5,5.8l5.1-13.7l64.8,24.1c0,0,0,0,0,0l6.9,2.5C300.9,592.2,301.5,592.3,302,592.4z"/>
			<path class="st2" d="M276.7,650.5c-1,0-2.1-0.2-3.1-0.6l-112.9-42c-1.5-0.6-2.8-1.5-3.8-2.8c-1.9-2.4-2.4-5.7-1.3-8.5l0.5-1.3
				c3.8-10.3,11.4-18.4,21.4-23c10-4.6,21.2-5,31.4-1.2l13.3,5l5.1-13.7l73.9,27.4c0.3,0.1,0.7,0.2,1,0.2l3,0.3L285,644.7
				c-0.8,2.2-2.4,4-4.6,4.9C279.2,650.2,278,650.5,276.7,650.5z M194.7,573.2c-5.2,0-10.4,1.1-15.2,3.4c-8.9,4.1-15.6,11.3-19,20.4
				l-0.5,1.3c-0.5,1.4-0.3,2.9,0.6,4.1c0.5,0.6,1.1,1.1,1.8,1.3l112.9,42c1,0.4,2.2,0.3,3.2-0.1c1-0.5,1.8-1.3,2.2-2.3l18.3-49.2
				l-68.9-25.6L225,582l-17.7-6.6C203.2,573.9,198.9,573.2,194.7,573.2z"/>
		</g>
	</g>
	<g>
		<g>
			<path class="st1" d="M555.8,500.8l-0.6,6.7l-5.3,62.7l-0.6,6.9l0,0.5c-0.3,3.6-3.5,6.2-7,5.9l-4.9-0.4c-3.6-0.3-6.2-3.5-5.9-7
				l0.6-6.8l5.6-65.5l0.4-4.4c0.3-3.6,3.5-6.2,7-5.9l4.9,0.4c3,0.3,5.4,2.6,5.9,5.4C555.8,499.7,555.9,500.2,555.8,500.8z"/>
			<path class="st2" d="M542.8,585.8c-0.3,0-0.5,0-0.8,0l-4.9-0.4c-4.8-0.4-8.5-4.7-8-9.5l6.5-76.7c0.2-2.3,1.3-4.5,3.1-6
				c1.8-1.5,4.1-2.2,6.4-2.1l4.9,0.4c4,0.3,7.3,3.3,7.9,7.3c0.1,0.7,0.2,1.5,0.1,2.2l-6.5,76.7C551.2,582.3,547.3,585.8,542.8,585.8
				z M544.5,495.6c-2.2,0-4,1.7-4.2,3.8l-6.5,76.8c-0.2,2.3,1.5,4.3,3.8,4.5l4.9,0.4c2.3,0.2,4.3-1.5,4.5-3.8l0.6-7.4l5.9-69.4
				c0-0.3,0-0.7,0-1c-0.3-1.9-1.9-3.4-3.8-3.5l-4.9-0.4C544.7,495.6,544.6,495.6,544.5,495.6z"/>
		</g>
		<g>
			<path class="st1" d="M616.5,510.9l-7.3,85.1l-3,34.8c-0.3,3.6-3.5,6.2-7,5.9l-1.4-0.1c-21.3-1.8-37.2-20.7-35.4-41.9l0.3-3
				l1.1-13.5l-14.6-1.2l6.5-76.2c0-0.6,0-1.1-0.1-1.6l54.8,4.7C614.1,504.1,616.8,507.3,616.5,510.9z"/>
			<path class="st2" d="M599.8,639.1c-0.3,0-0.5,0-0.8,0l-1.3-0.1c-10.9-0.9-20.8-6.1-27.9-14.5s-10.5-19-9.6-29.9l1.2-14.2
				l-14.6-1.2l6.7-78.5c0-0.4,0-0.7,0-1.1l-0.5-2.9l57.8,4.9c2.3,0.2,4.5,1.3,6,3.1c1.5,1.8,2.3,4.1,2,6.4l-10.2,120
				C608.1,635.6,604.3,639.1,599.8,639.1z M551.8,574.9l14.6,1.2l-1.6,18.8c-0.8,9.7,2.2,19.1,8.5,26.6s15.1,12,24.8,12.9l1.3,0.1
				c2.3,0.2,4.3-1.5,4.5-3.8l10.2-120c0.1-1.1-0.3-2.2-1-3.1c-0.7-0.9-1.7-1.4-2.8-1.5l-52.3-4.5L551.8,574.9z"/>
		</g>
	</g>
	<g>
		<path class="st1" d="M763,245.2l-0.7,1.5c-2.2,4.9-8,7.1-12.8,4.9l-11.9-5.3l-59.5-26.8l-9-4c-4.9-2.2-7.1-8-4.9-12.8l0.7-1.5
			c1.7-3.8,5.7-6,9.6-5.7c1.1,0.1,2.2,0.4,3.2,0.8l10.8,4.8l59,26.6l8.6,3.9l2.1,0.9C763,234.6,765.2,240.4,763,245.2z"/>
		<path class="st2" d="M753.5,254.7c-1.7,0-3.3-0.4-4.9-1.1l-80.4-36.2c-2.9-1.3-5.2-3.7-6.3-6.7c-1.1-3-1-6.3,0.3-9.2l0.7-1.5
			c2.1-4.6,6.9-7.4,11.9-7c1.4,0.1,2.7,0.4,4,1l80.4,36.2c6,2.7,8.7,9.9,6,15.9l-0.7,1.5c-1.3,2.9-3.7,5.2-6.7,6.3
			C756.4,254.5,754.9,254.7,753.5,254.7z M673.8,197.6c-2.9,0-5.6,1.7-6.8,4.4l-0.7,1.5c-0.8,1.8-0.9,3.8-0.2,5.7
			c0.7,1.9,2.1,3.3,3.9,4.1l80.4,36.2c1.8,0.8,3.8,0.9,5.7,0.2c1.9-0.7,3.3-2.1,4.1-3.9l0.7-1.5c1.7-3.7,0-8.1-3.7-9.8l-80.4-36.2
			c-0.8-0.4-1.6-0.6-2.4-0.6C674.2,197.6,674,197.6,673.8,197.6z"/>
	</g>
	<g>
		<path class="st1" d="M840.3,154.5l-35.6,30.5c-2.6,6.9-6.9,14.4-12.5,21.7c-12.1,15.6-26.8,25.3-36.1,24.7l-78.3-35.3
			c-1-0.5-2.1-0.7-3.2-0.8c-11.3-11.3-15.8-28.8-10.9-45.5L645.5,102c-3-7.9,1-16.7,8.9-19.7c3.9-1.5,8.1-1.2,11.7,0.4
			c3.6,1.6,6.5,4.6,8,8.5l6.8,18l4.4,11.7l0.2,0.7c0.2-0.1,0.3-0.2,0.5-0.3c1.8,0.9,4,1.4,6.2,1.2c4.6-0.3,8.4-3.1,9.9-6.7
			c0.4-0.1,0.5-1.3,0.9-1.3c0-1.2,0.4-1.4,0.7-2.6l12-50.5c1.9-8.2,10.2-13.3,18.4-11.3c1,0.2,1.9,0.5,2.7,0.9
			c6.5,2.9,10.3,10.2,8.6,17.5l-8.1,34.2l-1.7,7.1c0.6,0.8,1.4,1.5,2.4,1.9c1.3,0.6,2.7,0.7,4,0.4c0.3-1.2,0.7-2.5,1.3-3.6l1.6-3
			l22.2-43.1c3.8-7.5,13.1-10.4,20.6-6.6c7.2,3.7,10.2,12.5,6.9,19.9c-0.1,0.2-0.2,0.5-0.4,0.7l-21.8,42.3l-2,3.9
			c-0.3,0.5-0.6,1.1-0.9,1.5c0.1,1.7,1,3.2,2.4,3.9c1.1,0.5,2.4,0.4,3.5-0.1l3-3.5L804.4,94c5.5-6.4,15.2-7.1,21.5-1.7
			c5.3,4.5,6.7,11.9,4,17.9c-0.6,1.3-1.4,2.5-2.3,3.6l-28.3,33.1l-3.4,3.9c-0.6,2.4,0.5,4.8,2.6,5.7c0.6,0.3,1.3,0.4,1.9,0.4l5-4.3
			l19.1-16.4c5-4.3,12.7-3.7,17,1.3c3.1,3.7,3.7,8.7,1.8,12.8C842.8,151.9,841.7,153.4,840.3,154.5z"/>
		<path class="st2" d="M757,233.8c-0.4,0-0.7,0-1.1,0l-0.4,0l-0.4-0.2l-78.3-35.3c-0.8-0.3-1.6-0.6-2.4-0.6l-0.9-0.1l-0.6-0.6
			c-12-11.9-16.4-29.9-11.7-47l-17.9-47.2c-3.4-9.1,1.1-19.2,10.2-22.7c4.4-1.7,9.1-1.5,13.4,0.4c4.3,1.9,7.6,5.4,9.2,9.8l10.9,28.8
			c1.5,0.7,3.2,1,5,0.9c3.6-0.2,6.7-2.3,7.9-5.3l0.5-1.2l0.2,0c0,0,0-0.1,0-0.1c0.1-0.6,0.2-1.1,0.4-1.5c0.1-0.2,0.2-0.4,0.3-0.7
			l12-50.5c1.1-4.6,3.9-8.4,7.9-10.9c4-2.5,8.7-3.2,13.3-2.2c1.1,0.3,2.1,0.6,3.1,1.1c7.7,3.5,11.9,11.9,9.9,20.1l-9.5,40.1
			c0.3,0.2,0.5,0.4,0.8,0.5c0.4,0.2,0.8,0.3,1.2,0.3c0.3-0.9,0.6-1.7,1.1-2.5l23.8-46.2c2.1-4.2,5.8-7.2,10.3-8.7
			c4.5-1.4,9.2-1,13.4,1.1c8.3,4.3,11.8,14.3,8,22.9c-0.1,0.3-0.3,0.6-0.4,0.8l-23.8,46.2c-0.2,0.3-0.4,0.7-0.6,1
			c0.2,0.6,0.5,1,1,1.2c0.4,0.2,0.8,0.1,1.2,0.1l28.5-33.3c3-3.6,7.3-5.7,12-6.1c4.7-0.4,9.2,1.1,12.8,4.2c5.9,5,7.8,13.5,4.6,20.6
			c-0.7,1.5-1.6,2.9-2.7,4.2l-31.3,36.5c-0.1,1.1,0.5,2.2,1.4,2.6c0.1,0,0.2,0.1,0.3,0.1l23.4-20.1c6-5.2,15.1-4.5,20.3,1.5
			c3.6,4.2,4.5,10.2,2.2,15.3c-0.9,1.9-2.1,3.6-3.7,5l0,0l-35.1,30.1c-2.8,7.2-7.2,14.7-12.7,21.8
			C782.1,223.7,767.4,233.8,757,233.8z M756.7,229.2c0.1,0,0.3,0,0.4,0c8.8,0,22.4-9.6,33.3-23.8c5.3-6.9,9.6-14.2,12.2-21.1
			l0.2-0.5l36-30.9l0,0c1.1-0.9,1.9-2.1,2.5-3.4c1.6-3.5,1-7.5-1.5-10.4c-3.5-4.1-9.7-4.5-13.7-1l-24.8,21.2l-0.8,0
			c-1,0-2-0.2-3-0.6c-3.1-1.4-4.7-4.9-3.9-8.4l0.1-0.5l32-37.4c0.8-0.9,1.5-2,2-3.1c2.4-5.2,1-11.5-3.4-15.2c-2.6-2.2-6-3.3-9.4-3.1
			c-3.5,0.3-6.6,1.9-8.9,4.5L777,129.5l-0.5,0.2c-1.8,0.8-3.7,0.9-5.4,0.1c-2.2-1-3.6-3.2-3.8-5.8l0-0.8l0.4-0.6
			c0.3-0.4,0.5-0.8,0.8-1.3l23.8-46.2c0.1-0.2,0.2-0.4,0.3-0.6c2.8-6.3,0.3-13.7-5.9-16.9c-3.1-1.6-6.6-1.9-9.9-0.8
			c-3.3,1.1-6,3.3-7.6,6.4l-23.8,46.2c-0.5,1-0.9,2-1.1,3.1l-0.3,1.4l-1.4,0.3c-1.8,0.4-3.7,0.2-5.5-0.5c-1.3-0.6-2.5-1.5-3.3-2.6
			l-0.6-0.9l10.1-42.4c1.4-6-1.6-12.3-7.3-14.8c-0.7-0.3-1.5-0.6-2.3-0.8c-3.4-0.8-6.8-0.2-9.8,1.6c-3,1.8-5,4.7-5.8,8l-12,50.5
			c-0.2,0.7-0.3,1.1-0.5,1.4c-0.1,0.3-0.1,0.3-0.1,0.6l0,2.2l-1,0.1c-0.1,0.2-0.2,0.3-0.4,0.5c-2,4.3-6.5,7.3-11.6,7.6
			c-2.2,0.2-4.3-0.2-6.3-0.9l-1.8,1L672,92c-1.2-3.2-3.6-5.8-6.8-7.2c-3.2-1.4-6.7-1.5-9.9-0.3c-6.7,2.5-10.1,10-7.5,16.7l18.4,48.6
			l-0.2,0.7c-4.5,15.4-0.8,31.7,9.8,42.6c1.1,0.2,2.1,0.5,3.1,0.9L756.7,229.2z"/>
	</g>
	<g>
		<path class="st1" d="M106.4,532.3c-3.7,4.6-9.2,6.4-14.2,5.3c-2.3-0.5-4.6-1.7-6.5-3.5c-0.2-0.2-0.3-0.3-0.5-0.5
			c-11.6,7.2-25.8,10-40.2,6.9c-29.3-6.4-47.8-35.2-41.5-64.3c4.3-19.5,18.6-34.2,36.4-39.8l82.3,18c0.7,0.2,1.4,0.2,2.1,0.1
			c0.4,0.8,0.8,1.8,1.1,2.7C125.9,458.8,136.3,495.5,106.4,532.3z"/>
		<path class="st2" d="M56.7,544.1c-4.1,0-8.1-0.4-12.2-1.3c-14.7-3.2-27.4-12-35.5-24.6c-8.2-12.7-10.9-27.7-7.7-42.4
			c4.3-19.5,18.8-35.5,37.9-41.6l0.6-0.2l83,18.1c0.5,0.1,1,0.1,1.4,0.1l1.5-0.1l0.7,1.4c0.5,1,0.9,2,1.2,3.1
			c0.5,1.6,11.2,39.4-19.5,77.1l0,0c-4.1,5.1-10.5,7.5-16.5,6.1c-2.5-0.5-4.8-1.7-6.8-3.4C76.3,541.5,66.6,544.1,56.7,544.1z
			 M40.1,438.8c-17.3,5.7-30.4,20.2-34.3,38c-2.9,13.5-0.4,27.3,7.1,38.9c7.5,11.6,19.1,19.6,32.6,22.6c13.3,2.9,27,0.6,38.5-6.6
			l1.6-1l1.3,1.4c0.1,0.1,0.2,0.2,0.3,0.4c1.6,1.5,3.4,2.5,5.4,3c4.3,0.9,8.9-0.8,11.9-4.5l0,0c29.2-35.9,19.1-71.4,18.7-72.9
			c-0.1-0.4-0.2-0.7-0.4-1.1c-0.4,0-0.7-0.1-1.1-0.2L40.1,438.8z"/>
	</g>
	<g>
		<g>
			<path class="st2" d="M84.1,535.8c-6.8-6.5-7.2-18.1-1-25.7c5.7-7,9.6-14.6,11.6-22.6l4.5,1.1c-2.1,8.6-6.3,16.8-12.5,24.4
				c-4.7,5.8-4.5,14.6,0.6,19.5L84.1,535.8z"/>
		</g>
	</g>
	<g>
		<path class="st3" d="M408,343.8l-6.5,23.5l-32.4-4.9l-25.9-12.9l4-12.9l-0.8-17.8l-4-19.4l8.6-9.6c3.9,12.9,9.4,24.9,16.1,35.6
			c5,8,14,12.1,22.8,11.3c3.7-0.3,7.5-1.5,10.9-3.7c1.4-0.9,2.7-1.9,3.8-3L408,343.8z"/>
		<path class="st2" d="M403.2,369.8l-34.7-5.2l-28-14l4.5-14.4l-0.8-17.2l-4.2-20.4l12.1-13.5l1.2,3.9c3.9,12.8,9.3,24.6,15.9,35.1
			c4.4,7.1,12.4,11,20.7,10.3c3.5-0.3,6.8-1.4,9.8-3.3c1.3-0.8,2.4-1.7,3.5-2.7l2.9-2.8l4.4,18.2L403.2,369.8z M369.9,360.1l30,4.5
			l5.8-20.9l-2.3-9.6c-0.4,0.3-0.8,0.6-1.2,0.8c-3.6,2.3-7.7,3.6-11.9,4c-10,0.9-19.6-3.9-25-12.4c-6.2-9.8-11.2-20.6-15.1-32.3
			L345,300l3.9,18.6l0.8,18.2l-3.6,11.5L369.9,360.1z"/>
	</g>
	<g>
		<path class="st3" d="M345.1,262.6L345.1,262.6l-1.8,12.4l-6.5,9.7l-9.7-8.1l-6.5-10.5v-21l9.7,5.7l14.2,7.2
			C344.7,259.5,344.9,261,345.1,262.6z"/>
		<path class="st2" d="M337.3,288.1l-12-10l-7-11.4v-25.7l13.1,7.7l15.3,7.8l0.1,1.2c0.2,1.6,0.3,3,0.6,4.5l0,0.5l-1.9,13.1
			L337.3,288.1z M328.9,275.1l7.4,6.2l4.8-7.1l1.7-11.6c-0.1-1-0.3-2-0.4-3.1l-13.2-6.7l-6.2-3.6v16.4L328.9,275.1z"/>
	</g>
	<g>
		<path class="st3" d="M534.7,457.6c-7.4,6.1-15.2,11.8-23.3,17c-18,11.7-37.6,21.2-58.4,28.1c-12.5,4.1-25.4,7.4-38.8,9.6
			l-20.8-19.6l-12.9-12.1L378,453l-4-34l8.1-12.9l17.8-8.9l29.1-0.8v-30.7l12.9-3.2l21-3.2l16.2-2.4l12.1,6.5l8.9,24.3l12.1,14.6
			l4,12.9l7.3,17L534.7,457.6z"/>
		<path class="st2" d="M413.4,514.7l-21.6-20.4l-13.6-12.7l-2.5-28.4l-4.1-34.7l8.9-14.2l18.8-9.4l27.4-0.8v-30.3l14.9-3.7l21-3.2
			l16.9-2.5l13.6,7.2l9.1,24.7l12.2,14.6l4.1,13.3l18.9,44.2l-1.3,1.1c-7.5,6.1-15.4,11.9-23.5,17.2c-18.4,11.9-38.2,21.4-58.9,28.3
			c-12.7,4.2-25.9,7.5-39.1,9.7L413.4,514.7z M382.7,479.4l12.3,11.5l19.9,18.9c12.6-2.1,25.2-5.3,37.3-9.3
			c20.3-6.7,39.8-16.1,57.9-27.8c7.5-4.8,14.8-10.1,21.7-15.8l-17.7-41.3l-3.9-12.5l-12.1-14.5l-8.7-23.8l-10.7-5.7l-15.4,2.3
			l-20.9,3.2l-11.1,2.8v31.2l-30.9,0.9l-16.8,8.4l-7.3,11.7l3.9,33.2L382.7,479.4z"/>
	</g>
	<g>
		<polygon class="st3" points="364.3,450.5 361.9,469.1 354.6,471.6 353,459.4 354.6,446.5 362.7,445.7 		"/>
		<path class="st2" d="M352.7,474.6l-2-15.2l1.9-15.1l11.8-1.2l2.4,7.1l-2.7,20.6L352.7,474.6z M355.3,459.4l1.2,9.1l3.3-1.1
			l2.2-16.6l-0.9-2.6l-4.4,0.4L355.3,459.4z"/>
	</g>
	<g>
		<path class="st3" d="M231,179.2c-10.1-0.3-19.8,5.7-23.6,15.7c-4.4,11.6-7.4,24.2-8.8,37.3l-17.1-2.5l-18.6-22.6l3.2-12.1
			l12.9-19.4l51,2.4L231,179.2z"/>
		<path class="st2" d="M200.6,234.9l-20.3-3l-19.9-24.3L164,194l13.9-20.8l53.3,2.5l4.6,6l-4.8-0.2c-9.4-0.3-18,5.4-21.3,14.2
			c-4.3,11.4-7.3,23.7-8.7,36.7L200.6,234.9z M182.7,227.6l13.9,2.1c1.6-12.5,4.5-24.4,8.7-35.5c2.5-6.4,7.2-11.5,13.1-14.4
			l-38.1-1.8l-12,18l-2.8,10.6L182.7,227.6z"/>
	</g>
	<g>
		<path class="st7" d="M349.1,432.2c-12.3,0-23.1-1.9-30-5.4l2.6-5.1c7.9,4,22.5,5.7,38.1,4.3c11.6-1,22.4-3.5,30.3-7.1
			c6.7-3,10.7-6.6,10.4-9.4l5.7-0.5c0.3,3.9-1.8,9.7-13.8,15.1c-8.5,3.8-19.9,6.5-32.2,7.6C356.5,432.1,352.7,432.2,349.1,432.2z"/>
	</g>
	<path class="st7" d="M387.8,339.1c-9.2,0-17.7-4.7-22.6-12.5c-6.8-10.9-12.3-23-16.4-36.2c-2.7-8.8-4.7-18.1-6-27.5l0-0.2
		c-0.2-1.5-0.4-2.9-0.6-4.5c-0.2-1.4-0.3-2.8-0.4-4.2c-1.7-20-0.2-39.2,4.4-57.3c1.4-5.3,3-10.4,4.9-15.3
		c5.3-13.8,20.7-20.7,34.5-15.5c9.5,3.6,16,12.1,17.1,22.2c0.4,4.2-0.1,8.4-1.6,12.3c-1.2,3.3-2.3,6.7-3.2,10.1
		c-0.1,0.3-0.2,0.6-0.2,0.9v0.1l-0.1,0.3c-2.7,11.3-3.6,23.5-2.6,36.3l0.1,1.2c1.6,18.2,7,35.5,15.4,48.7c2.3,3.6,3.6,7.6,4,11.8
		c0.7,8.1-2.3,16.2-8.2,21.8c-1.3,1.2-2.7,2.3-4.2,3.3c-3.6,2.3-7.7,3.6-11.9,4C389.4,339,388.6,339.1,387.8,339.1z M347.4,262.4
		c1.2,9.1,3.2,18,5.8,26.6c3.9,12.8,9.3,24.6,15.9,35.1c4.4,7.1,12.4,11,20.7,10.3c3.5-0.3,6.8-1.4,9.8-3.3c1.3-0.8,2.4-1.7,3.5-2.7
		l0,0c4.9-4.6,7.4-11.4,6.8-18.1c-0.3-3.5-1.4-6.8-3.3-9.7c-8.7-13.8-14.4-31.9-16-50.8l-0.1-1.3c-1-13.2-0.1-25.8,2.7-37.6v-0.1
		l0.1-0.3c0.1-0.4,0.2-0.8,0.3-1.2c0.9-3.6,2-7.2,3.3-10.6c1.3-3.3,1.7-6.7,1.3-10.2c-0.9-8.3-6.3-15.4-14.1-18.4
		c-11.4-4.3-24.2,1.4-28.6,12.8c-1.8,4.7-3.4,9.7-4.7,14.8c-4.6,17.6-6,36.3-4.3,55.8c0.1,1.4,0.3,2.7,0.4,4.1
		c0.2,1.6,0.3,3.1,0.6,4.5L347.4,262.4z"/>
	<path class="st7" d="M241.9,351.8c-9.2,0-17.7-4.7-22.6-12.5c-12.9-20.6-21-45.7-23.4-72.5c-1-11.8-0.9-23.4,0.3-34.7
		c1.5-13.4,4.5-26.1,9-37.9c4.1-10.6,14.5-17.5,25.8-17.2c3,0.1,5.9,0.7,8.7,1.7c13.8,5.3,20.7,20.7,15.5,34.5
		c-5.5,14.3-7.5,31.2-6,48.9c1.6,18.2,7,35.5,15.4,48.7c7.8,12.5,4.1,29-8.4,36.9l0,0c-3.6,2.3-7.7,3.6-11.9,4
		C243.5,351.8,242.7,351.8,241.9,351.8z M230.2,181.5c-9.1,0-17.4,5.7-20.7,14.2c-4.3,11.4-7.3,23.7-8.7,36.7
		c-1.2,11-1.3,22.4-0.3,33.8c2.3,26.2,10.1,50.5,22.7,70.5c4.4,7.1,12.4,11,20.7,10.3c3.5-0.3,6.8-1.4,9.8-3.3l0,0
		c10.3-6.5,13.4-20.2,7-30.5c-8.7-13.8-14.4-31.9-16-50.8c-1.6-18.4,0.6-36,6.3-51c4.3-11.4-1.4-24.2-12.8-28.6
		c-2.3-0.9-4.7-1.4-7.2-1.4C230.7,181.5,230.5,181.5,230.2,181.5z"/>
</g>
</svg>
