<?xml version="1.0" encoding="utf-8"?>
<!-- Generator: Adobe Illustrator 22.0.1, SVG Export Plug-In . SVG Version: 6.00 Build 0)  -->
<svg version="1.1" id="Ebene_1" xmlns="http://www.w3.org/2000/svg" xmlns:xlink="http://www.w3.org/1999/xlink" x="0px" y="0px"
	 viewBox="0 0 1690.5 514" style="enable-background:new 0 0 1690.5 514;" xml:space="preserve">
<style type="text/css">
	.st0{fill:#253654;}
	.st1{fill:#4E789B;}
	.st2{fill:#2C1451;}
	.st3{fill:#CCCCCC;}
	.st4{fill:#F58219;}
</style>
<g>
	<g>
		<rect x="2" y="2" class="st0" width="385.5" height="132"/>
		<path class="st1" d="M389.5,136H0V0h389.5V136z M4,132h381.5V4H4V132z"/>
	</g>
	<g>
		<rect x="2" y="380" class="st0" width="385.5" height="132"/>
		<path class="st1" d="M389.5,514H0V378h389.5V514z M4,510h381.5V382H4V510z"/>
	</g>
	<g>
		<rect x="1303" y="192" class="st2" width="385.5" height="132"/>
		<path class="st1" d="M1690.5,326H1301V190h389.5V326z M1305,322h381.5V194H1305V322z"/>
	</g>
	<g>
		<rect x="508.5" y="194" class="st2" width="516.4" height="132"/>
		<path class="st1" d="M1026.9,328H506.5V192h520.4V328z M510.5,324h512.4V196H510.5V324z"/>
	</g>
	<g>
		<path class="st3" d="M604,226.7h21.3c10.1,0,15.2,5,15.2,15.1c0,3.5-0.8,6.4-2.4,8.7c-1.6,2.3-3.6,3.8-6,4.5
			c2.7,0.6,5.1,2.1,7.2,4.4c2.1,2.3,3.2,5.6,3.2,9.8c0,6-1.4,10.2-4.2,12.6c-2.8,2.5-6.9,3.7-12.3,3.7H604V226.7z M625.7,252.8
			c2.6,0,4.7-1,6.3-2.9c1.6-1.9,2.4-4.5,2.4-7.8c0-6.4-3-9.6-9.1-9.6h-14.9v20.3H625.7z M625.9,279.9c3.4,0,6-0.9,7.8-2.6
			c1.8-1.7,2.7-4.7,2.7-9.1c0-3.2-1-5.7-3-7.6c-2-1.9-4.5-2.8-7.6-2.8h-15.5v22.1H625.9z"/>
		<path class="st3" d="M669,285.6c-2.4-0.1-4.6-0.8-6.6-2.4c-2-1.5-3.5-4.1-4.6-7.6l-10.2-32.7h6.6l9.5,31.4
			c1.3,3.9,3.5,5.9,6.6,5.9l11-37.3h6.5l-15.6,53.8l-3.7,7.9h-5L669,285.6z"/>
		<path class="st3" d="M700.3,282.3c-2-2.2-2.9-5.7-2.8-10.6l0.2-23.7h-6.8V244l6.9-1.1l1-11.9h4.9v11.9h12.3v5.2h-12.3v23.7
			c0,3.3,0.6,5.5,1.8,6.7c1.2,1.2,2.8,1.9,4.6,2l5.2,0.5v4.6h-5.8C705.4,285.6,702.3,284.5,700.3,282.3z"/>
		<path class="st3" d="M730.4,284.1c-2.5-1.3-4.4-3.6-5.5-6.7c-1.1-3.1-1.7-7.5-1.7-13.2c0-5.7,0.6-10.1,1.7-13.3
			c1.1-3.1,3-5.4,5.6-6.6c2.6-1.3,6.1-1.9,10.6-1.9c3.9,0,7,0.4,9.4,1.3c2.3,0.9,4.1,2.3,5.2,4.4c1.1,2.1,1.7,4.9,1.7,8.5
			c0,3.6-1.1,6.3-3.2,7.9c-2.1,1.6-5.1,2.4-9,2.4h-15.7c0.1,3.7,0.4,6.5,1.1,8.5c0.7,2,2,3.5,3.8,4.4c1.9,0.9,4.6,1.4,8.1,1.4h13.8
			v3.8c-2.9,0.4-5.4,0.7-7.7,0.8c-2.2,0.2-4.8,0.3-7.6,0.3C736.5,286.1,733,285.4,730.4,284.1z M744.7,262.6c2.5,0,4.2-0.5,5.4-1.4
			c1.1-0.9,1.7-2.5,1.7-4.7c0-3.6-0.8-6-2.4-7.4c-1.6-1.4-4.3-2-8.2-2c-3.1,0-5.5,0.5-7.1,1.4c-1.7,0.9-2.8,2.5-3.5,4.6
			c-0.7,2.2-1,5.4-1,9.5H744.7z"/>
		<path class="st3" d="M771,281.3c-3-3.2-4.4-8.8-4.4-17c0-5.7,0.7-10.2,2-13.4c1.4-3.2,3.3-5.4,5.8-6.7c2.5-1.3,5.6-1.9,9.4-1.9
			c5.1,0,9.8,0.4,14.2,1.1v3.8h-12.5c-2.9,0-5.3,0.5-7.1,1.4c-1.8,1-3.1,2.7-4.1,5.2c-0.9,2.5-1.4,6-1.4,10.6
			c0,4.4,0.5,7.8,1.5,10.2c1,2.4,2.4,4.1,4.2,5c1.8,0.9,4.1,1.4,7,1.4h13v3.7c-5,0.9-10,1.3-15,1.3
			C778.1,286.1,773.9,284.5,771,281.3z"/>
		<path class="st3" d="M813.7,284.2c-2.7-1.2-4.7-3.4-6-6.6c-1.3-3.2-2-7.7-2-13.5c0-5.9,0.7-10.4,2-13.6c1.3-3.2,3.3-5.3,5.9-6.5
			c2.6-1.2,6.1-1.8,10.6-1.8c4.4,0,7.9,0.6,10.6,1.8c2.7,1.2,4.7,3.4,6,6.6c1.3,3.2,2,7.7,2,13.5c0,5.8-0.7,10.3-2,13.5
			c-1.3,3.2-3.3,5.4-6,6.6c-2.6,1.2-6.2,1.8-10.6,1.8C819.8,286.1,816.3,285.5,813.7,284.2z M831.1,279.7c1.7-0.8,3-2.4,3.9-4.8
			c0.9-2.4,1.4-6,1.4-10.8c0-4.8-0.4-8.4-1.3-10.8c-0.9-2.4-2.2-3.9-3.9-4.7c-1.7-0.8-4-1.2-7-1.2c-3,0-5.3,0.4-7,1.2
			c-1.7,0.8-3,2.3-3.8,4.7c-0.9,2.4-1.3,6-1.3,10.8c0,4.8,0.4,8.4,1.3,10.8c0.9,2.4,2.2,4,3.8,4.8c1.7,0.8,4,1.2,7,1.2
			C827.2,280.9,829.5,280.5,831.1,279.7z"/>
		<path class="st3" d="M855.6,280.9c-2.5-3.5-3.7-8.9-3.7-16.3c0-5.3,0.5-9.6,1.6-12.9c1.1-3.3,2.8-5.6,5.1-7.1
			c2.3-1.5,5.5-2.2,9.4-2.2c4.1,0,8.4,0.9,13.1,2.6v-20.3h6.3v61h-5.1l-1.2-4.3c-1.3,1.1-3.3,2.2-6.2,3.2c-2.8,1-5.4,1.6-7.8,1.6
			C862,286.1,858.1,284.3,855.6,280.9z M875.3,279.9c1.9-0.7,3.9-1.5,5.9-2.6v-27.9c-2.5-0.7-4.5-1.3-6.1-1.6
			c-1.6-0.3-3.3-0.5-5.3-0.5c-2.8,0-5.1,0.5-6.7,1.6c-1.7,1-2.9,2.8-3.6,5.2c-0.8,2.5-1.2,5.9-1.2,10.2c0,6,0.8,10.2,2.5,12.8
			c1.7,2.5,4.5,3.8,8.4,3.8C871.3,280.9,873.4,280.5,875.3,279.9z"/>
		<path class="st3" d="M905.1,284.1c-2.5-1.3-4.4-3.6-5.5-6.7c-1.1-3.1-1.7-7.5-1.7-13.2c0-5.7,0.6-10.1,1.7-13.3
			c1.1-3.1,3-5.4,5.6-6.6c2.6-1.3,6.1-1.9,10.6-1.9c3.9,0,7,0.4,9.4,1.3c2.3,0.9,4.1,2.3,5.2,4.4c1.1,2.1,1.7,4.9,1.7,8.5
			c0,3.6-1.1,6.3-3.2,7.9c-2.1,1.6-5.1,2.4-9,2.4h-15.7c0.1,3.7,0.4,6.5,1.1,8.5c0.7,2,2,3.5,3.8,4.4c1.9,0.9,4.6,1.4,8.1,1.4H931
			v3.8c-2.9,0.4-5.4,0.7-7.7,0.8c-2.2,0.2-4.8,0.3-7.6,0.3C911.1,286.1,907.6,285.4,905.1,284.1z M919.3,262.6
			c2.5,0,4.2-0.5,5.4-1.4c1.1-0.9,1.7-2.5,1.7-4.7c0-3.6-0.8-6-2.4-7.4c-1.6-1.4-4.3-2-8.2-2c-3.1,0-5.5,0.5-7.1,1.4
			c-1.7,0.9-2.8,2.5-3.5,4.6c-0.7,2.2-1,5.4-1,9.5H919.3z"/>
	</g>
	<g>
		<path class="st3" d="M1427,286.6c-1.7-0.3-3.1-0.8-4.2-1.3v-4.9c3.3,0.7,5.9,1,7.8,1c2.7,0,4.8-0.6,6.2-1.8
			c1.4-1.2,2.1-3.4,2.1-6.6v-45.2h6.3v46c0,4.8-1.1,8.2-3.2,10.3c-2.2,2.1-5.5,3.1-10.1,3.1C1430.3,287.1,1428.7,286.9,1427,286.6z"
			/>
		<path class="st3" d="M1454.1,227.7h6.6l17.8,52.2l17.7-52.2h6.5l-20.2,58.9h-8.2L1454.1,227.7z"/>
		<path class="st3" d="M1559,286.6l-5.6-48.9l-14.2,48.9h-5.8l-14.4-48.5l-5.4,48.5h-6.2l6.7-58.9h6.5l15.7,50.9l15.4-50.9h6.6
			l6.9,58.9H1559z"/>
	</g>
	<g>
		<path class="st3" d="M120.9,94c-1.7-0.3-3.1-0.8-4.2-1.3v-4.9c3.3,0.7,5.9,1,7.8,1c2.7,0,4.8-0.6,6.2-1.8c1.4-1.2,2.1-3.4,2.1-6.6
			V35.2h6.3v46c0,4.8-1.1,8.2-3.2,10.3c-2.2,2.1-5.5,3.1-10.1,3.1C124.2,94.6,122.6,94.4,120.9,94z"/>
		<path class="st3" d="M151.9,91.7c-2-1.9-3-4.5-3-7.8v-3c0-3.5,1.1-6.2,3.4-8.2c2.3-2,5.6-3,10-3h14.5v-5.3c0-2.9-0.8-5-2.4-6.4
			c-1.6-1.4-4.5-2.1-8.7-2.1h-13.3V52c5-0.9,10.2-1.3,15.6-1.3c5.2,0,9,1.1,11.4,3.2c2.4,2.1,3.6,5.5,3.6,10v30.2h-4.9l-1.2-4.9
			c-0.4,0.3-1.5,0.9-3.5,1.8c-1.9,0.9-4.2,1.7-6.7,2.4c-2.5,0.7-4.9,1.1-7.1,1.1C156.5,94.6,153.9,93.6,151.9,91.7z M167.8,89
			c2.1-0.5,4-1.1,5.6-1.7c1.7-0.6,2.8-1,3.3-1.2V72.7l-13,0.6c-2.9,0.1-5.1,0.8-6.4,2.2c-1.4,1.3-2,3.1-2,5.4v1.9
			c0,2.5,0.7,4.2,2.1,5.4c1.4,1.1,3.1,1.7,5.2,1.7C164,89.8,165.7,89.6,167.8,89z"/>
		<path class="st3" d="M190.4,51.4h6.5l13.3,36.8l13.7-36.8h6.4l-16.6,42.7h-7.2L190.4,51.4z"/>
		<path class="st3" d="M236.8,91.7c-2-1.9-3-4.5-3-7.8v-3c0-3.5,1.1-6.2,3.4-8.2c2.3-2,5.6-3,10-3h14.5v-5.3c0-2.9-0.8-5-2.4-6.4
			c-1.6-1.4-4.5-2.1-8.7-2.1h-13.3V52c5-0.9,10.2-1.3,15.6-1.3c5.2,0,9,1.1,11.4,3.2c2.4,2.1,3.6,5.5,3.6,10v30.2h-4.9l-1.2-4.9
			c-0.4,0.3-1.5,0.9-3.5,1.8c-1.9,0.9-4.2,1.7-6.7,2.4c-2.5,0.7-4.9,1.1-7.1,1.1C241.4,94.6,238.8,93.6,236.8,91.7z M252.7,89
			c2.1-0.5,4-1.1,5.6-1.7c1.7-0.6,2.8-1,3.3-1.2V72.7l-13,0.6c-2.9,0.1-5.1,0.8-6.4,2.2c-1.4,1.3-2,3.1-2,5.4v1.9
			c0,2.5,0.7,4.2,2.1,5.4c1.4,1.1,3.1,1.7,5.2,1.7C248.8,89.8,250.6,89.6,252.7,89z"/>
	</g>
	<g>
		<path class="st3" d="M94.7,414.2h6.4v26.6h10.3l16.2-26.6h6.7l-17.8,29.4l18.1,29.4h-6.8l-16.3-26.5h-10.3v26.5h-6.4V414.2z"/>
		<path class="st3" d="M147.4,471.8c-2.7-1.2-4.7-3.4-6-6.6c-1.3-3.2-2-7.7-2-13.5c0-5.9,0.7-10.4,2-13.6c1.3-3.2,3.3-5.3,5.9-6.5
			c2.6-1.2,6.1-1.8,10.6-1.8c4.4,0,7.9,0.6,10.6,1.8c2.7,1.2,4.7,3.4,6,6.6c1.3,3.2,2,7.7,2,13.5c0,5.8-0.7,10.3-2,13.5
			c-1.3,3.2-3.3,5.4-6,6.6c-2.6,1.2-6.2,1.8-10.6,1.8C153.6,473.6,150.1,473,147.4,471.8z M164.9,467.2c1.7-0.8,3-2.4,3.9-4.8
			c0.9-2.4,1.4-6,1.4-10.8s-0.4-8.4-1.3-10.8c-0.9-2.4-2.2-3.9-3.9-4.7c-1.7-0.8-4-1.2-7-1.2c-3,0-5.3,0.4-7,1.2
			c-1.7,0.8-3,2.3-3.8,4.7c-0.9,2.4-1.3,6-1.3,10.8s0.4,8.4,1.3,10.8c0.9,2.4,2.2,4,3.8,4.8c1.7,0.8,4,1.2,7,1.2
			C160.9,468.4,163.2,468,164.9,467.2z"/>
		<path class="st3" d="M192,469.9c-2-2.2-2.9-5.7-2.8-10.6l0.2-23.7h-6.8v-4.1l6.9-1.1l1-11.9h4.9v11.9h12.3v5.2h-12.3v23.7
			c0,3.3,0.6,5.5,1.8,6.7c1.2,1.2,2.8,1.9,4.6,2l5.2,0.5v4.6h-5.8C197.1,473.1,194,472,192,469.9z"/>
		<path class="st3" d="M219.3,470.1c-1.8-2.1-2.8-5.6-2.8-10.6v-47.4h6.3v46.6c0,3.5,0.5,5.9,1.4,7.2s2.5,2.1,4.6,2.3l4.3,0.5v4.6
			h-5.4C223.9,473.2,221.1,472.2,219.3,470.1z"/>
		<path class="st3" d="M240.1,422.4c-0.2-0.2-0.4-0.5-0.4-0.9v-6.2c0-0.9,0.4-1.3,1.3-1.3h4.5c0.8,0,1.2,0.4,1.2,1.3v6.2
			c0,0.9-0.4,1.3-1.2,1.3H241C240.6,422.8,240.3,422.7,240.1,422.4z M240,430.4h6.3v42.7H240V430.4z"/>
		<path class="st3" d="M258.5,430.4h5l1.4,4.7c2.2-1.5,4.7-2.8,7.4-3.9c2.7-1,5.4-1.6,8.2-1.6c4.4,0,7.7,1.4,9.9,4.1
			c2.2,2.7,3.3,6.2,3.3,10.3v29h-6.3v-28.3c0-2.8-0.8-5-2.4-6.8c-1.6-1.7-3.7-2.6-6.5-2.6c-2.6,0-4.8,0.3-6.8,1
			c-2,0.7-4.3,1.7-6.8,3.2v33.5h-6.3V430.4z"/>
	</g>
	<g>
		<path class="st4" d="M714.6,157.5c-1.7,0-3-1.3-3-3V78H443c-1.7,0-3-1.3-3-3s1.3-3,3-3h271.7c1.7,0,3,1.3,3,3v79.5
			C717.6,156.1,716.3,157.5,714.6,157.5z"/>
	</g>
	<g>
		<path class="st4" d="M714.6,447.5H443c-1.7,0-3-1.3-3-3s1.3-3,3-3h268.7V365c0-1.7,1.3-3,3-3s3,1.3,3,3v79.5
			C717.6,446.1,716.3,447.5,714.6,447.5z"/>
	</g>
	<g>
		<path class="st4" d="M1268.4,267.5h-212.5c-1.7,0-3-1.3-3-3s1.3-3,3-3h212.5c1.7,0,3,1.3,3,3S1270.1,267.5,1268.4,267.5z"/>
	</g>
	<g>
		<path class="st4" d="M721.1,156.6l16.2-28c3-5.1-0.7-11.5-6.6-11.5h-32.3c-5.9,0-9.6,6.4-6.6,11.5l16.2,28
			C710.7,161.8,718.1,161.8,721.1,156.6z"/>
	</g>
	<g>
		<path class="st4" d="M1272.9,257.5l-28-16.2c-5.1-3-11.5,0.7-11.5,6.6v32.3c0,5.9,6.4,9.6,11.5,6.6l28-16.2
			C1278,267.8,1278,260.5,1272.9,257.5z"/>
	</g>
	<g>
		<path class="st4" d="M707.8,362.6l-16.2,28c-3,5.1,0.7,11.5,6.6,11.5h32.3c5.9,0,9.6-6.4,6.6-11.5l-16.2-28
			C718.1,357.5,710.7,357.5,707.8,362.6z"/>
	</g>
</g>
</svg>
